<svg width="21" height="20" viewBox="0 0 21 20" fill="none" xmlns="http://www.w3.org/2000/svg">
<path d="M13.7364 6.32985L18.726 7.06596C19.1392 7.12499 19.4864 7.41665 19.6183 7.81596C19.7503 8.21874 19.6426 8.65624 19.344 8.95485L15.726 12.5035L16.5801 17.5937C16.6496 18.0104 16.4795 18.434 16.1322 18.6805C15.7885 18.9271 15.3336 18.9583 14.9621 18.7604L10.5038 16.3819L6.04889 18.7604C5.67389 18.9583 5.21903 18.9271 4.87528 18.6805C4.53153 18.434 4.35792 18.0104 4.43084 17.5937L5.28501 12.5035L1.66626 8.95485C1.3673 8.65624 1.26105 8.21874 1.3923 7.81596C1.5232 7.41665 1.86938 7.12499 2.2857 7.06596L7.27112 6.32985L9.50723 1.73506C9.69126 1.35256 10.0801 1.10974 10.5038 1.10974C10.9308 1.10974 11.3197 1.35256 11.5038 1.73506L13.7364 6.32985Z" fill="#030303"/>
</svg>
