<svg width="18" height="18" viewBox="0 0 18 18" fill="none" xmlns="http://www.w3.org/2000/svg">
<path d="M17.8781 3.57437C17.7968 3.23719 17.4937 3 17.1468 3H13.9968C14.0044 2.61094 14.0002 2.25937 13.992 1.96812C13.9781 1.42594 13.5375 1 12.9937 1H5.00622C4.46247 1 4.02184 1.42594 4.00622 1.96812C3.97184 2.25937 3.99372 2.61094 4.00309 3H0.85184C0.504965 3 0.204246 3.23719 0.122215 3.57437C0.09684 3.68062 -0.490973 6.225 1.1584 8.68437C2.3284 10.4288 4.30215 11.6541 7.01778 12.3531C7.60215 12.5033 7.99934 13.0425 7.99934 13.6459C7.99997 14.3906 7.39059 15 6.64372 15H6.49997C5.67153 15 5.00028 15.6716 5.00028 16.5C5.00028 16.7761 5.22412 17 5.47215 17H12.444C12.7202 17 12.9159 16.7761 12.9159 16.5C12.9159 15.6716 12.2447 15 11.4162 15H11.2711C10.5255 15 9.91609 14.3906 9.91609 13.6453C9.91609 13.0419 10.3133 12.5025 10.8977 12.3525C13.6152 11.6544 15.5883 10.4291 16.757 8.68375C18.4906 6.225 17.9031 3.68062 17.8781 3.57437ZM2.41903 7.86875C1.5459 6.58125 1.46903 5.24062 1.51184 4.5H4.02403C4.1915 6.36312 4.65997 8.59688 5.82622 10.4094C4.29372 9.8 3.15309 8.95 2.41903 7.86875ZM15.5812 7.86875C14.8487 8.95 13.7081 9.79844 12.175 10.4069C13.3406 8.59687 13.8093 6.3625 13.975 4.5H16.4872C16.5031 5.24062 16.4531 6.58438 15.5812 7.86875Z" fill="white"/>
</svg>
