<svg width="20" height="20" viewBox="0 0 20 20" fill="none" xmlns="http://www.w3.org/2000/svg">
<path d="M13.2364 6.32986L18.226 7.06598C18.6392 7.125 18.9864 7.41667 19.1183 7.81598C19.2503 8.21875 19.1426 8.65625 18.844 8.95486L15.226 12.5035L16.0801 17.5938C16.1496 18.0104 15.9795 18.434 15.6322 18.6806C15.2885 18.9271 14.8336 18.9583 14.4621 18.7604L10.0038 16.3819L5.54889 18.7604C5.17389 18.9583 4.71903 18.9271 4.37528 18.6806C4.03153 18.434 3.85792 18.0104 3.93084 17.5938L4.78501 12.5035L1.16626 8.95486C0.867298 8.65625 0.761048 8.21875 0.892298 7.81598C1.0232 7.41667 1.36938 7.125 1.7857 7.06598L6.77112 6.32986L9.00723 1.73507C9.19126 1.35257 9.58015 1.10976 10.0038 1.10976C10.4308 1.10976 10.8197 1.35257 11.0038 1.73507L13.2364 6.32986Z" fill="#030303"/>
</svg>
