<svg width="21" height="21" viewBox="0 0 21 21" fill="none" xmlns="http://www.w3.org/2000/svg">
<g clip-path="url(#clip0_34_388)">
<path d="M14.5 4.5H6.5C3.18625 4.5 0.5 7.15937 0.5 10.5C0.5 13.8406 3.18625 16.5 6.5 16.5H14.5C17.8125 16.5 20.5 13.8138 20.5 10.5C20.5 7.18625 17.8125 4.5 14.5 4.5ZM8.22188 11.25H7.22188V12.25C7.22188 12.6625 6.885 13 6.4725 13C6.06 13 5.72188 12.6625 5.72188 12.25V11.25L4.75 11.2219C4.3375 11.2219 3.97187 10.9125 3.97187 10.5C3.97187 10.0875 4.31094 9.74969 4.72344 9.74969L5.72188 9.75V8.75C5.72188 8.3375 6.06 8 6.4725 8C6.885 8 7.22188 8.3375 7.22188 8.75V9.75H8.22188C8.63438 9.75 8.9725 10.0875 8.9725 10.5C8.97187 10.9125 8.6625 11.25 8.22188 11.25ZM13.9719 13.25C13.2806 13.25 12.75 12.6916 12.75 12.0281C12.75 11.3647 13.3084 10.7781 13.9719 10.7781C14.6353 10.7781 15.1938 11.3369 15.1938 12.0281C15.1938 12.7194 14.6906 13.25 13.9719 13.25ZM15.9719 10.25C15.2806 10.25 14.75 9.69156 14.75 9.02812C14.75 8.36469 15.3084 7.77812 15.9719 7.77812C16.6631 7.77812 17.1938 8.33687 17.1938 9.02812C17.1938 9.71937 16.6906 10.25 15.9719 10.25Z" fill="white"/>
</g>
<defs>
<clipPath id="clip0_34_388">
<rect width="20" height="20" fill="white" transform="translate(0.5 0.5)"/>
</clipPath>
</defs>
</svg>
