<svg width="20" height="20" viewBox="0 0 20 20" fill="none" xmlns="http://www.w3.org/2000/svg">
<path d="M12.5 2.60391C13.707 2.80625 14.8125 3.29648 15.75 4C16.3047 4.41406 16.4141 5.19922 16 5.75C15.5508 6.30469 14.8008 6.41406 14.25 6C13.7344 5.61328 13.1406 5.32422 12.5 5.15625V14.8086C13.1406 14.6758 13.7344 14.3867 14.25 14C14.8008 13.5859 15.5508 13.6953 16 14.25C16.4141 14.8008 16.3047 15.5508 15.75 16C14.8125 16.7031 13.707 17.1953 12.5 17.3945V18.75C12.5 19.4414 11.9414 20 11.25 20C10.5586 20 10 19.4414 10 18.75V17.3945C6.45273 16.8008 3.75 13.7148 3.75 10C3.75 6.28516 6.45273 3.19883 10 2.60352V1.25C10 0.559766 10.5586 0 11.25 0C11.9414 0 12.5 0.559766 12.5 1.25V2.60391ZM10 5.15625C7.84375 5.71094 6.25 7.67188 6.25 9.96484C6.25 12.3281 7.84375 14.2891 10 14.8086V5.15625Z" fill="#030303"/>
</svg>
