<svg width="18" height="18" viewBox="0 0 18 18" fill="none" xmlns="http://www.w3.org/2000/svg">
<path d="M5.34375 9C5.34375 10.0863 4.46238 10.9688 3.375 10.9688C2.28762 10.9688 1.40625 10.0863 1.40625 9C1.40625 7.91367 2.28762 7.03125 3.375 7.03125C4.46238 7.03125 5.34375 7.91367 5.34375 9ZM10.9688 9C10.9688 10.0863 10.0863 10.9688 9 10.9688C7.91367 10.9688 7.03125 10.0863 7.03125 9C7.03125 7.91367 7.91367 7.03125 9 7.03125C10.0863 7.03125 10.9688 7.91367 10.9688 9ZM12.6562 9C12.6562 7.91367 13.5387 7.03125 14.625 7.03125C15.7113 7.03125 16.5938 7.91367 16.5938 9C16.5938 10.0863 15.7113 10.9688 14.625 10.9688C13.5387 10.9688 12.6562 10.0863 12.6562 9Z" fill="white"/>
</svg>
