<svg width="18" height="18" viewBox="0 0 18 18" fill="none" xmlns="http://www.w3.org/2000/svg">
<g clip-path="url(#clip0_3_3259)">
<path d="M16.875 6.31406C17.5289 6.62343 18 7.45664 18 8.4375C18 9.41835 17.5289 10.2516 16.875 10.5609V15.75C16.875 16.2035 16.6008 16.6148 16.1789 16.7906C15.7605 16.9629 15.2754 16.868 14.9555 16.5445L13.4191 14.9801C11.7316 13.2926 9.44297 12.375 7.05586 12.375H6.75V16.875C6.75 17.4973 6.24727 18 5.625 18H3.375C2.75379 18 2.25 17.4973 2.25 16.875V12.375C1.00723 12.375 0 11.366 0 10.125V6.75C0 5.50898 1.00723 4.5 2.25 4.5H7.05586C9.44297 4.5 11.7316 3.55078 13.4191 1.86398L14.9555 0.329515C15.2754 0.00778307 15.7605 -0.0884572 16.1789 0.0856717C16.6008 0.259801 16.875 0.670074 16.875 1.125V6.31406ZM7.05586 6.75H6.75V10.125H7.05586C9.86133 10.125 12.5578 11.1727 14.625 13.0535V3.82148C12.5578 5.70234 9.86133 6.75 7.05586 6.75Z" fill="white"/>
</g>
<defs>
<clipPath id="clip0_3_3259">
<rect width="18" height="18" fill="white"/>
</clipPath>
</defs>
</svg>
