<svg width="18" height="18" viewBox="0 0 18 18" fill="none" xmlns="http://www.w3.org/2000/svg">
<g clip-path="url(#clip0_3_3257)">
<path d="M15.7187 1.125H2.21868C1.00719 1.125 0 2.13223 0 3.375V14.625C0 15.8678 1.00723 16.875 2.21836 16.875H15.7184C16.9611 16.875 17.9684 15.8678 17.9684 14.625V3.375C17.9687 2.13223 16.9913 1.125 15.7187 1.125ZM3.90618 3.375C4.83817 3.375 5.59368 4.13051 5.59368 5.0625C5.59368 5.99449 4.86946 6.75 3.90618 6.75C2.9429 6.75 2.21868 5.99449 2.21868 5.0625C2.21868 4.13051 3.00548 3.375 3.90618 3.375ZM15.6835 14.3297C15.5851 14.5125 15.3952 14.625 15.1878 14.625H2.88348C2.67181 14.625 2.47813 14.5062 2.38216 14.3174C2.28618 14.1287 2.30428 13.9022 2.42905 13.731L4.88999 10.356C4.99602 10.2094 5.16477 10.125 5.34407 10.125C5.52337 10.125 5.69268 10.2108 5.79864 10.3561L6.93981 11.9209L10.2199 7.03069C10.3257 6.84492 10.5015 6.75 10.6878 6.75C10.8741 6.75 11.0517 6.84394 11.1557 7.00049L15.6557 13.7505C15.7714 13.9219 15.782 14.1434 15.6835 14.3297Z" fill="white"/>
</g>
<defs>
<clipPath id="clip0_3_3257">
<rect width="18" height="18" fill="white"/>
</clipPath>
</defs>
</svg>
