<svg width="20" height="20" viewBox="0 0 20 20" fill="none" xmlns="http://www.w3.org/2000/svg">
<path d="M9.99687 12C11.7909 12 13.2188 10.545 13.2188 8.75C13.2188 6.955 11.7644 5.5 9.99687 5.5C8.20281 5.5 6.775 6.955 6.775 8.75C6.74688 10.5437 8.20312 12 9.99687 12ZM11.5594 13H8.44063C5.9875 13 4 14.8656 4 17.1656C4 17.6281 4.39687 18 4.8875 18H15.1125C15.6031 18 16 17.6281 16 17.1656C16 14.8656 14.0125 13 11.5594 13ZM16 7C17.3806 7 18.5 5.88063 18.5 4.5C18.5 3.11937 17.3813 2 16 2C14.6194 2 13.5 3.11937 13.5 4.5C13.5 5.88063 14.6187 7 16 7ZM5.74687 8.75C5.74687 8.57972 5.77758 8.41781 5.79716 8.25281C5.45625 8.06562 5.08125 8 4.68437 8H2.7525C1.2325 8 0 9.30625 0 10.9156C0 11.2375 0.246469 11.5 0.550625 11.5H6.785C6.14687 10.7563 5.74687 9.80312 5.74687 8.75ZM4 7C5.38062 7 6.5 5.88063 6.5 4.5C6.5 3.11937 5.38125 2 4 2C2.61937 2 1.5 3.11937 1.5 4.5C1.5 5.88063 2.61937 7 4 7ZM17.2469 8H15.3144C14.9144 8 14.5369 8.09491 14.1938 8.2575C14.2125 8.42188 14.2437 8.58125 14.2437 8.75C14.2437 9.80344 13.8444 10.7566 13.2075 11.5H19.4481C19.7531 11.5 20 11.2375 20 10.9156C20 9.30625 18.7688 8 17.2469 8Z" fill="white"/>
</svg>
