<svg width="21" height="20" viewBox="0 0 21 20" fill="none" xmlns="http://www.w3.org/2000/svg">
<g clip-path="url(#clip0_3_3383)">
<path d="M19 11H18.5V8.64687C18.5 7.33938 17.5616 6.14562 16.2606 6.01344C14.7656 5.8625 13.5 7.03438 13.5 8.5V11H13C12.175 11 11.5 11.675 11.5 12.5V16.5C11.5 17.325 12.175 18 13 18H19C19.825 18 20.5 17.325 20.5 16.5V12.5C20.5 11.675 19.825 11 19 11ZM16 15.5C15.4494 15.5 15 15.0506 15 14.5C15 13.9494 15.4494 13.5 16 13.5C16.5506 13.5 17 13.9494 17 14.5C17 15.0506 16.55 15.5 16 15.5ZM17 11H15V8.5C15 7.94938 15.4494 7.5 16 7.5C16.5506 7.5 17 7.94938 17 8.5V11ZM7.5 10C9.70938 10 11.5 8.20906 11.5 6C11.5 3.79094 9.70938 2 7.5 2C5.29063 2 3.5 3.79094 3.5 6C3.5 8.20906 5.29063 10 7.5 10ZM10.5 12.5C10.5 12.229 10.5543 11.9728 10.6345 11.7281C10.1438 11.5812 9.62188 11.5 9.08438 11.5H5.91563C2.92531 11.5 0.5 13.9281 0.5 16.9187C0.5 17.5156 0.985 18 1.58312 18H11.0112C10.6969 17.5813 10.5 17.0656 10.5 16.5V12.5Z" fill="#030303"/>
</g>
<defs>
<clipPath id="clip0_3_3383">
<rect width="20" height="20" fill="white" transform="translate(0.5)"/>
</clipPath>
</defs>
</svg>
