<svg width="21" height="21" viewBox="0 0 21 21" fill="none" xmlns="http://www.w3.org/2000/svg">
<path d="M13.1063 10.5L17.0152 6.59102C17.4949 6.11133 17.4949 5.33359 17.0152 4.85352L16.1465 3.98477C15.6668 3.50508 14.8891 3.50508 14.409 3.98477L10.5 7.89375L6.59102 3.98477C6.11133 3.50508 5.33359 3.50508 4.85352 3.98477L3.98477 4.85352C3.50508 5.3332 3.50508 6.11094 3.98477 6.59102L7.89375 10.5L3.98477 14.409C3.50508 14.8887 3.50508 15.6664 3.98477 16.1465L4.85352 17.0152C5.3332 17.4949 6.11133 17.4949 6.59102 17.0152L10.5 13.1063L14.409 17.0152C14.8887 17.4949 15.6668 17.4949 16.1465 17.0152L17.0152 16.1465C17.4949 15.6668 17.4949 14.8891 17.0152 14.409L13.1063 10.5Z" fill="white"/>
</svg>
