<svg width="20" height="20" viewBox="0 0 20 20" fill="none" xmlns="http://www.w3.org/2000/svg">
<g clip-path="url(#clip0_3_3379)">
<path d="M19.0393 12.332L17.3752 11.3711C17.5432 10.4649 17.5432 9.53516 17.3752 8.62891L19.0393 7.66797C19.2307 7.5586 19.3166 7.33204 19.2541 7.1211C18.8206 5.73047 18.0823 4.47266 17.1174 3.42579C16.969 3.26563 16.7268 3.22657 16.5393 3.33594L14.8752 4.29688C14.176 3.69532 13.3713 3.23047 12.5002 2.92579V1.00782C12.5002 0.789069 12.3479 0.597662 12.1331 0.550787C10.6995 0.230475 9.23071 0.2461 7.86743 0.550787C7.65258 0.597662 7.50024 0.789069 7.50024 1.00782V2.92969C6.63305 3.23829 5.82836 3.70313 5.12524 4.30079L3.46508 3.33985C3.27368 3.23047 3.0354 3.26563 2.88696 3.42969C1.92211 4.47266 1.18383 5.73047 0.750239 7.12501C0.683833 7.33594 0.773677 7.56251 0.965083 7.67188L2.62915 8.63282C2.46118 9.53907 2.46118 10.4688 2.62915 11.375L0.965083 12.3359C0.773677 12.4453 0.687739 12.6719 0.750239 12.8828C1.18383 14.2734 1.92211 15.5313 2.88696 16.5781C3.0354 16.7383 3.27758 16.7773 3.46508 16.668L5.12915 15.707C5.82836 16.3086 6.63305 16.7734 7.50415 17.0781V19C7.50415 19.2188 7.65649 19.4102 7.87133 19.457C9.30493 19.7773 10.7737 19.7617 12.137 19.457C12.3518 19.4102 12.5041 19.2188 12.5041 19V17.0781C13.3713 16.7695 14.176 16.3047 14.8791 15.707L16.5432 16.668C16.7346 16.7773 16.9729 16.7422 17.1213 16.5781C18.0862 15.5352 18.8245 14.2773 19.2581 12.8828C19.3166 12.668 19.2307 12.4414 19.0393 12.332ZM10.0002 13.125C8.27758 13.125 6.87524 11.7227 6.87524 10C6.87524 8.27735 8.27758 6.87501 10.0002 6.87501C11.7229 6.87501 13.1252 8.27735 13.1252 10C13.1252 11.7227 11.7229 13.125 10.0002 13.125Z" fill="#030303"/>
</g>
<defs>
<clipPath id="clip0_3_3379">
<rect width="20" height="20" fill="white"/>
</clipPath>
</defs>
</svg>
