<svg width="213" height="24" viewBox="0 0 213 24" fill="none" xmlns="http://www.w3.org/2000/svg">
<g filter="url(#filter0_d_36_964)">
<path d="M201 0.5H12C5.64873 0.5 0.5 5.64873 0.5 12C0.5 18.3513 5.64873 23.5 12 23.5H201C207.351 23.5 212.5 18.3513 212.5 12C212.5 5.64873 207.351 0.5 201 0.5Z" fill="#26272B"/>
<path d="M201 0.5H12C5.64873 0.5 0.5 5.64873 0.5 12C0.5 18.3513 5.64873 23.5 12 23.5H201C207.351 23.5 212.5 18.3513 212.5 12C212.5 5.64873 207.351 0.5 201 0.5Z" stroke="#323032"/>
</g>
<defs>
<filter id="filter0_d_36_964" x="0" y="0" width="213" height="24" filterUnits="userSpaceOnUse" color-interpolation-filters="sRGB">
<feFlood flood-opacity="0" result="BackgroundImageFix"/>
<feColorMatrix in="SourceAlpha" type="matrix" values="0 0 0 0 0 0 0 0 0 0 0 0 0 0 0 0 0 0 127 0" result="hardAlpha"/>
<feOffset/>
<feComposite in2="hardAlpha" operator="out"/>
<feColorMatrix type="matrix" values="0 0 0 0 0 0 0 0 0 0 0 0 0 0 0 0 0 0 0.08 0"/>
<feBlend mode="normal" in2="BackgroundImageFix" result="effect1_dropShadow_36_964"/>
<feBlend mode="normal" in="SourceGraphic" in2="effect1_dropShadow_36_964" result="shape"/>
</filter>
</defs>
</svg>
