<svg width="246" height="30" viewBox="0 0 246 30" fill="none" xmlns="http://www.w3.org/2000/svg">
<g filter="url(#filter0_d_36_908)">
<path d="M231 0.5H15C6.99187 0.5 0.5 6.99187 0.5 15C0.5 23.0081 6.99187 29.5 15 29.5H231C239.008 29.5 245.5 23.0081 245.5 15C245.5 6.99187 239.008 0.5 231 0.5Z" fill="#26272B"/>
<path d="M231 0.5H15C6.99187 0.5 0.5 6.99187 0.5 15C0.5 23.0081 6.99187 29.5 15 29.5H231C239.008 29.5 245.5 23.0081 245.5 15C245.5 6.99187 239.008 0.5 231 0.5Z" stroke="#323032"/>
</g>
<defs>
<filter id="filter0_d_36_908" x="0" y="0" width="246" height="30" filterUnits="userSpaceOnUse" color-interpolation-filters="sRGB">
<feFlood flood-opacity="0" result="BackgroundImageFix"/>
<feColorMatrix in="SourceAlpha" type="matrix" values="0 0 0 0 0 0 0 0 0 0 0 0 0 0 0 0 0 0 127 0" result="hardAlpha"/>
<feOffset/>
<feComposite in2="hardAlpha" operator="out"/>
<feColorMatrix type="matrix" values="0 0 0 0 0 0 0 0 0 0 0 0 0 0 0 0 0 0 0.08 0"/>
<feBlend mode="normal" in2="BackgroundImageFix" result="effect1_dropShadow_36_908"/>
<feBlend mode="normal" in="SourceGraphic" in2="effect1_dropShadow_36_908" result="shape"/>
</filter>
</defs>
</svg>
