<svg width="206" height="108" viewBox="0 0 206 108" fill="none" xmlns="http://www.w3.org/2000/svg">
<g filter="url(#filter0_d_34_378)">
<path d="M181 1H25C11.7452 1 1 11.7452 1 25V83C1 96.2548 11.7452 107 25 107H181C194.255 107 205 96.2548 205 83V25C205 11.7452 194.255 1 181 1Z" fill="#161616"/>
<path d="M181 1H25C11.7452 1 1 11.7452 1 25V83C1 96.2548 11.7452 107 25 107H181C194.255 107 205 96.2548 205 83V25C205 11.7452 194.255 1 181 1Z" stroke="#323232"/>
</g>
<defs>
<filter id="filter0_d_34_378" x="0.5" y="0.5" width="205" height="107" filterUnits="userSpaceOnUse" color-interpolation-filters="sRGB">
<feFlood flood-opacity="0" result="BackgroundImageFix"/>
<feColorMatrix in="SourceAlpha" type="matrix" values="0 0 0 0 0 0 0 0 0 0 0 0 0 0 0 0 0 0 127 0" result="hardAlpha"/>
<feOffset/>
<feComposite in2="hardAlpha" operator="out"/>
<feColorMatrix type="matrix" values="0 0 0 0 0 0 0 0 0 0 0 0 0 0 0 0 0 0 0.08 0"/>
<feBlend mode="normal" in2="BackgroundImageFix" result="effect1_dropShadow_34_378"/>
<feBlend mode="normal" in="SourceGraphic" in2="effect1_dropShadow_34_378" result="shape"/>
</filter>
</defs>
</svg>
