<svg width="130" height="108" viewBox="0 0 130 108" fill="none" xmlns="http://www.w3.org/2000/svg">
<g filter="url(#filter0_d_34_380)">
<path d="M105 1H25C11.7452 1 1 11.7452 1 25V83C1 96.2548 11.7452 107 25 107H105C118.255 107 129 96.2548 129 83V25C129 11.7452 118.255 1 105 1Z" fill="#161616"/>
<path d="M105 1H25C11.7452 1 1 11.7452 1 25V83C1 96.2548 11.7452 107 25 107H105C118.255 107 129 96.2548 129 83V25C129 11.7452 118.255 1 105 1Z" stroke="#323232"/>
</g>
<defs>
<filter id="filter0_d_34_380" x="0.5" y="0.5" width="129" height="107" filterUnits="userSpaceOnUse" color-interpolation-filters="sRGB">
<feFlood flood-opacity="0" result="BackgroundImageFix"/>
<feColorMatrix in="SourceAlpha" type="matrix" values="0 0 0 0 0 0 0 0 0 0 0 0 0 0 0 0 0 0 127 0" result="hardAlpha"/>
<feOffset/>
<feComposite in2="hardAlpha" operator="out"/>
<feColorMatrix type="matrix" values="0 0 0 0 0 0 0 0 0 0 0 0 0 0 0 0 0 0 0.08 0"/>
<feBlend mode="normal" in2="BackgroundImageFix" result="effect1_dropShadow_34_380"/>
<feBlend mode="normal" in="SourceGraphic" in2="effect1_dropShadow_34_380" result="shape"/>
</filter>
</defs>
</svg>
