<svg width="211" height="25" viewBox="0 0 211 25" fill="none" xmlns="http://www.w3.org/2000/svg">
<g filter="url(#filter0_d_36_938)">
<path d="M198.5 0.5H12.5C5.87258 0.5 0.5 5.87258 0.5 12.5C0.5 19.1274 5.87258 24.5 12.5 24.5H198.5C205.127 24.5 210.5 19.1274 210.5 12.5C210.5 5.87258 205.127 0.5 198.5 0.5Z" fill="#26272B"/>
<path d="M198.5 0.5H12.5C5.87258 0.5 0.5 5.87258 0.5 12.5C0.5 19.1274 5.87258 24.5 12.5 24.5H198.5C205.127 24.5 210.5 19.1274 210.5 12.5C210.5 5.87258 205.127 0.5 198.5 0.5Z" stroke="#323032"/>
</g>
<defs>
<filter id="filter0_d_36_938" x="0" y="0" width="211" height="25" filterUnits="userSpaceOnUse" color-interpolation-filters="sRGB">
<feFlood flood-opacity="0" result="BackgroundImageFix"/>
<feColorMatrix in="SourceAlpha" type="matrix" values="0 0 0 0 0 0 0 0 0 0 0 0 0 0 0 0 0 0 127 0" result="hardAlpha"/>
<feOffset/>
<feComposite in2="hardAlpha" operator="out"/>
<feColorMatrix type="matrix" values="0 0 0 0 0 0 0 0 0 0 0 0 0 0 0 0 0 0 0.08 0"/>
<feBlend mode="normal" in2="BackgroundImageFix" result="effect1_dropShadow_36_938"/>
<feBlend mode="normal" in="SourceGraphic" in2="effect1_dropShadow_36_938" result="shape"/>
</filter>
</defs>
</svg>
