<svg width="21" height="21" viewBox="0 0 21 21" fill="none" xmlns="http://www.w3.org/2000/svg">
<g filter="url(#filter0_d_34_402)">
<path d="M15.5 0.5H5.5C2.73858 0.5 0.5 2.73858 0.5 5.5V15.5C0.5 18.2614 2.73858 20.5 5.5 20.5H15.5C18.2614 20.5 20.5 18.2614 20.5 15.5V5.5C20.5 2.73858 18.2614 0.5 15.5 0.5Z" fill="#FB1A22"/>
</g>
<path d="M15.5297 6.97032C15.8227 7.26329 15.8227 7.73673 15.5297 8.0297L9.52969 14.0297C9.23672 14.3227 8.76328 14.3227 8.47031 14.0297L5.46966 11.0297C5.17678 10.7367 5.17678 10.2633 5.46966 9.97032C5.76258 9.67735 6.23742 9.67735 6.53039 9.97032L8.97891 12.4383L14.4703 6.97032C14.7633 6.67688 15.2367 6.67688 15.5297 6.97032Z" fill="#161616"/>
<defs>
<filter id="filter0_d_34_402" x="0.5" y="0.5" width="20" height="20" filterUnits="userSpaceOnUse" color-interpolation-filters="sRGB">
<feFlood flood-opacity="0" result="BackgroundImageFix"/>
<feColorMatrix in="SourceAlpha" type="matrix" values="0 0 0 0 0 0 0 0 0 0 0 0 0 0 0 0 0 0 127 0" result="hardAlpha"/>
<feOffset/>
<feComposite in2="hardAlpha" operator="out"/>
<feColorMatrix type="matrix" values="0 0 0 0 0 0 0 0 0 0 0 0 0 0 0 0 0 0 0.08 0"/>
<feBlend mode="normal" in2="BackgroundImageFix" result="effect1_dropShadow_34_402"/>
<feBlend mode="normal" in="SourceGraphic" in2="effect1_dropShadow_34_402" result="shape"/>
</filter>
</defs>
</svg>
