<svg width="213" height="25" viewBox="0 0 213 25" fill="none" xmlns="http://www.w3.org/2000/svg">
<g filter="url(#filter0_d_36_928)">
<path d="M200.5 0.5H12.5C5.87258 0.5 0.5 5.87258 0.5 12.5C0.5 19.1274 5.87258 24.5 12.5 24.5H200.5C207.127 24.5 212.5 19.1274 212.5 12.5C212.5 5.87258 207.127 0.5 200.5 0.5Z" fill="#1A2E1C"/>
<path d="M200.5 0.5H12.5C5.87258 0.5 0.5 5.87258 0.5 12.5C0.5 19.1274 5.87258 24.5 12.5 24.5H200.5C207.127 24.5 212.5 19.1274 212.5 12.5C212.5 5.87258 207.127 0.5 200.5 0.5Z" stroke="#06AB00"/>
</g>
<defs>
<filter id="filter0_d_36_928" x="0" y="0" width="213" height="25" filterUnits="userSpaceOnUse" color-interpolation-filters="sRGB">
<feFlood flood-opacity="0" result="BackgroundImageFix"/>
<feColorMatrix in="SourceAlpha" type="matrix" values="0 0 0 0 0 0 0 0 0 0 0 0 0 0 0 0 0 0 127 0" result="hardAlpha"/>
<feOffset/>
<feComposite in2="hardAlpha" operator="out"/>
<feColorMatrix type="matrix" values="0 0 0 0 0 0 0 0 0 0 0 0 0 0 0 0 0 0 0.08 0"/>
<feBlend mode="normal" in2="BackgroundImageFix" result="effect1_dropShadow_36_928"/>
<feBlend mode="normal" in="SourceGraphic" in2="effect1_dropShadow_36_928" result="shape"/>
</filter>
</defs>
</svg>
