<svg width="52" height="52" viewBox="0 0 52 52" fill="none" xmlns="http://www.w3.org/2000/svg">
<g filter="url(#filter0_d_3_3164)">
<path d="M28 0H24C10.7452 0 0 10.7452 0 24V28C0 41.2548 10.7452 52 24 52H28C41.2548 52 52 41.2548 52 28V24C52 10.7452 41.2548 0 28 0Z" fill="#31FF4A"/>
</g>
<path d="M23.3617 16.375H28.6383C29.5277 16.375 30.3141 16.943 30.5934 17.7852L31.0402 19.125H34.25C35.7668 19.125 37 20.3582 37 21.875V32.875C37 34.3918 35.7668 35.625 34.25 35.625H17.75C16.2311 35.625 15 34.3918 15 32.875V21.875C15 20.3582 16.2311 19.125 17.75 19.125H20.9598L21.4066 17.7852C21.6859 16.943 22.4723 16.375 23.3617 16.375ZM26 31.5C28.2773 31.5 30.125 29.6523 30.125 27.375C30.125 25.059 28.2773 23.25 26 23.25C23.684 23.25 21.875 25.059 21.875 27.375C21.875 29.6523 23.684 31.5 26 31.5Z" fill="white"/>
<defs>
<filter id="filter0_d_3_3164" x="0" y="0" width="52" height="52" filterUnits="userSpaceOnUse" color-interpolation-filters="sRGB">
<feFlood flood-opacity="0" result="BackgroundImageFix"/>
<feColorMatrix in="SourceAlpha" type="matrix" values="0 0 0 0 0 0 0 0 0 0 0 0 0 0 0 0 0 0 127 0" result="hardAlpha"/>
<feOffset/>
<feComposite in2="hardAlpha" operator="out"/>
<feColorMatrix type="matrix" values="0 0 0 0 0 0 0 0 0 0 0 0 0 0 0 0 0 0 0.08 0"/>
<feBlend mode="normal" in2="BackgroundImageFix" result="effect1_dropShadow_3_3164"/>
<feBlend mode="normal" in="SourceGraphic" in2="effect1_dropShadow_3_3164" result="shape"/>
</filter>
</defs>
</svg>
