<svg width="208" height="26" viewBox="0 0 208 26" fill="none" xmlns="http://www.w3.org/2000/svg">
<g filter="url(#filter0_d_36_954)">
<path d="M195 0.5H13C6.09644 0.5 0.5 6.09644 0.5 13C0.5 19.9036 6.09644 25.5 13 25.5H195C201.904 25.5 207.5 19.9036 207.5 13C207.5 6.09644 201.904 0.5 195 0.5Z" fill="#39261C"/>
<path d="M195 0.5H13C6.09644 0.5 0.5 6.09644 0.5 13C0.5 19.9036 6.09644 25.5 13 25.5H195C201.904 25.5 207.5 19.9036 207.5 13C207.5 6.09644 201.904 0.5 195 0.5Z" stroke="#FB6600"/>
</g>
<defs>
<filter id="filter0_d_36_954" x="0" y="0" width="208" height="26" filterUnits="userSpaceOnUse" color-interpolation-filters="sRGB">
<feFlood flood-opacity="0" result="BackgroundImageFix"/>
<feColorMatrix in="SourceAlpha" type="matrix" values="0 0 0 0 0 0 0 0 0 0 0 0 0 0 0 0 0 0 127 0" result="hardAlpha"/>
<feOffset/>
<feComposite in2="hardAlpha" operator="out"/>
<feColorMatrix type="matrix" values="0 0 0 0 0 0 0 0 0 0 0 0 0 0 0 0 0 0 0.08 0"/>
<feBlend mode="normal" in2="BackgroundImageFix" result="effect1_dropShadow_36_954"/>
<feBlend mode="normal" in="SourceGraphic" in2="effect1_dropShadow_36_954" result="shape"/>
</filter>
</defs>
</svg>
