<svg width="242" height="16" viewBox="0 0 242 16" fill="none" xmlns="http://www.w3.org/2000/svg">
<path d="M138.4 6H2C0.89543 6 0 6.89543 0 8C0 9.10457 0.89543 10 2 10H138.4C139.505 10 140.4 9.10457 140.4 8C140.4 6.89543 139.505 6 138.4 6Z" fill="#BDBDBD"/>
<path d="M240 6H142.4C141.295 6 140.4 6.89543 140.4 8C140.4 9.10457 141.295 10 142.4 10H240C241.104 10 242 9.10457 242 8C242 6.89543 241.104 6 240 6Z" fill="#1F2525"/>
<path d="M148.4 8C148.4 3.58172 144.818 0 140.4 0C135.982 0 132.4 3.58172 132.4 8C132.4 12.4183 135.982 16 140.4 16C144.818 16 148.4 12.4183 148.4 8Z" fill="#BDBDBD"/>
</svg>
