<svg width="210" height="26" viewBox="0 0 210 26" fill="none" xmlns="http://www.w3.org/2000/svg">
<g filter="url(#filter0_d_36_922)">
<path d="M197 0.5H13C6.09644 0.5 0.5 6.09644 0.5 13C0.5 19.9036 6.09644 25.5 13 25.5H197C203.904 25.5 209.5 19.9036 209.5 13C209.5 6.09644 203.904 0.5 197 0.5Z" fill="#26272B"/>
<path d="M197 0.5H13C6.09644 0.5 0.5 6.09644 0.5 13C0.5 19.9036 6.09644 25.5 13 25.5H197C203.904 25.5 209.5 19.9036 209.5 13C209.5 6.09644 203.904 0.5 197 0.5Z" stroke="#323032"/>
</g>
<defs>
<filter id="filter0_d_36_922" x="0" y="0" width="210" height="26" filterUnits="userSpaceOnUse" color-interpolation-filters="sRGB">
<feFlood flood-opacity="0" result="BackgroundImageFix"/>
<feColorMatrix in="SourceAlpha" type="matrix" values="0 0 0 0 0 0 0 0 0 0 0 0 0 0 0 0 0 0 127 0" result="hardAlpha"/>
<feOffset/>
<feComposite in2="hardAlpha" operator="out"/>
<feColorMatrix type="matrix" values="0 0 0 0 0 0 0 0 0 0 0 0 0 0 0 0 0 0 0.08 0"/>
<feBlend mode="normal" in2="BackgroundImageFix" result="effect1_dropShadow_36_922"/>
<feBlend mode="normal" in="SourceGraphic" in2="effect1_dropShadow_36_922" result="shape"/>
</filter>
</defs>
</svg>
