<svg width="210" height="25" viewBox="0 0 210 25" fill="none" xmlns="http://www.w3.org/2000/svg">
<g filter="url(#filter0_d_36_946)">
<path d="M197.5 0.5H12.5C5.87258 0.5 0.5 5.87258 0.5 12.5C0.5 19.1274 5.87258 24.5 12.5 24.5H197.5C204.127 24.5 209.5 19.1274 209.5 12.5C209.5 5.87258 204.127 0.5 197.5 0.5Z" fill="#26272B"/>
<path d="M197.5 0.5H12.5C5.87258 0.5 0.5 5.87258 0.5 12.5C0.5 19.1274 5.87258 24.5 12.5 24.5H197.5C204.127 24.5 209.5 19.1274 209.5 12.5C209.5 5.87258 204.127 0.5 197.5 0.5Z" stroke="#323032"/>
</g>
<defs>
<filter id="filter0_d_36_946" x="0" y="0" width="210" height="25" filterUnits="userSpaceOnUse" color-interpolation-filters="sRGB">
<feFlood flood-opacity="0" result="BackgroundImageFix"/>
<feColorMatrix in="SourceAlpha" type="matrix" values="0 0 0 0 0 0 0 0 0 0 0 0 0 0 0 0 0 0 127 0" result="hardAlpha"/>
<feOffset/>
<feComposite in2="hardAlpha" operator="out"/>
<feColorMatrix type="matrix" values="0 0 0 0 0 0 0 0 0 0 0 0 0 0 0 0 0 0 0.08 0"/>
<feBlend mode="normal" in2="BackgroundImageFix" result="effect1_dropShadow_36_946"/>
<feBlend mode="normal" in="SourceGraphic" in2="effect1_dropShadow_36_946" result="shape"/>
</filter>
</defs>
</svg>
