<svg width="140" height="58" viewBox="0 0 140 58" fill="none" xmlns="http://www.w3.org/2000/svg">
<g filter="url(#filter0_d_36_894)">
<path d="M132.5 0.5H7.5C3.63401 0.5 0.5 3.63401 0.5 7.5V50.5C0.5 54.366 3.63401 57.5 7.5 57.5H132.5C136.366 57.5 139.5 54.366 139.5 50.5V7.5C139.5 3.63401 136.366 0.5 132.5 0.5Z" fill="#FB6600"/>
<path d="M132.5 0.5H7.5C3.63401 0.5 0.5 3.63401 0.5 7.5V50.5C0.5 54.366 3.63401 57.5 7.5 57.5H132.5C136.366 57.5 139.5 54.366 139.5 50.5V7.5C139.5 3.63401 136.366 0.5 132.5 0.5Z" stroke="#FC8800"/>
</g>
<defs>
<filter id="filter0_d_36_894" x="0" y="0" width="140" height="58" filterUnits="userSpaceOnUse" color-interpolation-filters="sRGB">
<feFlood flood-opacity="0" result="BackgroundImageFix"/>
<feColorMatrix in="SourceAlpha" type="matrix" values="0 0 0 0 0 0 0 0 0 0 0 0 0 0 0 0 0 0 127 0" result="hardAlpha"/>
<feOffset/>
<feComposite in2="hardAlpha" operator="out"/>
<feColorMatrix type="matrix" values="0 0 0 0 0 0 0 0 0 0 0 0 0 0 0 0 0 0 0.08 0"/>
<feBlend mode="normal" in2="BackgroundImageFix" result="effect1_dropShadow_36_894"/>
<feBlend mode="normal" in="SourceGraphic" in2="effect1_dropShadow_36_894" result="shape"/>
</filter>
</defs>
</svg>
