<svg width="209" height="23" viewBox="0 0 209 23" fill="none" xmlns="http://www.w3.org/2000/svg">
<g filter="url(#filter0_d_36_982)">
<path d="M197.5 0.5H11.5C5.42487 0.5 0.5 5.42487 0.5 11.5C0.5 17.5751 5.42487 22.5 11.5 22.5H197.5C203.575 22.5 208.5 17.5751 208.5 11.5C208.5 5.42487 203.575 0.5 197.5 0.5Z" fill="#26272B"/>
<path d="M197.5 0.5H11.5C5.42487 0.5 0.5 5.42487 0.5 11.5C0.5 17.5751 5.42487 22.5 11.5 22.5H197.5C203.575 22.5 208.5 17.5751 208.5 11.5C208.5 5.42487 203.575 0.5 197.5 0.5Z" stroke="#323032"/>
</g>
<defs>
<filter id="filter0_d_36_982" x="0" y="0" width="209" height="23" filterUnits="userSpaceOnUse" color-interpolation-filters="sRGB">
<feFlood flood-opacity="0" result="BackgroundImageFix"/>
<feColorMatrix in="SourceAlpha" type="matrix" values="0 0 0 0 0 0 0 0 0 0 0 0 0 0 0 0 0 0 127 0" result="hardAlpha"/>
<feOffset/>
<feComposite in2="hardAlpha" operator="out"/>
<feColorMatrix type="matrix" values="0 0 0 0 0 0 0 0 0 0 0 0 0 0 0 0 0 0 0.08 0"/>
<feBlend mode="normal" in2="BackgroundImageFix" result="effect1_dropShadow_36_982"/>
<feBlend mode="normal" in="SourceGraphic" in2="effect1_dropShadow_36_982" result="shape"/>
</filter>
</defs>
</svg>
