<svg width="136" height="17" viewBox="0 0 136 17" fill="none" xmlns="http://www.w3.org/2000/svg">
<path d="M74.8 6.5H2C0.89543 6.5 0 7.39543 0 8.5C0 9.60457 0.89543 10.5 2 10.5H74.8C75.9046 10.5 76.8 9.60457 76.8 8.5C76.8 7.39543 75.9046 6.5 74.8 6.5Z" fill="#020202"/>
<path d="M134 6.5H78.7998C77.6952 6.5 76.7998 7.39543 76.7998 8.5C76.7998 9.60457 77.6952 10.5 78.7998 10.5H134C135.104 10.5 136 9.60457 136 8.5C136 7.39543 135.104 6.5 134 6.5Z" fill="#CBD1CE"/>
<path d="M84.7998 8.5C84.7998 4.08172 81.2181 0.5 76.7998 0.5C72.3815 0.5 68.7998 4.08172 68.7998 8.5C68.7998 12.9183 72.3815 16.5 76.7998 16.5C81.2181 16.5 84.7998 12.9183 84.7998 8.5Z" fill="#020202"/>
</svg>
