<svg width="52" height="52" viewBox="0 0 52 52" fill="none" xmlns="http://www.w3.org/2000/svg">
<g filter="url(#filter0_d_3_3160)">
<path d="M28 0H24C10.7452 0 0 10.7452 0 24V28C0 41.2548 10.7452 52 24 52H28C41.2548 52 52 41.2548 52 28V24C52 10.7452 41.2548 0 28 0Z" fill="#31FF4A"/>
</g>
<g clip-path="url(#clip0_3_3160)">
<path d="M30.4 19.4H21.6C17.9549 19.4 15 22.3253 15 26C15 29.6747 17.9549 32.6 21.6 32.6H30.4C34.0438 32.6 37 29.6451 37 26C37 22.3549 34.0438 19.4 30.4 19.4ZM23.4941 26.825H22.3941V27.925C22.3941 28.3788 22.0235 28.75 21.5697 28.75C21.116 28.75 20.7441 28.3788 20.7441 27.925V26.825L19.675 26.7941C19.2213 26.7941 18.8191 26.4538 18.8191 26C18.8191 25.5463 19.192 25.1747 19.6458 25.1747L20.7441 25.175V24.075C20.7441 23.6213 21.116 23.25 21.5697 23.25C22.0235 23.25 22.3941 23.6213 22.3941 24.075V25.175H23.4941C23.9478 25.175 24.3197 25.5463 24.3197 26C24.3191 26.4538 23.9788 26.825 23.4941 26.825ZM29.8191 29.025C29.0587 29.025 28.475 28.4107 28.475 27.681C28.475 26.9512 29.0893 26.306 29.8191 26.306C30.5488 26.306 31.1631 26.9206 31.1631 27.681C31.1631 28.4413 30.6097 29.025 29.8191 29.025ZM32.0191 25.725C31.2587 25.725 30.675 25.1107 30.675 24.381C30.675 23.6512 31.2893 23.006 32.0191 23.006C32.7794 23.006 33.3631 23.6206 33.3631 24.381C33.3631 25.1413 32.8097 25.725 32.0191 25.725Z" fill="white"/>
</g>
<defs>
<filter id="filter0_d_3_3160" x="0" y="0" width="52" height="52" filterUnits="userSpaceOnUse" color-interpolation-filters="sRGB">
<feFlood flood-opacity="0" result="BackgroundImageFix"/>
<feColorMatrix in="SourceAlpha" type="matrix" values="0 0 0 0 0 0 0 0 0 0 0 0 0 0 0 0 0 0 127 0" result="hardAlpha"/>
<feOffset/>
<feComposite in2="hardAlpha" operator="out"/>
<feColorMatrix type="matrix" values="0 0 0 0 0 0 0 0 0 0 0 0 0 0 0 0 0 0 0.08 0"/>
<feBlend mode="normal" in2="BackgroundImageFix" result="effect1_dropShadow_3_3160"/>
<feBlend mode="normal" in="SourceGraphic" in2="effect1_dropShadow_3_3160" result="shape"/>
</filter>
<clipPath id="clip0_3_3160">
<rect width="22" height="22" fill="white" transform="translate(15 15)"/>
</clipPath>
</defs>
</svg>
