<svg width="79" height="23" viewBox="0 0 79 23" fill="none" xmlns="http://www.w3.org/2000/svg">
<mask id="mask0_34_387" style="mask-type:luminance" maskUnits="userSpaceOnUse" x="0" y="0" width="79" height="23">
<path d="M78.5 0.5H0.5V22.5H78.5V0.5Z" fill="white"/>
</mask>
<g mask="url(#mask0_34_387)">
<path d="M6.732 17.5V7.068H9.084V15.516H13.212V17.5H6.732ZM18.1545 17.692C17.3972 17.692 16.7145 17.5267 16.1065 17.196C15.4985 16.8653 15.0185 16.3907 14.6665 15.772C14.3145 15.1533 14.1385 14.4067 14.1385 13.532C14.1385 12.668 14.3145 11.9267 14.6665 11.308C15.0292 10.6893 15.4985 10.2147 16.0745 9.884C16.6505 9.54267 17.2532 9.372 17.8825 9.372C18.6398 9.372 19.2638 9.54267 19.7545 9.884C20.2558 10.2147 20.6292 10.668 20.8745 11.244C21.1305 11.8093 21.2585 12.4547 21.2585 13.18C21.2585 13.3827 21.2478 13.5853 21.2265 13.788C21.2052 13.98 21.1838 14.124 21.1625 14.22H16.4105C16.5172 14.796 16.7572 15.2227 17.1305 15.5C17.5038 15.7667 17.9518 15.9 18.4745 15.9C19.0398 15.9 19.6105 15.724 20.1865 15.372L20.9705 16.796C20.5652 17.0733 20.1118 17.292 19.6105 17.452C19.1092 17.612 18.6238 17.692 18.1545 17.692ZM16.3945 12.668H19.2585C19.2585 12.2307 19.1518 11.8733 18.9385 11.596C18.7358 11.308 18.3998 11.164 17.9305 11.164C17.5678 11.164 17.2425 11.292 16.9545 11.548C16.6665 11.7933 16.4798 12.1667 16.3945 12.668ZM24.7119 17.692C23.9865 17.692 23.4105 17.4627 22.9839 17.004C22.5572 16.5347 22.3439 15.964 22.3439 15.292C22.3439 14.46 22.6959 13.8093 23.3999 13.34C24.1039 12.8707 25.2399 12.556 26.8079 12.396C26.7865 12.044 26.6799 11.7667 26.4879 11.564C26.3065 11.3507 25.9972 11.244 25.5599 11.244C25.2292 11.244 24.8932 11.308 24.5519 11.436C24.2105 11.564 23.8479 11.74 23.4639 11.964L22.6159 10.412C23.1172 10.1027 23.6505 9.852 24.2159 9.66C24.7919 9.468 25.3892 9.372 26.0079 9.372C27.0212 9.372 27.7999 9.66533 28.3439 10.252C28.8879 10.8387 29.1599 11.74 29.1599 12.956V17.5H27.2399L27.0799 16.684H27.0159C26.6852 16.9827 26.3279 17.228 25.9439 17.42C25.5705 17.6013 25.1599 17.692 24.7119 17.692ZM25.5119 15.868C25.7785 15.868 26.0079 15.8093 26.1999 15.692C26.4025 15.564 26.6052 15.3987 26.8079 15.196V13.804C25.9759 13.9107 25.3999 14.0813 25.0799 14.316C24.7599 14.54 24.5999 14.8067 24.5999 15.116C24.5999 15.372 24.6799 15.564 24.8399 15.692C25.0105 15.8093 25.2345 15.868 25.5119 15.868ZM33.9814 20.876C33.3627 20.876 32.8027 20.8067 32.3014 20.668C31.8 20.5293 31.4 20.3107 31.1014 20.012C30.8027 19.7133 30.6534 19.3293 30.6534 18.86C30.6534 18.22 31.032 17.6867 31.7894 17.26V17.196C31.5867 17.0573 31.4107 16.8813 31.2614 16.668C31.1227 16.4547 31.0534 16.1827 31.0534 15.852C31.0534 15.564 31.1387 15.2867 31.3094 15.02C31.48 14.7533 31.6934 14.5347 31.9494 14.364V14.3C31.672 14.108 31.4214 13.8307 31.1974 13.468C30.984 13.1053 30.8774 12.6947 30.8774 12.236C30.8774 11.596 31.032 11.068 31.3414 10.652C31.6507 10.2253 32.056 9.90533 32.5574 9.692C33.0587 9.47867 33.592 9.372 34.1574 9.372C34.6267 9.372 35.0374 9.436 35.3894 9.564H38.2854V11.276H37.0214C37.096 11.3933 37.1547 11.5427 37.1974 11.724C37.2507 11.9053 37.2774 12.1027 37.2774 12.316C37.2774 12.924 37.1387 13.4253 36.8614 13.82C36.584 14.2147 36.2107 14.508 35.7414 14.7C35.272 14.892 34.744 14.988 34.1574 14.988C33.848 14.988 33.528 14.9347 33.1974 14.828C33.0054 14.988 32.9094 15.1853 32.9094 15.42C32.9094 15.6227 33 15.772 33.1814 15.868C33.3627 15.964 33.672 16.012 34.1094 16.012H35.3894C36.3707 16.012 37.1174 16.172 37.6294 16.492C38.152 16.8013 38.4134 17.3133 38.4134 18.028C38.4134 18.572 38.232 19.0573 37.8694 19.484C37.5067 19.9213 36.9947 20.2627 36.3334 20.508C35.672 20.7533 34.888 20.876 33.9814 20.876ZM34.1574 13.564C34.4667 13.564 34.7227 13.452 34.9254 13.228C35.1387 13.004 35.2454 12.6733 35.2454 12.236C35.2454 11.82 35.1387 11.5053 34.9254 11.292C34.7227 11.068 34.4667 10.956 34.1574 10.956C33.848 10.956 33.5867 11.0627 33.3734 11.276C33.1707 11.4893 33.0694 11.8093 33.0694 12.236C33.0694 12.6733 33.1707 13.004 33.3734 13.228C33.5867 13.452 33.848 13.564 34.1574 13.564ZM34.3494 19.404C34.8827 19.404 35.32 19.308 35.6614 19.116C36.0027 18.924 36.1734 18.6947 36.1734 18.428C36.1734 18.1827 36.0667 18.0173 35.8534 17.932C35.6507 17.8467 35.352 17.804 34.9574 17.804H34.1414C33.8747 17.804 33.6507 17.7933 33.4694 17.772C33.2987 17.7613 33.1494 17.74 33.0214 17.708C32.7334 17.964 32.5894 18.2253 32.5894 18.492C32.5894 18.7907 32.7494 19.0147 33.0694 19.164C33.4 19.324 33.8267 19.404 34.3494 19.404ZM42.0803 17.692C41.2163 17.692 40.5869 17.4093 40.1923 16.844C39.8083 16.268 39.6163 15.484 39.6163 14.492V9.564H41.9683V14.188C41.9683 14.7533 42.0483 15.148 42.2083 15.372C42.3683 15.5853 42.6189 15.692 42.9603 15.692C43.2589 15.692 43.5096 15.6227 43.7123 15.484C43.9149 15.3453 44.1336 15.1213 44.3683 14.812V9.564H46.7203V17.5H44.8003L44.6243 16.396H44.5763C44.2456 16.7907 43.8829 17.1053 43.4883 17.34C43.0936 17.5747 42.6243 17.692 42.0803 17.692ZM52.342 17.692C51.5847 17.692 50.902 17.5267 50.294 17.196C49.686 16.8653 49.206 16.3907 48.854 15.772C48.502 15.1533 48.326 14.4067 48.326 13.532C48.326 12.668 48.502 11.9267 48.854 11.308C49.2167 10.6893 49.686 10.2147 50.262 9.884C50.838 9.54267 51.4407 9.372 52.07 9.372C52.8273 9.372 53.4513 9.54267 53.942 9.884C54.4433 10.2147 54.8167 10.668 55.062 11.244C55.318 11.8093 55.446 12.4547 55.446 13.18C55.446 13.3827 55.4353 13.5853 55.414 13.788C55.3927 13.98 55.3713 14.124 55.35 14.22H50.598C50.7047 14.796 50.9447 15.2227 51.318 15.5C51.6913 15.7667 52.1393 15.9 52.662 15.9C53.2273 15.9 53.798 15.724 54.374 15.372L55.158 16.796C54.7527 17.0733 54.2993 17.292 53.798 17.452C53.2967 17.612 52.8113 17.692 52.342 17.692ZM50.582 12.668H53.446C53.446 12.2307 53.3393 11.8733 53.126 11.596C52.9233 11.308 52.5873 11.164 52.118 11.164C51.7553 11.164 51.43 11.292 51.142 11.548C50.854 11.7933 50.6673 12.1667 50.582 12.668ZM63.6824 17.692C63.0104 17.692 62.3757 17.532 61.7784 17.212C61.1917 16.8813 60.717 16.4067 60.3544 15.788C59.9917 15.1587 59.8104 14.4067 59.8104 13.532C59.8104 12.6467 59.9917 11.8947 60.3544 11.276C60.717 10.6573 61.1917 10.188 61.7784 9.868C62.3757 9.53733 63.0104 9.372 63.6824 9.372C64.3544 9.372 64.9837 9.53733 65.5704 9.868C66.157 10.188 66.6317 10.6573 66.9944 11.276C67.357 11.8947 67.5384 12.6467 67.5384 13.532C67.5384 14.4067 67.357 15.1587 66.9944 15.788C66.6317 16.4067 66.157 16.8813 65.5704 17.212C64.9837 17.532 64.3544 17.692 63.6824 17.692ZM63.6824 15.788C64.1624 15.788 64.525 15.5853 64.7704 15.18C65.0157 14.764 65.1384 14.2147 65.1384 13.532C65.1384 12.8387 65.0157 12.2893 64.7704 11.884C64.525 11.4787 64.1624 11.276 63.6824 11.276C63.1917 11.276 62.8237 11.4787 62.5784 11.884C62.3437 12.2893 62.2264 12.8387 62.2264 13.532C62.2264 14.2147 62.3437 14.764 62.5784 15.18C62.8237 15.5853 63.1917 15.788 63.6824 15.788ZM69.4713 17.5V11.404H68.4153V9.66L69.4713 9.58V9.148C69.4713 8.58267 69.5673 8.07067 69.7593 7.612C69.9513 7.15333 70.2606 6.78533 70.6873 6.508C71.1139 6.23067 71.6846 6.092 72.3993 6.092C72.7299 6.092 73.0339 6.124 73.3113 6.188C73.5886 6.252 73.8126 6.316 73.9833 6.38L73.5513 8.108C73.4126 8.05467 73.2739 8.01733 73.1353 7.996C72.9966 7.964 72.8633 7.948 72.7352 7.948C72.4473 7.948 72.2233 8.03867 72.0633 8.22C71.9033 8.39067 71.8233 8.67867 71.8233 9.084V9.564H73.2473V11.404H71.8233V17.5H69.4713Z" fill="white"/>
</g>
</svg>
