<svg width="159" height="26" viewBox="0 0 159 26" fill="none" xmlns="http://www.w3.org/2000/svg">
<mask id="mask0_3_2638" style="mask-type:luminance" maskUnits="userSpaceOnUse" x="0" y="0" width="159" height="26">
<path d="M159 0H0V26H159V0Z" fill="white"/>
</mask>
<g mask="url(#mask0_3_2638)">
<path d="M11.3039 20.24C10.1172 20.24 9.03724 19.9867 8.06391 19.48C7.10391 18.9733 6.33724 18.2267 5.76391 17.24C5.20391 16.24 4.92391 15.0133 4.92391 13.56C4.92391 12.12 5.21057 10.8933 5.78391 9.88C6.37057 8.85333 7.14391 8.07333 8.10391 7.54C9.06391 6.99333 10.1239 6.72 11.2839 6.72C12.2306 6.72 13.0439 6.89333 13.7239 7.24C14.4039 7.58667 14.9572 7.98 15.3839 8.42L13.8439 10.3C13.5106 10.0067 13.1572 9.76 12.7839 9.56C12.4106 9.36 11.9439 9.26 11.3839 9.26C10.3706 9.26 9.54391 9.63333 8.90391 10.38C8.26391 11.1267 7.94391 12.1533 7.94391 13.46C7.94391 14.7933 8.25057 15.8333 8.86391 16.58C9.47724 17.3267 10.3906 17.7 11.6039 17.7C11.8706 17.7 12.1306 17.6667 12.3839 17.6C12.6372 17.5333 12.8439 17.4333 13.0039 17.3V15.06H10.8439V12.66H15.6039V18.66C15.1506 19.1 14.5439 19.4733 13.7839 19.78C13.0372 20.0867 12.2106 20.24 11.3039 20.24ZM21.2016 13.4L20.8816 14.6H23.6616L23.3616 13.4C23.1882 12.7467 23.0082 12.0533 22.8216 11.32C22.6482 10.5867 22.4749 9.88 22.3016 9.2H22.2216C22.0616 9.89333 21.8949 10.6067 21.7216 11.34C21.5616 12.06 21.3882 12.7467 21.2016 13.4ZM16.4816 20L20.5616 6.96H24.1016L28.1816 20H25.0616L24.2616 16.9H20.2816L19.4816 20H16.4816ZM29.6064 20V6.96H32.8264L34.9264 12.76C35.0597 13.1333 35.1864 13.5267 35.3064 13.94C35.4264 14.3533 35.5531 14.76 35.6864 15.16H35.7664C35.8997 14.76 36.0197 14.3533 36.1264 13.94C36.2464 13.5267 36.3731 13.1333 36.5064 12.76L38.5664 6.96H41.7664V20H39.0864V15.22C39.0864 14.7933 39.1064 14.32 39.1464 13.8C39.1997 13.2667 39.2531 12.7333 39.3064 12.2C39.3731 11.6667 39.4264 11.1933 39.4664 10.78H39.3864L38.3264 13.88L36.4664 18.86H34.8464L32.9864 13.88L31.9464 10.78H31.8664C31.9197 11.1933 31.9731 11.6667 32.0264 12.2C32.0797 12.7333 32.1264 13.2667 32.1664 13.8C32.2197 14.32 32.2464 14.7933 32.2464 15.22V20H29.6064ZM44.8408 20V6.96H53.0008V9.44H47.7808V12.06H52.2208V14.52H47.7808V17.52H53.2008V20H44.8408ZM65.1017 20.24C63.9284 20.24 62.8951 19.9667 62.0017 19.42C61.1217 18.8733 60.4284 18.0933 59.9217 17.08C59.4284 16.0533 59.1817 14.8333 59.1817 13.42C59.1817 11.9933 59.4284 10.7867 59.9217 9.8C60.4284 8.8 61.1217 8.04 62.0017 7.52C62.8951 6.98667 63.9284 6.72 65.1017 6.72C66.2751 6.72 67.3017 6.98667 68.1817 7.52C69.0751 8.04 69.7684 8.8 70.2617 9.8C70.7684 10.8 71.0217 12.0067 71.0217 13.42C71.0217 14.8333 70.7684 16.0533 70.2617 17.08C69.7684 18.0933 69.0751 18.8733 68.1817 19.42C67.3017 19.9667 66.2751 20.24 65.1017 20.24ZM65.1017 17.7C65.9951 17.7 66.7017 17.3133 67.2217 16.54C67.7417 15.7667 68.0017 14.7267 68.0017 13.42C68.0017 12.1133 67.7417 11.0933 67.2217 10.36C66.7017 9.62667 65.9951 9.26 65.1017 9.26C64.2084 9.26 63.5017 9.62667 62.9817 10.36C62.4617 11.0933 62.2017 12.1133 62.2017 13.42C62.2017 14.7267 62.4617 15.7667 62.9817 16.54C63.5017 17.3133 64.2084 17.7 65.1017 17.7ZM73.4736 20V6.96H81.6936V9.44H76.4136V12.46H80.9336V14.94H76.4136V20H73.4736ZM90.5058 20V9.44H86.9258V6.96H97.0458V9.44H93.4658V20H90.5058ZM99.0791 20V6.96H102.019V11.98H106.519V6.96H109.479V20H106.519V14.56H102.019V20H99.0791ZM112.556 20V6.96H117.256C118.176 6.96 119.016 7.08667 119.776 7.34C120.536 7.58 121.142 7.99333 121.596 8.58C122.049 9.16667 122.276 9.98 122.276 11.02C122.276 11.98 122.062 12.7733 121.636 13.4C121.222 14.0133 120.662 14.4733 119.956 14.78L122.916 20H119.616L117.116 15.3H115.496V20H112.556ZM115.496 12.96H117.016C117.789 12.96 118.376 12.8 118.776 12.48C119.189 12.1467 119.396 11.66 119.396 11.02C119.396 10.38 119.189 9.93333 118.776 9.68C118.376 9.42667 117.789 9.3 117.016 9.3H115.496V12.96ZM130.121 20.24C128.948 20.24 127.915 19.9667 127.021 19.42C126.141 18.8733 125.448 18.0933 124.941 17.08C124.448 16.0533 124.201 14.8333 124.201 13.42C124.201 11.9933 124.448 10.7867 124.941 9.8C125.448 8.8 126.141 8.04 127.021 7.52C127.915 6.98667 128.948 6.72 130.121 6.72C131.295 6.72 132.321 6.98667 133.201 7.52C134.095 8.04 134.788 8.8 135.281 9.8C135.788 10.8 136.041 12.0067 136.041 13.42C136.041 14.8333 135.788 16.0533 135.281 17.08C134.788 18.0933 134.095 18.8733 133.201 19.42C132.321 19.9667 131.295 20.24 130.121 20.24ZM130.121 17.7C131.015 17.7 131.721 17.3133 132.241 16.54C132.761 15.7667 133.021 14.7267 133.021 13.42C133.021 12.1133 132.761 11.0933 132.241 10.36C131.721 9.62667 131.015 9.26 130.121 9.26C129.228 9.26 128.521 9.62667 128.001 10.36C127.481 11.0933 127.221 12.1133 127.221 13.42C127.221 14.7267 127.481 15.7667 128.001 16.54C128.521 17.3133 129.228 17.7 130.121 17.7ZM138.493 20V6.96H141.513L144.913 13.44L146.193 16.32H146.273C146.22 15.6267 146.146 14.8533 146.053 14C145.96 13.1467 145.913 12.3333 145.913 11.56V6.96H148.713V20H145.693L142.293 13.5L141.013 10.66H140.933C141 11.38 141.073 12.1533 141.153 12.98C141.246 13.8067 141.293 14.6067 141.293 15.38V20H138.493ZM151.794 20V6.96H159.954V9.44H154.734V12.06H159.174V14.52H154.734V17.52H160.154V20H151.794Z" fill="white"/>
</g>
</svg>
