<svg width="108" height="20" viewBox="0 0 108 20" fill="none" xmlns="http://www.w3.org/2000/svg">
<mask id="mask0_3_2680" style="mask-type:luminance" maskUnits="userSpaceOnUse" x="0" y="0" width="108" height="20">
<path d="M108 0H0V20H108V0Z" fill="white"/>
</mask>
<g mask="url(#mask0_3_2680)">
<path d="M1.44 16V5.504H2.768V14.864H7.36V16H1.44ZM12.0578 16.192C11.3644 16.192 10.7351 16.032 10.1698 15.712C9.60442 15.3813 9.15642 14.912 8.82575 14.304C8.49508 13.696 8.32975 12.9707 8.32975 12.128C8.32975 11.2747 8.49508 10.544 8.82575 9.936C9.16708 9.328 9.60442 8.85867 10.1378 8.528C10.6711 8.19733 11.2311 8.032 11.8177 8.032C12.8098 8.032 13.5724 8.36267 14.1058 9.024C14.6498 9.68533 14.9218 10.5707 14.9218 11.68C14.9218 11.8187 14.9164 11.9573 14.9058 12.096C14.9058 12.224 14.8951 12.336 14.8738 12.432H9.62575C9.67908 13.2533 9.93508 13.9093 10.3938 14.4C10.8631 14.8907 11.4711 15.136 12.2178 15.136C12.5911 15.136 12.9324 15.0827 13.2418 14.976C13.5618 14.8587 13.8658 14.7093 14.1538 14.528L14.6178 15.392C14.2871 15.6053 13.9084 15.792 13.4818 15.952C13.0658 16.112 12.5911 16.192 12.0578 16.192ZM9.60975 11.488H13.7698C13.7698 10.6987 13.5991 10.1013 13.2578 9.696C12.9271 9.28 12.4578 9.072 11.8498 9.072C11.3058 9.072 10.8151 9.28533 10.3778 9.712C9.95108 10.128 9.69508 10.72 9.60975 11.488ZM18.4165 16.192C17.7658 16.192 17.2218 16 16.7845 15.616C16.3578 15.2213 16.1445 14.6773 16.1445 13.984C16.1445 13.1307 16.5232 12.48 17.2805 12.032C18.0485 11.5733 19.2592 11.2533 20.9125 11.072C20.9125 10.7413 20.8645 10.4267 20.7685 10.128C20.6832 9.82933 20.5232 9.58933 20.2885 9.408C20.0645 9.216 19.7392 9.12 19.3125 9.12C18.8645 9.12 18.4432 9.20533 18.0485 9.376C17.6538 9.54667 17.3018 9.73867 16.9925 9.952L16.4805 9.04C16.8432 8.80533 17.2858 8.58133 17.8085 8.368C18.3418 8.144 18.9178 8.032 19.5365 8.032C20.4858 8.032 21.1738 8.32533 21.6005 8.912C22.0272 9.488 22.2405 10.2613 22.2405 11.232V16H21.1525L21.0405 15.072H20.9925C20.6298 15.3707 20.2298 15.632 19.7925 15.856C19.3658 16.08 18.9072 16.192 18.4165 16.192ZM18.8005 15.136C19.1738 15.136 19.5258 15.0453 19.8565 14.864C20.1872 14.6827 20.5392 14.4267 20.9125 14.096V11.936C19.6218 12.096 18.7152 12.336 18.1925 12.656C17.6805 12.976 17.4245 13.3867 17.4245 13.888C17.4245 14.3253 17.5578 14.6453 17.8245 14.848C18.0912 15.04 18.4165 15.136 18.8005 15.136ZM27.311 19.584C26.3617 19.584 25.5883 19.4027 24.991 19.04C24.3937 18.6773 24.095 18.16 24.095 17.488C24.095 17.1573 24.1963 16.8373 24.399 16.528C24.6017 16.2293 24.879 15.9627 25.231 15.728V15.664C25.039 15.5467 24.8737 15.3813 24.735 15.168C24.607 14.9547 24.543 14.6987 24.543 14.4C24.543 14.0693 24.6337 13.7813 24.815 13.536C24.9963 13.2907 25.1883 13.0987 25.391 12.96V12.896C25.135 12.6827 24.9003 12.3947 24.687 12.032C24.4843 11.6693 24.383 11.2587 24.383 10.8C24.383 10.2347 24.5163 9.744 24.783 9.328C25.0497 8.912 25.407 8.592 25.855 8.368C26.303 8.144 26.7883 8.032 27.311 8.032C27.5243 8.032 27.727 8.05333 27.919 8.096C28.111 8.128 28.2763 8.17067 28.415 8.224H31.119V9.232H29.519C29.7003 9.40267 29.8497 9.632 29.967 9.92C30.095 10.1973 30.159 10.5013 30.159 10.832C30.159 11.3867 30.031 11.8667 29.775 12.272C29.519 12.6773 29.1777 12.992 28.751 13.216C28.3243 13.4293 27.8443 13.536 27.311 13.536C26.895 13.536 26.5057 13.4453 26.143 13.264C26.0043 13.3813 25.887 13.5147 25.791 13.664C25.695 13.8027 25.647 13.9787 25.647 14.192C25.647 14.4373 25.743 14.64 25.935 14.8C26.1377 14.96 26.5003 15.04 27.023 15.04H28.527C29.4337 15.04 30.111 15.1893 30.559 15.488C31.0177 15.776 31.247 16.2453 31.247 16.896C31.247 17.376 31.087 17.8187 30.767 18.224C30.447 18.6293 29.9937 18.9547 29.407 19.2C28.8203 19.456 28.1217 19.584 27.311 19.584ZM27.311 12.656C27.759 12.656 28.143 12.4907 28.463 12.16C28.7937 11.8187 28.959 11.3653 28.959 10.8C28.959 10.2347 28.799 9.792 28.479 9.472C28.159 9.152 27.7697 8.992 27.311 8.992C26.8523 8.992 26.463 9.152 26.143 9.472C25.823 9.792 25.663 10.2347 25.663 10.8C25.663 11.3653 25.823 11.8187 26.143 12.16C26.4737 12.4907 26.863 12.656 27.311 12.656ZM27.503 18.672C28.2497 18.672 28.847 18.5067 29.295 18.176C29.743 17.856 29.967 17.4933 29.967 17.088C29.967 16.7253 29.8283 16.4747 29.551 16.336C29.2843 16.1973 28.9003 16.128 28.399 16.128H27.055C26.9057 16.128 26.7403 16.1173 26.559 16.096C26.3883 16.0747 26.2177 16.0427 26.047 16C25.7697 16.2027 25.567 16.416 25.439 16.64C25.311 16.864 25.247 17.088 25.247 17.312C25.247 17.728 25.4443 18.0587 25.839 18.304C26.2443 18.5493 26.799 18.672 27.503 18.672ZM35.0215 16.192C34.2002 16.192 33.5975 15.936 33.2135 15.424C32.8295 14.9013 32.6375 14.144 32.6375 13.152V8.224H33.9655V12.976C33.9655 13.7013 34.0775 14.2293 34.3015 14.56C34.5362 14.8907 34.9095 15.056 35.4215 15.056C35.8268 15.056 36.1842 14.9547 36.4935 14.752C36.8135 14.5387 37.1548 14.2027 37.5175 13.744V8.224H38.8295V16H37.7415L37.6295 14.784H37.5815C37.2188 15.2107 36.8348 15.552 36.4295 15.808C36.0242 16.064 35.5548 16.192 35.0215 16.192ZM44.6046 16.192C43.9113 16.192 43.282 16.032 42.7166 15.712C42.1513 15.3813 41.7033 14.912 41.3726 14.304C41.042 13.696 40.8766 12.9707 40.8766 12.128C40.8766 11.2747 41.042 10.544 41.3726 9.936C41.714 9.328 42.1513 8.85867 42.6846 8.528C43.218 8.19733 43.778 8.032 44.3646 8.032C45.3566 8.032 46.1193 8.36267 46.6526 9.024C47.1966 9.68533 47.4686 10.5707 47.4686 11.68C47.4686 11.8187 47.4633 11.9573 47.4526 12.096C47.4526 12.224 47.442 12.336 47.4206 12.432H42.1726C42.226 13.2533 42.482 13.9093 42.9406 14.4C43.41 14.8907 44.018 15.136 44.7646 15.136C45.138 15.136 45.4793 15.0827 45.7886 14.976C46.1086 14.8587 46.4126 14.7093 46.7006 14.528L47.1646 15.392C46.834 15.6053 46.4553 15.792 46.0286 15.952C45.6126 16.112 45.138 16.192 44.6046 16.192ZM42.1566 11.488H46.3166C46.3166 10.6987 46.146 10.1013 45.8046 9.696C45.474 9.28 45.0046 9.072 44.3966 9.072C43.8526 9.072 43.362 9.28533 42.9246 9.712C42.498 10.128 42.242 10.72 42.1566 11.488ZM55.6173 16.192C54.9879 16.192 54.3959 16.032 53.8413 15.712C53.2973 15.392 52.8546 14.928 52.5133 14.32C52.1826 13.712 52.0173 12.9813 52.0173 12.128C52.0173 11.2533 52.1826 10.512 52.5133 9.904C52.8546 9.296 53.2973 8.832 53.8413 8.512C54.3959 8.192 54.9879 8.032 55.6173 8.032C56.2573 8.032 56.8493 8.192 57.3933 8.512C57.9373 8.832 58.3746 9.296 58.7053 9.904C59.0466 10.512 59.2173 11.2533 59.2173 12.128C59.2173 12.9813 59.0466 13.712 58.7053 14.32C58.3746 14.928 57.9373 15.392 57.3933 15.712C56.8493 16.032 56.2573 16.192 55.6173 16.192ZM55.6173 15.104C56.2893 15.104 56.8279 14.832 57.2333 14.288C57.6493 13.7333 57.8573 13.0133 57.8573 12.128C57.8573 11.232 57.6493 10.5067 57.2333 9.952C56.8279 9.39733 56.2893 9.12 55.6173 9.12C54.9559 9.12 54.4173 9.39733 54.0013 9.952C53.5853 10.5067 53.3773 11.232 53.3773 12.128C53.3773 13.0133 53.5853 13.7333 54.0013 14.288C54.4173 14.832 54.9559 15.104 55.6173 15.104ZM61.4891 16V9.296H60.4331V8.304L61.4891 8.224V6.992C61.4891 6.20267 61.6705 5.57867 62.0331 5.12C62.4065 4.65067 62.9825 4.416 63.7611 4.416C64.0065 4.416 64.2411 4.44267 64.4651 4.496C64.6891 4.53867 64.8865 4.59733 65.0571 4.672L64.7691 5.68C64.4811 5.552 64.1878 5.488 63.8891 5.488C63.1638 5.488 62.8011 5.98933 62.8011 6.992V8.224H64.4491V9.296H62.8011V16H61.4891Z" fill="white"/>
</g>
</svg>
