<svg width="19" height="20" viewBox="0 0 19 20" fill="none" xmlns="http://www.w3.org/2000/svg">
<mask id="mask0_36_627" style="mask-type:luminance" maskUnits="userSpaceOnUse" x="0" y="0" width="19" height="20">
<path d="M18.0563 0.0148926H0.498047V19.1194H18.0563V0.0148926Z" fill="white"/>
</mask>
<g mask="url(#mask0_36_627)">
<path d="M3.09905 9.10489C2.66105 9.10489 2.24105 9.04189 1.83905 8.91589C1.43705 8.78389 1.10705 8.60389 0.849047 8.37589L1.22705 7.50289C1.50905 7.71889 1.80005 7.87789 2.10005 7.97989C2.40605 8.08189 2.72705 8.13289 3.06305 8.13289C3.47105 8.13289 3.78005 8.05189 3.99005 7.88989C4.20005 7.72789 4.30505 7.49089 4.30505 7.17889C4.30505 6.87889 4.20005 6.65389 3.99005 6.50389C3.78605 6.34789 3.48605 6.26989 3.09005 6.26989H2.06405V5.34289H2.99105C3.33305 5.34289 3.60605 5.25889 3.81005 5.09089C4.01405 4.92289 4.11605 4.69189 4.11605 4.39789C4.11605 4.12189 4.02005 3.91189 3.82805 3.76789C3.64205 3.62389 3.37205 3.55189 3.01805 3.55189C2.38205 3.55189 1.82105 3.76789 1.33505 4.19989L0.957047 3.33589C1.21505 3.09589 1.53305 2.90989 1.91105 2.77789C2.29505 2.64589 2.69705 2.57989 3.11705 2.57989C3.77705 2.57989 4.29305 2.72989 4.66505 3.02989C5.04305 3.32389 5.23205 3.73489 5.23205 4.26289C5.23205 4.64089 5.12405 4.96789 4.90805 5.24389C4.69805 5.51389 4.40705 5.69389 4.03505 5.78389V5.67589C4.47305 5.74789 4.81205 5.92789 5.05205 6.21589C5.29805 6.49789 5.42105 6.85189 5.42105 7.27789C5.42105 7.84189 5.21405 8.28889 4.80005 8.61889C4.38605 8.94289 3.81905 9.10489 3.09905 9.10489Z" fill="#979797"/>
</g>
</svg>
