<svg width="95" height="30" viewBox="0 0 95 30" fill="none" xmlns="http://www.w3.org/2000/svg">
<mask id="mask0_3_2388" style="mask-type:luminance" maskUnits="userSpaceOnUse" x="0" y="0" width="95" height="30">
<path d="M95 0H0V30H95V0Z" fill="white"/>
</mask>
<g mask="url(#mask0_3_2388)">
<path d="M16.848 23.5V7.852H22.224C23.376 7.852 24.416 8.012 25.344 8.332C26.288 8.636 27.04 9.156 27.6 9.892C28.16 10.628 28.44 11.628 28.44 12.892C28.44 14.108 28.16 15.108 27.6 15.892C27.04 16.676 26.296 17.26 25.368 17.644C24.44 18.012 23.424 18.196 22.32 18.196H20.376V23.5H16.848ZM20.376 15.388H22.104C24.024 15.388 24.984 14.556 24.984 12.892C24.984 12.076 24.728 11.5 24.216 11.164C23.704 10.828 22.968 10.66 22.008 10.66H20.376V15.388ZM34.0969 23.788C32.8809 23.788 32.0329 23.428 31.5529 22.708C31.0889 21.972 30.8569 21.004 30.8569 19.804V6.676H34.3849V19.948C34.3849 20.316 34.4489 20.572 34.5769 20.716C34.7209 20.86 34.8649 20.932 35.0089 20.932C35.0889 20.932 35.1529 20.932 35.2009 20.932C35.2649 20.916 35.3449 20.9 35.4409 20.884L35.8729 23.5C35.6809 23.58 35.4329 23.644 35.1289 23.692C34.8409 23.756 34.4969 23.788 34.0969 23.788ZM40.7241 23.788C39.6361 23.788 38.7721 23.444 38.1321 22.756C37.4921 22.052 37.1721 21.196 37.1721 20.188C37.1721 18.94 37.7001 17.964 38.7561 17.26C39.8121 16.556 41.5161 16.084 43.8681 15.844C43.8361 15.316 43.6761 14.9 43.3881 14.596C43.1161 14.276 42.6521 14.116 41.9961 14.116C41.5001 14.116 40.9961 14.212 40.4841 14.404C39.9721 14.596 39.4281 14.86 38.8521 15.196L37.5801 12.868C38.3321 12.404 39.1321 12.028 39.9801 11.74C40.8441 11.452 41.7401 11.308 42.6681 11.308C44.1881 11.308 45.3561 11.748 46.1721 12.628C46.9881 13.508 47.3961 14.86 47.3961 16.684V23.5H44.5161L44.2761 22.276H44.1801C43.6841 22.724 43.1481 23.092 42.5721 23.38C42.0121 23.652 41.3961 23.788 40.7241 23.788ZM41.9241 21.052C42.3241 21.052 42.6681 20.964 42.9561 20.788C43.2601 20.596 43.5641 20.348 43.8681 20.044V17.956C42.6201 18.116 41.7561 18.372 41.2761 18.724C40.7961 19.06 40.5561 19.46 40.5561 19.924C40.5561 20.308 40.6761 20.596 40.9161 20.788C41.1721 20.964 41.5081 21.052 41.9241 21.052ZM51.7003 28.156C51.3483 28.156 51.0363 28.132 50.7643 28.084C50.5083 28.036 50.2603 27.98 50.0203 27.916L50.6443 25.228C50.7563 25.244 50.8843 25.268 51.0283 25.3C51.1723 25.348 51.3083 25.372 51.4363 25.372C52.0283 25.372 52.4843 25.228 52.8043 24.94C53.1243 24.652 53.3643 24.276 53.5243 23.812L53.6923 23.188L49.1083 11.596H52.6603L54.3643 16.708C54.5403 17.252 54.7003 17.804 54.8443 18.364C54.9883 18.924 55.1403 19.5 55.3003 20.092H55.3963C55.5243 19.532 55.6523 18.972 55.7803 18.412C55.9243 17.836 56.0683 17.268 56.2123 16.708L57.6523 11.596H61.0363L56.9083 23.62C56.5403 24.612 56.1323 25.444 55.6843 26.116C55.2363 26.804 54.6923 27.316 54.0523 27.652C53.4283 27.988 52.6443 28.156 51.7003 28.156ZM68.0364 23.788C66.9004 23.788 65.8764 23.54 64.9644 23.044C64.0524 22.548 63.3324 21.836 62.8044 20.908C62.2764 19.98 62.0124 18.86 62.0124 17.548C62.0124 16.252 62.2764 15.14 62.8044 14.212C63.3484 13.284 64.0524 12.572 64.9164 12.076C65.7804 11.564 66.6844 11.308 67.6284 11.308C68.7644 11.308 69.7004 11.564 70.4364 12.076C71.1884 12.572 71.7484 13.252 72.1164 14.116C72.5004 14.964 72.6924 15.932 72.6924 17.02C72.6924 17.324 72.6764 17.628 72.6444 17.932C72.6124 18.22 72.5804 18.436 72.5484 18.58H65.4204C65.5804 19.444 65.9404 20.084 66.5004 20.5C67.0604 20.9 67.7324 21.1 68.5164 21.1C69.3644 21.1 70.2204 20.836 71.0844 20.308L72.2604 22.444C71.6524 22.86 70.9724 23.188 70.2204 23.428C69.4684 23.668 68.7404 23.788 68.0364 23.788ZM65.3964 16.252H69.6924C69.6924 15.596 69.5324 15.06 69.2124 14.644C68.9084 14.212 68.4044 13.996 67.7004 13.996C67.1564 13.996 66.6684 14.188 66.2364 14.572C65.8044 14.94 65.5244 15.5 65.3964 16.252ZM75.1303 23.5V11.596H78.0103L78.2503 13.684H78.3463C78.7783 12.884 79.2983 12.292 79.9063 11.908C80.5143 11.508 81.1223 11.308 81.7303 11.308C82.0663 11.308 82.3463 11.332 82.5703 11.38C82.7943 11.412 82.9863 11.468 83.1463 11.548L82.5703 14.596C82.3623 14.532 82.1543 14.484 81.9463 14.452C81.7543 14.42 81.5303 14.404 81.2743 14.404C80.8263 14.404 80.3543 14.572 79.8583 14.908C79.3783 15.228 78.9783 15.788 78.6583 16.588V23.5H75.1303Z" fill="white"/>
</g>
</svg>
