<svg width="260" height="37" viewBox="0 0 260 37" fill="none" xmlns="http://www.w3.org/2000/svg">
<mask id="mask0_36_556" style="mask-type:luminance" maskUnits="userSpaceOnUse" x="0" y="0" width="260" height="37">
<path d="M259.353 0.462708H0.367676V36.2836H259.353V0.462708Z" fill="white"/>
</mask>
<g mask="url(#mask0_36_556)">
<path d="M3.10768 12.8507L0.617676 5.80074H1.95768L3.87768 11.5807H3.47768L5.54768 5.80074H6.50768L8.42768 11.5807H8.05768L10.0677 5.80074H11.3277L8.81768 12.8507H7.74768L5.88768 7.43074H6.10768L4.17768 12.8507H3.10768ZM13.9136 12.9507C13.3936 12.9507 12.9436 12.8441 12.5636 12.6307C12.1836 12.4174 11.8869 12.1141 11.6736 11.7207C11.4669 11.3274 11.3636 10.8607 11.3636 10.3207C11.3636 9.78074 11.4669 9.3174 11.6736 8.93074C11.8869 8.5374 12.1836 8.23407 12.5636 8.02074C12.9436 7.8074 13.3936 7.70074 13.9136 7.70074C14.4336 7.70074 14.8836 7.8074 15.2636 8.02074C15.6503 8.23407 15.9469 8.5374 16.1536 8.93074C16.3669 9.3174 16.4736 9.78074 16.4736 10.3207C16.4736 10.8607 16.3669 11.3274 16.1536 11.7207C15.9469 12.1141 15.6503 12.4174 15.2636 12.6307C14.8836 12.8441 14.4336 12.9507 13.9136 12.9507ZM13.9136 11.9907C14.3069 11.9907 14.6203 11.8541 14.8536 11.5807C15.0869 11.3007 15.2036 10.8807 15.2036 10.3207C15.2036 9.76074 15.0869 9.34407 14.8536 9.07074C14.6203 8.7974 14.3069 8.66074 13.9136 8.66074C13.5203 8.66074 13.2069 8.7974 12.9736 9.07074C12.7403 9.34407 12.6236 9.76074 12.6236 10.3207C12.6236 10.8807 12.7403 11.3007 12.9736 11.5807C13.2069 11.8541 13.5203 11.9907 13.9136 11.9907ZM17.5516 12.8507V5.49074H18.8016V12.8507H17.5516ZM21.639 12.8507L19.459 7.80074H20.789L22.369 11.7507H22.059L23.679 7.80074H24.929L22.739 12.8507H21.639ZM27.9408 12.9507C27.0941 12.9507 26.4308 12.7174 25.9508 12.2507C25.4708 11.7841 25.2308 11.1441 25.2308 10.3307C25.2308 9.80407 25.3341 9.34407 25.5408 8.95074C25.7475 8.5574 26.0341 8.25074 26.4008 8.03074C26.7741 7.81074 27.2075 7.70074 27.7008 7.70074C28.1875 7.70074 28.5941 7.80407 28.9208 8.01074C29.2475 8.21741 29.4941 8.50741 29.6608 8.88074C29.8341 9.25407 29.9208 9.69074 29.9208 10.1907V10.5207H26.2408V9.86074H29.0308L28.8608 10.0007C28.8608 9.53407 28.7608 9.1774 28.5608 8.93074C28.3675 8.68407 28.0841 8.56074 27.7108 8.56074C27.2975 8.56074 26.9775 8.7074 26.7508 9.00074C26.5308 9.29407 26.4208 9.70407 26.4208 10.2307V10.3607C26.4208 10.9074 26.5541 11.3174 26.8208 11.5907C27.0941 11.8574 27.4775 11.9907 27.9708 11.9907C28.2575 11.9907 28.5241 11.9541 28.7708 11.8807C29.0241 11.8007 29.2641 11.6741 29.4908 11.5007L29.8608 12.3407C29.6208 12.5341 29.3341 12.6841 29.0008 12.7907C28.6675 12.8974 28.3141 12.9507 27.9408 12.9507ZM30.9693 12.8507V9.09074C30.9693 8.8774 30.9626 8.66074 30.9493 8.44074C30.9426 8.22074 30.926 8.0074 30.8993 7.80074H32.1093L32.2493 9.18074H32.0493C32.116 8.8474 32.226 8.57074 32.3793 8.35074C32.5393 8.13074 32.7326 7.96741 32.9593 7.86074C33.186 7.75407 33.4326 7.70074 33.6993 7.70074C33.8193 7.70074 33.916 7.7074 33.9893 7.72074C34.0626 7.7274 34.136 7.74407 34.2093 7.77074L34.1993 8.87074C34.0726 8.8174 33.9626 8.78407 33.8693 8.77074C33.7826 8.7574 33.6726 8.75074 33.5393 8.75074C33.2526 8.75074 33.0093 8.81074 32.8093 8.93074C32.616 9.05074 32.4693 9.21741 32.3693 9.43074C32.276 9.64407 32.2293 9.88741 32.2293 10.1607V12.8507H30.9693ZM34.9051 12.8507V5.49074H36.1551V8.81074H36.0151C36.1684 8.45074 36.4051 8.1774 36.7251 7.99074C37.0451 7.7974 37.4118 7.70074 37.8251 7.70074C38.4251 7.70074 38.8718 7.87074 39.1651 8.21074C39.4584 8.54407 39.6051 9.05407 39.6051 9.74074V12.8507H38.3551V9.80074C38.3551 9.40741 38.2784 9.12407 38.1251 8.95074C37.9784 8.77074 37.7418 8.68074 37.4151 8.68074C37.0351 8.68074 36.7284 8.80074 36.4951 9.04074C36.2684 9.27407 36.1551 9.58741 36.1551 9.98074V12.8507H34.9051ZM42.8805 12.9507C42.4405 12.9507 42.0538 12.8474 41.7205 12.6407C41.3872 12.4274 41.1272 12.1241 40.9405 11.7307C40.7538 11.3374 40.6605 10.8674 40.6605 10.3207C40.6605 9.77407 40.7538 9.30741 40.9405 8.92074C41.1272 8.52741 41.3872 8.22741 41.7205 8.02074C42.0538 7.8074 42.4405 7.70074 42.8805 7.70074C43.3072 7.70074 43.6805 7.8074 44.0005 8.02074C44.3272 8.22741 44.5438 8.5074 44.6505 8.86074H44.5405L44.6505 7.80074H45.8505C45.8305 8.0074 45.8105 8.2174 45.7905 8.43074C45.7772 8.64407 45.7705 8.85407 45.7705 9.06074V12.8507H44.5305L44.5205 11.8107H44.6405C44.5338 12.1574 44.3172 12.4341 43.9905 12.6407C43.6638 12.8474 43.2938 12.9507 42.8805 12.9507ZM43.2305 11.9907C43.6238 11.9907 43.9405 11.8541 44.1805 11.5807C44.4205 11.3007 44.5405 10.8807 44.5405 10.3207C44.5405 9.76074 44.4205 9.34407 44.1805 9.07074C43.9405 8.7974 43.6238 8.66074 43.2305 8.66074C42.8372 8.66074 42.5205 8.7974 42.2805 9.07074C42.0405 9.34407 41.9205 9.76074 41.9205 10.3207C41.9205 10.8807 42.0372 11.3007 42.2705 11.5807C42.5105 11.8541 42.8305 11.9907 43.2305 11.9907ZM47.1317 12.8507V9.06074C47.1317 8.85407 47.125 8.64407 47.1117 8.43074C47.0983 8.2174 47.0783 8.0074 47.0517 7.80074H48.2617L48.3617 8.80074H48.2417C48.3817 8.45407 48.595 8.18407 48.8817 7.99074C49.175 7.7974 49.5217 7.70074 49.9217 7.70074C50.3217 7.70074 50.6517 7.7974 50.9117 7.99074C51.1783 8.1774 51.365 8.47074 51.4717 8.87074H51.3117C51.4517 8.51074 51.6817 8.22741 52.0017 8.02074C52.3217 7.8074 52.6883 7.70074 53.1017 7.70074C53.6683 7.70074 54.0917 7.8674 54.3717 8.20074C54.6517 8.53407 54.7917 9.05407 54.7917 9.76074V12.8507H53.5417V9.81074C53.5417 9.41074 53.475 9.12407 53.3417 8.95074C53.2083 8.77074 52.995 8.68074 52.7017 8.68074C52.355 8.68074 52.0817 8.80407 51.8817 9.05074C51.6817 9.29074 51.5817 9.61741 51.5817 10.0307V12.8507H50.3317V9.81074C50.3317 9.41074 50.265 9.12407 50.1317 8.95074C49.9983 8.77074 49.785 8.68074 49.4917 8.68074C49.145 8.68074 48.8717 8.80407 48.6717 9.05074C48.4783 9.29074 48.3817 9.61741 48.3817 10.0307V12.8507H47.1317ZM56.1258 15.0107V9.06074C56.1258 8.85407 56.1191 8.64407 56.1058 8.43074C56.0925 8.2174 56.0725 8.0074 56.0458 7.80074H57.2558L57.3658 8.86074H57.2558C57.3558 8.5074 57.5658 8.22741 57.8858 8.02074C58.2125 7.8074 58.5891 7.70074 59.0158 7.70074C59.4625 7.70074 59.8525 7.8074 60.1858 8.02074C60.5191 8.22741 60.7791 8.52741 60.9658 8.92074C61.1525 9.30741 61.2458 9.77407 61.2458 10.3207C61.2458 10.8674 61.1525 11.3374 60.9658 11.7307C60.7791 12.1241 60.5191 12.4274 60.1858 12.6407C59.8525 12.8474 59.4625 12.9507 59.0158 12.9507C58.5958 12.9507 58.2258 12.8474 57.9058 12.6407C57.5858 12.4341 57.3725 12.1574 57.2658 11.8107H57.3758V15.0107H56.1258ZM58.6658 11.9907C59.0658 11.9907 59.3858 11.8541 59.6258 11.5807C59.8658 11.3007 59.9858 10.8807 59.9858 10.3207C59.9858 9.76074 59.8658 9.34407 59.6258 9.07074C59.3858 8.7974 59.0658 8.66074 58.6658 8.66074C58.2725 8.66074 57.9558 8.7974 57.7158 9.07074C57.4758 9.34407 57.3558 9.76074 57.3558 10.3207C57.3558 10.8807 57.4758 11.3007 57.7158 11.5807C57.9558 11.8541 58.2725 11.9907 58.6658 11.9907ZM64.4381 12.9507C63.8381 12.9507 63.3848 12.7941 63.0781 12.4807C62.7715 12.1674 62.6181 11.6974 62.6181 11.0707V8.74074H61.6481V7.80074H62.6181V6.51074L63.8681 6.19074V7.80074H65.2181V8.74074H63.8681V10.9907C63.8681 11.3374 63.9348 11.5807 64.0681 11.7207C64.2015 11.8607 64.3848 11.9307 64.6181 11.9307C64.7448 11.9307 64.8515 11.9207 64.9381 11.9007C65.0315 11.8807 65.1215 11.8541 65.2081 11.8207V12.8107C65.0948 12.8574 64.9681 12.8907 64.8281 12.9107C64.6948 12.9374 64.5648 12.9507 64.4381 12.9507ZM68.2984 12.9507C67.7784 12.9507 67.3284 12.8441 66.9484 12.6307C66.5684 12.4174 66.2717 12.1141 66.0584 11.7207C65.8517 11.3274 65.7484 10.8607 65.7484 10.3207C65.7484 9.78074 65.8517 9.3174 66.0584 8.93074C66.2717 8.5374 66.5684 8.23407 66.9484 8.02074C67.3284 7.8074 67.7784 7.70074 68.2984 7.70074C68.8184 7.70074 69.2684 7.8074 69.6484 8.02074C70.035 8.23407 70.3317 8.5374 70.5384 8.93074C70.7517 9.3174 70.8584 9.78074 70.8584 10.3207C70.8584 10.8607 70.7517 11.3274 70.5384 11.7207C70.3317 12.1141 70.035 12.4174 69.6484 12.6307C69.2684 12.8441 68.8184 12.9507 68.2984 12.9507ZM68.2984 11.9907C68.6917 11.9907 69.005 11.8541 69.2384 11.5807C69.4717 11.3007 69.5884 10.8807 69.5884 10.3207C69.5884 9.76074 69.4717 9.34407 69.2384 9.07074C69.005 8.7974 68.6917 8.66074 68.2984 8.66074C67.905 8.66074 67.5917 8.7974 67.3584 9.07074C67.125 9.34407 67.0084 9.76074 67.0084 10.3207C67.0084 10.8807 67.125 11.3007 67.3584 11.5807C67.5917 11.8541 67.905 11.9907 68.2984 11.9907ZM71.9363 12.8507V9.06074C71.9363 8.85407 71.9297 8.64407 71.9163 8.43074C71.903 8.2174 71.883 8.0074 71.8563 7.80074H73.0663L73.1663 8.80074H73.0463C73.2063 8.4474 73.443 8.1774 73.7563 7.99074C74.0697 7.7974 74.433 7.70074 74.8463 7.70074C75.4397 7.70074 75.8863 7.8674 76.1863 8.20074C76.4863 8.53407 76.6363 9.05407 76.6363 9.76074V12.8507H75.3863V9.82074C75.3863 9.41407 75.3063 9.12407 75.1463 8.95074C74.993 8.77074 74.7597 8.68074 74.4463 8.68074C74.0597 8.68074 73.753 8.80074 73.5263 9.04074C73.2997 9.28074 73.1863 9.60074 73.1863 10.0007V12.8507H71.9363ZM82.7659 12.8507L80.2759 5.80074H81.6159L83.5359 11.5807H83.1359L85.2059 5.80074H86.1659L88.0859 11.5807H87.7159L89.7259 5.80074H90.9859L88.4759 12.8507H87.4059L85.5459 7.43074H85.7659L83.8359 12.8507H82.7659ZM93.2711 12.9507C92.8311 12.9507 92.4444 12.8474 92.1111 12.6407C91.7778 12.4274 91.5178 12.1241 91.3311 11.7307C91.1444 11.3374 91.0511 10.8674 91.0511 10.3207C91.0511 9.77407 91.1444 9.30741 91.3311 8.92074C91.5178 8.52741 91.7778 8.22741 92.1111 8.02074C92.4444 7.8074 92.8311 7.70074 93.2711 7.70074C93.6978 7.70074 94.0711 7.8074 94.3911 8.02074C94.7178 8.22741 94.9344 8.5074 95.0411 8.86074H94.9311L95.0411 7.80074H96.2411C96.2211 8.0074 96.2011 8.2174 96.1811 8.43074C96.1678 8.64407 96.1611 8.85407 96.1611 9.06074V12.8507H94.9211L94.9111 11.8107H95.0311C94.9244 12.1574 94.7078 12.4341 94.3811 12.6407C94.0544 12.8474 93.6844 12.9507 93.2711 12.9507ZM93.6211 11.9907C94.0144 11.9907 94.3311 11.8541 94.5711 11.5807C94.8111 11.3007 94.9311 10.8807 94.9311 10.3207C94.9311 9.76074 94.8111 9.34407 94.5711 9.07074C94.3311 8.7974 94.0144 8.66074 93.6211 8.66074C93.2278 8.66074 92.9111 8.7974 92.6711 9.07074C92.4311 9.34407 92.3111 9.76074 92.3111 10.3207C92.3111 10.8807 92.4278 11.3007 92.6611 11.5807C92.9011 11.8541 93.2211 11.9907 93.6211 11.9907ZM97.5223 12.8507V9.06074C97.5223 8.85407 97.5156 8.64407 97.5023 8.43074C97.489 8.2174 97.469 8.0074 97.4423 7.80074H98.6523L98.7523 8.80074H98.6323C98.7923 8.4474 99.029 8.1774 99.3423 7.99074C99.6556 7.7974 100.019 7.70074 100.432 7.70074C101.026 7.70074 101.472 7.8674 101.772 8.20074C102.072 8.53407 102.222 9.05407 102.222 9.76074V12.8507H100.972V9.82074C100.972 9.41407 100.892 9.12407 100.732 8.95074C100.579 8.77074 100.346 8.68074 100.032 8.68074C99.6456 8.68074 99.339 8.80074 99.1123 9.04074C98.8856 9.28074 98.7723 9.60074 98.7723 10.0007V12.8507H97.5223ZM105.508 12.9507C105.068 12.9507 104.678 12.8474 104.338 12.6407C104.004 12.4274 103.744 12.1241 103.558 11.7307C103.371 11.3374 103.278 10.8674 103.278 10.3207C103.278 9.77407 103.371 9.30741 103.558 8.92074C103.744 8.52741 104.004 8.22741 104.338 8.02074C104.678 7.8074 105.068 7.70074 105.508 7.70074C105.928 7.70074 106.298 7.80407 106.618 8.01074C106.944 8.21074 107.161 8.48407 107.268 8.83074H107.138V5.49074H108.388V12.8507H107.158V11.7807H107.278C107.171 12.1407 106.954 12.4274 106.628 12.6407C106.308 12.8474 105.934 12.9507 105.508 12.9507ZM105.858 11.9907C106.251 11.9907 106.568 11.8541 106.808 11.5807C107.048 11.3007 107.168 10.8807 107.168 10.3207C107.168 9.76074 107.048 9.34407 106.808 9.07074C106.568 8.7974 106.251 8.66074 105.858 8.66074C105.464 8.66074 105.144 8.7974 104.898 9.07074C104.658 9.34407 104.538 9.76074 104.538 10.3207C104.538 10.8807 104.658 11.3007 104.898 11.5807C105.144 11.8541 105.464 11.9907 105.858 11.9907Z" fill="#979797"/>
</g>
</svg>
