<svg width="99" height="20" viewBox="0 0 99 20" fill="none" xmlns="http://www.w3.org/2000/svg">
<mask id="mask0_3_3397" style="mask-type:luminance" maskUnits="userSpaceOnUse" x="0" y="0" width="99" height="20">
<path d="M99 0H0V20H99V0Z" fill="white"/>
</mask>
<g mask="url(#mask0_3_3397)">
<path d="M5.168 16.192C4.45333 16.192 3.808 16.048 3.232 15.76C2.66667 15.472 2.21867 14.9973 1.888 14.336C1.55733 13.6747 1.392 12.784 1.392 11.664V5.504H2.72V11.696C2.72 12.5387 2.82667 13.2053 3.04 13.696C3.264 14.176 3.55733 14.5173 3.92 14.72C4.29333 14.9227 4.70933 15.024 5.168 15.024C5.63733 15.024 6.05867 14.9227 6.432 14.72C6.80533 14.5173 7.09867 14.176 7.312 13.696C7.536 13.2053 7.648 12.5387 7.648 11.696V5.504H8.928V11.664C8.928 12.784 8.76267 13.6747 8.432 14.336C8.10133 14.9973 7.65333 15.472 7.088 15.76C6.52267 16.048 5.88267 16.192 5.168 16.192ZM11.6245 19.28V8.224H12.7125L12.8245 9.12H12.8725C13.2245 8.82133 13.6085 8.56533 14.0245 8.352C14.4512 8.13867 14.8938 8.032 15.3525 8.032C16.3552 8.032 17.1178 8.39467 17.6405 9.12C18.1632 9.83467 18.4245 10.7947 18.4245 12C18.4245 12.8747 18.2645 13.6267 17.9445 14.256C17.6352 14.8853 17.2245 15.3653 16.7125 15.696C16.2112 16.0267 15.6618 16.192 15.0645 16.192C14.7018 16.192 14.3392 16.112 13.9765 15.952C13.6245 15.792 13.2672 15.5733 12.9045 15.296L12.9365 16.656V19.28H11.6245ZM14.8405 15.088C15.4805 15.088 16.0085 14.816 16.4245 14.272C16.8512 13.7173 17.0645 12.96 17.0645 12C17.0645 11.1467 16.9045 10.4587 16.5845 9.936C16.2752 9.40267 15.7525 9.136 15.0165 9.136C14.6858 9.136 14.3498 9.22667 14.0085 9.408C13.6778 9.58933 13.3205 9.85067 12.9365 10.192V14.272C13.2885 14.5707 13.6298 14.784 13.9605 14.912C14.2912 15.0293 14.5845 15.088 14.8405 15.088ZM23.5715 16.192C22.8888 16.192 22.2702 16.032 21.7155 15.712C21.1608 15.392 20.7235 14.928 20.4035 14.32C20.0835 13.712 19.9235 12.9813 19.9235 12.128C19.9235 11.2533 20.0942 10.512 20.4355 9.904C20.7875 9.296 21.2462 8.832 21.8115 8.512C22.3875 8.192 23.0062 8.032 23.6675 8.032C24.1795 8.032 24.6168 8.12267 24.9795 8.304C25.3528 8.48533 25.6728 8.69867 25.9395 8.944L25.2675 9.808C25.0435 9.60533 24.8035 9.44 24.5475 9.312C24.3022 9.184 24.0248 9.12 23.7155 9.12C23.2462 9.12 22.8248 9.248 22.4515 9.504C22.0888 9.74933 21.8008 10.1013 21.5875 10.56C21.3848 11.008 21.2835 11.5307 21.2835 12.128C21.2835 13.0133 21.5022 13.7333 21.9395 14.288C22.3875 14.832 22.9688 15.104 23.6835 15.104C24.0462 15.104 24.3822 15.0293 24.6915 14.88C25.0008 14.72 25.2728 14.5333 25.5075 14.32L26.0835 15.2C25.7315 15.5093 25.3422 15.7547 24.9155 15.936C24.4888 16.1067 24.0408 16.192 23.5715 16.192ZM30.4766 16.192C29.8473 16.192 29.2553 16.032 28.7006 15.712C28.1566 15.392 27.714 14.928 27.3726 14.32C27.042 13.712 26.8766 12.9813 26.8766 12.128C26.8766 11.2533 27.042 10.512 27.3726 9.904C27.714 9.296 28.1566 8.832 28.7006 8.512C29.2553 8.192 29.8473 8.032 30.4766 8.032C31.1166 8.032 31.7086 8.192 32.2526 8.512C32.7966 8.832 33.234 9.296 33.5646 9.904C33.906 10.512 34.0766 11.2533 34.0766 12.128C34.0766 12.9813 33.906 13.712 33.5646 14.32C33.234 14.928 32.7966 15.392 32.2526 15.712C31.7086 16.032 31.1166 16.192 30.4766 16.192ZM30.4766 15.104C31.1486 15.104 31.6873 14.832 32.0926 14.288C32.5086 13.7333 32.7166 13.0133 32.7166 12.128C32.7166 11.232 32.5086 10.5067 32.0926 9.952C31.6873 9.39733 31.1486 9.12 30.4766 9.12C29.8153 9.12 29.2766 9.39733 28.8606 9.952C28.4446 10.5067 28.2366 11.232 28.2366 12.128C28.2366 13.0133 28.4446 13.7333 28.8606 14.288C29.2766 14.832 29.8153 15.104 30.4766 15.104ZM36.1245 16V8.224H37.2125L37.3245 9.344H37.3725C37.7138 8.97067 38.0872 8.66133 38.4925 8.416C38.8978 8.16 39.3298 8.032 39.7885 8.032C40.3858 8.032 40.8498 8.16533 41.1805 8.432C41.5218 8.688 41.7725 9.05067 41.9325 9.52C42.3378 9.08267 42.7485 8.72533 43.1645 8.448C43.5805 8.17067 44.0232 8.032 44.4925 8.032C45.2925 8.032 45.8845 8.29333 46.2685 8.816C46.6632 9.328 46.8605 10.08 46.8605 11.072V16H45.5485V11.248C45.5485 10.5227 45.4312 9.99467 45.1965 9.664C44.9618 9.33333 44.5992 9.168 44.1085 9.168C43.5325 9.168 42.8818 9.568 42.1565 10.368V16H40.8445V11.248C40.8445 10.5227 40.7272 9.99467 40.4925 9.664C40.2578 9.33333 39.8898 9.168 39.3885 9.168C38.8125 9.168 38.1618 9.568 37.4365 10.368V16H36.1245ZM49.3901 16V8.224H50.7021V16H49.3901ZM50.0621 6.624C49.8061 6.624 49.5928 6.54933 49.4221 6.4C49.2621 6.24 49.1821 6.02667 49.1821 5.76C49.1821 5.504 49.2621 5.296 49.4221 5.136C49.5928 4.976 49.8061 4.896 50.0621 4.896C50.3181 4.896 50.5261 4.976 50.6861 5.136C50.8568 5.296 50.9421 5.504 50.9421 5.76C50.9421 6.02667 50.8568 6.24 50.6861 6.4C50.5261 6.54933 50.3181 6.624 50.0621 6.624ZM53.3276 16V8.224H54.4156L54.5276 9.344H54.5756C54.949 8.97067 55.3436 8.66133 55.7596 8.416C56.1756 8.16 56.6503 8.032 57.1836 8.032C58.005 8.032 58.6023 8.29333 58.9756 8.816C59.3596 9.328 59.5516 10.08 59.5516 11.072V16H58.2396V11.248C58.2396 10.5227 58.1223 9.99467 57.8876 9.664C57.653 9.33333 57.2796 9.168 56.7676 9.168C56.373 9.168 56.0156 9.26933 55.6956 9.472C55.3863 9.67467 55.0343 9.97333 54.6396 10.368V16H53.3276ZM64.7016 19.584C63.7523 19.584 62.979 19.4027 62.3816 19.04C61.7843 18.6773 61.4856 18.16 61.4856 17.488C61.4856 17.1573 61.587 16.8373 61.7896 16.528C61.9923 16.2293 62.2696 15.9627 62.6216 15.728V15.664C62.4296 15.5467 62.2643 15.3813 62.1256 15.168C61.9976 14.9547 61.9336 14.6987 61.9336 14.4C61.9336 14.0693 62.0243 13.7813 62.2056 13.536C62.387 13.2907 62.579 13.0987 62.7816 12.96V12.896C62.5256 12.6827 62.291 12.3947 62.0776 12.032C61.875 11.6693 61.7736 11.2587 61.7736 10.8C61.7736 10.2347 61.907 9.744 62.1736 9.328C62.4403 8.912 62.7976 8.592 63.2456 8.368C63.6936 8.144 64.179 8.032 64.7016 8.032C64.915 8.032 65.1176 8.05333 65.3096 8.096C65.5016 8.128 65.667 8.17067 65.8056 8.224H68.5096V9.232H66.9096C67.091 9.40267 67.2403 9.632 67.3576 9.92C67.4856 10.1973 67.5496 10.5013 67.5496 10.832C67.5496 11.3867 67.4216 11.8667 67.1656 12.272C66.9096 12.6773 66.5683 12.992 66.1416 13.216C65.715 13.4293 65.235 13.536 64.7016 13.536C64.2856 13.536 63.8963 13.4453 63.5336 13.264C63.395 13.3813 63.2776 13.5147 63.1816 13.664C63.0856 13.8027 63.0376 13.9787 63.0376 14.192C63.0376 14.4373 63.1336 14.64 63.3256 14.8C63.5283 14.96 63.891 15.04 64.4136 15.04H65.9176C66.8243 15.04 67.5016 15.1893 67.9496 15.488C68.4083 15.776 68.6376 16.2453 68.6376 16.896C68.6376 17.376 68.4776 17.8187 68.1576 18.224C67.8376 18.6293 67.3843 18.9547 66.7976 19.2C66.211 19.456 65.5123 19.584 64.7016 19.584ZM64.7016 12.656C65.1496 12.656 65.5336 12.4907 65.8536 12.16C66.1843 11.8187 66.3496 11.3653 66.3496 10.8C66.3496 10.2347 66.1896 9.792 65.8696 9.472C65.5496 9.152 65.1603 8.992 64.7016 8.992C64.243 8.992 63.8536 9.152 63.5336 9.472C63.2136 9.792 63.0536 10.2347 63.0536 10.8C63.0536 11.3653 63.2136 11.8187 63.5336 12.16C63.8643 12.4907 64.2536 12.656 64.7016 12.656ZM64.8936 18.672C65.6403 18.672 66.2376 18.5067 66.6856 18.176C67.1336 17.856 67.3576 17.4933 67.3576 17.088C67.3576 16.7253 67.219 16.4747 66.9416 16.336C66.675 16.1973 66.291 16.128 65.7896 16.128H64.4456C64.2963 16.128 64.131 16.1173 63.9496 16.096C63.779 16.0747 63.6083 16.0427 63.4376 16C63.1603 16.2027 62.9576 16.416 62.8296 16.64C62.7016 16.864 62.6376 17.088 62.6376 17.312C62.6376 17.728 62.835 18.0587 63.2296 18.304C63.635 18.5493 64.1896 18.672 64.8936 18.672Z" fill="#030303"/>
</g>
</svg>
