<svg width="93" height="20" viewBox="0 0 93 20" fill="none" xmlns="http://www.w3.org/2000/svg">
<mask id="mask0_3_3213" style="mask-type:luminance" maskUnits="userSpaceOnUse" x="0" y="0" width="93" height="20">
<path d="M93 0H0V20H93V0Z" fill="white"/>
</mask>
<g mask="url(#mask0_3_3213)">
<path d="M5.568 16.192C4.65067 16.192 3.83467 15.9787 3.12 15.552C2.40533 15.1147 1.84533 14.4907 1.44 13.68C1.03467 12.8693 0.832 11.8933 0.832 10.752C0.832 9.62133 1.04 8.65067 1.456 7.84C1.872 7.02933 2.44267 6.40533 3.168 5.968C3.89333 5.53067 4.72 5.312 5.648 5.312C6.37333 5.312 6.98133 5.45067 7.472 5.728C7.97333 5.99467 8.37333 6.288 8.672 6.608L7.936 7.472C7.66933 7.19467 7.36 6.96 7.008 6.768C6.656 6.576 6.21333 6.48 5.68 6.48C4.976 6.48 4.36267 6.656 3.84 7.008C3.31733 7.34933 2.912 7.83467 2.624 8.464C2.34667 9.09333 2.208 9.84533 2.208 10.72C2.208 12.0427 2.50667 13.0933 3.104 13.872C3.712 14.64 4.576 15.024 5.696 15.024C6.06933 15.024 6.42667 14.9707 6.768 14.864C7.10933 14.7467 7.38133 14.592 7.584 14.4V11.664H5.36V10.56H8.8V14.976C8.46933 15.328 8.02133 15.6213 7.456 15.856C6.90133 16.08 6.272 16.192 5.568 16.192ZM12.979 16.192C12.3283 16.192 11.7843 16 11.347 15.616C10.9203 15.2213 10.707 14.6773 10.707 13.984C10.707 13.1307 11.0857 12.48 11.843 12.032C12.611 11.5733 13.8217 11.2533 15.475 11.072C15.475 10.7413 15.427 10.4267 15.331 10.128C15.2457 9.82933 15.0857 9.58933 14.851 9.408C14.627 9.216 14.3017 9.12 13.875 9.12C13.427 9.12 13.0057 9.20533 12.611 9.376C12.2163 9.54667 11.8643 9.73867 11.555 9.952L11.043 9.04C11.4057 8.80533 11.8483 8.58133 12.371 8.368C12.9043 8.144 13.4803 8.032 14.099 8.032C15.0483 8.032 15.7363 8.32533 16.163 8.912C16.5897 9.488 16.803 10.2613 16.803 11.232V16H15.715L15.603 15.072H15.555C15.1923 15.3707 14.7923 15.632 14.355 15.856C13.9283 16.08 13.4697 16.192 12.979 16.192ZM13.363 15.136C13.7363 15.136 14.0883 15.0453 14.419 14.864C14.7497 14.6827 15.1017 14.4267 15.475 14.096V11.936C14.1843 12.096 13.2777 12.336 12.755 12.656C12.243 12.976 11.987 13.3867 11.987 13.888C11.987 14.3253 12.1203 14.6453 12.387 14.848C12.6537 15.04 12.979 15.136 13.363 15.136ZM19.2495 16V8.224H20.3375L20.4495 9.344H20.4975C20.8388 8.97067 21.2122 8.66133 21.6175 8.416C22.0228 8.16 22.4548 8.032 22.9135 8.032C23.5108 8.032 23.9748 8.16533 24.3055 8.432C24.6468 8.688 24.8975 9.05067 25.0575 9.52C25.4628 9.08267 25.8735 8.72533 26.2895 8.448C26.7055 8.17067 27.1482 8.032 27.6175 8.032C28.4175 8.032 29.0095 8.29333 29.3935 8.816C29.7882 9.328 29.9855 10.08 29.9855 11.072V16H28.6735V11.248C28.6735 10.5227 28.5562 9.99467 28.3215 9.664C28.0868 9.33333 27.7242 9.168 27.2335 9.168C26.6575 9.168 26.0068 9.568 25.2815 10.368V16H23.9695V11.248C23.9695 10.5227 23.8522 9.99467 23.6175 9.664C23.3828 9.33333 23.0148 9.168 22.5135 9.168C21.9375 9.168 21.2868 9.568 20.5615 10.368V16H19.2495ZM35.6671 16.192C34.9738 16.192 34.3445 16.032 33.7791 15.712C33.2138 15.3813 32.7658 14.912 32.4351 14.304C32.1045 13.696 31.9391 12.9707 31.9391 12.128C31.9391 11.2747 32.1045 10.544 32.4351 9.936C32.7765 9.328 33.2138 8.85867 33.7471 8.528C34.2805 8.19733 34.8405 8.032 35.4271 8.032C36.4191 8.032 37.1818 8.36267 37.7151 9.024C38.2591 9.68533 38.5311 10.5707 38.5311 11.68C38.5311 11.8187 38.5258 11.9573 38.5151 12.096C38.5151 12.224 38.5045 12.336 38.4831 12.432H33.2351C33.2885 13.2533 33.5445 13.9093 34.0031 14.4C34.4725 14.8907 35.0805 15.136 35.8271 15.136C36.2005 15.136 36.5418 15.0827 36.8511 14.976C37.1711 14.8587 37.4751 14.7093 37.7631 14.528L38.2271 15.392C37.8965 15.6053 37.5178 15.792 37.0911 15.952C36.6751 16.112 36.2005 16.192 35.6671 16.192ZM33.2191 11.488H37.3791C37.3791 10.6987 37.2085 10.1013 36.8671 9.696C36.5365 9.28 36.0671 9.072 35.4591 9.072C34.9151 9.072 34.4245 9.28533 33.9871 9.712C33.5605 10.128 33.3045 10.72 33.2191 11.488Z" fill="white"/>
</g>
</svg>
