<svg width="75" height="19" viewBox="0 0 75 19" fill="none" xmlns="http://www.w3.org/2000/svg">
<mask id="mask0_34_427" style="mask-type:luminance" maskUnits="userSpaceOnUse" x="0" y="0" width="75" height="19">
<path d="M74.5 0.5H0.5V18.5H74.5V0.5Z" fill="white"/>
</mask>
<g mask="url(#mask0_34_427)">
<path d="M4.308 14.668C3.664 14.668 3.06667 14.5467 2.516 14.304C1.96533 14.052 1.48933 13.7207 1.088 13.31L1.788 12.498C2.11467 12.8433 2.49733 13.1233 2.936 13.338C3.384 13.5433 3.846 13.646 4.322 13.646C4.92867 13.646 5.4 13.5107 5.736 13.24C6.072 12.96 6.24 12.596 6.24 12.148C6.24 11.8307 6.17 11.5787 6.03 11.392C5.89933 11.2053 5.71733 11.0467 5.484 10.916C5.26 10.7853 5.00333 10.6547 4.714 10.524L3.398 9.95C3.10867 9.82867 2.81933 9.67 2.53 9.474C2.25 9.278 2.012 9.026 1.816 8.718C1.62933 8.41 1.536 8.032 1.536 7.584C1.536 7.11733 1.65733 6.702 1.9 6.338C2.152 5.96467 2.49733 5.67533 2.936 5.47C3.37467 5.25533 3.86933 5.148 4.42 5.148C4.97067 5.148 5.47933 5.25533 5.946 5.47C6.41267 5.67533 6.80933 5.946 7.136 6.282L6.506 7.038C6.226 6.76733 5.91333 6.55733 5.568 6.408C5.232 6.24933 4.84933 6.17 4.42 6.17C3.90667 6.17 3.49133 6.29133 3.174 6.534C2.866 6.77667 2.712 7.10333 2.712 7.514C2.712 7.80333 2.78667 8.046 2.936 8.242C3.09467 8.42867 3.29067 8.58267 3.524 8.704C3.75733 8.82533 3.99533 8.93733 4.238 9.04L5.54 9.6C5.89467 9.74933 6.212 9.93133 6.492 10.146C6.78133 10.3513 7.01 10.608 7.178 10.916C7.346 11.2147 7.43 11.5927 7.43 12.05C7.43 12.5353 7.304 12.9787 7.052 13.38C6.8 13.772 6.44067 14.0847 5.974 14.318C5.50733 14.5513 4.952 14.668 4.308 14.668ZM9.12652 14.5V4.532H10.2745V7.248L10.2325 8.648C10.5592 8.34 10.8998 8.07867 11.2545 7.864C11.6185 7.64 12.0338 7.528 12.5005 7.528C13.2192 7.528 13.7418 7.75667 14.0685 8.214C14.4045 8.662 14.5725 9.32 14.5725 10.188V14.5H13.4245V10.342C13.4245 9.70733 13.3218 9.24533 13.1165 8.956C12.9112 8.66667 12.5845 8.522 12.1365 8.522C11.7912 8.522 11.4785 8.61067 11.1985 8.788C10.9278 8.96533 10.6198 9.22667 10.2745 9.572V14.5H9.12652ZM19.3878 14.668C18.8371 14.668 18.3191 14.528 17.8338 14.248C17.3578 13.968 16.9704 13.562 16.6718 13.03C16.3824 12.498 16.2378 11.8587 16.2378 11.112C16.2378 10.3467 16.3824 9.698 16.6718 9.166C16.9704 8.634 17.3578 8.228 17.8338 7.948C18.3191 7.668 18.8371 7.528 19.3878 7.528C19.9478 7.528 20.4658 7.668 20.9418 7.948C21.4178 8.228 21.8004 8.634 22.0898 9.166C22.3884 9.698 22.5378 10.3467 22.5378 11.112C22.5378 11.8587 22.3884 12.498 22.0898 13.03C21.8004 13.562 21.4178 13.968 20.9418 14.248C20.4658 14.528 19.9478 14.668 19.3878 14.668ZM19.3878 13.716C19.9758 13.716 20.4471 13.478 20.8018 13.002C21.1658 12.5167 21.3478 11.8867 21.3478 11.112C21.3478 10.328 21.1658 9.69333 20.8018 9.208C20.4471 8.72267 19.9758 8.48 19.3878 8.48C18.8091 8.48 18.3378 8.72267 17.9738 9.208C17.6098 9.69333 17.4278 10.328 17.4278 11.112C17.4278 11.8867 17.6098 12.5167 17.9738 13.002C18.3378 13.478 18.8091 13.716 19.3878 13.716ZM25.353 14.5L23.463 7.696H24.639L25.647 11.63C25.7216 11.9473 25.7916 12.2647 25.857 12.582C25.9223 12.89 25.9876 13.2027 26.053 13.52H26.109C26.1836 13.2027 26.2583 12.89 26.333 12.582C26.4076 12.2647 26.487 11.9473 26.571 11.63L27.621 7.696H28.741L29.805 11.63C29.889 11.9473 29.9683 12.2647 30.043 12.582C30.127 12.89 30.2063 13.2027 30.281 13.52H30.337C30.4116 13.2027 30.4816 12.89 30.547 12.582C30.6216 12.2647 30.6916 11.9473 30.757 11.63L31.751 7.696H32.843L31.023 14.5H29.623L28.643 10.846C28.559 10.5193 28.4796 10.1973 28.405 9.88C28.3396 9.56267 28.265 9.23133 28.181 8.886H28.125C28.0503 9.23133 27.9756 9.56733 27.901 9.894C27.8263 10.2113 27.7423 10.5333 27.649 10.86L26.697 14.5H25.353ZM38.6945 14.668C38.1252 14.668 37.6492 14.5 37.2665 14.164C36.8932 13.8187 36.7065 13.3427 36.7065 12.736C36.7065 11.9893 37.0378 11.42 37.7005 11.028C38.3725 10.6267 39.4318 10.3467 40.8785 10.188C40.8785 9.89867 40.8365 9.62333 40.7525 9.362C40.6778 9.10067 40.5378 8.89067 40.3325 8.732C40.1365 8.564 39.8518 8.48 39.4785 8.48C39.0865 8.48 38.7178 8.55467 38.3725 8.704C38.0272 8.85333 37.7192 9.02133 37.4485 9.208L37.0005 8.41C37.3178 8.20467 37.7052 8.00867 38.1625 7.822C38.6292 7.626 39.1332 7.528 39.6745 7.528C40.5052 7.528 41.1072 7.78467 41.4805 8.298C41.8538 8.802 42.0405 9.47867 42.0405 10.328V14.5H41.0885L40.9905 13.688H40.9485C40.6312 13.9493 40.2812 14.178 39.8985 14.374C39.5252 14.57 39.1238 14.668 38.6945 14.668ZM39.0305 13.744C39.3572 13.744 39.6652 13.6647 39.9545 13.506C40.2438 13.3473 40.5518 13.1233 40.8785 12.834V10.944C39.7492 11.084 38.9558 11.294 38.4985 11.574C38.0505 11.854 37.8265 12.2133 37.8265 12.652C37.8265 13.0347 37.9432 13.3147 38.1765 13.492C38.4098 13.66 38.6945 13.744 39.0305 13.744ZM45.3992 14.668C44.9699 14.668 44.6572 14.5373 44.4612 14.276C44.2745 14.0053 44.1812 13.6227 44.1812 13.128V4.532H45.3292V13.212C45.3292 13.3893 45.3619 13.52 45.4272 13.604C45.4925 13.6787 45.5672 13.716 45.6512 13.716C45.6885 13.716 45.7212 13.716 45.7492 13.716C45.7865 13.7067 45.8379 13.6973 45.9032 13.688L46.0572 14.556C45.9825 14.5933 45.8939 14.6213 45.7912 14.64C45.6885 14.6587 45.5579 14.668 45.3992 14.668ZM48.9676 14.668C48.5382 14.668 48.2256 14.5373 48.0296 14.276C47.8429 14.0053 47.7496 13.6227 47.7496 13.128V4.532H48.8976V13.212C48.8976 13.3893 48.9302 13.52 48.9956 13.604C49.0609 13.6787 49.1356 13.716 49.2196 13.716C49.2569 13.716 49.2896 13.716 49.3176 13.716C49.3549 13.7067 49.4062 13.6973 49.4716 13.688L49.6256 14.556C49.5509 14.5933 49.4622 14.6213 49.3596 14.64C49.2569 14.6587 49.1262 14.668 48.9676 14.668Z" fill="white"/>
</g>
</svg>
