<svg width="63" height="20" viewBox="0 0 63 20" fill="none" xmlns="http://www.w3.org/2000/svg">
<mask id="mask0_3_3244" style="mask-type:luminance" maskUnits="userSpaceOnUse" x="0" y="0" width="63" height="20">
<path d="M63 0H0V20H63V0Z" fill="white"/>
</mask>
<g mask="url(#mask0_3_3244)">
<path d="M1.44 16V5.504H2.768V16H1.44ZM5.51513 16V8.224H6.60313L6.71513 9.344H6.76313C7.13646 8.97067 7.53113 8.66133 7.94713 8.416C8.36313 8.16 8.83779 8.032 9.37113 8.032C10.1925 8.032 10.7898 8.29333 11.1631 8.816C11.5471 9.328 11.7391 10.08 11.7391 11.072V16H10.4271V11.248C10.4271 10.5227 10.3098 9.99467 10.0751 9.664C9.84046 9.33333 9.46713 9.168 8.95513 9.168C8.56046 9.168 8.20313 9.26933 7.88313 9.472C7.57379 9.67467 7.22179 9.97333 6.82713 10.368V16H5.51513ZM13.6091 12.496V11.488H17.2891V12.496H13.6091ZM21.8579 19.584C20.9085 19.584 20.1352 19.4027 19.5379 19.04C18.9405 18.6773 18.6419 18.16 18.6419 17.488C18.6419 17.1573 18.7432 16.8373 18.9459 16.528C19.1485 16.2293 19.4259 15.9627 19.7779 15.728V15.664C19.5859 15.5467 19.4205 15.3813 19.2819 15.168C19.1539 14.9547 19.0899 14.6987 19.0899 14.4C19.0899 14.0693 19.1805 13.7813 19.3619 13.536C19.5432 13.2907 19.7352 13.0987 19.9379 12.96V12.896C19.6819 12.6827 19.4472 12.3947 19.2339 12.032C19.0312 11.6693 18.9299 11.2587 18.9299 10.8C18.9299 10.2347 19.0632 9.744 19.3299 9.328C19.5965 8.912 19.9539 8.592 20.4019 8.368C20.8499 8.144 21.3352 8.032 21.8579 8.032C22.0712 8.032 22.2739 8.05333 22.4659 8.096C22.6579 8.128 22.8232 8.17067 22.9619 8.224H25.6659V9.232H24.0659C24.2472 9.40267 24.3965 9.632 24.5139 9.92C24.6419 10.1973 24.7059 10.5013 24.7059 10.832C24.7059 11.3867 24.5779 11.8667 24.3219 12.272C24.0659 12.6773 23.7245 12.992 23.2979 13.216C22.8712 13.4293 22.3912 13.536 21.8579 13.536C21.4419 13.536 21.0525 13.4453 20.6899 13.264C20.5512 13.3813 20.4339 13.5147 20.3379 13.664C20.2419 13.8027 20.1939 13.9787 20.1939 14.192C20.1939 14.4373 20.2899 14.64 20.4819 14.8C20.6845 14.96 21.0472 15.04 21.5699 15.04H23.0739C23.9805 15.04 24.6579 15.1893 25.1059 15.488C25.5645 15.776 25.7939 16.2453 25.7939 16.896C25.7939 17.376 25.6339 17.8187 25.3139 18.224C24.9939 18.6293 24.5405 18.9547 23.9539 19.2C23.3672 19.456 22.6685 19.584 21.8579 19.584ZM21.8579 12.656C22.3059 12.656 22.6899 12.4907 23.0099 12.16C23.3405 11.8187 23.5059 11.3653 23.5059 10.8C23.5059 10.2347 23.3459 9.792 23.0259 9.472C22.7059 9.152 22.3165 8.992 21.8579 8.992C21.3992 8.992 21.0099 9.152 20.6899 9.472C20.3699 9.792 20.2099 10.2347 20.2099 10.8C20.2099 11.3653 20.3699 11.8187 20.6899 12.16C21.0205 12.4907 21.4099 12.656 21.8579 12.656ZM22.0499 18.672C22.7965 18.672 23.3939 18.5067 23.8419 18.176C24.2899 17.856 24.5139 17.4933 24.5139 17.088C24.5139 16.7253 24.3752 16.4747 24.0979 16.336C23.8312 16.1973 23.4472 16.128 22.9459 16.128H21.6019C21.4525 16.128 21.2872 16.1173 21.1059 16.096C20.9352 16.0747 20.7645 16.0427 20.5939 16C20.3165 16.2027 20.1139 16.416 19.9859 16.64C19.8579 16.864 19.7939 17.088 19.7939 17.312C19.7939 17.728 19.9912 18.0587 20.3859 18.304C20.7912 18.5493 21.3459 18.672 22.0499 18.672ZM28.8384 16.192C28.1877 16.192 27.6437 16 27.2064 15.616C26.7797 15.2213 26.5664 14.6773 26.5664 13.984C26.5664 13.1307 26.945 12.48 27.7024 12.032C28.4704 11.5733 29.681 11.2533 31.3344 11.072C31.3344 10.7413 31.2864 10.4267 31.1904 10.128C31.105 9.82933 30.945 9.58933 30.7104 9.408C30.4864 9.216 30.161 9.12 29.7344 9.12C29.2864 9.12 28.865 9.20533 28.4704 9.376C28.0757 9.54667 27.7237 9.73867 27.4144 9.952L26.9024 9.04C27.265 8.80533 27.7077 8.58133 28.2304 8.368C28.7637 8.144 29.3397 8.032 29.9584 8.032C30.9077 8.032 31.5957 8.32533 32.0224 8.912C32.449 9.488 32.6624 10.2613 32.6624 11.232V16H31.5744L31.4624 15.072H31.4144C31.0517 15.3707 30.6517 15.632 30.2144 15.856C29.7877 16.08 29.329 16.192 28.8384 16.192ZM29.2224 15.136C29.5957 15.136 29.9477 15.0453 30.2784 14.864C30.609 14.6827 30.961 14.4267 31.3344 14.096V11.936C30.0437 12.096 29.137 12.336 28.6144 12.656C28.1024 12.976 27.8464 13.3867 27.8464 13.888C27.8464 14.3253 27.9797 14.6453 28.2464 14.848C28.513 15.04 28.8384 15.136 29.2224 15.136ZM35.1089 16V8.224H36.1969L36.3089 9.344H36.3569C36.6982 8.97067 37.0715 8.66133 37.4769 8.416C37.8822 8.16 38.3142 8.032 38.7729 8.032C39.3702 8.032 39.8342 8.16533 40.1649 8.432C40.5062 8.688 40.7569 9.05067 40.9169 9.52C41.3222 9.08267 41.7329 8.72533 42.1489 8.448C42.5649 8.17067 43.0075 8.032 43.4769 8.032C44.2769 8.032 44.8689 8.29333 45.2529 8.816C45.6475 9.328 45.8449 10.08 45.8449 11.072V16H44.5329V11.248C44.5329 10.5227 44.4155 9.99467 44.1809 9.664C43.9462 9.33333 43.5835 9.168 43.0929 9.168C42.5169 9.168 41.8662 9.568 41.1409 10.368V16H39.8289V11.248C39.8289 10.5227 39.7115 9.99467 39.4769 9.664C39.2422 9.33333 38.8742 9.168 38.3729 9.168C37.7969 9.168 37.1462 9.568 36.4209 10.368V16H35.1089ZM51.5265 16.192C50.8332 16.192 50.2038 16.032 49.6385 15.712C49.0732 15.3813 48.6252 14.912 48.2945 14.304C47.9638 13.696 47.7985 12.9707 47.7985 12.128C47.7985 11.2747 47.9638 10.544 48.2945 9.936C48.6358 9.328 49.0732 8.85867 49.6065 8.528C50.1398 8.19733 50.6998 8.032 51.2865 8.032C52.2785 8.032 53.0412 8.36267 53.5745 9.024C54.1185 9.68533 54.3905 10.5707 54.3905 11.68C54.3905 11.8187 54.3852 11.9573 54.3745 12.096C54.3745 12.224 54.3638 12.336 54.3425 12.432H49.0945C49.1478 13.2533 49.4038 13.9093 49.8625 14.4C50.3318 14.8907 50.9398 15.136 51.6865 15.136C52.0598 15.136 52.4012 15.0827 52.7105 14.976C53.0305 14.8587 53.3345 14.7093 53.6225 14.528L54.0865 15.392C53.7558 15.6053 53.3772 15.792 52.9505 15.952C52.5345 16.112 52.0598 16.192 51.5265 16.192ZM49.0785 11.488H53.2385C53.2385 10.6987 53.0678 10.1013 52.7265 9.696C52.3958 9.28 51.9265 9.072 51.3185 9.072C50.7745 9.072 50.2838 9.28533 49.8465 9.712C49.4198 10.128 49.1638 10.72 49.0785 11.488Z" fill="white"/>
</g>
</svg>
