<svg width="133" height="20" viewBox="0 0 133 20" fill="none" xmlns="http://www.w3.org/2000/svg">
<mask id="mask0_3_3314" style="mask-type:luminance" maskUnits="userSpaceOnUse" x="0" y="0" width="133" height="20">
<path d="M133 0H0V20H133V0Z" fill="white"/>
</mask>
<g mask="url(#mask0_3_3314)">
<path d="M3.248 10.128L2.752 11.728H5.904L5.408 10.128C5.216 9.54133 5.03467 8.96 4.864 8.384C4.69333 7.79733 4.52267 7.2 4.352 6.592H4.288C4.128 7.2 3.96267 7.79733 3.792 8.384C3.62133 8.96 3.44 9.54133 3.248 10.128ZM0.048 16L3.6 5.504H5.104L8.656 16H7.232L6.24 12.8H2.416L1.408 16H0.048ZM10.0151 19.28V8.224H11.1031L11.2151 9.12H11.2631C11.6151 8.82133 11.9991 8.56533 12.4151 8.352C12.8418 8.13867 13.2845 8.032 13.7431 8.032C14.7458 8.032 15.5085 8.39467 16.0311 9.12C16.5538 9.83467 16.8151 10.7947 16.8151 12C16.8151 12.8747 16.6551 13.6267 16.3351 14.256C16.0258 14.8853 15.6151 15.3653 15.1031 15.696C14.6018 16.0267 14.0525 16.192 13.4551 16.192C13.0925 16.192 12.7298 16.112 12.3671 15.952C12.0151 15.792 11.6578 15.5733 11.2951 15.296L11.3271 16.656V19.28H10.0151ZM13.2311 15.088C13.8711 15.088 14.3991 14.816 14.8151 14.272C15.2418 13.7173 15.4551 12.96 15.4551 12C15.4551 11.1467 15.2951 10.4587 14.9751 9.936C14.6658 9.40267 14.1431 9.136 13.4071 9.136C13.0765 9.136 12.7405 9.22667 12.3991 9.408C12.0685 9.58933 11.7111 9.85067 11.3271 10.192V14.272C11.6791 14.5707 12.0205 14.784 12.3511 14.912C12.6818 15.0293 12.9751 15.088 13.2311 15.088ZM22.0421 16.192C21.3488 16.192 20.7195 16.032 20.1541 15.712C19.5888 15.3813 19.1408 14.912 18.8101 14.304C18.4795 13.696 18.3141 12.9707 18.3141 12.128C18.3141 11.2747 18.4795 10.544 18.8101 9.936C19.1515 9.328 19.5888 8.85867 20.1221 8.528C20.6555 8.19733 21.2155 8.032 21.8021 8.032C22.7941 8.032 23.5568 8.36267 24.0901 9.024C24.6341 9.68533 24.9061 10.5707 24.9061 11.68C24.9061 11.8187 24.9008 11.9573 24.8901 12.096C24.8901 12.224 24.8795 12.336 24.8581 12.432H19.6101C19.6635 13.2533 19.9195 13.9093 20.3781 14.4C20.8475 14.8907 21.4555 15.136 22.2021 15.136C22.5755 15.136 22.9168 15.0827 23.2261 14.976C23.5461 14.8587 23.8501 14.7093 24.1381 14.528L24.6021 15.392C24.2715 15.6053 23.8928 15.792 23.4661 15.952C23.0501 16.112 22.5755 16.192 22.0421 16.192ZM19.5941 11.488H23.7541C23.7541 10.6987 23.5835 10.1013 23.2421 9.696C22.9115 9.28 22.4421 9.072 21.8341 9.072C21.2901 9.072 20.7995 9.28533 20.3621 9.712C19.9355 10.128 19.6795 10.72 19.5941 11.488ZM25.6303 16L28.1743 11.936L25.8223 8.224H27.2463L28.2863 9.936C28.4036 10.1387 28.5263 10.352 28.6543 10.576C28.7823 10.8 28.9156 11.0187 29.0543 11.232H29.1183C29.2356 11.0187 29.3529 10.8 29.4703 10.576C29.5876 10.352 29.7049 10.1387 29.8223 9.936L30.7663 8.224H32.1423L29.7903 12.08L32.3183 16H30.8943L29.7583 14.192C29.6196 13.9573 29.4809 13.7227 29.3423 13.488C29.2036 13.2533 29.0596 13.024 28.9103 12.8H28.8463C28.7076 13.024 28.5743 13.2533 28.4463 13.488C28.3183 13.712 28.1903 13.9467 28.0623 14.192L27.0063 16H25.6303ZM37.19 16V5.504H38.518V14.864H43.11V16H37.19ZM47.8078 16.192C47.1144 16.192 46.4851 16.032 45.9198 15.712C45.3544 15.3813 44.9064 14.912 44.5758 14.304C44.2451 13.696 44.0798 12.9707 44.0798 12.128C44.0798 11.2747 44.2451 10.544 44.5758 9.936C44.9171 9.328 45.3544 8.85867 45.8878 8.528C46.4211 8.19733 46.9811 8.032 47.5677 8.032C48.5598 8.032 49.3224 8.36267 49.8558 9.024C50.3998 9.68533 50.6718 10.5707 50.6718 11.68C50.6718 11.8187 50.6664 11.9573 50.6558 12.096C50.6558 12.224 50.6451 12.336 50.6238 12.432H45.3758C45.4291 13.2533 45.6851 13.9093 46.1438 14.4C46.6131 14.8907 47.2211 15.136 47.9678 15.136C48.3411 15.136 48.6824 15.0827 48.9918 14.976C49.3118 14.8587 49.6158 14.7093 49.9038 14.528L50.3678 15.392C50.0371 15.6053 49.6584 15.792 49.2318 15.952C48.8158 16.112 48.3411 16.192 47.8078 16.192ZM45.3598 11.488H49.5198C49.5198 10.6987 49.3491 10.1013 49.0078 9.696C48.6771 9.28 48.2078 9.072 47.5998 9.072C47.0558 9.072 46.5651 9.28533 46.1278 9.712C45.7011 10.128 45.4451 10.72 45.3598 11.488ZM55.061 19.584C54.1117 19.584 53.3383 19.4027 52.741 19.04C52.1437 18.6773 51.845 18.16 51.845 17.488C51.845 17.1573 51.9463 16.8373 52.149 16.528C52.3517 16.2293 52.629 15.9627 52.981 15.728V15.664C52.789 15.5467 52.6237 15.3813 52.485 15.168C52.357 14.9547 52.293 14.6987 52.293 14.4C52.293 14.0693 52.3837 13.7813 52.565 13.536C52.7463 13.2907 52.9383 13.0987 53.141 12.96V12.896C52.885 12.6827 52.6503 12.3947 52.437 12.032C52.2343 11.6693 52.133 11.2587 52.133 10.8C52.133 10.2347 52.2663 9.744 52.533 9.328C52.7997 8.912 53.157 8.592 53.605 8.368C54.053 8.144 54.5383 8.032 55.061 8.032C55.2743 8.032 55.477 8.05333 55.669 8.096C55.861 8.128 56.0263 8.17067 56.165 8.224H58.869V9.232H57.269C57.4503 9.40267 57.5997 9.632 57.717 9.92C57.845 10.1973 57.909 10.5013 57.909 10.832C57.909 11.3867 57.781 11.8667 57.525 12.272C57.269 12.6773 56.9277 12.992 56.501 13.216C56.0743 13.4293 55.5943 13.536 55.061 13.536C54.645 13.536 54.2557 13.4453 53.893 13.264C53.7543 13.3813 53.637 13.5147 53.541 13.664C53.445 13.8027 53.397 13.9787 53.397 14.192C53.397 14.4373 53.493 14.64 53.685 14.8C53.8877 14.96 54.2503 15.04 54.773 15.04H56.277C57.1837 15.04 57.861 15.1893 58.309 15.488C58.7677 15.776 58.997 16.2453 58.997 16.896C58.997 17.376 58.837 17.8187 58.517 18.224C58.197 18.6293 57.7437 18.9547 57.157 19.2C56.5703 19.456 55.8717 19.584 55.061 19.584ZM55.061 12.656C55.509 12.656 55.893 12.4907 56.213 12.16C56.5437 11.8187 56.709 11.3653 56.709 10.8C56.709 10.2347 56.549 9.792 56.229 9.472C55.909 9.152 55.5197 8.992 55.061 8.992C54.6023 8.992 54.213 9.152 53.893 9.472C53.573 9.792 53.413 10.2347 53.413 10.8C53.413 11.3653 53.573 11.8187 53.893 12.16C54.2237 12.4907 54.613 12.656 55.061 12.656ZM55.253 18.672C55.9997 18.672 56.597 18.5067 57.045 18.176C57.493 17.856 57.717 17.4933 57.717 17.088C57.717 16.7253 57.5783 16.4747 57.301 16.336C57.0343 16.1973 56.6503 16.128 56.149 16.128H54.805C54.6557 16.128 54.4903 16.1173 54.309 16.096C54.1383 16.0747 53.9677 16.0427 53.797 16C53.5197 16.2027 53.317 16.416 53.189 16.64C53.061 16.864 52.997 17.088 52.997 17.312C52.997 17.728 53.1943 18.0587 53.589 18.304C53.9943 18.5493 54.549 18.672 55.253 18.672ZM63.4328 16.192C62.7394 16.192 62.1101 16.032 61.5448 15.712C60.9794 15.3813 60.5314 14.912 60.2008 14.304C59.8701 13.696 59.7048 12.9707 59.7048 12.128C59.7048 11.2747 59.8701 10.544 60.2008 9.936C60.5421 9.328 60.9794 8.85867 61.5128 8.528C62.0461 8.19733 62.6061 8.032 63.1927 8.032C64.1848 8.032 64.9474 8.36267 65.4808 9.024C66.0248 9.68533 66.2968 10.5707 66.2968 11.68C66.2968 11.8187 66.2914 11.9573 66.2808 12.096C66.2808 12.224 66.2701 12.336 66.2488 12.432H61.0008C61.0541 13.2533 61.3101 13.9093 61.7688 14.4C62.2381 14.8907 62.8461 15.136 63.5928 15.136C63.9661 15.136 64.3074 15.0827 64.6168 14.976C64.9368 14.8587 65.2408 14.7093 65.5288 14.528L65.9928 15.392C65.6621 15.6053 65.2834 15.792 64.8568 15.952C64.4408 16.112 63.9661 16.192 63.4328 16.192ZM60.9848 11.488H65.1448C65.1448 10.6987 64.9741 10.1013 64.6328 9.696C64.3021 9.28 63.8328 9.072 63.2248 9.072C62.6808 9.072 62.1901 9.28533 61.7528 9.712C61.3261 10.128 61.0701 10.72 60.9848 11.488ZM68.2183 16V8.224H69.3063L69.4183 9.344H69.4663C69.8396 8.97067 70.2343 8.66133 70.6503 8.416C71.0663 8.16 71.5409 8.032 72.0743 8.032C72.8956 8.032 73.4929 8.29333 73.8663 8.816C74.2503 9.328 74.4423 10.08 74.4423 11.072V16H73.1303V11.248C73.1303 10.5227 73.0129 9.99467 72.7783 9.664C72.5436 9.33333 72.1703 9.168 71.6583 9.168C71.2636 9.168 70.9063 9.26933 70.5863 9.472C70.2769 9.67467 69.9249 9.97333 69.5303 10.368V16H68.2183ZM79.6243 16.192C78.6536 16.192 77.8749 15.84 77.2883 15.136C76.7016 14.4213 76.4083 13.4187 76.4083 12.128C76.4083 11.2853 76.5629 10.56 76.8723 9.952C77.1923 9.33333 77.6083 8.85867 78.1203 8.528C78.6429 8.19733 79.1976 8.032 79.7843 8.032C80.2323 8.032 80.6216 8.112 80.9523 8.272C81.2829 8.432 81.6189 8.65067 81.9603 8.928L81.8963 7.6V4.608H83.2243V16H82.1363L82.0243 15.088H81.9763C81.6776 15.3867 81.3256 15.648 80.9203 15.872C80.5149 16.0853 80.0829 16.192 79.6243 16.192ZM79.9123 15.088C80.5949 15.088 81.2563 14.7307 81.8963 14.016V9.952C81.5656 9.65333 81.2456 9.44533 80.9363 9.328C80.6376 9.2 80.3283 9.136 80.0083 9.136C79.5923 9.136 79.2136 9.264 78.8723 9.52C78.5416 9.76533 78.2749 10.112 78.0723 10.56C77.8696 10.9973 77.7682 11.5147 77.7682 12.112C77.7682 13.04 77.9549 13.7707 78.3283 14.304C78.7016 14.8267 79.2296 15.088 79.9123 15.088ZM87.8753 16.192C87.3206 16.192 86.7926 16.0907 86.2913 15.888C85.7899 15.6747 85.3526 15.4187 84.9793 15.12L85.6353 14.24C85.9766 14.5067 86.3286 14.7307 86.6913 14.912C87.0539 15.0827 87.4646 15.168 87.9233 15.168C88.4353 15.168 88.8193 15.0507 89.0753 14.816C89.3313 14.5707 89.4593 14.2827 89.4593 13.952C89.4593 13.6853 89.3686 13.4613 89.1873 13.28C89.0166 13.0987 88.7926 12.9493 88.5153 12.832C88.2486 12.704 87.9713 12.5867 87.6833 12.48C87.3206 12.3413 86.9633 12.1867 86.6113 12.016C86.2593 11.8347 85.9713 11.6053 85.7473 11.328C85.5233 11.04 85.4113 10.6773 85.4113 10.24C85.4113 9.61067 85.6459 9.088 86.1153 8.672C86.5953 8.24533 87.2566 8.032 88.0993 8.032C88.5793 8.032 89.0273 8.11733 89.4433 8.288C89.8593 8.45867 90.2166 8.66667 90.5153 8.912L89.8753 9.744C89.6086 9.54133 89.3313 9.376 89.0433 9.248C88.7553 9.12 88.4406 9.056 88.0993 9.056C87.6086 9.056 87.2459 9.168 87.0113 9.392C86.7873 9.616 86.6753 9.87733 86.6753 10.176C86.6753 10.4213 86.7553 10.624 86.9153 10.784C87.0753 10.9333 87.2833 11.0667 87.5393 11.184C87.7953 11.2907 88.0673 11.4027 88.3553 11.52C88.7286 11.6587 89.0966 11.8187 89.4593 12C89.8219 12.1707 90.1206 12.4053 90.3553 12.704C90.6006 12.992 90.7233 13.3813 90.7233 13.872C90.7233 14.288 90.6113 14.672 90.3873 15.024C90.1739 15.376 89.8539 15.6587 89.4273 15.872C89.0113 16.0853 88.4939 16.192 87.8753 16.192Z" fill="white"/>
</g>
</svg>
