<svg width="102" height="22" viewBox="0 0 102 22" fill="none" xmlns="http://www.w3.org/2000/svg">
<mask id="mask0_3_2581" style="mask-type:luminance" maskUnits="userSpaceOnUse" x="0" y="0" width="102" height="22">
<path d="M102 0H0V22H102V0Z" fill="white"/>
</mask>
<g mask="url(#mask0_3_2581)">
<path d="M1.386 17.5V5.764H4.284L6.174 10.984C6.294 11.32 6.408 11.674 6.516 12.046C6.624 12.418 6.738 12.784 6.858 13.144H6.93C7.05 12.784 7.158 12.418 7.254 12.046C7.362 11.674 7.476 11.32 7.596 10.984L9.45 5.764H12.33V17.5H9.918V13.198C9.918 12.814 9.936 12.388 9.972 11.92C10.02 11.44 10.068 10.96 10.116 10.48C10.176 10 10.224 9.574 10.26 9.202H10.188L9.234 11.992L7.56 16.474H6.102L4.428 11.992L3.492 9.202H3.42C3.468 9.574 3.516 10 3.564 10.48C3.612 10.96 3.654 11.44 3.69 11.92C3.738 12.388 3.762 12.814 3.762 13.198V17.5H1.386ZM17.1309 17.716C16.3149 17.716 15.6669 17.458 15.1869 16.942C14.7069 16.414 14.4669 15.772 14.4669 15.016C14.4669 14.08 14.8629 13.348 15.6549 12.82C16.4469 12.292 17.7249 11.938 19.4889 11.758C19.4649 11.362 19.3449 11.05 19.1289 10.822C18.9249 10.582 18.5769 10.462 18.0849 10.462C17.7129 10.462 17.3349 10.534 16.9509 10.678C16.5669 10.822 16.1589 11.02 15.7269 11.272L14.7729 9.526C15.3369 9.178 15.9369 8.896 16.5729 8.68C17.2209 8.464 17.8929 8.356 18.5889 8.356C19.7289 8.356 20.6049 8.686 21.2169 9.346C21.8289 10.006 22.1349 11.02 22.1349 12.388V17.5H19.9749L19.7949 16.582H19.7229C19.3509 16.918 18.9489 17.194 18.5169 17.41C18.0969 17.614 17.6349 17.716 17.1309 17.716ZM18.0309 15.664C18.3309 15.664 18.5889 15.598 18.8049 15.466C19.0329 15.322 19.2609 15.136 19.4889 14.908V13.342C18.5529 13.462 17.9049 13.654 17.5449 13.918C17.1849 14.17 17.0049 14.47 17.0049 14.818C17.0049 15.106 17.0949 15.322 17.2749 15.466C17.4669 15.598 17.7189 15.664 18.0309 15.664ZM27.4947 17.716C26.3907 17.716 25.5987 17.398 25.1187 16.762C24.6507 16.126 24.4167 15.292 24.4167 14.26V10.642H23.1927V8.68L24.5607 8.572L24.8667 6.196H27.0627V8.572H29.2047V10.642H27.0627V14.224C27.0627 14.728 27.1647 15.094 27.3687 15.322C27.5847 15.538 27.8667 15.646 28.2147 15.646C28.3587 15.646 28.5027 15.628 28.6467 15.592C28.8027 15.556 28.9407 15.514 29.0607 15.466L29.4747 17.392C29.2467 17.464 28.9647 17.536 28.6287 17.608C28.3047 17.68 27.9267 17.716 27.4947 17.716ZM34.5189 17.716C33.6909 17.716 32.9409 17.536 32.2689 17.176C31.6089 16.804 31.0809 16.27 30.6849 15.574C30.3009 14.866 30.1089 14.02 30.1089 13.036C30.1089 12.04 30.3249 11.194 30.7569 10.498C31.1889 9.802 31.7589 9.274 32.4669 8.914C33.1749 8.542 33.9369 8.356 34.7529 8.356C35.3049 8.356 35.7909 8.446 36.2109 8.626C36.6429 8.806 37.0269 9.034 37.3629 9.31L36.1209 11.02C35.7009 10.672 35.2989 10.498 34.9149 10.498C34.2789 10.498 33.7689 10.726 33.3849 11.182C33.0129 11.638 32.8269 12.256 32.8269 13.036C32.8269 13.804 33.0129 14.422 33.3849 14.89C33.7689 15.346 34.2489 15.574 34.8249 15.574C35.1129 15.574 35.3949 15.514 35.6709 15.394C35.9469 15.262 36.1989 15.106 36.4269 14.926L37.4709 16.654C37.0269 17.038 36.5469 17.314 36.0309 17.482C35.5149 17.638 35.0109 17.716 34.5189 17.716ZM39.0333 17.5V4.882H41.6793V7.978L41.5533 9.58C41.8893 9.28 42.2793 9.004 42.7233 8.752C43.1793 8.488 43.7073 8.356 44.3073 8.356C45.2793 8.356 45.9813 8.68 46.4133 9.328C46.8573 9.964 47.0793 10.84 47.0793 11.956V17.5H44.4333V12.298C44.4333 11.65 44.3433 11.206 44.1633 10.966C43.9953 10.726 43.7193 10.606 43.3353 10.606C42.9993 10.606 42.7113 10.684 42.4713 10.84C42.2313 10.984 41.9673 11.194 41.6793 11.47V17.5H39.0333Z" fill="white"/>
</g>
</svg>
