<svg width="235" height="22" viewBox="0 0 235 22" fill="none" xmlns="http://www.w3.org/2000/svg">
<mask id="mask0_3_2461" style="mask-type:luminance" maskUnits="userSpaceOnUse" x="0" y="0" width="235" height="22">
<path d="M235 0H0V22H235V0Z" fill="white"/>
</mask>
<g mask="url(#mask0_3_2461)">
<path d="M1.386 17.5V5.764H5.616C6.444 5.764 7.2 5.878 7.884 6.106C8.568 6.322 9.114 6.694 9.522 7.222C9.93 7.75 10.134 8.482 10.134 9.418C10.134 10.282 9.942 10.996 9.558 11.56C9.186 12.112 8.682 12.526 8.046 12.802L10.71 17.5H7.74L5.49 13.27H4.032V17.5H1.386ZM4.032 11.164H5.4C6.096 11.164 6.624 11.02 6.984 10.732C7.356 10.432 7.542 9.994 7.542 9.418C7.542 8.842 7.356 8.44 6.984 8.212C6.624 7.984 6.096 7.87 5.4 7.87H4.032V11.164ZM14.3184 17.716C13.5024 17.716 12.8544 17.458 12.3744 16.942C11.8944 16.414 11.6544 15.772 11.6544 15.016C11.6544 14.08 12.0504 13.348 12.8424 12.82C13.6344 12.292 14.9124 11.938 16.6764 11.758C16.6524 11.362 16.5324 11.05 16.3164 10.822C16.1124 10.582 15.7644 10.462 15.2724 10.462C14.9004 10.462 14.5224 10.534 14.1384 10.678C13.7544 10.822 13.3464 11.02 12.9144 11.272L11.9604 9.526C12.5244 9.178 13.1244 8.896 13.7604 8.68C14.4084 8.464 15.0804 8.356 15.7764 8.356C16.9164 8.356 17.7924 8.686 18.4044 9.346C19.0164 10.006 19.3224 11.02 19.3224 12.388V17.5H17.1624L16.9824 16.582H16.9104C16.5384 16.918 16.1364 17.194 15.7044 17.41C15.2844 17.614 14.8224 17.716 14.3184 17.716ZM15.2184 15.664C15.5184 15.664 15.7764 15.598 15.9924 15.466C16.2204 15.322 16.4484 15.136 16.6764 14.908V13.342C15.7404 13.462 15.0924 13.654 14.7324 13.918C14.3724 14.17 14.1924 14.47 14.1924 14.818C14.1924 15.106 14.2824 15.322 14.4624 15.466C14.6544 15.598 14.9064 15.664 15.2184 15.664ZM21.5606 17.5V8.572H24.2066V17.5H21.5606ZM22.8746 7.258C22.4306 7.258 22.0706 7.132 21.7946 6.88C21.5186 6.628 21.3806 6.292 21.3806 5.872C21.3806 5.452 21.5186 5.116 21.7946 4.864C22.0706 4.612 22.4306 4.486 22.8746 4.486C23.3186 4.486 23.6786 4.612 23.9546 4.864C24.2306 5.116 24.3686 5.452 24.3686 5.872C24.3686 6.292 24.2306 6.628 23.9546 6.88C23.6786 7.132 23.3186 7.258 22.8746 7.258ZM26.5352 17.5V8.572H28.6952L28.8752 9.706H28.9472C29.3312 9.346 29.7512 9.034 30.2072 8.77C30.6752 8.494 31.2092 8.356 31.8092 8.356C32.7812 8.356 33.4832 8.68 33.9152 9.328C34.3592 9.964 34.5812 10.84 34.5812 11.956V17.5H31.9352V12.298C31.9352 11.65 31.8452 11.206 31.6652 10.966C31.4972 10.726 31.2212 10.606 30.8372 10.606C30.5012 10.606 30.2132 10.684 29.9732 10.84C29.7332 10.984 29.4692 11.194 29.1812 11.47V17.5H26.5352ZM41.516 17.716C41.12 17.716 40.718 17.62 40.31 17.428C39.914 17.224 39.542 16.93 39.194 16.546H39.122L38.906 17.5H36.836V4.882H39.482V7.978L39.41 9.346C39.758 9.034 40.136 8.794 40.544 8.626C40.952 8.446 41.36 8.356 41.768 8.356C42.488 8.356 43.112 8.542 43.64 8.914C44.168 9.286 44.57 9.814 44.846 10.498C45.134 11.17 45.278 11.962 45.278 12.874C45.278 13.894 45.098 14.77 44.738 15.502C44.378 16.222 43.91 16.774 43.334 17.158C42.77 17.53 42.164 17.716 41.516 17.716ZM40.904 15.556C41.36 15.556 41.75 15.346 42.074 14.926C42.398 14.506 42.56 13.84 42.56 12.928C42.56 11.32 42.044 10.516 41.012 10.516C40.484 10.516 39.974 10.786 39.482 11.326V14.98C39.722 15.196 39.962 15.346 40.202 15.43C40.442 15.514 40.676 15.556 40.904 15.556ZM50.9884 17.716C50.2324 17.716 49.5184 17.536 48.8464 17.176C48.1864 16.804 47.6524 16.27 47.2444 15.574C46.8364 14.866 46.6324 14.02 46.6324 13.036C46.6324 12.04 46.8364 11.194 47.2444 10.498C47.6524 9.802 48.1864 9.274 48.8464 8.914C49.5184 8.542 50.2324 8.356 50.9884 8.356C51.7444 8.356 52.4524 8.542 53.1124 8.914C53.7724 9.274 54.3064 9.802 54.7144 10.498C55.1224 11.194 55.3264 12.04 55.3264 13.036C55.3264 14.02 55.1224 14.866 54.7144 15.574C54.3064 16.27 53.7724 16.804 53.1124 17.176C52.4524 17.536 51.7444 17.716 50.9884 17.716ZM50.9884 15.574C51.5284 15.574 51.9364 15.346 52.2124 14.89C52.4884 14.422 52.6264 13.804 52.6264 13.036C52.6264 12.256 52.4884 11.638 52.2124 11.182C51.9364 10.726 51.5284 10.498 50.9884 10.498C50.4364 10.498 50.0224 10.726 49.7464 11.182C49.4824 11.638 49.3504 12.256 49.3504 13.036C49.3504 13.804 49.4824 14.422 49.7464 14.89C50.0224 15.346 50.4364 15.574 50.9884 15.574ZM58.4921 17.5L56.2601 8.572H58.8881L59.7521 12.712C59.8241 13.156 59.8901 13.594 59.9501 14.026C60.0101 14.458 60.0761 14.902 60.1481 15.358H60.2201C60.3041 14.902 60.3821 14.452 60.4541 14.008C60.5381 13.564 60.6341 13.132 60.7421 12.712L61.7321 8.572H64.0181L65.0261 12.712C65.1341 13.156 65.2301 13.594 65.3141 14.026C65.4101 14.458 65.5001 14.902 65.5841 15.358H65.6561C65.7401 14.902 65.8061 14.458 65.8541 14.026C65.9141 13.594 65.9861 13.156 66.0701 12.712L66.9161 8.572H69.3641L67.2221 17.5H64.1261L63.3161 13.936C63.2321 13.516 63.1481 13.096 63.0641 12.676C62.9921 12.256 62.9141 11.806 62.8301 11.326H62.7581C62.6741 11.806 62.5961 12.256 62.5241 12.676C62.4641 13.096 62.3921 13.516 62.3081 13.936L61.5161 17.5H58.4921ZM78.3743 17.716C77.6063 17.716 76.8383 17.572 76.0703 17.284C75.3143 16.996 74.6363 16.576 74.0363 16.024L75.5483 14.206C75.9683 14.566 76.4363 14.86 76.9523 15.088C77.4683 15.316 77.9663 15.43 78.4463 15.43C78.9983 15.43 79.4063 15.328 79.6703 15.124C79.9463 14.92 80.0843 14.644 80.0843 14.296C80.0843 13.924 79.9283 13.654 79.6163 13.486C79.3163 13.306 78.9083 13.108 78.3923 12.892L76.8623 12.244C76.4663 12.076 76.0883 11.854 75.7283 11.578C75.3683 11.29 75.0743 10.936 74.8463 10.516C74.6183 10.096 74.5043 9.604 74.5043 9.04C74.5043 8.392 74.6783 7.804 75.0263 7.276C75.3863 6.748 75.8783 6.328 76.5023 6.016C77.1383 5.704 77.8643 5.548 78.6803 5.548C79.3523 5.548 80.0243 5.68 80.6963 5.944C81.3683 6.208 81.9563 6.592 82.4603 7.096L81.1103 8.77C80.7263 8.47 80.3423 8.242 79.9583 8.086C79.5743 7.918 79.1483 7.834 78.6803 7.834C78.2243 7.834 77.8583 7.93 77.5823 8.122C77.3183 8.302 77.1863 8.56 77.1863 8.896C77.1863 9.256 77.3543 9.526 77.6903 9.706C78.0383 9.886 78.4643 10.078 78.9683 10.282L80.4803 10.894C81.1883 11.182 81.7523 11.578 82.1723 12.082C82.5923 12.586 82.8023 13.252 82.8023 14.08C82.8023 14.728 82.6283 15.328 82.2803 15.88C81.9323 16.432 81.4283 16.876 80.7683 17.212C80.1083 17.548 79.3103 17.716 78.3743 17.716ZM84.5782 17.5V8.572H87.2242V17.5H84.5782ZM85.8922 7.258C85.4482 7.258 85.0882 7.132 84.8122 6.88C84.5362 6.628 84.3982 6.292 84.3982 5.872C84.3982 5.452 84.5362 5.116 84.8122 4.864C85.0882 4.612 85.4482 4.486 85.8922 4.486C86.3362 4.486 86.6962 4.612 86.9722 4.864C87.2482 5.116 87.3862 5.452 87.3862 5.872C87.3862 6.292 87.2482 6.628 86.9722 6.88C86.6962 7.132 86.3362 7.258 85.8922 7.258ZM88.6348 17.5L91.3708 12.856L88.7968 8.572H91.6408L92.4328 10.012C92.5528 10.264 92.6788 10.522 92.8108 10.786C92.9428 11.038 93.0688 11.29 93.1888 11.542H93.2608C93.3568 11.29 93.4588 11.038 93.5668 10.786C93.6748 10.522 93.7768 10.264 93.8728 10.012L94.4848 8.572H97.2208L94.6288 13.162L97.3828 17.5H94.5388L93.6748 16.024C93.5308 15.772 93.3868 15.514 93.2428 15.25C93.1108 14.986 92.9728 14.728 92.8288 14.476H92.7568C92.6488 14.728 92.5348 14.986 92.4148 15.25C92.2948 15.502 92.1808 15.76 92.0728 16.024L91.3708 17.5H88.6348ZM106.2 17.716C105.432 17.716 104.664 17.572 103.896 17.284C103.14 16.996 102.462 16.576 101.862 16.024L103.374 14.206C103.794 14.566 104.262 14.86 104.778 15.088C105.294 15.316 105.792 15.43 106.272 15.43C106.824 15.43 107.232 15.328 107.496 15.124C107.772 14.92 107.91 14.644 107.91 14.296C107.91 13.924 107.754 13.654 107.442 13.486C107.142 13.306 106.734 13.108 106.218 12.892L104.688 12.244C104.292 12.076 103.914 11.854 103.554 11.578C103.194 11.29 102.9 10.936 102.672 10.516C102.444 10.096 102.33 9.604 102.33 9.04C102.33 8.392 102.504 7.804 102.852 7.276C103.212 6.748 103.704 6.328 104.328 6.016C104.964 5.704 105.69 5.548 106.506 5.548C107.178 5.548 107.85 5.68 108.522 5.944C109.194 6.208 109.782 6.592 110.286 7.096L108.936 8.77C108.552 8.47 108.168 8.242 107.784 8.086C107.4 7.918 106.974 7.834 106.506 7.834C106.05 7.834 105.684 7.93 105.408 8.122C105.144 8.302 105.012 8.56 105.012 8.896C105.012 9.256 105.18 9.526 105.516 9.706C105.864 9.886 106.29 10.078 106.794 10.282L108.306 10.894C109.014 11.182 109.578 11.578 109.998 12.082C110.418 12.586 110.628 13.252 110.628 14.08C110.628 14.728 110.454 15.328 110.106 15.88C109.758 16.432 109.254 16.876 108.594 17.212C107.934 17.548 107.136 17.716 106.2 17.716ZM112.404 17.5V8.572H115.05V17.5H112.404ZM113.718 7.258C113.274 7.258 112.914 7.132 112.638 6.88C112.362 6.628 112.224 6.292 112.224 5.872C112.224 5.452 112.362 5.116 112.638 4.864C112.914 4.612 113.274 4.486 113.718 4.486C114.162 4.486 114.522 4.612 114.798 4.864C115.074 5.116 115.212 5.452 115.212 5.872C115.212 6.292 115.074 6.628 114.798 6.88C114.522 7.132 114.162 7.258 113.718 7.258ZM121.375 17.716C120.523 17.716 119.755 17.53 119.071 17.158C118.387 16.786 117.847 16.252 117.451 15.556C117.055 14.86 116.857 14.02 116.857 13.036C116.857 12.064 117.055 11.23 117.451 10.534C117.859 9.838 118.387 9.304 119.035 8.932C119.683 8.548 120.361 8.356 121.069 8.356C121.921 8.356 122.623 8.548 123.175 8.932C123.739 9.304 124.159 9.814 124.435 10.462C124.723 11.098 124.867 11.824 124.867 12.64C124.867 12.868 124.855 13.096 124.831 13.324C124.807 13.54 124.783 13.702 124.759 13.81H119.413C119.533 14.458 119.803 14.938 120.223 15.25C120.643 15.55 121.147 15.7 121.735 15.7C122.371 15.7 123.013 15.502 123.661 15.106L124.543 16.708C124.087 17.02 123.577 17.266 123.013 17.446C122.449 17.626 121.903 17.716 121.375 17.716ZM119.395 12.064H122.617C122.617 11.572 122.497 11.17 122.257 10.858C122.029 10.534 121.651 10.372 121.123 10.372C120.715 10.372 120.349 10.516 120.025 10.804C119.701 11.08 119.491 11.5 119.395 12.064ZM129.706 21.298C129.01 21.298 128.38 21.22 127.816 21.064C127.252 20.908 126.802 20.662 126.466 20.326C126.13 19.99 125.962 19.558 125.962 19.03C125.962 18.31 126.388 17.71 127.24 17.23V17.158C127.012 17.002 126.814 16.804 126.646 16.564C126.49 16.324 126.412 16.018 126.412 15.646C126.412 15.322 126.508 15.01 126.7 14.71C126.892 14.41 127.132 14.164 127.42 13.972V13.9C127.108 13.684 126.826 13.372 126.574 12.964C126.334 12.556 126.214 12.094 126.214 11.578C126.214 10.858 126.388 10.264 126.736 9.796C127.084 9.316 127.54 8.956 128.104 8.716C128.668 8.476 129.268 8.356 129.904 8.356C130.432 8.356 130.894 8.428 131.29 8.572H134.548V10.498H133.126C133.21 10.63 133.276 10.798 133.324 11.002C133.384 11.206 133.414 11.428 133.414 11.668C133.414 12.352 133.258 12.916 132.946 13.36C132.634 13.804 132.214 14.134 131.686 14.35C131.158 14.566 130.564 14.674 129.904 14.674C129.556 14.674 129.196 14.614 128.824 14.494C128.608 14.674 128.5 14.896 128.5 15.16C128.5 15.388 128.602 15.556 128.806 15.664C129.01 15.772 129.358 15.826 129.85 15.826H131.29C132.394 15.826 133.234 16.006 133.81 16.366C134.398 16.714 134.692 17.29 134.692 18.094C134.692 18.706 134.488 19.252 134.08 19.732C133.672 20.224 133.096 20.608 132.352 20.884C131.608 21.16 130.726 21.298 129.706 21.298ZM129.904 13.072C130.252 13.072 130.54 12.946 130.768 12.694C131.008 12.442 131.128 12.07 131.128 11.578C131.128 11.11 131.008 10.756 130.768 10.516C130.54 10.264 130.252 10.138 129.904 10.138C129.556 10.138 129.262 10.258 129.022 10.498C128.794 10.738 128.68 11.098 128.68 11.578C128.68 12.07 128.794 12.442 129.022 12.694C129.262 12.946 129.556 13.072 129.904 13.072ZM130.12 19.642C130.72 19.642 131.212 19.534 131.596 19.318C131.98 19.102 132.172 18.844 132.172 18.544C132.172 18.268 132.052 18.082 131.812 17.986C131.584 17.89 131.248 17.842 130.804 17.842H129.886C129.586 17.842 129.334 17.83 129.13 17.806C128.938 17.794 128.77 17.77 128.626 17.734C128.302 18.022 128.14 18.316 128.14 18.616C128.14 18.952 128.32 19.204 128.68 19.372C129.052 19.552 129.532 19.642 130.12 19.642ZM139.814 17.716C138.962 17.716 138.194 17.53 137.51 17.158C136.826 16.786 136.286 16.252 135.89 15.556C135.494 14.86 135.296 14.02 135.296 13.036C135.296 12.064 135.494 11.23 135.89 10.534C136.298 9.838 136.826 9.304 137.474 8.932C138.122 8.548 138.8 8.356 139.508 8.356C140.36 8.356 141.062 8.548 141.614 8.932C142.178 9.304 142.598 9.814 142.874 10.462C143.162 11.098 143.306 11.824 143.306 12.64C143.306 12.868 143.294 13.096 143.27 13.324C143.246 13.54 143.222 13.702 143.198 13.81H137.852C137.972 14.458 138.242 14.938 138.662 15.25C139.082 15.55 139.586 15.7 140.174 15.7C140.81 15.7 141.452 15.502 142.1 15.106L142.982 16.708C142.526 17.02 142.016 17.266 141.452 17.446C140.888 17.626 140.342 17.716 139.814 17.716ZM137.834 12.064H141.056C141.056 11.572 140.936 11.17 140.696 10.858C140.468 10.534 140.09 10.372 139.562 10.372C139.154 10.372 138.788 10.516 138.464 10.804C138.14 11.08 137.93 11.5 137.834 12.064ZM148.954 17.5V5.764H152.986C153.85 5.764 154.63 5.884 155.326 6.124C156.034 6.352 156.598 6.742 157.018 7.294C157.438 7.846 157.648 8.596 157.648 9.544C157.648 10.456 157.438 11.206 157.018 11.794C156.598 12.382 156.04 12.82 155.344 13.108C154.648 13.384 153.886 13.522 153.058 13.522H151.6V17.5H148.954ZM151.6 11.416H152.896C154.336 11.416 155.056 10.792 155.056 9.544C155.056 8.932 154.864 8.5 154.48 8.248C154.096 7.996 153.544 7.87 152.824 7.87H151.6V11.416ZM159.461 17.5V8.572H161.621L161.801 10.138H161.873C162.197 9.538 162.587 9.094 163.043 8.806C163.499 8.506 163.955 8.356 164.411 8.356C164.663 8.356 164.873 8.374 165.041 8.41C165.209 8.434 165.353 8.476 165.473 8.536L165.041 10.822C164.885 10.774 164.729 10.738 164.573 10.714C164.429 10.69 164.261 10.678 164.069 10.678C163.733 10.678 163.379 10.804 163.007 11.056C162.647 11.296 162.347 11.716 162.107 12.316V17.5H159.461ZM170.291 17.716C169.535 17.716 168.821 17.536 168.149 17.176C167.489 16.804 166.955 16.27 166.547 15.574C166.139 14.866 165.935 14.02 165.935 13.036C165.935 12.04 166.139 11.194 166.547 10.498C166.955 9.802 167.489 9.274 168.149 8.914C168.821 8.542 169.535 8.356 170.291 8.356C171.047 8.356 171.755 8.542 172.415 8.914C173.075 9.274 173.609 9.802 174.017 10.498C174.425 11.194 174.629 12.04 174.629 13.036C174.629 14.02 174.425 14.866 174.017 15.574C173.609 16.27 173.075 16.804 172.415 17.176C171.755 17.536 171.047 17.716 170.291 17.716ZM170.291 15.574C170.831 15.574 171.239 15.346 171.515 14.89C171.791 14.422 171.929 13.804 171.929 13.036C171.929 12.256 171.791 11.638 171.515 11.182C171.239 10.726 170.831 10.498 170.291 10.498C169.739 10.498 169.325 10.726 169.049 11.182C168.785 11.638 168.653 12.256 168.653 13.036C168.653 13.804 168.785 14.422 169.049 14.89C169.325 15.346 169.739 15.574 170.291 15.574Z" fill="white"/>
</g>
</svg>
