<svg width="102" height="22" viewBox="0 0 102 22" fill="none" xmlns="http://www.w3.org/2000/svg">
<mask id="mask0_3_2564" style="mask-type:luminance" maskUnits="userSpaceOnUse" x="0" y="0" width="102" height="22">
<path d="M102 0H0V22H102V0Z" fill="white"/>
</mask>
<g mask="url(#mask0_3_2564)">
<path d="M6.012 17.716C4.488 17.716 3.324 17.266 2.52 16.366C1.716 15.466 1.314 14.032 1.314 12.064V5.764H3.978V12.334C3.978 13.486 4.152 14.29 4.5 14.746C4.848 15.202 5.352 15.43 6.012 15.43C6.672 15.43 7.182 15.202 7.542 14.746C7.902 14.29 8.082 13.486 8.082 12.334V5.764H10.638V12.064C10.638 14.032 10.242 15.466 9.45 16.366C8.67 17.266 7.524 17.716 6.012 17.716ZM13.1407 20.812V8.572H15.3007L15.4807 9.454H15.5527C15.9007 9.142 16.2907 8.884 16.7227 8.68C17.1667 8.464 17.6227 8.356 18.0907 8.356C19.1707 8.356 20.0227 8.77 20.6467 9.598C21.2707 10.414 21.5827 11.512 21.5827 12.892C21.5827 13.912 21.4027 14.782 21.0427 15.502C20.6827 16.222 20.2147 16.774 19.6387 17.158C19.0747 17.53 18.4687 17.716 17.8207 17.716C17.4367 17.716 17.0647 17.638 16.7047 17.482C16.3447 17.314 16.0087 17.08 15.6967 16.78L15.7867 18.202V20.812H13.1407ZM17.2087 15.556C17.6647 15.556 18.0547 15.346 18.3787 14.926C18.7027 14.506 18.8647 13.84 18.8647 12.928C18.8647 11.32 18.3487 10.516 17.3167 10.516C16.8007 10.516 16.2907 10.786 15.7867 11.326V14.98C16.0267 15.196 16.2667 15.346 16.5067 15.43C16.7467 15.514 16.9807 15.556 17.2087 15.556ZM27.3471 17.716C26.5191 17.716 25.7691 17.536 25.0971 17.176C24.4371 16.804 23.9091 16.27 23.5131 15.574C23.1291 14.866 22.9371 14.02 22.9371 13.036C22.9371 12.04 23.1531 11.194 23.5851 10.498C24.0171 9.802 24.5871 9.274 25.2951 8.914C26.0031 8.542 26.7651 8.356 27.5811 8.356C28.1331 8.356 28.6191 8.446 29.0391 8.626C29.4711 8.806 29.8551 9.034 30.1911 9.31L28.9491 11.02C28.5291 10.672 28.1271 10.498 27.7431 10.498C27.1071 10.498 26.5971 10.726 26.2131 11.182C25.8411 11.638 25.6551 12.256 25.6551 13.036C25.6551 13.804 25.8411 14.422 26.2131 14.89C26.5971 15.346 27.0771 15.574 27.6531 15.574C27.9411 15.574 28.2231 15.514 28.4991 15.394C28.7751 15.262 29.0271 15.106 29.2551 14.926L30.2991 16.654C29.8551 17.038 29.3751 17.314 28.8591 17.482C28.3431 17.638 27.8391 17.716 27.3471 17.716ZM35.1856 17.716C34.4296 17.716 33.7156 17.536 33.0436 17.176C32.3836 16.804 31.8496 16.27 31.4416 15.574C31.0336 14.866 30.8296 14.02 30.8296 13.036C30.8296 12.04 31.0336 11.194 31.4416 10.498C31.8496 9.802 32.3836 9.274 33.0436 8.914C33.7156 8.542 34.4296 8.356 35.1856 8.356C35.9416 8.356 36.6496 8.542 37.3096 8.914C37.9696 9.274 38.5036 9.802 38.9116 10.498C39.3196 11.194 39.5236 12.04 39.5236 13.036C39.5236 14.02 39.3196 14.866 38.9116 15.574C38.5036 16.27 37.9696 16.804 37.3096 17.176C36.6496 17.536 35.9416 17.716 35.1856 17.716ZM35.1856 15.574C35.7256 15.574 36.1336 15.346 36.4096 14.89C36.6856 14.422 36.8236 13.804 36.8236 13.036C36.8236 12.256 36.6856 11.638 36.4096 11.182C36.1336 10.726 35.7256 10.498 35.1856 10.498C34.6336 10.498 34.2196 10.726 33.9436 11.182C33.6796 11.638 33.5476 12.256 33.5476 13.036C33.5476 13.804 33.6796 14.422 33.9436 14.89C34.2196 15.346 34.6336 15.574 35.1856 15.574ZM41.336 17.5V8.572H43.496L43.676 9.724H43.748C44.12 9.352 44.516 9.034 44.936 8.77C45.356 8.494 45.86 8.356 46.448 8.356C47.084 8.356 47.594 8.488 47.978 8.752C48.374 9.004 48.686 9.37 48.914 9.85C49.31 9.442 49.73 9.094 50.174 8.806C50.618 8.506 51.134 8.356 51.722 8.356C52.682 8.356 53.384 8.68 53.828 9.328C54.284 9.964 54.512 10.84 54.512 11.956V17.5H51.866V12.298C51.866 11.65 51.776 11.206 51.596 10.966C51.428 10.726 51.152 10.606 50.768 10.606C50.324 10.606 49.814 10.894 49.238 11.47V17.5H46.592V12.298C46.592 11.65 46.502 11.206 46.322 10.966C46.154 10.726 45.878 10.606 45.494 10.606C45.05 10.606 44.546 10.894 43.982 11.47V17.5H41.336ZM56.7696 17.5V8.572H59.4156V17.5H56.7696ZM58.0836 7.258C57.6396 7.258 57.2796 7.132 57.0036 6.88C56.7276 6.628 56.5896 6.292 56.5896 5.872C56.5896 5.452 56.7276 5.116 57.0036 4.864C57.2796 4.612 57.6396 4.486 58.0836 4.486C58.5276 4.486 58.8876 4.612 59.1636 4.864C59.4396 5.116 59.5776 5.452 59.5776 5.872C59.5776 6.292 59.4396 6.628 59.1636 6.88C58.8876 7.132 58.5276 7.258 58.0836 7.258ZM61.7442 17.5V8.572H63.9042L64.0842 9.706H64.1562C64.5402 9.346 64.9602 9.034 65.4162 8.77C65.8842 8.494 66.4182 8.356 67.0182 8.356C67.9902 8.356 68.6922 8.68 69.1242 9.328C69.5682 9.964 69.7902 10.84 69.7902 11.956V17.5H67.1442V12.298C67.1442 11.65 67.0542 11.206 66.8742 10.966C66.7062 10.726 66.4302 10.606 66.0462 10.606C65.7102 10.606 65.4222 10.684 65.1822 10.84C64.9422 10.984 64.6782 11.194 64.3902 11.47V17.5H61.7442ZM75.231 21.298C74.535 21.298 73.905 21.22 73.341 21.064C72.777 20.908 72.327 20.662 71.991 20.326C71.655 19.99 71.487 19.558 71.487 19.03C71.487 18.31 71.913 17.71 72.765 17.23V17.158C72.537 17.002 72.339 16.804 72.171 16.564C72.015 16.324 71.937 16.018 71.937 15.646C71.937 15.322 72.033 15.01 72.225 14.71C72.417 14.41 72.657 14.164 72.945 13.972V13.9C72.633 13.684 72.351 13.372 72.099 12.964C71.859 12.556 71.739 12.094 71.739 11.578C71.739 10.858 71.913 10.264 72.261 9.796C72.609 9.316 73.065 8.956 73.629 8.716C74.193 8.476 74.793 8.356 75.429 8.356C75.957 8.356 76.419 8.428 76.815 8.572H80.073V10.498H78.651C78.735 10.63 78.801 10.798 78.849 11.002C78.909 11.206 78.939 11.428 78.939 11.668C78.939 12.352 78.783 12.916 78.471 13.36C78.159 13.804 77.739 14.134 77.211 14.35C76.683 14.566 76.089 14.674 75.429 14.674C75.081 14.674 74.721 14.614 74.349 14.494C74.133 14.674 74.025 14.896 74.025 15.16C74.025 15.388 74.127 15.556 74.331 15.664C74.535 15.772 74.883 15.826 75.375 15.826H76.815C77.919 15.826 78.759 16.006 79.335 16.366C79.923 16.714 80.217 17.29 80.217 18.094C80.217 18.706 80.013 19.252 79.605 19.732C79.197 20.224 78.621 20.608 77.877 20.884C77.133 21.16 76.251 21.298 75.231 21.298ZM75.429 13.072C75.777 13.072 76.065 12.946 76.293 12.694C76.533 12.442 76.653 12.07 76.653 11.578C76.653 11.11 76.533 10.756 76.293 10.516C76.065 10.264 75.777 10.138 75.429 10.138C75.081 10.138 74.787 10.258 74.547 10.498C74.319 10.738 74.205 11.098 74.205 11.578C74.205 12.07 74.319 12.442 74.547 12.694C74.787 12.946 75.081 13.072 75.429 13.072ZM75.645 19.642C76.245 19.642 76.737 19.534 77.121 19.318C77.505 19.102 77.697 18.844 77.697 18.544C77.697 18.268 77.577 18.082 77.337 17.986C77.109 17.89 76.773 17.842 76.329 17.842H75.411C75.111 17.842 74.859 17.83 74.655 17.806C74.463 17.794 74.295 17.77 74.151 17.734C73.827 18.022 73.665 18.316 73.665 18.616C73.665 18.952 73.845 19.204 74.205 19.372C74.577 19.552 75.057 19.642 75.645 19.642Z" fill="white"/>
</g>
</svg>
