<svg width="85" height="19" viewBox="0 0 85 19" fill="none" xmlns="http://www.w3.org/2000/svg">
<mask id="mask0_34_421" style="mask-type:luminance" maskUnits="userSpaceOnUse" x="0" y="0" width="85" height="19">
<path d="M84.5 0.5H0.5V18.5H84.5V0.5Z" fill="white"/>
</mask>
<g mask="url(#mask0_34_421)">
<path d="M5.022 14.668C4.39667 14.668 3.832 14.542 3.328 14.29C2.83333 14.038 2.44133 13.6227 2.152 13.044C1.86267 12.4653 1.718 11.686 1.718 10.706V5.316H2.88V10.734C2.88 11.4713 2.97333 12.0547 3.16 12.484C3.356 12.904 3.61267 13.2027 3.93 13.38C4.25667 13.5573 4.62067 13.646 5.022 13.646C5.43267 13.646 5.80133 13.5573 6.128 13.38C6.45467 13.2027 6.71133 12.904 6.898 12.484C7.094 12.0547 7.192 11.4713 7.192 10.734V5.316H8.312V10.706C8.312 11.686 8.16733 12.4653 7.878 13.044C7.58867 13.6227 7.19667 14.038 6.702 14.29C6.20733 14.542 5.64733 14.668 5.022 14.668ZM10.6714 17.37V7.696H11.6234L11.7214 8.48H11.7634C12.0714 8.21867 12.4074 7.99467 12.7714 7.808C13.1448 7.62133 13.5321 7.528 13.9334 7.528C14.8108 7.528 15.4781 7.84533 15.9354 8.48C16.3928 9.10533 16.6214 9.94533 16.6214 11C16.6214 11.7653 16.4814 12.4233 16.2014 12.974C15.9308 13.5247 15.5714 13.9447 15.1234 14.234C14.6848 14.5233 14.2041 14.668 13.6814 14.668C13.3641 14.668 13.0468 14.598 12.7294 14.458C12.4214 14.318 12.1088 14.1267 11.7914 13.884L11.8194 15.074V17.37H10.6714ZM13.4854 13.702C14.0454 13.702 14.5074 13.464 14.8714 12.988C15.2448 12.5027 15.4314 11.84 15.4314 11C15.4314 10.2533 15.2914 9.65133 15.0114 9.194C14.7408 8.72733 14.2834 8.494 13.6394 8.494C13.3501 8.494 13.0561 8.57333 12.7574 8.732C12.4681 8.89067 12.1554 9.11933 11.8194 9.418V12.988C12.1274 13.2493 12.4261 13.436 12.7154 13.548C13.0048 13.6507 13.2614 13.702 13.4854 13.702ZM21.1251 14.668C20.5277 14.668 19.9864 14.528 19.5011 14.248C19.0157 13.968 18.6331 13.562 18.3531 13.03C18.0731 12.498 17.9331 11.8587 17.9331 11.112C17.9331 10.3467 18.0824 9.698 18.3811 9.166C18.6891 8.634 19.0904 8.228 19.5851 7.948C20.0891 7.668 20.6304 7.528 21.2091 7.528C21.6571 7.528 22.0397 7.60733 22.3571 7.766C22.6837 7.92467 22.9637 8.11133 23.1971 8.326L22.6091 9.082C22.4131 8.90467 22.2031 8.76 21.9791 8.648C21.7644 8.536 21.5217 8.48 21.2511 8.48C20.8404 8.48 20.4717 8.592 20.1451 8.816C19.8277 9.03067 19.5757 9.33867 19.3891 9.74C19.2117 10.132 19.1231 10.5893 19.1231 11.112C19.1231 11.8867 19.3144 12.5167 19.6971 13.002C20.0891 13.478 20.5977 13.716 21.2231 13.716C21.5404 13.716 21.8344 13.6507 22.1051 13.52C22.3757 13.38 22.6137 13.2167 22.8191 13.03L23.3231 13.8C23.0151 14.0707 22.6744 14.2853 22.3011 14.444C21.9277 14.5933 21.5357 14.668 21.1251 14.668ZM27.167 14.668C26.6164 14.668 26.0984 14.528 25.613 14.248C25.137 13.968 24.7497 13.562 24.451 13.03C24.1617 12.498 24.017 11.8587 24.017 11.112C24.017 10.3467 24.1617 9.698 24.451 9.166C24.7497 8.634 25.137 8.228 25.613 7.948C26.0984 7.668 26.6164 7.528 27.167 7.528C27.727 7.528 28.245 7.668 28.721 7.948C29.197 8.228 29.5797 8.634 29.869 9.166C30.1677 9.698 30.317 10.3467 30.317 11.112C30.317 11.8587 30.1677 12.498 29.869 13.03C29.5797 13.562 29.197 13.968 28.721 14.248C28.245 14.528 27.727 14.668 27.167 14.668ZM27.167 13.716C27.755 13.716 28.2264 13.478 28.581 13.002C28.945 12.5167 29.127 11.8867 29.127 11.112C29.127 10.328 28.945 9.69333 28.581 9.208C28.2264 8.72267 27.755 8.48 27.167 8.48C26.5884 8.48 26.117 8.72267 25.753 9.208C25.389 9.69333 25.207 10.328 25.207 11.112C25.207 11.8867 25.389 12.5167 25.753 13.002C26.117 13.478 26.5884 13.716 27.167 13.716ZM32.1089 14.5V7.696H33.0609L33.1589 8.676H33.2009C33.4996 8.34933 33.8263 8.07867 34.1809 7.864C34.5356 7.64 34.9136 7.528 35.3149 7.528C35.8376 7.528 36.2436 7.64467 36.5329 7.878C36.8316 8.102 37.0509 8.41933 37.1909 8.83C37.5456 8.44733 37.9049 8.13467 38.2689 7.892C38.6329 7.64933 39.0203 7.528 39.4309 7.528C40.1309 7.528 40.6489 7.75667 40.9849 8.214C41.3303 8.662 41.5029 9.32 41.5029 10.188V14.5H40.3549V10.342C40.3549 9.70733 40.2523 9.24533 40.0469 8.956C39.8416 8.66667 39.5243 8.522 39.0949 8.522C38.5909 8.522 38.0216 8.872 37.3869 9.572V14.5H36.2389V10.342C36.2389 9.70733 36.1363 9.24533 35.9309 8.956C35.7256 8.66667 35.4036 8.522 34.9649 8.522C34.4609 8.522 33.8916 8.872 33.2569 9.572V14.5H32.1089ZM43.7164 14.5V7.696H44.8644V14.5H43.7164ZM44.3044 6.296C44.0804 6.296 43.8937 6.23067 43.7444 6.1C43.6044 5.96 43.5344 5.77333 43.5344 5.54C43.5344 5.316 43.6044 5.134 43.7444 4.994C43.8937 4.854 44.0804 4.784 44.3044 4.784C44.5284 4.784 44.7104 4.854 44.8504 4.994C44.9997 5.134 45.0744 5.316 45.0744 5.54C45.0744 5.77333 44.9997 5.96 44.8504 6.1C44.7104 6.23067 44.5284 6.296 44.3044 6.296ZM47.1617 14.5V7.696H48.1137L48.2117 8.676H48.2537C48.5803 8.34933 48.9257 8.07867 49.2897 7.864C49.6537 7.64 50.069 7.528 50.5357 7.528C51.2543 7.528 51.777 7.75667 52.1037 8.214C52.4397 8.662 52.6077 9.32 52.6077 10.188V14.5H51.4597V10.342C51.4597 9.70733 51.357 9.24533 51.1517 8.956C50.9463 8.66667 50.6197 8.522 50.1717 8.522C49.8263 8.522 49.5137 8.61067 49.2337 8.788C48.963 8.96533 48.655 9.22667 48.3097 9.572V14.5H47.1617ZM57.1139 17.636C56.2833 17.636 55.6066 17.4773 55.0839 17.16C54.5613 16.8427 54.2999 16.39 54.2999 15.802C54.2999 15.5127 54.3886 15.2327 54.5659 14.962C54.7433 14.7007 54.9859 14.4673 55.2939 14.262V14.206C55.1259 14.1033 54.9813 13.9587 54.8599 13.772C54.7479 13.5853 54.6919 13.3613 54.6919 13.1C54.6919 12.8107 54.7713 12.5587 54.9299 12.344C55.0886 12.1293 55.2566 11.9613 55.4339 11.84V11.784C55.2099 11.5973 55.0046 11.3453 54.8179 11.028C54.6406 10.7107 54.5519 10.3513 54.5519 9.95C54.5519 9.45533 54.6686 9.026 54.9019 8.662C55.1353 8.298 55.4479 8.018 55.8399 7.822C56.2319 7.626 56.6566 7.528 57.1139 7.528C57.3006 7.528 57.4779 7.54667 57.6459 7.584C57.8139 7.612 57.9586 7.64933 58.0799 7.696H60.4459V8.578H59.0459C59.2046 8.72733 59.3353 8.928 59.4379 9.18C59.5499 9.42267 59.6059 9.68867 59.6059 9.978C59.6059 10.4633 59.4939 10.8833 59.2699 11.238C59.0459 11.5927 58.7473 11.868 58.3739 12.064C58.0006 12.2507 57.5806 12.344 57.1139 12.344C56.7499 12.344 56.4093 12.2647 56.0919 12.106C55.9706 12.2087 55.8679 12.3253 55.7839 12.456C55.6999 12.5773 55.6579 12.7313 55.6579 12.918C55.6579 13.1327 55.7419 13.31 55.9099 13.45C56.0873 13.59 56.4046 13.66 56.8619 13.66H58.1779C58.9713 13.66 59.5639 13.7907 59.9559 14.052C60.3573 14.304 60.5579 14.7147 60.5579 15.284C60.5579 15.704 60.4179 16.0913 60.1379 16.446C59.8579 16.8007 59.4613 17.0853 58.9479 17.3C58.4346 17.524 57.8233 17.636 57.1139 17.636ZM57.1139 11.574C57.5059 11.574 57.8419 11.4293 58.1219 11.14C58.4113 10.8413 58.5559 10.4447 58.5559 9.95C58.5559 9.45533 58.4159 9.068 58.1359 8.788C57.8559 8.508 57.5153 8.368 57.1139 8.368C56.7126 8.368 56.3719 8.508 56.0919 8.788C55.8119 9.068 55.6719 9.45533 55.6719 9.95C55.6719 10.4447 55.8119 10.8413 56.0919 11.14C56.3813 11.4293 56.7219 11.574 57.1139 11.574ZM57.2819 16.838C57.9353 16.838 58.4579 16.6933 58.8499 16.404C59.2419 16.124 59.4379 15.8067 59.4379 15.452C59.4379 15.1347 59.3166 14.9153 59.0739 14.794C58.8406 14.6727 58.5046 14.612 58.0659 14.612H56.8899C56.7593 14.612 56.6146 14.6027 56.4559 14.584C56.3066 14.5653 56.1573 14.5373 56.0079 14.5C55.7653 14.6773 55.5879 14.864 55.4759 15.06C55.3639 15.256 55.3079 15.452 55.3079 15.648C55.3079 16.012 55.4806 16.3013 55.8259 16.516C56.1806 16.7307 56.6659 16.838 57.2819 16.838Z" fill="white"/>
</g>
</svg>
