<svg width="63" height="20" viewBox="0 0 63 20" fill="none" xmlns="http://www.w3.org/2000/svg">
<mask id="mask0_3_3231" style="mask-type:luminance" maskUnits="userSpaceOnUse" x="0" y="0" width="63" height="20">
<path d="M63 0H0V20H63V0Z" fill="white"/>
</mask>
<g mask="url(#mask0_3_3231)">
<path d="M3.616 16V6.624H0.448V5.504H8.128V6.624H4.96V16H3.616ZM11.8516 16.192C11.2223 16.192 10.6303 16.032 10.0756 15.712C9.53163 15.392 9.08896 14.928 8.74763 14.32C8.41696 13.712 8.25163 12.9813 8.25163 12.128C8.25163 11.2533 8.41696 10.512 8.74763 9.904C9.08896 9.296 9.53163 8.832 10.0756 8.512C10.6303 8.192 11.2223 8.032 11.8516 8.032C12.4916 8.032 13.0836 8.192 13.6276 8.512C14.1716 8.832 14.609 9.296 14.9396 9.904C15.281 10.512 15.4516 11.2533 15.4516 12.128C15.4516 12.9813 15.281 13.712 14.9396 14.32C14.609 14.928 14.1716 15.392 13.6276 15.712C13.0836 16.032 12.4916 16.192 11.8516 16.192ZM11.8516 15.104C12.5236 15.104 13.0623 14.832 13.4676 14.288C13.8836 13.7333 14.0916 13.0133 14.0916 12.128C14.0916 11.232 13.8836 10.5067 13.4676 9.952C13.0623 9.39733 12.5236 9.12 11.8516 9.12C11.1903 9.12 10.6516 9.39733 10.2356 9.952C9.81963 10.5067 9.61163 11.232 9.61163 12.128C9.61163 13.0133 9.81963 13.7333 10.2356 14.288C10.6516 14.832 11.1903 15.104 11.8516 15.104ZM17.4995 19.28V8.224H18.5875L18.6995 9.12H18.7475C19.0995 8.82133 19.4835 8.56533 19.8995 8.352C20.3262 8.13867 20.7688 8.032 21.2275 8.032C22.2302 8.032 22.9928 8.39467 23.5155 9.12C24.0382 9.83467 24.2995 10.7947 24.2995 12C24.2995 12.8747 24.1395 13.6267 23.8195 14.256C23.5102 14.8853 23.0995 15.3653 22.5875 15.696C22.0862 16.0267 21.5368 16.192 20.9395 16.192C20.5768 16.192 20.2142 16.112 19.8515 15.952C19.4995 15.792 19.1422 15.5733 18.7795 15.296L18.8115 16.656V19.28H17.4995ZM20.7155 15.088C21.3555 15.088 21.8835 14.816 22.2995 14.272C22.7262 13.7173 22.9395 12.96 22.9395 12C22.9395 11.1467 22.7795 10.4587 22.4595 9.936C22.1502 9.40267 21.6275 9.136 20.8915 9.136C20.5608 9.136 20.2248 9.22667 19.8835 9.408C19.5528 9.58933 19.1955 9.85067 18.8115 10.192V14.272C19.1635 14.5707 19.5048 14.784 19.8355 14.912C20.1662 15.0293 20.4595 15.088 20.7155 15.088Z" fill="white"/>
</g>
</svg>
