<svg width="207" height="29" viewBox="0 0 207 29" fill="none" xmlns="http://www.w3.org/2000/svg">
<mask id="mask0_36_601" style="mask-type:luminance" maskUnits="userSpaceOnUse" x="0" y="0" width="207" height="29">
<path d="M206.933 0.134338H0.622559V28.7911H206.933V0.134338Z" fill="white"/>
</mask>
<g mask="url(#mask0_36_601)">
<path d="M5.25656 14.2603C4.62189 14.2603 4.07589 14.1017 3.61856 13.7843C3.16123 13.4577 2.85323 13.0143 2.69456 12.4543H2.84856V14.1343H1.72856V3.83034H2.86256V8.74434H2.69456C2.85323 8.203 3.16123 7.77367 3.61856 7.45634C4.07589 7.139 4.62189 6.98034 5.25656 6.98034C5.89123 6.98034 6.43723 7.12967 6.89456 7.42834C7.36123 7.71767 7.72056 8.133 7.97256 8.67434C8.23389 9.21567 8.36456 9.86434 8.36456 10.6203C8.36456 11.3763 8.23389 12.025 7.97256 12.5663C7.71123 13.1077 7.34723 13.5277 6.88056 13.8263C6.42323 14.1157 5.88189 14.2603 5.25656 14.2603ZM5.01856 13.3363C5.68123 13.3363 6.21323 13.1077 6.61456 12.6503C7.01589 12.193 7.21656 11.5163 7.21656 10.6203C7.21656 9.72434 7.01589 9.04767 6.61456 8.59034C6.21323 8.12367 5.68123 7.89034 5.01856 7.89034C4.35589 7.89034 3.82389 8.12367 3.42256 8.59034C3.03056 9.04767 2.83456 9.72434 2.83456 10.6203C2.83456 11.507 3.03056 12.1837 3.42256 12.6503C3.82389 13.1077 4.35589 13.3363 5.01856 13.3363ZM13.2451 14.2603C12.1438 14.2603 11.2758 13.943 10.6411 13.3083C10.0064 12.6643 9.68909 11.773 9.68909 10.6343C9.68909 9.897 9.82909 9.25767 10.1091 8.71634C10.3891 8.16567 10.7811 7.741 11.2851 7.44234C11.7891 7.13434 12.3678 6.98034 13.0211 6.98034C13.6651 6.98034 14.2064 7.11567 14.6451 7.38634C15.0838 7.657 15.4198 8.04434 15.6531 8.54834C15.8864 9.043 16.0031 9.631 16.0031 10.3123V10.7323H10.5571V10.0183H15.2611L15.0231 10.2003C15.0231 9.45367 14.8551 8.87034 14.5191 8.45034C14.1831 8.03034 13.6838 7.82034 13.0211 7.82034C12.3211 7.82034 11.7751 8.06767 11.3831 8.56234C10.9911 9.04767 10.7951 9.70567 10.7951 10.5363V10.6623C10.7951 11.5397 11.0098 12.207 11.4391 12.6643C11.8778 13.1123 12.4891 13.3363 13.2731 13.3363C13.6931 13.3363 14.0851 13.2757 14.4491 13.1543C14.8224 13.0237 15.1771 12.8137 15.5131 12.5243L15.9051 13.3223C15.5971 13.621 15.2051 13.8543 14.7291 14.0223C14.2624 14.181 13.7678 14.2603 13.2451 14.2603ZM20.2303 14.2603C19.5397 14.2603 19.0123 14.0643 18.6483 13.6723C18.2843 13.271 18.1023 12.669 18.1023 11.8663V7.98834H16.7303V7.10634H18.1023V5.18834L19.2363 4.86634V7.10634H21.2523V7.98834H19.2363V11.7403C19.2363 12.3003 19.3297 12.7017 19.5163 12.9443C19.7123 13.1777 20.0017 13.2943 20.3843 13.2943C20.5617 13.2943 20.7203 13.2803 20.8603 13.2523C21.0003 13.215 21.1263 13.173 21.2383 13.1263V14.0783C21.1077 14.1343 20.949 14.1763 20.7623 14.2043C20.585 14.2417 20.4077 14.2603 20.2303 14.2603ZM24.9471 14.2603C24.2565 14.2603 23.7291 14.0643 23.3651 13.6723C23.0011 13.271 22.8191 12.669 22.8191 11.8663V7.98834H21.4471V7.10634H22.8191V5.18834L23.9531 4.86634V7.10634H25.9691V7.98834H23.9531V11.7403C23.9531 12.3003 24.0465 12.7017 24.2331 12.9443C24.4291 13.1777 24.7185 13.2943 25.1011 13.2943C25.2785 13.2943 25.4371 13.2803 25.5771 13.2523C25.7171 13.215 25.8431 13.173 25.9551 13.1263V14.0783C25.8245 14.1343 25.6658 14.1763 25.4791 14.2043C25.3018 14.2417 25.1245 14.2603 24.9471 14.2603ZM30.0237 14.2603C29.3983 14.2603 28.8523 14.1157 28.3857 13.8263C27.919 13.5277 27.555 13.1077 27.2937 12.5663C27.0417 12.025 26.9157 11.3763 26.9157 10.6203C26.9157 9.855 27.0417 9.20167 27.2937 8.66034C27.555 8.119 27.919 7.70367 28.3857 7.41434C28.8523 7.125 29.3983 6.98034 30.0237 6.98034C30.6583 6.98034 31.2043 7.14367 31.6617 7.47034C32.1283 7.78767 32.4363 8.22167 32.5857 8.77234H32.4177L32.5717 7.10634H33.6637C33.6357 7.377 33.6077 7.65234 33.5797 7.93234C33.561 8.203 33.5517 8.469 33.5517 8.73034V14.1343H32.4177V12.4823H32.5717C32.4223 13.033 32.1143 13.467 31.6477 13.7843C31.181 14.1017 30.6397 14.2603 30.0237 14.2603ZM30.2477 13.3363C30.9197 13.3363 31.4517 13.1077 31.8437 12.6503C32.2357 12.1837 32.4317 11.507 32.4317 10.6203C32.4317 9.72434 32.2357 9.04767 31.8437 8.59034C31.4517 8.12367 30.9197 7.89034 30.2477 7.89034C29.585 7.89034 29.053 8.12367 28.6517 8.59034C28.2597 9.04767 28.0637 9.72434 28.0637 10.6203C28.0637 11.507 28.2597 12.1837 28.6517 12.6503C29.053 13.1077 29.585 13.3363 30.2477 13.3363ZM42.9226 14.2603C42.2879 14.2603 41.7419 14.1017 41.2846 13.7843C40.8272 13.4577 40.5192 13.0143 40.3606 12.4543H40.5146V14.1343H39.3946V3.83034H40.5286V8.74434H40.3606C40.5192 8.203 40.8272 7.77367 41.2846 7.45634C41.7419 7.139 42.2879 6.98034 42.9226 6.98034C43.5572 6.98034 44.1032 7.12967 44.5606 7.42834C45.0272 7.71767 45.3866 8.133 45.6386 8.67434C45.8999 9.21567 46.0306 9.86434 46.0306 10.6203C46.0306 11.3763 45.8999 12.025 45.6386 12.5663C45.3772 13.1077 45.0132 13.5277 44.5466 13.8263C44.0892 14.1157 43.5479 14.2603 42.9226 14.2603ZM42.6846 13.3363C43.3472 13.3363 43.8792 13.1077 44.2806 12.6503C44.6819 12.193 44.8826 11.5163 44.8826 10.6203C44.8826 9.72434 44.6819 9.04767 44.2806 8.59034C43.8792 8.12367 43.3472 7.89034 42.6846 7.89034C42.0219 7.89034 41.4899 8.12367 41.0886 8.59034C40.6966 9.04767 40.5006 9.72434 40.5006 10.6203C40.5006 11.507 40.6966 12.1837 41.0886 12.6503C41.4899 13.1077 42.0219 13.3363 42.6846 13.3363ZM50.9111 14.2603C49.8098 14.2603 48.9418 13.943 48.3071 13.3083C47.6724 12.6643 47.3551 11.773 47.3551 10.6343C47.3551 9.897 47.4951 9.25767 47.7751 8.71634C48.0551 8.16567 48.4471 7.741 48.9511 7.44234C49.4551 7.13434 50.0338 6.98034 50.6871 6.98034C51.3311 6.98034 51.8724 7.11567 52.3111 7.38634C52.7498 7.657 53.0858 8.04434 53.3191 8.54834C53.5524 9.043 53.6691 9.631 53.6691 10.3123V10.7323H48.2231V10.0183H52.9271L52.6891 10.2003C52.6891 9.45367 52.5211 8.87034 52.1851 8.45034C51.8491 8.03034 51.3498 7.82034 50.6871 7.82034C49.9871 7.82034 49.4411 8.06767 49.0491 8.56234C48.6571 9.04767 48.4611 9.70567 48.4611 10.5363V10.6623C48.4611 11.5397 48.6758 12.207 49.1051 12.6643C49.5438 13.1123 50.1551 13.3363 50.9391 13.3363C51.3591 13.3363 51.7511 13.2757 52.1151 13.1543C52.4884 13.0237 52.8431 12.8137 53.1791 12.5243L53.5711 13.3223C53.2631 13.621 52.8711 13.8543 52.3951 14.0223C51.9284 14.181 51.4338 14.2603 50.9111 14.2603ZM57.8963 14.2603C57.2057 14.2603 56.6783 14.0643 56.3143 13.6723C55.9503 13.271 55.7683 12.669 55.7683 11.8663V7.98834H54.3963V7.10634H55.7683V5.18834L56.9023 4.86634V7.10634H58.9183V7.98834H56.9023V11.7403C56.9023 12.3003 56.9957 12.7017 57.1823 12.9443C57.3783 13.1777 57.6677 13.2943 58.0503 13.2943C58.2277 13.2943 58.3863 13.2803 58.5263 13.2523C58.6663 13.215 58.7923 13.173 58.9043 13.1263V14.0783C58.7737 14.1343 58.615 14.1763 58.4283 14.2043C58.251 14.2417 58.0737 14.2603 57.8963 14.2603ZM62.6369 14.2603C62.0769 14.2603 61.5542 14.1857 61.0689 14.0363C60.5835 13.8777 60.1822 13.6583 59.8649 13.3783L60.2569 12.5803C60.6022 12.851 60.9755 13.0517 61.3769 13.1823C61.7875 13.313 62.2122 13.3783 62.6509 13.3783C63.2109 13.3783 63.6309 13.2803 63.9109 13.0843C64.2002 12.879 64.3449 12.599 64.3449 12.2443C64.3449 11.9737 64.2515 11.759 64.0649 11.6003C63.8875 11.4323 63.5935 11.3017 63.1829 11.2083L61.8809 10.9423C61.2835 10.8117 60.8355 10.5923 60.5369 10.2843C60.2382 9.967 60.0889 9.56567 60.0889 9.08034C60.0889 8.66967 60.1962 8.31034 60.4109 8.00234C60.6255 7.685 60.9382 7.43767 61.3489 7.26034C61.7595 7.07367 62.2402 6.98034 62.7909 6.98034C63.3042 6.98034 63.7755 7.05967 64.2049 7.21834C64.6435 7.36767 65.0075 7.587 65.2969 7.87634L64.8909 8.66034C64.6109 8.38967 64.2889 8.189 63.9249 8.05834C63.5702 7.91834 63.2015 7.84834 62.8189 7.84834C62.2682 7.84834 61.8529 7.96034 61.5729 8.18434C61.3022 8.399 61.1669 8.68367 61.1669 9.03834C61.1669 9.309 61.2509 9.533 61.4189 9.71034C61.5962 9.87834 61.8669 10.0043 62.2309 10.0883L63.5329 10.3543C64.1675 10.4943 64.6389 10.7137 64.9469 11.0123C65.2642 11.3017 65.4229 11.6937 65.4229 12.1883C65.4229 12.6083 65.3062 12.977 65.0729 13.2943C64.8395 13.6023 64.5129 13.8403 64.0929 14.0083C63.6822 14.1763 63.1969 14.2603 62.6369 14.2603Z" fill="#FFE200"/>
</g>
</svg>
