<svg width="49" height="21" viewBox="0 0 49 21" fill="none" xmlns="http://www.w3.org/2000/svg">
<mask id="mask0_36_1866" style="mask-type:luminance" maskUnits="userSpaceOnUse" x="0" y="0" width="49" height="21">
<path d="M48.199 0.449951H0.253906V20.7666H48.199V0.449951Z" fill="white"/>
</mask>
<g mask="url(#mask0_36_1866)">
<path d="M2.73791 18.45C2.40191 18.45 2.12591 18.348 1.90991 18.144C1.70591 17.928 1.60391 17.664 1.60391 17.352V6.94795C1.60391 6.63595 1.70591 6.37795 1.90991 6.17395C2.12591 5.95795 2.38991 5.84995 2.70191 5.84995H8.55191C8.86391 5.84995 9.12191 5.95195 9.32591 6.15595C9.54191 6.34795 9.64991 6.59995 9.64991 6.91195C9.64991 7.17595 9.54191 7.40995 9.32591 7.61395C9.12191 7.81795 8.86391 7.91995 8.55191 7.91995H3.69191L3.85391 7.70395V11.322L3.72791 11.088H7.74191C8.05391 11.088 8.31191 11.19 8.51591 11.394C8.73191 11.586 8.83991 11.838 8.83991 12.15C8.83991 12.414 8.73191 12.648 8.51591 12.852C8.31191 13.056 8.05391 13.158 7.74191 13.158H3.69191L3.85391 12.996V17.352C3.85391 17.664 3.73991 17.928 3.51191 18.144C3.29591 18.348 3.03791 18.45 2.73791 18.45ZM12.4531 18.45C12.1411 18.45 11.8831 18.348 11.6791 18.144C11.4751 17.928 11.3731 17.664 11.3731 17.352V9.91795C11.3731 9.60595 11.4751 9.34795 11.6791 9.14395C11.8831 8.92795 12.1411 8.81995 12.4531 8.81995C12.7651 8.81995 13.0231 8.92795 13.2271 9.14395C13.4311 9.34795 13.5331 9.60595 13.5331 9.91795V11.61L13.4071 10.404C13.5391 10.116 13.7071 9.86395 13.9111 9.64795C14.1271 9.41995 14.3671 9.23395 14.6311 9.08995C14.8951 8.93395 15.1771 8.81995 15.4771 8.74795C15.7771 8.67595 16.0771 8.63995 16.3771 8.63995C16.7371 8.63995 17.0371 8.74195 17.2771 8.94595C17.5291 9.14995 17.6551 9.38995 17.6551 9.66595C17.6551 10.062 17.5531 10.35 17.3491 10.53C17.1451 10.698 16.9231 10.782 16.6831 10.782C16.4551 10.782 16.2451 10.74 16.0531 10.656C15.8731 10.572 15.6631 10.53 15.4231 10.53C15.2071 10.53 14.9851 10.584 14.7571 10.692C14.5411 10.788 14.3371 10.944 14.1451 11.16C13.9651 11.376 13.8151 11.646 13.6951 11.97C13.5871 12.282 13.5331 12.654 13.5331 13.086V17.352C13.5331 17.664 13.4311 17.928 13.2271 18.144C13.0231 18.348 12.7651 18.45 12.4531 18.45ZM21.2118 17.352C21.2118 17.664 21.1098 17.928 20.9058 18.144C20.7018 18.348 20.4438 18.45 20.1318 18.45C19.8198 18.45 19.5618 18.348 19.3578 18.144C19.1538 17.928 19.0518 17.664 19.0518 17.352V9.91795C19.0518 9.60595 19.1538 9.34795 19.3578 9.14395C19.5618 8.92795 19.8198 8.81995 20.1318 8.81995C20.4438 8.81995 20.7018 8.92795 20.9058 9.14395C21.1098 9.34795 21.2118 9.60595 21.2118 9.91795V17.352ZM20.1138 7.64995C19.7058 7.64995 19.4178 7.58395 19.2498 7.45195C19.0818 7.31995 18.9978 7.08595 18.9978 6.74995V6.40795C18.9978 6.05995 19.0878 5.82595 19.2678 5.70595C19.4598 5.57395 19.7478 5.50795 20.1318 5.50795C20.5518 5.50795 20.8458 5.57395 21.0138 5.70595C21.1818 5.83795 21.2658 6.07195 21.2658 6.40795V6.74995C21.2658 7.09795 21.1758 7.33795 20.9958 7.46995C20.8158 7.58995 20.5218 7.64995 20.1138 7.64995ZM27.9677 18.63C26.9477 18.63 26.0597 18.42 25.3037 18C24.5597 17.568 23.9837 16.986 23.5757 16.254C23.1797 15.522 22.9817 14.694 22.9817 13.77C22.9817 12.69 23.1977 11.772 23.6297 11.016C24.0737 10.248 24.6497 9.65995 25.3577 9.25195C26.0657 8.84395 26.8157 8.63995 27.6077 8.63995C28.2197 8.63995 28.7957 8.76595 29.3357 9.01795C29.8877 9.26995 30.3737 9.61795 30.7937 10.062C31.2137 10.494 31.5437 10.998 31.7837 11.574C32.0357 12.15 32.1617 12.762 32.1617 13.41C32.1497 13.698 32.0357 13.932 31.8197 14.112C31.6037 14.292 31.3517 14.382 31.0637 14.382H24.1877L23.6477 12.582H30.2537L29.8577 12.942V12.456C29.8337 12.108 29.7077 11.796 29.4797 11.52C29.2637 11.244 28.9877 11.028 28.6517 10.872C28.3277 10.704 27.9797 10.62 27.6077 10.62C27.2477 10.62 26.9117 10.668 26.5997 10.764C26.2877 10.86 26.0177 11.022 25.7897 11.25C25.5617 11.478 25.3817 11.784 25.2497 12.168C25.1177 12.552 25.0517 13.038 25.0517 13.626C25.0517 14.274 25.1837 14.826 25.4477 15.282C25.7237 15.726 26.0717 16.068 26.4917 16.308C26.9237 16.536 27.3797 16.65 27.8597 16.65C28.3037 16.65 28.6577 16.614 28.9217 16.542C29.1857 16.47 29.3957 16.386 29.5517 16.29C29.7197 16.182 29.8697 16.092 30.0017 16.02C30.2177 15.912 30.4217 15.858 30.6137 15.858C30.8777 15.858 31.0937 15.948 31.2617 16.128C31.4417 16.308 31.5317 16.518 31.5317 16.758C31.5317 17.082 31.3637 17.376 31.0277 17.64C30.7157 17.904 30.2777 18.138 29.7137 18.342C29.1497 18.534 28.5677 18.63 27.9677 18.63ZM6.57191 31.64C7.45991 31.64 8.13191 31.826 8.58791 32.198C9.05591 32.57 9.37391 33.068 9.54191 33.692C9.72191 34.304 9.81191 34.988 9.81191 35.744V40.352C9.81191 40.664 9.70991 40.928 9.50591 41.144C9.30191 41.348 9.04391 41.45 8.73191 41.45C8.41991 41.45 8.16191 41.348 7.95791 41.144C7.75391 40.928 7.65191 40.664 7.65191 40.352V35.744C7.65191 35.348 7.59791 34.994 7.48991 34.682C7.39391 34.358 7.21391 34.1 6.94991 33.908C6.68591 33.716 6.30791 33.62 5.81591 33.62C5.33591 33.62 4.92791 33.716 4.59191 33.908C4.26791 34.1 4.01591 34.358 3.83591 34.682C3.66791 34.994 3.58391 35.348 3.58391 35.744V40.352C3.58391 40.664 3.48191 40.928 3.27791 41.144C3.07391 41.348 2.81591 41.45 2.50391 41.45C2.19191 41.45 1.93391 41.348 1.72991 41.144C1.52591 40.928 1.42391 40.664 1.42391 40.352V32.918C1.42391 32.606 1.52591 32.348 1.72991 32.144C1.93391 31.928 2.19191 31.82 2.50391 31.82C2.81591 31.82 3.07391 31.928 3.27791 32.144C3.48191 32.348 3.58391 32.606 3.58391 32.918V33.692L3.31391 33.638C3.42191 33.434 3.57791 33.218 3.78191 32.99C3.98591 32.75 4.22591 32.528 4.50191 32.324C4.77791 32.12 5.08991 31.958 5.43791 31.838C5.78591 31.706 6.16391 31.64 6.57191 31.64Z" fill="white"/>
</g>
</svg>
