<svg width="107" height="30" viewBox="0 0 107 30" fill="none" xmlns="http://www.w3.org/2000/svg">
<mask id="mask0_3_2400" style="mask-type:luminance" maskUnits="userSpaceOnUse" x="0" y="0" width="107" height="30">
<path d="M107 0H0V30H107V0Z" fill="white"/>
</mask>
<g mask="url(#mask0_3_2400)">
<path d="M33.848 23.5V7.852H37.376V20.524H43.568V23.5H33.848ZM45.9819 23.5V11.596H49.5099V23.5H45.9819ZM47.7339 9.844C47.1419 9.844 46.6619 9.676 46.2939 9.34C45.9259 9.004 45.7419 8.556 45.7419 7.996C45.7419 7.436 45.9259 6.988 46.2939 6.652C46.6619 6.316 47.1419 6.148 47.7339 6.148C48.3259 6.148 48.8059 6.316 49.1739 6.652C49.5419 6.988 49.7259 7.436 49.7259 7.996C49.7259 8.556 49.5419 9.004 49.1739 9.34C48.8059 9.676 48.3259 9.844 47.7339 9.844ZM55.3507 23.5L51.3427 11.596H54.8947L56.4307 17.212C56.5907 17.804 56.7427 18.412 56.8867 19.036C57.0467 19.644 57.2067 20.26 57.3667 20.884H57.4627C57.6067 20.26 57.7507 19.644 57.8947 19.036C58.0547 18.412 58.2147 17.804 58.3747 17.212L59.9347 11.596H63.3187L59.4307 23.5H55.3507ZM70.3177 23.788C69.1817 23.788 68.1577 23.54 67.2457 23.044C66.3337 22.548 65.6137 21.836 65.0857 20.908C64.5577 19.98 64.2937 18.86 64.2937 17.548C64.2937 16.252 64.5577 15.14 65.0857 14.212C65.6297 13.284 66.3337 12.572 67.1977 12.076C68.0617 11.564 68.9657 11.308 69.9097 11.308C71.0457 11.308 71.9817 11.564 72.7177 12.076C73.4697 12.572 74.0297 13.252 74.3977 14.116C74.7817 14.964 74.9737 15.932 74.9737 17.02C74.9737 17.324 74.9577 17.628 74.9257 17.932C74.8937 18.22 74.8617 18.436 74.8297 18.58H67.7017C67.8617 19.444 68.2217 20.084 68.7817 20.5C69.3417 20.9 70.0137 21.1 70.7977 21.1C71.6457 21.1 72.5017 20.836 73.3657 20.308L74.5417 22.444C73.9337 22.86 73.2537 23.188 72.5017 23.428C71.7497 23.668 71.0217 23.788 70.3177 23.788ZM67.6777 16.252H71.9737C71.9737 15.596 71.8137 15.06 71.4937 14.644C71.1897 14.212 70.6857 13.996 69.9817 13.996C69.4377 13.996 68.9497 14.188 68.5177 14.572C68.0857 14.94 67.8057 15.5 67.6777 16.252Z" fill="white"/>
</g>
</svg>
