<svg width="46" height="50" viewBox="0 0 46 50" fill="none" xmlns="http://www.w3.org/2000/svg">
<mask id="mask0_3_3333" style="mask-type:luminance" maskUnits="userSpaceOnUse" x="0" y="0" width="46" height="50">
<path d="M46 0H0V50H46V0Z" fill="white"/>
</mask>
<g mask="url(#mask0_3_3333)">
<path d="M13.336 38.956C11.588 38.956 9.96667 38.6267 8.472 37.968C6.97733 37.284 5.68533 36.3847 4.596 35.27L6.496 33.066C7.38267 34.0033 8.42133 34.7633 9.612 35.346C10.828 35.9033 12.082 36.182 13.374 36.182C15.0207 36.182 16.3 35.8147 17.212 35.08C18.124 34.32 18.58 33.332 18.58 32.116C18.58 31.2547 18.39 30.5707 18.01 30.064C17.6553 29.5573 17.1613 29.1267 16.528 28.772C15.92 28.4173 15.2233 28.0627 14.438 27.708L10.866 26.15C10.0807 25.8207 9.29533 25.39 8.51 24.858C7.75 24.326 7.104 23.642 6.572 22.806C6.06533 21.97 5.812 20.944 5.812 19.728C5.812 18.4613 6.14133 17.334 6.8 16.346C7.484 15.3327 8.42133 14.5473 9.612 13.99C10.8027 13.4073 12.1453 13.116 13.64 13.116C15.1347 13.116 16.5153 13.4073 17.782 13.99C19.0487 14.5473 20.1253 15.282 21.012 16.194L19.302 18.246C18.542 17.5113 17.6933 16.9413 16.756 16.536C15.844 16.1053 14.8053 15.89 13.64 15.89C12.2467 15.89 11.1193 16.2193 10.258 16.878C9.422 17.5367 9.004 18.4233 9.004 19.538C9.004 20.3233 9.20667 20.982 9.612 21.514C10.0427 22.0207 10.5747 22.4387 11.208 22.768C11.8413 23.0973 12.4873 23.4013 13.146 23.68L16.68 25.2C17.6427 25.6053 18.504 26.0993 19.264 26.682C20.0493 27.2393 20.67 27.936 21.126 28.772C21.582 29.5827 21.81 30.6087 21.81 31.85C21.81 33.1673 21.468 34.3707 20.784 35.46C20.1 36.524 19.1247 37.3727 17.858 38.006C16.5913 38.6393 15.084 38.956 13.336 38.956ZM33.9008 38.956C32.2542 38.956 30.7595 38.576 29.4168 37.816C28.0742 37.0307 27.0102 35.916 26.2248 34.472C25.4395 33.028 25.0468 31.3053 25.0468 29.304C25.0468 27.2773 25.4395 25.542 26.2248 24.098C27.0355 22.654 28.0742 21.5393 29.3408 20.754C30.6075 19.9687 31.9375 19.576 33.3308 19.576C35.6868 19.576 37.4982 20.3613 38.7648 21.932C40.0568 23.5027 40.7028 25.6053 40.7028 28.24C40.7028 28.5693 40.6902 28.8987 40.6648 29.228C40.6648 29.532 40.6395 29.798 40.5888 30.026H28.1248C28.2515 31.9767 28.8595 33.5347 29.9488 34.7C31.0635 35.8653 32.5075 36.448 34.2808 36.448C35.1675 36.448 35.9782 36.3213 36.7128 36.068C37.4728 35.7893 38.1948 35.4347 38.8788 35.004L39.9808 37.056C39.1955 37.5627 38.2962 38.006 37.2828 38.386C36.2948 38.766 35.1675 38.956 33.9008 38.956ZM28.0868 27.784H37.9668C37.9668 25.9093 37.5615 24.4907 36.7508 23.528C35.9655 22.54 34.8508 22.046 33.4068 22.046C32.1148 22.046 30.9495 22.5527 29.9108 23.566C28.8975 24.554 28.2895 25.96 28.0868 27.784Z" fill="white"/>
</g>
</svg>
