<svg width="102" height="22" viewBox="0 0 102 22" fill="none" xmlns="http://www.w3.org/2000/svg">
<mask id="mask0_3_2570" style="mask-type:luminance" maskUnits="userSpaceOnUse" x="0" y="0" width="102" height="22">
<path d="M102 0H0V22H102V0Z" fill="white"/>
</mask>
<g mask="url(#mask0_3_2570)">
<path d="M1.386 17.5V5.764H5.418C6.282 5.764 7.062 5.884 7.758 6.124C8.466 6.352 9.03 6.742 9.45 7.294C9.87 7.846 10.08 8.596 10.08 9.544C10.08 10.456 9.87 11.206 9.45 11.794C9.03 12.382 8.472 12.82 7.776 13.108C7.08 13.384 6.318 13.522 5.49 13.522H4.032V17.5H1.386ZM4.032 11.416H5.328C6.768 11.416 7.488 10.792 7.488 9.544C7.488 8.932 7.296 8.5 6.912 8.248C6.528 7.996 5.976 7.87 5.256 7.87H4.032V11.416ZM14.3227 17.716C13.4107 17.716 12.7747 17.446 12.4147 16.906C12.0667 16.354 11.8927 15.628 11.8927 14.728V4.882H14.5387V14.836C14.5387 15.112 14.5867 15.304 14.6827 15.412C14.7907 15.52 14.8987 15.574 15.0067 15.574C15.0667 15.574 15.1147 15.574 15.1507 15.574C15.1987 15.562 15.2587 15.55 15.3307 15.538L15.6547 17.5C15.5107 17.56 15.3247 17.608 15.0967 17.644C14.8807 17.692 14.6227 17.716 14.3227 17.716ZM19.293 17.716C18.477 17.716 17.829 17.458 17.349 16.942C16.869 16.414 16.629 15.772 16.629 15.016C16.629 14.08 17.025 13.348 17.817 12.82C18.609 12.292 19.887 11.938 21.651 11.758C21.627 11.362 21.507 11.05 21.291 10.822C21.087 10.582 20.739 10.462 20.247 10.462C19.875 10.462 19.497 10.534 19.113 10.678C18.729 10.822 18.321 11.02 17.889 11.272L16.935 9.526C17.499 9.178 18.099 8.896 18.735 8.68C19.383 8.464 20.055 8.356 20.751 8.356C21.891 8.356 22.767 8.686 23.379 9.346C23.991 10.006 24.297 11.02 24.297 12.388V17.5H22.137L21.957 16.582H21.885C21.513 16.918 21.111 17.194 20.679 17.41C20.259 17.614 19.797 17.716 19.293 17.716ZM20.193 15.664C20.493 15.664 20.751 15.598 20.967 15.466C21.195 15.322 21.423 15.136 21.651 14.908V13.342C20.715 13.462 20.067 13.654 19.707 13.918C19.347 14.17 19.167 14.47 19.167 14.818C19.167 15.106 19.257 15.322 19.437 15.466C19.629 15.598 19.881 15.664 20.193 15.664ZM27.5252 20.992C27.2612 20.992 27.0272 20.974 26.8232 20.938C26.6312 20.902 26.4452 20.86 26.2652 20.812L26.7332 18.796C26.8172 18.808 26.9132 18.826 27.0212 18.85C27.1292 18.886 27.2312 18.904 27.3272 18.904C27.7712 18.904 28.1132 18.796 28.3532 18.58C28.5932 18.364 28.7732 18.082 28.8932 17.734L29.0192 17.266L25.5812 8.572H28.2452L29.5232 12.406C29.6552 12.814 29.7752 13.228 29.8832 13.648C29.9912 14.068 30.1052 14.5 30.2252 14.944H30.2972C30.3932 14.524 30.4892 14.104 30.5852 13.684C30.6932 13.252 30.8012 12.826 30.9092 12.406L31.9892 8.572H34.5272L31.4312 17.59C31.1552 18.334 30.8492 18.958 30.5132 19.462C30.1772 19.978 29.7692 20.362 29.2892 20.614C28.8212 20.866 28.2332 20.992 27.5252 20.992ZM39.7773 17.716C38.9253 17.716 38.1573 17.53 37.4733 17.158C36.7893 16.786 36.2493 16.252 35.8533 15.556C35.4573 14.86 35.2593 14.02 35.2593 13.036C35.2593 12.064 35.4573 11.23 35.8533 10.534C36.2613 9.838 36.7893 9.304 37.4373 8.932C38.0853 8.548 38.7633 8.356 39.4713 8.356C40.3233 8.356 41.0253 8.548 41.5773 8.932C42.1413 9.304 42.5613 9.814 42.8373 10.462C43.1253 11.098 43.2693 11.824 43.2693 12.64C43.2693 12.868 43.2573 13.096 43.2333 13.324C43.2093 13.54 43.1853 13.702 43.1613 13.81H37.8153C37.9353 14.458 38.2053 14.938 38.6253 15.25C39.0453 15.55 39.5493 15.7 40.1373 15.7C40.7733 15.7 41.4153 15.502 42.0633 15.106L42.9453 16.708C42.4893 17.02 41.9793 17.266 41.4153 17.446C40.8513 17.626 40.3053 17.716 39.7773 17.716ZM37.7973 12.064H41.0193C41.0193 11.572 40.8993 11.17 40.6593 10.858C40.4313 10.534 40.0533 10.372 39.5253 10.372C39.1173 10.372 38.7513 10.516 38.4273 10.804C38.1033 11.08 37.8933 11.5 37.7973 12.064ZM45.0977 17.5V8.572H47.2577L47.4377 10.138H47.5097C47.8337 9.538 48.2237 9.094 48.6797 8.806C49.1357 8.506 49.5917 8.356 50.0477 8.356C50.2997 8.356 50.5097 8.374 50.6777 8.41C50.8457 8.434 50.9897 8.476 51.1097 8.536L50.6777 10.822C50.5217 10.774 50.3657 10.738 50.2097 10.714C50.0657 10.69 49.8977 10.678 49.7057 10.678C49.3697 10.678 49.0157 10.804 48.6437 11.056C48.2837 11.296 47.9837 11.716 47.7437 12.316V17.5H45.0977Z" fill="white"/>
</g>
</svg>
