<svg width="369" height="53" viewBox="0 0 369 53" fill="none" xmlns="http://www.w3.org/2000/svg">
<mask id="mask0_36_1877" style="mask-type:luminance" maskUnits="userSpaceOnUse" x="0" y="0" width="369" height="53">
<path d="M368.191 0.641602H0.285156V52.562H368.191V0.641602Z" fill="white"/>
</mask>
<g mask="url(#mask0_36_1877)">
<path d="M11.4592 38.7703C11.1138 38.7703 10.8302 38.6593 10.6082 38.4373C10.4108 38.2153 10.3122 37.9563 10.3122 37.6603V14.0913H12.6062V37.6603C12.6062 37.9563 12.4952 38.2153 12.2732 38.4373C12.0512 38.6593 11.7798 38.7703 11.4592 38.7703ZM2.65316 14.9793C2.35716 14.9793 2.09816 14.8806 1.87616 14.6833C1.65416 14.4859 1.54316 14.2269 1.54316 13.9063C1.54316 13.6103 1.65416 13.3636 1.87616 13.1663C2.09816 12.9689 2.35716 12.8703 2.65316 12.8703H20.2652C20.5612 12.8703 20.8202 12.9689 21.0422 13.1663C21.2642 13.3636 21.3752 13.6226 21.3752 13.9433C21.3752 14.2639 21.2642 14.5229 21.0422 14.7203C20.8202 14.8929 20.5612 14.9793 20.2652 14.9793H2.65316ZM33.2342 39.1403C31.3596 39.1649 29.7316 38.8689 28.3502 38.2523C26.9689 37.6356 25.6492 36.7106 24.3912 35.4773C24.2679 35.3786 24.1569 35.2553 24.0582 35.1073C23.9842 34.9593 23.9472 34.7866 23.9472 34.5893C23.9472 34.2933 24.0582 34.0219 24.2802 33.7753C24.5269 33.5286 24.7982 33.4053 25.0942 33.4053C25.3902 33.4053 25.6616 33.5286 25.9082 33.7753C26.8702 34.8113 27.9556 35.6006 29.1642 36.1433C30.3976 36.6859 31.7172 36.9573 33.1232 36.9573C34.3072 36.9573 35.3556 36.7723 36.2682 36.4023C37.2056 36.0323 37.9456 35.5019 38.4882 34.8113C39.0309 34.1206 39.3022 33.3189 39.3022 32.4063C39.3022 31.2716 38.9939 30.3589 38.3772 29.6683C37.7606 28.9529 36.9466 28.3733 35.9352 27.9293C34.9239 27.4606 33.8016 27.0413 32.5682 26.6713C31.5569 26.3753 30.5949 26.0423 29.6822 25.6723C28.7696 25.2776 27.9556 24.8089 27.2402 24.2663C26.5249 23.6989 25.9699 23.0083 25.5752 22.1943C25.1806 21.3803 24.9832 20.3936 24.9832 19.2343C24.9832 17.9269 25.3286 16.7676 26.0192 15.7563C26.7099 14.7449 27.6842 13.9556 28.9422 13.3883C30.2249 12.7963 31.7049 12.5003 33.3822 12.5003C34.8376 12.5003 36.2312 12.7469 37.5632 13.2403C38.9199 13.7336 39.9929 14.4613 40.7822 15.4233C41.1522 15.8179 41.3372 16.1756 41.3372 16.4963C41.3372 16.7429 41.2139 16.9896 40.9672 17.2363C40.7206 17.4829 40.4492 17.6063 40.1532 17.6063C39.9066 17.6063 39.6969 17.5199 39.5242 17.3473C39.1049 16.8293 38.5746 16.3729 37.9332 15.9783C37.2919 15.5589 36.5766 15.2383 35.7872 15.0163C35.0226 14.7943 34.2209 14.6833 33.3822 14.6833C32.2229 14.6833 31.1746 14.8683 30.2372 15.2383C29.3246 15.5836 28.5969 16.0893 28.0542 16.7553C27.5362 17.4213 27.2772 18.2229 27.2772 19.1603C27.2772 20.1963 27.5732 21.0473 28.1652 21.7133C28.7572 22.3793 29.5342 22.9343 30.4962 23.3783C31.4582 23.7976 32.4819 24.1923 33.5672 24.5623C34.6279 24.8583 35.6392 25.2036 36.6012 25.5983C37.5879 25.9683 38.4512 26.4369 39.1912 27.0043C39.9559 27.5716 40.5479 28.2869 40.9672 29.1503C41.4112 30.0136 41.6332 31.0989 41.6332 32.4063C41.6332 33.6643 41.2756 34.7989 40.5602 35.8103C39.8449 36.8216 38.8582 37.6233 37.6002 38.2153C36.3669 38.8073 34.9116 39.1156 33.2342 39.1403ZM47.9796 12.8703C48.1523 12.8703 48.3249 12.9073 48.4976 12.9813C48.6949 13.0553 48.8553 13.1786 48.9786 13.3513L59.1906 28.6693L58.1916 28.6323L68.4406 13.3513C68.7119 12.9813 69.0449 12.8209 69.4396 12.8703C69.7356 12.8703 69.9823 12.9813 70.1796 13.2033C70.4016 13.4006 70.5126 13.6596 70.5126 13.9803V37.6603C70.5126 37.9563 70.4016 38.2153 70.1796 38.4373C69.9576 38.6593 69.6863 38.7703 69.3656 38.7703C69.0203 38.7703 68.7366 38.6593 68.5146 38.4373C68.2926 38.2153 68.1816 37.9563 68.1816 37.6603V16.2373L68.8476 16.3113L59.4866 30.4823C59.4126 30.6303 59.3016 30.7536 59.1536 30.8523C59.0056 30.9263 58.8329 30.9509 58.6356 30.9263C58.4629 30.9509 58.2903 30.9263 58.1176 30.8523C57.9696 30.7536 57.8463 30.6303 57.7476 30.4823L48.3496 16.1633L49.0526 15.6823V37.6603C49.0526 37.9563 48.9416 38.2153 48.7196 38.4373C48.5223 38.6593 48.2633 38.7703 47.9426 38.7703C47.6219 38.7703 47.3629 38.6593 47.1656 38.4373C46.9683 38.2153 46.8696 37.9563 46.8696 37.6603V13.9803C46.8696 13.6843 46.9683 13.4253 47.1656 13.2033C47.3876 12.9813 47.6589 12.8703 47.9796 12.8703ZM86.5923 19.4563C86.7896 19.4563 86.9869 19.5179 87.1843 19.6413C87.3816 19.7646 87.5296 19.9496 87.6283 20.1963L94.1033 35.5883L93.6223 35.8843L100.245 20.1963C100.443 19.7029 100.8 19.4686 101.318 19.4933C101.565 19.4933 101.799 19.5796 102.021 19.7523C102.243 19.9003 102.354 20.1223 102.354 20.4183C102.354 20.5663 102.33 20.6896 102.28 20.7883C102.256 20.8623 102.231 20.9486 102.206 21.0473L94.9543 38.0673C94.7569 38.5113 94.4239 38.7456 93.9553 38.7703C93.7333 38.7949 93.5113 38.7456 93.2893 38.6223C93.0919 38.4743 92.9439 38.2893 92.8453 38.0673L85.5563 21.0473C85.5316 20.9979 85.5069 20.9239 85.4823 20.8253C85.4576 20.7266 85.4453 20.6279 85.4453 20.5293C85.4453 20.2579 85.5439 20.0113 85.7413 19.7893C85.9386 19.5673 86.2223 19.4563 86.5923 19.4563ZM105.367 35.7733C105.169 35.4773 105.071 35.1936 105.071 34.9223C105.095 34.6263 105.256 34.3919 105.552 34.2193C105.749 34.0466 105.971 33.9726 106.218 33.9973C106.489 34.0219 106.736 34.1453 106.958 34.3673C107.624 35.2306 108.425 35.9336 109.363 36.4763C110.325 36.9943 111.459 37.2533 112.767 37.2533C113.457 37.2533 114.136 37.1423 114.802 36.9203C115.492 36.6736 116.06 36.3159 116.504 35.8473C116.948 35.3539 117.17 34.7373 117.17 33.9973C117.17 33.2326 116.948 32.6159 116.504 32.1473C116.06 31.6786 115.48 31.3086 114.765 31.0373C114.074 30.7659 113.334 30.5316 112.545 30.3343C111.706 30.1123 110.892 29.8656 110.103 29.5943C109.313 29.2983 108.61 28.9406 107.994 28.5213C107.402 28.0773 106.921 27.5469 106.551 26.9303C106.181 26.3136 105.996 25.5613 105.996 24.6733C105.996 23.6373 106.279 22.7246 106.847 21.9353C107.414 21.1459 108.179 20.5293 109.141 20.0853C110.127 19.6413 111.237 19.4193 112.471 19.4193C113.087 19.4193 113.753 19.5056 114.469 19.6783C115.184 19.8263 115.887 20.0853 116.578 20.4553C117.268 20.8253 117.885 21.3309 118.428 21.9723C118.65 22.1943 118.761 22.4533 118.761 22.7493C118.761 23.0206 118.637 23.2673 118.391 23.4893C118.193 23.6373 117.959 23.7113 117.688 23.7113C117.441 23.7113 117.231 23.6126 117.059 23.4153C116.467 22.7493 115.764 22.2436 114.95 21.8983C114.136 21.5529 113.26 21.3803 112.323 21.3803C111.607 21.3803 110.929 21.5036 110.288 21.7503C109.671 21.9723 109.153 22.3176 108.734 22.7863C108.314 23.2549 108.105 23.8716 108.105 24.6363C108.154 25.3516 108.401 25.9313 108.845 26.3753C109.313 26.8193 109.918 27.1893 110.658 27.4853C111.422 27.7813 112.273 28.0526 113.211 28.2993C114 28.4966 114.752 28.7309 115.468 29.0023C116.208 29.2736 116.849 29.6189 117.392 30.0383C117.959 30.4329 118.403 30.9386 118.724 31.5553C119.069 32.1719 119.242 32.9489 119.242 33.8863C119.242 34.9716 118.933 35.9089 118.317 36.6983C117.725 37.4876 116.923 38.0919 115.912 38.5113C114.9 38.9306 113.778 39.1403 112.545 39.1403C111.213 39.1403 109.918 38.8813 108.66 38.3633C107.426 37.8453 106.329 36.9819 105.367 35.7733ZM124.079 38.7703C123.66 38.7703 123.339 38.6346 123.117 38.3633C122.895 38.0919 122.784 37.7466 122.784 37.3273V36.5503C122.784 36.1063 122.895 35.7609 123.117 35.5143C123.339 35.2676 123.66 35.1443 124.079 35.1443H124.338C124.758 35.1443 125.078 35.2676 125.3 35.5143C125.522 35.7609 125.633 36.1063 125.633 36.5503V37.3273C125.633 37.7466 125.522 38.0919 125.3 38.3633C125.078 38.6346 124.758 38.7703 124.338 38.7703H124.079ZM160.047 14.7943C160.343 14.9916 160.516 15.2506 160.565 15.5713C160.614 15.8673 160.54 16.1633 160.343 16.4593C160.17 16.6813 159.948 16.8046 159.677 16.8293C159.406 16.8539 159.147 16.8046 158.9 16.6813C157.963 16.0646 156.951 15.5836 155.866 15.2383C154.805 14.8929 153.658 14.7203 152.425 14.7203C150.92 14.7203 149.514 14.9916 148.207 15.5343C146.924 16.0523 145.802 16.8169 144.84 17.8283C143.878 18.8149 143.126 19.9866 142.583 21.3433C142.065 22.6999 141.806 24.1923 141.806 25.8203C141.806 27.4976 142.077 29.0269 142.62 30.4083C143.163 31.7649 143.915 32.9366 144.877 33.9233C145.864 34.9099 146.998 35.6623 148.281 36.1803C149.564 36.6983 150.945 36.9573 152.425 36.9573C153.634 36.9573 154.768 36.7846 155.829 36.4393C156.914 36.0939 157.926 35.6253 158.863 35.0333C159.11 34.8853 159.369 34.8359 159.64 34.8853C159.936 34.9099 160.17 35.0456 160.343 35.2923C160.565 35.5636 160.639 35.8596 160.565 36.1803C160.516 36.4763 160.355 36.7106 160.084 36.8833C159.467 37.2779 158.74 37.6479 157.901 37.9933C157.062 38.3386 156.174 38.6099 155.237 38.8073C154.3 39.0293 153.362 39.1403 152.425 39.1403C150.649 39.1403 148.984 38.8196 147.43 38.1783C145.876 37.5369 144.495 36.6366 143.286 35.4773C142.077 34.2933 141.128 32.8873 140.437 31.2593C139.771 29.6313 139.438 27.8183 139.438 25.8203C139.438 23.8963 139.771 22.1326 140.437 20.5293C141.103 18.9013 142.028 17.4953 143.212 16.3113C144.396 15.1273 145.777 14.2023 147.356 13.5363C148.935 12.8703 150.624 12.5373 152.425 12.5373C153.831 12.5373 155.188 12.7346 156.495 13.1293C157.802 13.5239 158.986 14.0789 160.047 14.7943ZM179.632 36.5873C179.928 36.5873 180.187 36.6983 180.409 36.9203C180.631 37.1176 180.742 37.3643 180.742 37.6603C180.742 37.9809 180.631 38.2523 180.409 38.4743C180.187 38.6716 179.928 38.7703 179.632 38.7703H166.423C166.102 38.7703 165.831 38.6593 165.609 38.4373C165.412 38.2153 165.313 37.9563 165.313 37.6603V13.9803C165.313 13.6843 165.424 13.4253 165.646 13.2033C165.868 12.9813 166.152 12.8703 166.497 12.8703C166.793 12.8703 167.052 12.9813 167.274 13.2033C167.521 13.4253 167.644 13.6843 167.644 13.9803V37.2163L166.941 36.5873H179.632ZM196.262 39.1403C194.363 39.1403 192.599 38.8073 190.971 38.1413C189.343 37.4753 187.925 36.5503 186.716 35.3663C185.532 34.1576 184.607 32.7393 183.941 31.1113C183.275 29.4833 182.942 27.7196 182.942 25.8203C182.942 23.9209 183.275 22.1573 183.941 20.5293C184.607 18.9013 185.532 17.4953 186.716 16.3113C187.925 15.1026 189.343 14.1653 190.971 13.4993C192.599 12.8333 194.363 12.5003 196.262 12.5003C197.569 12.5003 198.827 12.6606 200.036 12.9813C201.269 13.2773 202.367 13.7336 203.329 14.3503C203.502 14.4736 203.625 14.6216 203.699 14.7943C203.798 14.9423 203.847 15.1026 203.847 15.2753C203.847 15.6206 203.736 15.9043 203.514 16.1263C203.292 16.3236 203.058 16.4223 202.811 16.4223C202.688 16.4223 202.564 16.4099 202.441 16.3853C202.342 16.3359 202.244 16.2866 202.145 16.2373C201.306 15.7686 200.394 15.3986 199.407 15.1273C198.42 14.8559 197.372 14.7203 196.262 14.7203C194.141 14.7203 192.254 15.2013 190.601 16.1633C188.948 17.1253 187.653 18.4449 186.716 20.1223C185.779 21.7996 185.31 23.6989 185.31 25.8203C185.31 27.9416 185.779 29.8409 186.716 31.5183C187.653 33.1956 188.948 34.5153 190.601 35.4773C192.254 36.4393 194.141 36.9203 196.262 36.9203C197.372 36.9203 198.482 36.7599 199.592 36.4393C200.727 36.1186 201.701 35.6869 202.515 35.1443L202.33 35.9213V27.4113L202.885 27.9293H196.484C196.163 27.9293 195.892 27.8183 195.67 27.5963C195.448 27.3743 195.337 27.1153 195.337 26.8193C195.337 26.4739 195.448 26.2026 195.67 26.0053C195.892 25.8079 196.163 25.7093 196.484 25.7093H203.551C203.872 25.7093 204.131 25.8203 204.328 26.0423C204.55 26.2396 204.661 26.4986 204.661 26.8193V35.7363C204.661 35.9336 204.612 36.1186 204.513 36.2913C204.414 36.4639 204.279 36.6119 204.106 36.7353C203.021 37.4753 201.8 38.0673 200.443 38.5113C199.111 38.9306 197.717 39.1403 196.262 39.1403ZM239.432 12.8703C239.752 12.8703 239.999 12.9689 240.172 13.1663C240.369 13.3636 240.468 13.6103 240.468 13.9063V37.5863C240.468 37.9563 240.344 38.2523 240.098 38.4743C239.876 38.6716 239.617 38.7703 239.321 38.7703C239.173 38.7703 239.012 38.7456 238.84 38.6963C238.667 38.6223 238.531 38.5236 238.433 38.4003L221.931 16.1633L222.56 15.8303V37.7713C222.56 38.0426 222.461 38.2769 222.264 38.4743C222.066 38.6716 221.82 38.7703 221.524 38.7703C221.203 38.7703 220.944 38.6716 220.747 38.4743C220.574 38.2769 220.488 38.0426 220.488 37.7713V13.9803C220.488 13.6103 220.599 13.3389 220.821 13.1663C221.043 12.9689 221.289 12.8703 221.561 12.8703C221.709 12.8703 221.869 12.9073 222.042 12.9813C222.214 13.0306 222.35 13.1293 222.449 13.2773L238.766 35.2553L238.396 35.9213V13.9063C238.396 13.6103 238.494 13.3636 238.692 13.1663C238.914 12.9689 239.16 12.8703 239.432 12.8703ZM256.065 15.7193L247.074 38.0673C246.975 38.3139 246.839 38.4989 246.667 38.6223C246.494 38.7456 246.297 38.8073 246.075 38.8073C245.729 38.8073 245.47 38.7209 245.298 38.5483C245.125 38.3509 245.026 38.1166 245.002 37.8453C244.977 37.7219 244.989 37.5739 245.039 37.4013L254.807 13.4993C254.93 13.2279 255.078 13.0429 255.251 12.9443C255.448 12.8209 255.67 12.7593 255.917 12.7593C256.163 12.7593 256.373 12.8333 256.546 12.9813C256.743 13.1046 256.891 13.2773 256.99 13.4993L266.721 37.2903C266.77 37.4383 266.795 37.5863 266.795 37.7343C266.795 38.0796 266.684 38.3509 266.462 38.5483C266.24 38.7209 265.981 38.8073 265.685 38.8073C265.438 38.8073 265.216 38.7456 265.019 38.6223C264.846 38.4743 264.71 38.2893 264.612 38.0673L255.399 15.5713L256.065 15.7193ZM249.22 31.2963L250.145 29.1133H261.615L262.059 31.2963H249.22ZM18.0822 82.5873C18.3782 82.5873 18.6372 82.6983 18.8592 82.9203C19.0812 83.1176 19.1922 83.3643 19.1922 83.6603C19.1922 83.9809 19.0812 84.2523 18.8592 84.4743C18.6372 84.6716 18.3782 84.7703 18.0822 84.7703H4.87316C4.55249 84.7703 4.28116 84.6593 4.05916 84.4373C3.86182 84.2153 3.76316 83.9563 3.76316 83.6603V59.9803C3.76316 59.6843 3.87416 59.4253 4.09616 59.2033C4.31816 58.9813 4.60182 58.8703 4.94716 58.8703C5.24316 58.8703 5.50216 58.9813 5.72416 59.2033C5.97082 59.4253 6.09416 59.6843 6.09416 59.9803V83.2163L5.39116 82.5873H18.0822ZM42.0012 60.7943C42.2972 60.9916 42.4699 61.2506 42.5192 61.5713C42.5685 61.8673 42.4945 62.1633 42.2972 62.4593C42.1245 62.6813 41.9025 62.8046 41.6312 62.8293C41.3599 62.8539 41.1009 62.8046 40.8542 62.6813C39.9169 62.0646 38.9055 61.5836 37.8202 61.2383C36.7595 60.8929 35.6125 60.7203 34.3792 60.7203C32.8745 60.7203 31.4685 60.9916 30.1612 61.5343C28.8785 62.0523 27.7562 62.8169 26.7942 63.8283C25.8322 64.8149 25.0799 65.9866 24.5372 67.3433C24.0192 68.6999 23.7602 70.1923 23.7602 71.8203C23.7602 73.4976 24.0315 75.0269 24.5742 76.4083C25.1169 77.7649 25.8692 78.9366 26.8312 79.9233C27.8179 80.9099 28.9525 81.6623 30.2352 82.1803C31.5179 82.6983 32.8992 82.9573 34.3792 82.9573C35.5879 82.9573 36.7225 82.7846 37.7832 82.4393C38.8685 82.0939 39.8799 81.6253 40.8172 81.0333C41.0639 80.8853 41.3229 80.8359 41.5942 80.8853C41.8902 80.9099 42.1245 81.0456 42.2972 81.2923C42.5192 81.5636 42.5932 81.8596 42.5192 82.1803C42.4699 82.4763 42.3095 82.7106 42.0382 82.8833C41.4215 83.2779 40.6939 83.6479 39.8552 83.9933C39.0165 84.3386 38.1285 84.6099 37.1912 84.8073C36.2539 85.0293 35.3165 85.1403 34.3792 85.1403C32.6032 85.1403 30.9382 84.8196 29.3842 84.1783C27.8302 83.5369 26.4489 82.6366 25.2402 81.4773C24.0315 80.2933 23.0819 78.8873 22.3912 77.2593C21.7252 75.6313 21.3922 73.8183 21.3922 71.8203C21.3922 69.8963 21.7252 68.1326 22.3912 66.5293C23.0572 64.9013 23.9822 63.4953 25.1662 62.3113C26.3502 61.1273 27.7315 60.2023 29.3102 59.5363C30.8889 58.8703 32.5785 58.5373 34.3792 58.5373C35.7852 58.5373 37.1419 58.7346 38.4492 59.1293C39.7565 59.5239 40.9405 60.0789 42.0012 60.7943ZM54.4081 85.1403C52.5334 85.1649 50.9054 84.8689 49.5241 84.2523C48.1427 83.6356 46.8231 82.7106 45.5651 81.4773C45.4417 81.3786 45.3307 81.2553 45.2321 81.1073C45.1581 80.9593 45.1211 80.7866 45.1211 80.5893C45.1211 80.2933 45.2321 80.0219 45.4541 79.7753C45.7007 79.5286 45.9721 79.4053 46.2681 79.4053C46.5641 79.4053 46.8354 79.5286 47.0821 79.7753C48.0441 80.8113 49.1294 81.6006 50.3381 82.1433C51.5714 82.6859 52.8911 82.9573 54.2971 82.9573C55.4811 82.9573 56.5294 82.7723 57.4421 82.4023C58.3794 82.0323 59.1194 81.5019 59.6621 80.8113C60.2047 80.1206 60.4761 79.3189 60.4761 78.4063C60.4761 77.2716 60.1677 76.3589 59.5511 75.6683C58.9344 74.9529 58.1204 74.3733 57.1091 73.9293C56.0977 73.4606 54.9754 73.0413 53.7421 72.6713C52.7307 72.3753 51.7687 72.0423 50.8561 71.6723C49.9434 71.2776 49.1294 70.8089 48.4141 70.2663C47.6987 69.6989 47.1437 69.0083 46.7491 68.1943C46.3544 67.3803 46.1571 66.3936 46.1571 65.2343C46.1571 63.9269 46.5024 62.7676 47.1931 61.7563C47.8837 60.7449 48.8581 59.9556 50.1161 59.3883C51.3987 58.7963 52.8787 58.5003 54.5561 58.5003C56.0114 58.5003 57.4051 58.7469 58.7371 59.2403C60.0937 59.7336 61.1667 60.4613 61.9561 61.4233C62.3261 61.8179 62.5111 62.1756 62.5111 62.4963C62.5111 62.7429 62.3877 62.9896 62.1411 63.2363C61.8944 63.4829 61.6231 63.6063 61.3271 63.6063C61.0804 63.6063 60.8707 63.5199 60.6981 63.3473C60.2787 62.8293 59.7484 62.3729 59.1071 61.9783C58.4657 61.5589 57.7504 61.2383 56.9611 61.0163C56.1964 60.7943 55.3947 60.6833 54.5561 60.6833C53.3967 60.6833 52.3484 60.8683 51.4111 61.2383C50.4984 61.5836 49.7707 62.0893 49.2281 62.7553C48.7101 63.4213 48.4511 64.2229 48.4511 65.1603C48.4511 66.1963 48.7471 67.0473 49.3391 67.7133C49.9311 68.3793 50.7081 68.9343 51.6701 69.3783C52.6321 69.7976 53.6557 70.1923 54.7411 70.5623C55.8017 70.8583 56.8131 71.2036 57.7751 71.5983C58.7617 71.9683 59.6251 72.4369 60.3651 73.0043C61.1297 73.5716 61.7217 74.2869 62.1411 75.1503C62.5851 76.0136 62.8071 77.0989 62.8071 78.4063C62.8071 79.6643 62.4494 80.7989 61.7341 81.8103C61.0187 82.8216 60.0321 83.6233 58.7741 84.2153C57.5407 84.8073 56.0854 85.1156 54.4081 85.1403Z" fill="white"/>
</g>
</svg>
