<svg width="17" height="20" viewBox="0 0 17 20" fill="none" xmlns="http://www.w3.org/2000/svg">
<mask id="mask0_36_632" style="mask-type:luminance" maskUnits="userSpaceOnUse" x="0" y="0" width="17" height="20">
<path d="M16.0564 0.701538H0.692871V19.806H16.0564V0.701538Z" fill="white"/>
</mask>
<g mask="url(#mask0_36_632)">
<path d="M3.61787 9.79154C2.81987 9.79154 2.20187 9.51554 1.76387 8.96354C1.33187 8.41154 1.11587 7.63754 1.11587 6.64154C1.11587 5.92154 1.22687 5.31254 1.44887 4.81454C1.67087 4.31054 1.98587 3.92654 2.39387 3.66254C2.80787 3.39854 3.30287 3.26654 3.87887 3.26654C4.22087 3.26654 4.55987 3.32954 4.89587 3.45554C5.23187 3.57554 5.51987 3.74954 5.75987 3.97754L5.37287 4.84154C5.15087 4.63754 4.91087 4.48754 4.65287 4.39154C4.39487 4.28954 4.13387 4.23854 3.86987 4.23854C3.32987 4.23854 2.91887 4.42154 2.63687 4.78754C2.35487 5.15354 2.21387 5.69954 2.21387 6.42554V7.10054H2.10587C2.15387 6.79454 2.25587 6.53354 2.41187 6.31754C2.56787 6.09554 2.76887 5.92754 3.01487 5.81354C3.26087 5.69354 3.53387 5.63354 3.83387 5.63354C4.20587 5.63354 4.53587 5.72054 4.82387 5.89454C5.11187 6.06854 5.33687 6.30854 5.49887 6.61454C5.66687 6.92054 5.75087 7.27154 5.75087 7.66754C5.75087 8.07554 5.65787 8.44154 5.47187 8.76554C5.29187 9.08354 5.04287 9.33554 4.72487 9.52154C4.40687 9.70154 4.03787 9.79154 3.61787 9.79154ZM3.55487 8.87354C3.77687 8.87354 3.97187 8.82554 4.13987 8.72954C4.30787 8.63354 4.43687 8.49854 4.52687 8.32454C4.62287 8.14454 4.67087 7.94054 4.67087 7.71254C4.67087 7.47854 4.62287 7.27454 4.52687 7.10054C4.43687 6.92654 4.30787 6.79154 4.13987 6.69554C3.97187 6.59354 3.77687 6.54254 3.55487 6.54254C3.33287 6.54254 3.13787 6.59354 2.96987 6.69554C2.80187 6.79154 2.66987 6.92654 2.57387 7.10054C2.47787 7.27454 2.42987 7.47854 2.42987 7.71254C2.42987 7.94054 2.47787 8.14454 2.57387 8.32454C2.66987 8.49854 2.80187 8.63354 2.96987 8.72954C3.13787 8.82554 3.33287 8.87354 3.55487 8.87354Z" fill="#979797"/>
</g>
</svg>
