<svg width="63" height="20" viewBox="0 0 63 20" fill="none" xmlns="http://www.w3.org/2000/svg">
<mask id="mask0_3_3250" style="mask-type:luminance" maskUnits="userSpaceOnUse" x="0" y="0" width="63" height="20">
<path d="M63 0H0V20H63V0Z" fill="white"/>
</mask>
<g mask="url(#mask0_3_3250)">
<path d="M1.44 16V5.504H7.488V6.624H2.768V9.92H6.752V11.056H2.768V14.864H7.648V16H1.44ZM8.1615 16L10.7055 11.936L8.3535 8.224H9.7775L10.8175 9.936C10.9348 10.1387 11.0575 10.352 11.1855 10.576C11.3135 10.8 11.4468 11.0187 11.5855 11.232H11.6495C11.7668 11.0187 11.8842 10.8 12.0015 10.576C12.1188 10.352 12.2362 10.1387 12.3535 9.936L13.2975 8.224H14.6735L12.3215 12.08L14.8495 16H13.4255L12.2895 14.192C12.1508 13.9573 12.0122 13.7227 11.8735 13.488C11.7348 13.2533 11.5908 13.024 11.4415 12.8H11.3775C11.2388 13.024 11.1055 13.2533 10.9775 13.488C10.8495 13.712 10.7215 13.9467 10.5935 14.192L9.5375 16H8.1615ZM16.3901 19.28V8.224H17.4781L17.5901 9.12H17.6381C17.9901 8.82133 18.3741 8.56533 18.7901 8.352C19.2168 8.13867 19.6595 8.032 20.1181 8.032C21.1208 8.032 21.8835 8.39467 22.4061 9.12C22.9288 9.83467 23.1901 10.7947 23.1901 12C23.1901 12.8747 23.0301 13.6267 22.7101 14.256C22.4008 14.8853 21.9901 15.3653 21.4781 15.696C20.9768 16.0267 20.4275 16.192 19.8301 16.192C19.4675 16.192 19.1048 16.112 18.7421 15.952C18.3901 15.792 18.0328 15.5733 17.6701 15.296L17.7021 16.656V19.28H16.3901ZM19.6061 15.088C20.2461 15.088 20.7741 14.816 21.1901 14.272C21.6168 13.7173 21.8301 12.96 21.8301 12C21.8301 11.1467 21.6701 10.4587 21.3501 9.936C21.0408 9.40267 20.5181 9.136 19.7821 9.136C19.4515 9.136 19.1155 9.22667 18.7741 9.408C18.4435 9.58933 18.0861 9.85067 17.7021 10.192V14.272C18.0541 14.5707 18.3955 14.784 18.7261 14.912C19.0568 15.0293 19.3501 15.088 19.6061 15.088ZM28.4171 16.192C27.7238 16.192 27.0945 16.032 26.5291 15.712C25.9638 15.3813 25.5158 14.912 25.1851 14.304C24.8545 13.696 24.6891 12.9707 24.6891 12.128C24.6891 11.2747 24.8545 10.544 25.1851 9.936C25.5265 9.328 25.9638 8.85867 26.4971 8.528C27.0305 8.19733 27.5905 8.032 28.1771 8.032C29.1691 8.032 29.9318 8.36267 30.4651 9.024C31.0091 9.68533 31.2811 10.5707 31.2811 11.68C31.2811 11.8187 31.2758 11.9573 31.2651 12.096C31.2651 12.224 31.2545 12.336 31.2331 12.432H25.9851C26.0385 13.2533 26.2945 13.9093 26.7531 14.4C27.2225 14.8907 27.8305 15.136 28.5771 15.136C28.9505 15.136 29.2918 15.0827 29.6011 14.976C29.9211 14.8587 30.2251 14.7093 30.5131 14.528L30.9771 15.392C30.6465 15.6053 30.2678 15.792 29.8411 15.952C29.4251 16.112 28.9505 16.192 28.4171 16.192ZM25.9691 11.488H30.1291C30.1291 10.6987 29.9585 10.1013 29.6171 9.696C29.2865 9.28 28.8171 9.072 28.2091 9.072C27.6651 9.072 27.1745 9.28533 26.7371 9.712C26.3105 10.128 26.0545 10.72 25.9691 11.488ZM33.2026 16V8.224H34.2906L34.4026 9.632H34.4506C34.7173 9.14133 35.0426 8.752 35.4266 8.464C35.8106 8.176 36.2213 8.032 36.6586 8.032C36.968 8.032 37.2453 8.08533 37.4906 8.192L37.2346 9.344C37.1066 9.30133 36.9893 9.26933 36.8826 9.248C36.776 9.22667 36.6426 9.216 36.4826 9.216C36.152 9.216 35.8053 9.34933 35.4426 9.616C35.0906 9.88267 34.7813 10.3467 34.5146 11.008V16H33.2026ZM41.1975 16.192C40.3655 16.192 39.7842 15.952 39.4535 15.472C39.1335 14.992 38.9735 14.368 38.9735 13.6V9.296H37.8215V8.304L39.0375 8.224L39.1975 6.048H40.3015V8.224H42.3975V9.296H40.3015V13.616C40.3015 14.096 40.3868 14.4693 40.5575 14.736C40.7388 14.992 41.0535 15.12 41.5015 15.12C41.6402 15.12 41.7895 15.0987 41.9495 15.056C42.1095 15.0027 42.2535 14.9547 42.3815 14.912L42.6375 15.904C42.4242 15.9787 42.1895 16.0427 41.9335 16.096C41.6882 16.16 41.4428 16.192 41.1975 16.192Z" fill="white"/>
</g>
</svg>
