<svg width="170" height="23" viewBox="0 0 170 23" fill="none" xmlns="http://www.w3.org/2000/svg">
<mask id="mask0_34_399" style="mask-type:luminance" maskUnits="userSpaceOnUse" x="0" y="0" width="170" height="23">
<path d="M169.5 0.5H0.5V22.5H169.5V0.5Z" fill="white"/>
</mask>
<g mask="url(#mask0_34_399)">
<path d="M16.908 17.692C16.0333 17.692 15.2493 17.4787 14.556 17.052C13.8733 16.6147 13.3293 15.9907 12.924 15.18C12.5293 14.3693 12.332 13.3933 12.332 12.252C12.332 11.1213 12.5347 10.1507 12.94 9.34C13.3453 8.52933 13.9 7.90533 14.604 7.468C15.308 7.03067 16.1027 6.812 16.988 6.812C17.628 6.812 18.1933 6.94533 18.684 7.212C19.1747 7.468 19.5693 7.76667 19.868 8.108L19.148 8.972C18.8707 8.67333 18.556 8.43333 18.204 8.252C17.852 8.07067 17.452 7.98 17.004 7.98C16.3427 7.98 15.7613 8.156 15.26 8.508C14.7693 8.84933 14.3853 9.33467 14.108 9.964C13.8413 10.5933 13.708 11.3453 13.708 12.22C13.708 13.0947 13.8413 13.8573 14.108 14.508C14.3747 15.148 14.748 15.644 15.228 15.996C15.7187 16.348 16.2947 16.524 16.956 16.524C17.4573 16.524 17.9053 16.4173 18.3 16.204C18.6947 15.9907 19.0573 15.7027 19.388 15.34L20.124 16.172C19.708 16.652 19.2387 17.0253 18.716 17.292C18.1933 17.5587 17.5907 17.692 16.908 17.692ZM24.9766 17.692C24.3473 17.692 23.7553 17.532 23.2006 17.212C22.6566 16.892 22.214 16.428 21.8726 15.82C21.542 15.212 21.3766 14.4813 21.3766 13.628C21.3766 12.7533 21.542 12.012 21.8726 11.404C22.214 10.796 22.6566 10.332 23.2006 10.012C23.7553 9.692 24.3473 9.532 24.9766 9.532C25.6166 9.532 26.2086 9.692 26.7526 10.012C27.2966 10.332 27.734 10.796 28.0646 11.404C28.406 12.012 28.5766 12.7533 28.5766 13.628C28.5766 14.4813 28.406 15.212 28.0646 15.82C27.734 16.428 27.2966 16.892 26.7526 17.212C26.2086 17.532 25.6166 17.692 24.9766 17.692ZM24.9766 16.604C25.6486 16.604 26.1873 16.332 26.5926 15.788C27.0086 15.2333 27.2166 14.5133 27.2166 13.628C27.2166 12.732 27.0086 12.0067 26.5926 11.452C26.1873 10.8973 25.6486 10.62 24.9766 10.62C24.3153 10.62 23.7766 10.8973 23.3606 11.452C22.9446 12.0067 22.7366 12.732 22.7366 13.628C22.7366 14.5133 22.9446 15.2333 23.3606 15.788C23.7766 16.332 24.3153 16.604 24.9766 16.604ZM32.8965 17.692C32.0752 17.692 31.4725 17.436 31.0885 16.924C30.7045 16.4013 30.5125 15.644 30.5125 14.652V9.724H31.8405V14.476C31.8405 15.2013 31.9525 15.7293 32.1765 16.06C32.4112 16.3907 32.7845 16.556 33.2965 16.556C33.7018 16.556 34.0592 16.4547 34.3685 16.252C34.6885 16.0387 35.0298 15.7027 35.3925 15.244V9.724H36.7045V17.5H35.6165L35.5045 16.284H35.4565C35.0938 16.7107 34.7098 17.052 34.3045 17.308C33.8992 17.564 33.4298 17.692 32.8965 17.692ZM39.3276 17.5V9.724H40.4156L40.5276 10.844H40.5756C40.949 10.4707 41.3436 10.1613 41.7596 9.916C42.1756 9.66 42.6503 9.532 43.1836 9.532C44.005 9.532 44.6023 9.79333 44.9756 10.316C45.3596 10.828 45.5516 11.58 45.5516 12.572V17.5H44.2396V12.748C44.2396 12.0227 44.1223 11.4947 43.8876 11.164C43.653 10.8333 43.2796 10.668 42.7676 10.668C42.373 10.668 42.0156 10.7693 41.6956 10.972C41.3863 11.1747 41.0343 11.4733 40.6396 11.868V17.5H39.3276ZM50.5256 17.692C49.6936 17.692 49.1123 17.452 48.7816 16.972C48.4616 16.492 48.3016 15.868 48.3016 15.1V10.796H47.1496V9.804L48.3656 9.724L48.5256 7.548H49.6296V9.724H51.7256V10.796H49.6296V15.116C49.6296 15.596 49.715 15.9693 49.8856 16.236C50.067 16.492 50.3816 16.62 50.8296 16.62C50.9683 16.62 51.1176 16.5987 51.2776 16.556C51.4376 16.5027 51.5816 16.4547 51.7096 16.412L51.9656 17.404C51.7523 17.4787 51.5176 17.5427 51.2616 17.596C51.0163 17.66 50.771 17.692 50.5256 17.692ZM56.4171 17.692C55.7238 17.692 55.0945 17.532 54.5291 17.212C53.9638 16.8813 53.5158 16.412 53.1851 15.804C52.8545 15.196 52.6891 14.4707 52.6891 13.628C52.6891 12.7747 52.8545 12.044 53.1851 11.436C53.5265 10.828 53.9638 10.3587 54.4971 10.028C55.0305 9.69733 55.5905 9.532 56.1771 9.532C57.1691 9.532 57.9318 9.86267 58.4651 10.524C59.0091 11.1853 59.2811 12.0707 59.2811 13.18C59.2811 13.3187 59.2758 13.4573 59.2651 13.596C59.2651 13.724 59.2545 13.836 59.2331 13.932H53.9851C54.0385 14.7533 54.2945 15.4093 54.7531 15.9C55.2225 16.3907 55.8305 16.636 56.5771 16.636C56.9505 16.636 57.2918 16.5827 57.6011 16.476C57.9211 16.3587 58.2251 16.2093 58.5131 16.028L58.9771 16.892C58.6465 17.1053 58.2678 17.292 57.8411 17.452C57.4251 17.612 56.9505 17.692 56.4171 17.692ZM53.9691 12.988H58.1291C58.1291 12.1987 57.9585 11.6013 57.6171 11.196C57.2865 10.78 56.8171 10.572 56.2091 10.572C55.6651 10.572 55.1745 10.7853 54.7371 11.212C54.3105 11.628 54.0545 12.22 53.9691 12.988ZM61.2026 17.5V9.724H62.2906L62.4026 11.132H62.4506C62.7173 10.6413 63.0426 10.252 63.4266 9.964C63.8106 9.676 64.2213 9.532 64.6586 9.532C64.968 9.532 65.2453 9.58533 65.4906 9.692L65.2346 10.844C65.1066 10.8013 64.9893 10.7693 64.8826 10.748C64.776 10.7267 64.6426 10.716 64.4826 10.716C64.152 10.716 63.8053 10.8493 63.4426 11.116C63.0906 11.3827 62.7813 11.8467 62.5146 12.508V17.5H61.2026ZM65.7029 13.996V12.988H69.3829V13.996H65.7029ZM74.102 17.692C73.366 17.692 72.6833 17.5533 72.054 17.276C71.4247 16.988 70.8807 16.6093 70.422 16.14L71.222 15.212C71.5953 15.6067 72.0327 15.9267 72.534 16.172C73.046 16.4067 73.574 16.524 74.118 16.524C74.8113 16.524 75.35 16.3693 75.734 16.06C76.118 15.74 76.31 15.324 76.31 14.812C76.31 14.4493 76.23 14.1613 76.07 13.948C75.9207 13.7347 75.7127 13.5533 75.446 13.404C75.19 13.2547 74.8967 13.1053 74.566 12.956L73.062 12.3C72.7313 12.1613 72.4007 11.98 72.07 11.756C71.75 11.532 71.478 11.244 71.254 10.892C71.0407 10.54 70.934 10.108 70.934 9.596C70.934 9.06267 71.0727 8.588 71.35 8.172C71.638 7.74533 72.0327 7.41467 72.534 7.18C73.0353 6.93467 73.6007 6.812 74.23 6.812C74.8593 6.812 75.4407 6.93467 75.974 7.18C76.5073 7.41467 76.9607 7.724 77.334 8.108L76.614 8.972C76.294 8.66267 75.9367 8.42267 75.542 8.252C75.158 8.07067 74.7207 7.98 74.23 7.98C73.6433 7.98 73.1687 8.11867 72.806 8.396C72.454 8.67333 72.278 9.04667 72.278 9.516C72.278 9.84667 72.3633 10.124 72.534 10.348C72.7153 10.5613 72.9393 10.7373 73.206 10.876C73.4727 11.0147 73.7447 11.1427 74.022 11.26L75.51 11.9C75.9153 12.0707 76.278 12.2787 76.598 12.524C76.9287 12.7587 77.19 13.052 77.382 13.404C77.574 13.7453 77.67 14.1773 77.67 14.7C77.67 15.2547 77.526 15.7613 77.238 16.22C76.95 16.668 76.5393 17.0253 76.006 17.292C75.4727 17.5587 74.838 17.692 74.102 17.692ZM81.6663 17.692C80.8343 17.692 80.2529 17.452 79.9223 16.972C79.6023 16.492 79.4423 15.868 79.4423 15.1V10.796H78.2903V9.804L79.5063 9.724L79.6663 7.548H80.7703V9.724H82.8663V10.796H80.7703V15.116C80.7703 15.596 80.8556 15.9693 81.0263 16.236C81.2076 16.492 81.5223 16.62 81.9703 16.62C82.1089 16.62 82.2583 16.5987 82.4183 16.556C82.5783 16.5027 82.7223 16.4547 82.8503 16.412L83.1063 17.404C82.8929 17.4787 82.6583 17.5427 82.4023 17.596C82.1569 17.66 81.9116 17.692 81.6663 17.692ZM84.6245 17.5V9.724H85.7125L85.8245 11.132H85.8725C86.1392 10.6413 86.4645 10.252 86.8485 9.964C87.2325 9.676 87.6432 9.532 88.0805 9.532C88.3898 9.532 88.6672 9.58533 88.9125 9.692L88.6565 10.844C88.5285 10.8013 88.4112 10.7693 88.3045 10.748C88.1978 10.7267 88.0645 10.716 87.9045 10.716C87.5738 10.716 87.2272 10.8493 86.8645 11.116C86.5125 11.3827 86.2032 11.8467 85.9365 12.508V17.5H84.6245ZM90.1714 17.5V9.724H91.4834V17.5H90.1714ZM90.8434 8.124C90.5874 8.124 90.374 8.04933 90.2034 7.9C90.0434 7.74 89.9634 7.52667 89.9634 7.26C89.9634 7.004 90.0434 6.796 90.2034 6.636C90.374 6.476 90.5874 6.396 90.8434 6.396C91.0994 6.396 91.3074 6.476 91.4674 6.636C91.638 6.796 91.7234 7.004 91.7234 7.26C91.7234 7.52667 91.638 7.74 91.4674 7.9C91.3074 8.04933 91.0994 8.124 90.8434 8.124ZM94.1089 17.5V6.108H95.4049V13.82H95.4529L98.7649 9.724H100.221L97.6129 12.844L100.573 17.5H99.1329L96.8609 13.756L95.4049 15.452V17.5H94.1089ZM104.902 17.692C104.208 17.692 103.579 17.532 103.014 17.212C102.448 16.8813 102 16.412 101.67 15.804C101.339 15.196 101.174 14.4707 101.174 13.628C101.174 12.7747 101.339 12.044 101.67 11.436C102.011 10.828 102.448 10.3587 102.982 10.028C103.515 9.69733 104.075 9.532 104.661 9.532C105.654 9.532 106.416 9.86267 106.95 10.524C107.494 11.1853 107.766 12.0707 107.766 13.18C107.766 13.3187 107.76 13.4573 107.75 13.596C107.75 13.724 107.739 13.836 107.718 13.932H102.47C102.523 14.7533 102.779 15.4093 103.238 15.9C103.707 16.3907 104.315 16.636 105.062 16.636C105.435 16.636 105.776 16.5827 106.086 16.476C106.406 16.3587 106.71 16.2093 106.998 16.028L107.462 16.892C107.131 17.1053 106.752 17.292 106.326 17.452C105.91 17.612 105.435 17.692 104.902 17.692ZM102.454 12.988H106.614C106.614 12.1987 106.443 11.6013 106.102 11.196C105.771 10.78 105.302 10.572 104.694 10.572C104.15 10.572 103.659 10.7853 103.222 11.212C102.795 11.628 102.539 12.22 102.454 12.988ZM110.375 11.916C110.108 11.916 109.879 11.8253 109.687 11.644C109.506 11.452 109.415 11.212 109.415 10.924C109.415 10.6147 109.506 10.3693 109.687 10.188C109.879 9.996 110.108 9.9 110.375 9.9C110.631 9.9 110.85 9.996 111.031 10.188C111.223 10.3693 111.319 10.6147 111.319 10.924C111.319 11.212 111.223 11.452 111.031 11.644C110.85 11.8253 110.631 11.916 110.375 11.916ZM110.375 17.692C110.108 17.692 109.879 17.6013 109.687 17.42C109.506 17.228 109.415 16.988 109.415 16.7C109.415 16.3907 109.506 16.1453 109.687 15.964C109.879 15.772 110.108 15.676 110.375 15.676C110.631 15.676 110.85 15.772 111.031 15.964C111.223 16.1453 111.319 16.3907 111.319 16.7C111.319 16.988 111.223 17.228 111.031 17.42C110.85 17.6013 110.631 17.692 110.375 17.692ZM121.131 17.692C120.213 17.692 119.397 17.4787 118.683 17.052C117.968 16.6147 117.408 15.9907 117.003 15.18C116.597 14.3693 116.395 13.3933 116.395 12.252C116.395 11.1213 116.603 10.1507 117.019 9.34C117.435 8.52933 118.005 7.90533 118.731 7.468C119.456 7.03067 120.283 6.812 121.211 6.812C121.936 6.812 122.544 6.95067 123.035 7.228C123.536 7.49467 123.936 7.788 124.235 8.108L123.499 8.972C123.232 8.69467 122.923 8.46 122.571 8.268C122.219 8.076 121.776 7.98 121.243 7.98C120.539 7.98 119.925 8.156 119.403 8.508C118.88 8.84933 118.475 9.33467 118.187 9.964C117.909 10.5933 117.771 11.3453 117.771 12.22C117.771 13.5427 118.069 14.5933 118.667 15.372C119.275 16.14 120.139 16.524 121.259 16.524C121.632 16.524 121.989 16.4707 122.331 16.364C122.672 16.2467 122.944 16.092 123.147 15.9V13.164H120.923V12.06H124.363V16.476C124.032 16.828 123.584 17.1213 123.019 17.356C122.464 17.58 121.835 17.692 121.131 17.692ZM128.142 17.692C127.651 17.692 127.294 17.5427 127.07 17.244C126.856 16.9347 126.75 16.4973 126.75 15.932V6.108H128.062V16.028C128.062 16.2307 128.099 16.38 128.174 16.476C128.248 16.5613 128.334 16.604 128.43 16.604C128.472 16.604 128.51 16.604 128.542 16.604C128.584 16.5933 128.643 16.5827 128.718 16.572L128.894 17.564C128.808 17.6067 128.707 17.6387 128.59 17.66C128.472 17.6813 128.323 17.692 128.142 17.692ZM133.852 17.692C133.222 17.692 132.63 17.532 132.076 17.212C131.532 16.892 131.089 16.428 130.748 15.82C130.417 15.212 130.252 14.4813 130.252 13.628C130.252 12.7533 130.417 12.012 130.748 11.404C131.089 10.796 131.532 10.332 132.076 10.012C132.63 9.692 133.222 9.532 133.852 9.532C134.492 9.532 135.084 9.692 135.628 10.012C136.172 10.332 136.609 10.796 136.94 11.404C137.281 12.012 137.452 12.7533 137.452 13.628C137.452 14.4813 137.281 15.212 136.94 15.82C136.609 16.428 136.172 16.892 135.628 17.212C135.084 17.532 134.492 17.692 133.852 17.692ZM133.852 16.604C134.524 16.604 135.062 16.332 135.468 15.788C135.884 15.2333 136.092 14.5133 136.092 13.628C136.092 12.732 135.884 12.0067 135.468 11.452C135.062 10.8973 134.524 10.62 133.852 10.62C133.19 10.62 132.652 10.8973 132.236 11.452C131.82 12.0067 131.612 12.732 131.612 13.628C131.612 14.5133 131.82 15.2333 132.236 15.788C132.652 16.332 133.19 16.604 133.852 16.604ZM142.94 17.692C142.577 17.692 142.198 17.6067 141.804 17.436C141.42 17.2547 141.057 17.0093 140.716 16.7H140.668L140.556 17.5H139.5V6.108H140.812V9.212L140.78 10.62C141.132 10.3107 141.516 10.0547 141.932 9.852C142.358 9.63867 142.785 9.532 143.212 9.532C144.225 9.532 144.993 9.88933 145.516 10.604C146.038 11.3187 146.3 12.2787 146.3 13.484C146.3 14.3693 146.14 15.1267 145.82 15.756C145.51 16.3853 145.1 16.8653 144.588 17.196C144.086 17.5267 143.537 17.692 142.94 17.692ZM142.716 16.588C143.356 16.588 143.884 16.316 144.3 15.772C144.726 15.2173 144.94 14.46 144.94 13.5C144.94 12.6467 144.78 11.9587 144.46 11.436C144.15 10.9027 143.628 10.636 142.891 10.636C142.561 10.636 142.225 10.7267 141.884 10.908C141.542 11.0893 141.185 11.3507 140.812 11.692V15.772C141.153 16.0707 141.489 16.284 141.82 16.412C142.161 16.5293 142.46 16.588 142.716 16.588ZM149.917 17.692C149.266 17.692 148.722 17.5 148.285 17.116C147.858 16.7213 147.645 16.1773 147.645 15.484C147.645 14.6307 148.023 13.98 148.781 13.532C149.549 13.0733 150.759 12.7533 152.413 12.572C152.413 12.2413 152.365 11.9267 152.269 11.628C152.183 11.3293 152.023 11.0893 151.789 10.908C151.565 10.716 151.239 10.62 150.812 10.62C150.365 10.62 149.943 10.7053 149.549 10.876C149.154 11.0467 148.802 11.2387 148.493 11.452L147.981 10.54C148.343 10.3053 148.786 10.0813 149.309 9.868C149.842 9.644 150.418 9.532 151.036 9.532C151.986 9.532 152.674 9.82533 153.101 10.412C153.527 10.988 153.741 11.7613 153.741 12.732V17.5H152.653L152.541 16.572H152.493C152.13 16.8707 151.73 17.132 151.293 17.356C150.866 17.58 150.407 17.692 149.917 17.692ZM150.301 16.636C150.674 16.636 151.026 16.5453 151.357 16.364C151.687 16.1827 152.039 15.9267 152.413 15.596V13.436C151.122 13.596 150.215 13.836 149.693 14.156C149.181 14.476 148.924 14.8867 148.924 15.388C148.924 15.8253 149.058 16.1453 149.325 16.348C149.591 16.54 149.917 16.636 150.301 16.636ZM157.579 17.692C157.088 17.692 156.731 17.5427 156.507 17.244C156.294 16.9347 156.187 16.4973 156.187 15.932V6.108H157.499V16.028C157.499 16.2307 157.536 16.38 157.611 16.476C157.686 16.5613 157.771 16.604 157.867 16.604C157.91 16.604 157.947 16.604 157.979 16.604C158.022 16.5933 158.08 16.5827 158.155 16.572L158.331 17.564C158.246 17.6067 158.144 17.6387 158.027 17.66C157.91 17.6813 157.76 17.692 157.579 17.692Z" fill="white"/>
</g>
</svg>
