<svg width="133" height="24" viewBox="0 0 133 24" fill="none" xmlns="http://www.w3.org/2000/svg">
<mask id="mask0_3_3302" style="mask-type:luminance" maskUnits="userSpaceOnUse" x="0" y="0" width="133" height="24">
<path d="M133 0H0V24H133V0Z" fill="white"/>
</mask>
<g mask="url(#mask0_3_3302)">
<path d="M3.42 18.5L-0.126 6.764H2.682L4.086 12.236C4.266 12.872 4.422 13.496 4.554 14.108C4.698 14.72 4.86 15.35 5.04 15.998H5.112C5.28 15.35 5.436 14.72 5.58 14.108C5.724 13.496 5.88 12.872 6.048 12.236L7.434 6.764H10.134L6.606 18.5H3.42ZM12.7891 18.716C11.9731 18.716 11.3251 18.458 10.8451 17.942C10.3651 17.414 10.1251 16.772 10.1251 16.016C10.1251 15.08 10.5211 14.348 11.3131 13.82C12.1051 13.292 13.3831 12.938 15.1471 12.758C15.1231 12.362 15.0031 12.05 14.7871 11.822C14.5831 11.582 14.2351 11.462 13.7431 11.462C13.3711 11.462 12.9931 11.534 12.6091 11.678C12.2251 11.822 11.8171 12.02 11.3851 12.272L10.4311 10.526C10.9951 10.178 11.5951 9.896 12.2311 9.68C12.8791 9.464 13.5511 9.356 14.2471 9.356C15.3871 9.356 16.2631 9.686 16.8751 10.346C17.4871 11.006 17.7931 12.02 17.7931 13.388V18.5H15.6331L15.4531 17.582H15.3811C15.0091 17.918 14.6071 18.194 14.1751 18.41C13.7551 18.614 13.2931 18.716 12.7891 18.716ZM13.6891 16.664C13.9891 16.664 14.2471 16.598 14.4631 16.466C14.6911 16.322 14.9191 16.136 15.1471 15.908V14.342C14.2111 14.462 13.5631 14.654 13.2031 14.918C12.8431 15.17 12.6631 15.47 12.6631 15.818C12.6631 16.106 12.7531 16.322 12.9331 16.466C13.1251 16.598 13.3771 16.664 13.6891 16.664ZM22.4613 18.716C21.5493 18.716 20.9133 18.446 20.5533 17.906C20.2053 17.354 20.0313 16.628 20.0313 15.728V5.882H22.6773V15.836C22.6773 16.112 22.7253 16.304 22.8213 16.412C22.9293 16.52 23.0373 16.574 23.1453 16.574C23.2053 16.574 23.2533 16.574 23.2893 16.574C23.3373 16.562 23.3973 16.55 23.4693 16.538L23.7933 18.5C23.6493 18.56 23.4633 18.608 23.2353 18.644C23.0193 18.692 22.7613 18.716 22.4613 18.716ZM29.0157 18.716C28.2597 18.716 27.5457 18.536 26.8737 18.176C26.2137 17.804 25.6797 17.27 25.2717 16.574C24.8637 15.866 24.6597 15.02 24.6597 14.036C24.6597 13.04 24.8637 12.194 25.2717 11.498C25.6797 10.802 26.2137 10.274 26.8737 9.914C27.5457 9.542 28.2597 9.356 29.0157 9.356C29.7717 9.356 30.4797 9.542 31.1397 9.914C31.7997 10.274 32.3337 10.802 32.7417 11.498C33.1497 12.194 33.3537 13.04 33.3537 14.036C33.3537 15.02 33.1497 15.866 32.7417 16.574C32.3337 17.27 31.7997 17.804 31.1397 18.176C30.4797 18.536 29.7717 18.716 29.0157 18.716ZM29.0157 16.574C29.5557 16.574 29.9637 16.346 30.2397 15.89C30.5157 15.422 30.6537 14.804 30.6537 14.036C30.6537 13.256 30.5157 12.638 30.2397 12.182C29.9637 11.726 29.5557 11.498 29.0157 11.498C28.4637 11.498 28.0497 11.726 27.7737 12.182C27.5097 12.638 27.3777 13.256 27.3777 14.036C27.3777 14.804 27.5097 15.422 27.7737 15.89C28.0497 16.346 28.4637 16.574 29.0157 16.574ZM35.1661 18.5V9.572H37.3261L37.5061 11.138H37.5781C37.9021 10.538 38.2921 10.094 38.7481 9.806C39.2041 9.506 39.6601 9.356 40.1161 9.356C40.3681 9.356 40.5781 9.374 40.7461 9.41C40.9141 9.434 41.0581 9.476 41.1781 9.536L40.7461 11.822C40.5901 11.774 40.4341 11.738 40.2781 11.714C40.1341 11.69 39.9661 11.678 39.7741 11.678C39.4381 11.678 39.0841 11.804 38.7121 12.056C38.3521 12.296 38.0521 12.716 37.8121 13.316V18.5H35.1661ZM44.0782 18.716C43.2622 18.716 42.6142 18.458 42.1342 17.942C41.6542 17.414 41.4142 16.772 41.4142 16.016C41.4142 15.08 41.8102 14.348 42.6022 13.82C43.3942 13.292 44.6722 12.938 46.4362 12.758C46.4122 12.362 46.2922 12.05 46.0762 11.822C45.8722 11.582 45.5242 11.462 45.0322 11.462C44.6602 11.462 44.2822 11.534 43.8982 11.678C43.5142 11.822 43.1062 12.02 42.6742 12.272L41.7202 10.526C42.2842 10.178 42.8842 9.896 43.5202 9.68C44.1682 9.464 44.8402 9.356 45.5362 9.356C46.6762 9.356 47.5522 9.686 48.1642 10.346C48.7762 11.006 49.0822 12.02 49.0822 13.388V18.5H46.9222L46.7422 17.582H46.6702C46.2982 17.918 45.8962 18.194 45.4642 18.41C45.0442 18.614 44.5822 18.716 44.0782 18.716ZM44.9782 16.664C45.2782 16.664 45.5362 16.598 45.7522 16.466C45.9802 16.322 46.2082 16.136 46.4362 15.908V14.342C45.5002 14.462 44.8522 14.654 44.4922 14.918C44.1322 15.17 43.9522 15.47 43.9522 15.818C43.9522 16.106 44.0422 16.322 44.2222 16.466C44.4142 16.598 44.6662 16.664 44.9782 16.664ZM51.3204 18.5V9.572H53.4804L53.6604 10.706H53.7324C54.1164 10.346 54.5364 10.034 54.9924 9.77C55.4604 9.494 55.9944 9.356 56.5944 9.356C57.5664 9.356 58.2684 9.68 58.7004 10.328C59.1444 10.964 59.3664 11.84 59.3664 12.956V18.5H56.7204V13.298C56.7204 12.65 56.6304 12.206 56.4504 11.966C56.2824 11.726 56.0064 11.606 55.6224 11.606C55.2864 11.606 54.9984 11.684 54.7584 11.84C54.5184 11.984 54.2544 12.194 53.9664 12.47V18.5H51.3204ZM65.0592 18.716C63.9552 18.716 63.1632 18.398 62.6832 17.762C62.2152 17.126 61.9812 16.292 61.9812 15.26V11.642H60.7572V9.68L62.1252 9.572L62.4312 7.196H64.6272V9.572H66.7692V11.642H64.6272V15.224C64.6272 15.728 64.7292 16.094 64.9332 16.322C65.1492 16.538 65.4312 16.646 65.7792 16.646C65.9232 16.646 66.0672 16.628 66.2112 16.592C66.3672 16.556 66.5052 16.514 66.6252 16.466L67.0392 18.392C66.8112 18.464 66.5292 18.536 66.1932 18.608C65.8692 18.68 65.4912 18.716 65.0592 18.716Z" fill="white"/>
</g>
</svg>
