<svg width="235" height="22" viewBox="0 0 235 22" fill="none" xmlns="http://www.w3.org/2000/svg">
<mask id="mask0_3_2543" style="mask-type:luminance" maskUnits="userSpaceOnUse" x="0" y="0" width="235" height="22">
<path d="M235 0H0V22H235V0Z" fill="white"/>
</mask>
<g mask="url(#mask0_3_2543)">
<path d="M1.386 17.5V5.764H5.616C6.444 5.764 7.2 5.878 7.884 6.106C8.568 6.322 9.114 6.694 9.522 7.222C9.93 7.75 10.134 8.482 10.134 9.418C10.134 10.282 9.942 10.996 9.558 11.56C9.186 12.112 8.682 12.526 8.046 12.802L10.71 17.5H7.74L5.49 13.27H4.032V17.5H1.386ZM4.032 11.164H5.4C6.096 11.164 6.624 11.02 6.984 10.732C7.356 10.432 7.542 9.994 7.542 9.418C7.542 8.842 7.356 8.44 6.984 8.212C6.624 7.984 6.096 7.87 5.4 7.87H4.032V11.164ZM15.8673 17.716C15.1113 17.716 14.3973 17.536 13.7253 17.176C13.0653 16.804 12.5313 16.27 12.1233 15.574C11.7153 14.866 11.5113 14.02 11.5113 13.036C11.5113 12.04 11.7153 11.194 12.1233 10.498C12.5313 9.802 13.0653 9.274 13.7253 8.914C14.3973 8.542 15.1113 8.356 15.8673 8.356C16.6233 8.356 17.3313 8.542 17.9913 8.914C18.6513 9.274 19.1853 9.802 19.5933 10.498C20.0013 11.194 20.2053 12.04 20.2053 13.036C20.2053 14.02 20.0013 14.866 19.5933 15.574C19.1853 16.27 18.6513 16.804 17.9913 17.176C17.3313 17.536 16.6233 17.716 15.8673 17.716ZM15.8673 15.574C16.4073 15.574 16.8153 15.346 17.0913 14.89C17.3673 14.422 17.5053 13.804 17.5053 13.036C17.5053 12.256 17.3673 11.638 17.0913 11.182C16.8153 10.726 16.4073 10.498 15.8673 10.498C15.3153 10.498 14.9013 10.726 14.6253 11.182C14.3613 11.638 14.2293 12.256 14.2293 13.036C14.2293 13.804 14.3613 14.422 14.6253 14.89C14.9013 15.346 15.3153 15.574 15.8673 15.574ZM25.9057 17.716C25.0777 17.716 24.3277 17.536 23.6557 17.176C22.9957 16.804 22.4677 16.27 22.0717 15.574C21.6877 14.866 21.4957 14.02 21.4957 13.036C21.4957 12.04 21.7117 11.194 22.1437 10.498C22.5757 9.802 23.1457 9.274 23.8537 8.914C24.5617 8.542 25.3237 8.356 26.1397 8.356C26.6917 8.356 27.1777 8.446 27.5977 8.626C28.0297 8.806 28.4137 9.034 28.7497 9.31L27.5077 11.02C27.0877 10.672 26.6857 10.498 26.3017 10.498C25.6657 10.498 25.1557 10.726 24.7717 11.182C24.3997 11.638 24.2137 12.256 24.2137 13.036C24.2137 13.804 24.3997 14.422 24.7717 14.89C25.1557 15.346 25.6357 15.574 26.2117 15.574C26.4997 15.574 26.7817 15.514 27.0577 15.394C27.3337 15.262 27.5857 15.106 27.8137 14.926L28.8577 16.654C28.4137 17.038 27.9337 17.314 27.4177 17.482C26.9017 17.638 26.3977 17.716 25.9057 17.716ZM30.42 17.5V4.882H32.994V12.118H33.066L35.892 8.572H38.772L35.64 12.244L39.006 17.5H36.144L34.128 14.026L32.994 15.304V17.5H30.42ZM43.7676 17.716C42.9156 17.716 42.1476 17.53 41.4636 17.158C40.7796 16.786 40.2396 16.252 39.8436 15.556C39.4476 14.86 39.2496 14.02 39.2496 13.036C39.2496 12.064 39.4476 11.23 39.8436 10.534C40.2516 9.838 40.7796 9.304 41.4276 8.932C42.0756 8.548 42.7536 8.356 43.4616 8.356C44.3136 8.356 45.0156 8.548 45.5676 8.932C46.1316 9.304 46.5516 9.814 46.8276 10.462C47.1156 11.098 47.2596 11.824 47.2596 12.64C47.2596 12.868 47.2476 13.096 47.2236 13.324C47.1996 13.54 47.1756 13.702 47.1516 13.81H41.8056C41.9256 14.458 42.1956 14.938 42.6156 15.25C43.0356 15.55 43.5396 15.7 44.1276 15.7C44.7636 15.7 45.4056 15.502 46.0536 15.106L46.9356 16.708C46.4796 17.02 45.9696 17.266 45.4056 17.446C44.8416 17.626 44.2956 17.716 43.7676 17.716ZM41.7876 12.064H45.0096C45.0096 11.572 44.8896 11.17 44.6496 10.858C44.4216 10.534 44.0436 10.372 43.5156 10.372C43.1076 10.372 42.7416 10.516 42.4176 10.804C42.0936 11.08 41.8836 11.5 41.7876 12.064ZM52.3502 17.716C51.2462 17.716 50.4542 17.398 49.9742 16.762C49.5062 16.126 49.2722 15.292 49.2722 14.26V10.642H48.0482V8.68L49.4162 8.572L49.7222 6.196H51.9182V8.572H54.0602V10.642H51.9182V14.224C51.9182 14.728 52.0202 15.094 52.2242 15.322C52.4402 15.538 52.7222 15.646 53.0702 15.646C53.2142 15.646 53.3582 15.628 53.5022 15.592C53.6582 15.556 53.7962 15.514 53.9162 15.466L54.3302 17.392C54.1022 17.464 53.8202 17.536 53.4842 17.608C53.1602 17.68 52.7822 17.716 52.3502 17.716ZM59.6223 17.5V5.764H62.2683V15.268H66.9123V17.5H59.6223ZM72.4726 17.716C71.6206 17.716 70.8526 17.53 70.1686 17.158C69.4846 16.786 68.9446 16.252 68.5486 15.556C68.1526 14.86 67.9546 14.02 67.9546 13.036C67.9546 12.064 68.1526 11.23 68.5486 10.534C68.9566 9.838 69.4846 9.304 70.1326 8.932C70.7806 8.548 71.4586 8.356 72.1666 8.356C73.0186 8.356 73.7206 8.548 74.2726 8.932C74.8366 9.304 75.2566 9.814 75.5326 10.462C75.8206 11.098 75.9646 11.824 75.9646 12.64C75.9646 12.868 75.9526 13.096 75.9286 13.324C75.9046 13.54 75.8806 13.702 75.8566 13.81H70.5106C70.6306 14.458 70.9006 14.938 71.3206 15.25C71.7406 15.55 72.2446 15.7 72.8326 15.7C73.4686 15.7 74.1106 15.502 74.7586 15.106L75.6406 16.708C75.1846 17.02 74.6746 17.266 74.1106 17.446C73.5466 17.626 73.0006 17.716 72.4726 17.716ZM70.4926 12.064H73.7146C73.7146 11.572 73.5946 11.17 73.3546 10.858C73.1266 10.534 72.7486 10.372 72.2206 10.372C71.8126 10.372 71.4466 10.516 71.1226 10.804C70.7986 11.08 70.5886 11.5 70.4926 12.064ZM79.8497 17.716C79.0337 17.716 78.3857 17.458 77.9057 16.942C77.4257 16.414 77.1857 15.772 77.1857 15.016C77.1857 14.08 77.5817 13.348 78.3737 12.82C79.1657 12.292 80.4437 11.938 82.2077 11.758C82.1837 11.362 82.0637 11.05 81.8477 10.822C81.6437 10.582 81.2957 10.462 80.8037 10.462C80.4317 10.462 80.0537 10.534 79.6697 10.678C79.2857 10.822 78.8777 11.02 78.4457 11.272L77.4917 9.526C78.0557 9.178 78.6557 8.896 79.2917 8.68C79.9397 8.464 80.6117 8.356 81.3077 8.356C82.4477 8.356 83.3237 8.686 83.9357 9.346C84.5477 10.006 84.8537 11.02 84.8537 12.388V17.5H82.6937L82.5137 16.582H82.4417C82.0697 16.918 81.6677 17.194 81.2357 17.41C80.8157 17.614 80.3537 17.716 79.8497 17.716ZM80.7497 15.664C81.0497 15.664 81.3077 15.598 81.5237 15.466C81.7517 15.322 81.9797 15.136 82.2077 14.908V13.342C81.2717 13.462 80.6237 13.654 80.2637 13.918C79.9037 14.17 79.7237 14.47 79.7237 14.818C79.7237 15.106 79.8137 15.322 79.9937 15.466C80.1857 15.598 80.4377 15.664 80.7497 15.664ZM90.2779 21.298C89.5819 21.298 88.9519 21.22 88.3879 21.064C87.8239 20.908 87.3739 20.662 87.0379 20.326C86.7019 19.99 86.5339 19.558 86.5339 19.03C86.5339 18.31 86.9599 17.71 87.8119 17.23V17.158C87.5839 17.002 87.3859 16.804 87.2179 16.564C87.0619 16.324 86.9839 16.018 86.9839 15.646C86.9839 15.322 87.0799 15.01 87.2719 14.71C87.4639 14.41 87.7039 14.164 87.9919 13.972V13.9C87.6799 13.684 87.3979 13.372 87.1459 12.964C86.9059 12.556 86.7859 12.094 86.7859 11.578C86.7859 10.858 86.9599 10.264 87.3079 9.796C87.6559 9.316 88.1119 8.956 88.6759 8.716C89.2399 8.476 89.8399 8.356 90.4759 8.356C91.0039 8.356 91.4659 8.428 91.8619 8.572H95.1199V10.498H93.6979C93.7819 10.63 93.8479 10.798 93.8959 11.002C93.9559 11.206 93.9859 11.428 93.9859 11.668C93.9859 12.352 93.8299 12.916 93.5179 13.36C93.2059 13.804 92.7859 14.134 92.2579 14.35C91.7299 14.566 91.1359 14.674 90.4759 14.674C90.1279 14.674 89.7679 14.614 89.3959 14.494C89.1799 14.674 89.0719 14.896 89.0719 15.16C89.0719 15.388 89.1739 15.556 89.3779 15.664C89.5819 15.772 89.9299 15.826 90.4219 15.826H91.8619C92.9659 15.826 93.8059 16.006 94.3819 16.366C94.9699 16.714 95.2639 17.29 95.2639 18.094C95.2639 18.706 95.0599 19.252 94.6519 19.732C94.2439 20.224 93.6679 20.608 92.9239 20.884C92.1799 21.16 91.2979 21.298 90.2779 21.298ZM90.4759 13.072C90.8239 13.072 91.1119 12.946 91.3399 12.694C91.5799 12.442 91.6999 12.07 91.6999 11.578C91.6999 11.11 91.5799 10.756 91.3399 10.516C91.1119 10.264 90.8239 10.138 90.4759 10.138C90.1279 10.138 89.8339 10.258 89.5939 10.498C89.3659 10.738 89.2519 11.098 89.2519 11.578C89.2519 12.07 89.3659 12.442 89.5939 12.694C89.8339 12.946 90.1279 13.072 90.4759 13.072ZM90.6919 19.642C91.2919 19.642 91.7839 19.534 92.1679 19.318C92.5519 19.102 92.7439 18.844 92.7439 18.544C92.7439 18.268 92.6239 18.082 92.3839 17.986C92.1559 17.89 91.8199 17.842 91.3759 17.842H90.4579C90.1579 17.842 89.9059 17.83 89.7019 17.806C89.5099 17.794 89.3419 17.77 89.1979 17.734C88.8739 18.022 88.7119 18.316 88.7119 18.616C88.7119 18.952 88.8919 19.204 89.2519 19.372C89.6239 19.552 90.1039 19.642 90.6919 19.642ZM99.3891 17.716C98.4171 17.716 97.7091 17.398 97.2651 16.762C96.8331 16.114 96.6171 15.232 96.6171 14.116V8.572H99.2631V13.774C99.2631 14.41 99.3531 14.854 99.5331 15.106C99.7131 15.346 99.9951 15.466 100.379 15.466C100.715 15.466 100.997 15.388 101.225 15.232C101.453 15.076 101.699 14.824 101.963 14.476V8.572H104.609V17.5H102.449L102.251 16.258H102.197C101.825 16.702 101.417 17.056 100.973 17.32C100.529 17.584 100.001 17.716 99.3891 17.716ZM110.934 17.716C110.082 17.716 109.314 17.53 108.63 17.158C107.946 16.786 107.406 16.252 107.01 15.556C106.614 14.86 106.416 14.02 106.416 13.036C106.416 12.064 106.614 11.23 107.01 10.534C107.418 9.838 107.946 9.304 108.594 8.932C109.242 8.548 109.92 8.356 110.628 8.356C111.48 8.356 112.182 8.548 112.734 8.932C113.298 9.304 113.718 9.814 113.994 10.462C114.282 11.098 114.426 11.824 114.426 12.64C114.426 12.868 114.414 13.096 114.39 13.324C114.366 13.54 114.342 13.702 114.318 13.81H108.972C109.092 14.458 109.362 14.938 109.782 15.25C110.202 15.55 110.706 15.7 111.294 15.7C111.93 15.7 112.572 15.502 113.22 15.106L114.102 16.708C113.646 17.02 113.136 17.266 112.572 17.446C112.008 17.626 111.462 17.716 110.934 17.716ZM108.954 12.064H112.176C112.176 11.572 112.056 11.17 111.816 10.858C111.588 10.534 111.21 10.372 110.682 10.372C110.274 10.372 109.908 10.516 109.584 10.804C109.26 11.08 109.05 11.5 108.954 12.064ZM124.97 17.716C123.986 17.716 123.08 17.488 122.252 17.032C121.424 16.576 120.758 15.904 120.254 15.016C119.762 14.116 119.516 13.012 119.516 11.704C119.516 10.408 119.768 9.304 120.272 8.392C120.788 7.468 121.466 6.766 122.306 6.286C123.158 5.794 124.076 5.548 125.06 5.548C125.816 5.548 126.494 5.704 127.094 6.016C127.694 6.316 128.192 6.67 128.588 7.078L127.184 8.77C126.884 8.494 126.566 8.272 126.23 8.104C125.906 7.924 125.534 7.834 125.114 7.834C124.586 7.834 124.1 7.984 123.656 8.284C123.224 8.584 122.876 9.016 122.612 9.58C122.36 10.144 122.234 10.822 122.234 11.614C122.234 12.814 122.492 13.75 123.008 14.422C123.524 15.094 124.214 15.43 125.078 15.43C125.558 15.43 125.984 15.322 126.356 15.106C126.74 14.89 127.076 14.632 127.364 14.332L128.768 15.988C127.784 17.14 126.518 17.716 124.97 17.716ZM130.334 17.5V4.882H132.98V7.978L132.854 9.58C133.19 9.28 133.58 9.004 134.024 8.752C134.48 8.488 135.008 8.356 135.608 8.356C136.58 8.356 137.282 8.68 137.714 9.328C138.158 9.964 138.38 10.84 138.38 11.956V17.5H135.734V12.298C135.734 11.65 135.644 11.206 135.464 10.966C135.296 10.726 135.02 10.606 134.636 10.606C134.3 10.606 134.012 10.684 133.772 10.84C133.532 10.984 133.268 11.194 132.98 11.47V17.5H130.334ZM142.867 17.716C142.051 17.716 141.403 17.458 140.923 16.942C140.443 16.414 140.203 15.772 140.203 15.016C140.203 14.08 140.599 13.348 141.391 12.82C142.183 12.292 143.461 11.938 145.225 11.758C145.201 11.362 145.081 11.05 144.865 10.822C144.661 10.582 144.313 10.462 143.821 10.462C143.449 10.462 143.071 10.534 142.687 10.678C142.303 10.822 141.895 11.02 141.463 11.272L140.509 9.526C141.073 9.178 141.673 8.896 142.309 8.68C142.957 8.464 143.629 8.356 144.325 8.356C145.465 8.356 146.341 8.686 146.953 9.346C147.565 10.006 147.871 11.02 147.871 12.388V17.5H145.711L145.531 16.582H145.459C145.087 16.918 144.685 17.194 144.253 17.41C143.833 17.614 143.371 17.716 142.867 17.716ZM143.767 15.664C144.067 15.664 144.325 15.598 144.541 15.466C144.769 15.322 144.997 15.136 145.225 14.908V13.342C144.289 13.462 143.641 13.654 143.281 13.918C142.921 14.17 142.741 14.47 142.741 14.818C142.741 15.106 142.831 15.322 143.011 15.466C143.203 15.598 143.455 15.664 143.767 15.664ZM150.109 17.5V8.572H152.269L152.449 9.724H152.521C152.893 9.352 153.289 9.034 153.709 8.77C154.129 8.494 154.633 8.356 155.221 8.356C155.857 8.356 156.367 8.488 156.751 8.752C157.147 9.004 157.459 9.37 157.687 9.85C158.083 9.442 158.503 9.094 158.947 8.806C159.391 8.506 159.907 8.356 160.495 8.356C161.455 8.356 162.157 8.68 162.601 9.328C163.057 9.964 163.285 10.84 163.285 11.956V17.5H160.639V12.298C160.639 11.65 160.549 11.206 160.369 10.966C160.201 10.726 159.925 10.606 159.541 10.606C159.097 10.606 158.587 10.894 158.011 11.47V17.5H155.365V12.298C155.365 11.65 155.275 11.206 155.095 10.966C154.927 10.726 154.651 10.606 154.267 10.606C153.823 10.606 153.319 10.894 152.755 11.47V17.5H150.109ZM165.543 20.812V8.572H167.703L167.883 9.454H167.955C168.303 9.142 168.693 8.884 169.125 8.68C169.569 8.464 170.025 8.356 170.493 8.356C171.573 8.356 172.425 8.77 173.049 9.598C173.673 10.414 173.985 11.512 173.985 12.892C173.985 13.912 173.805 14.782 173.445 15.502C173.085 16.222 172.617 16.774 172.041 17.158C171.477 17.53 170.871 17.716 170.223 17.716C169.839 17.716 169.467 17.638 169.107 17.482C168.747 17.314 168.411 17.08 168.099 16.78L168.189 18.202V20.812H165.543ZM169.611 15.556C170.067 15.556 170.457 15.346 170.781 14.926C171.105 14.506 171.267 13.84 171.267 12.928C171.267 11.32 170.751 10.516 169.719 10.516C169.203 10.516 168.693 10.786 168.189 11.326V14.98C168.429 15.196 168.669 15.346 168.909 15.43C169.149 15.514 169.383 15.556 169.611 15.556ZM175.861 17.5V8.572H178.507V17.5H175.861ZM177.175 7.258C176.731 7.258 176.371 7.132 176.095 6.88C175.819 6.628 175.681 6.292 175.681 5.872C175.681 5.452 175.819 5.116 176.095 4.864C176.371 4.612 176.731 4.486 177.175 4.486C177.619 4.486 177.979 4.612 178.255 4.864C178.531 5.116 178.669 5.452 178.669 5.872C178.669 6.292 178.531 6.628 178.255 6.88C177.979 7.132 177.619 7.258 177.175 7.258ZM184.67 17.716C183.914 17.716 183.2 17.536 182.528 17.176C181.868 16.804 181.334 16.27 180.926 15.574C180.518 14.866 180.314 14.02 180.314 13.036C180.314 12.04 180.518 11.194 180.926 10.498C181.334 9.802 181.868 9.274 182.528 8.914C183.2 8.542 183.914 8.356 184.67 8.356C185.426 8.356 186.134 8.542 186.794 8.914C187.454 9.274 187.988 9.802 188.396 10.498C188.804 11.194 189.008 12.04 189.008 13.036C189.008 14.02 188.804 14.866 188.396 15.574C187.988 16.27 187.454 16.804 186.794 17.176C186.134 17.536 185.426 17.716 184.67 17.716ZM184.67 15.574C185.21 15.574 185.618 15.346 185.894 14.89C186.17 14.422 186.308 13.804 186.308 13.036C186.308 12.256 186.17 11.638 185.894 11.182C185.618 10.726 185.21 10.498 184.67 10.498C184.118 10.498 183.704 10.726 183.428 11.182C183.164 11.638 183.032 12.256 183.032 13.036C183.032 13.804 183.164 14.422 183.428 14.89C183.704 15.346 184.118 15.574 184.67 15.574ZM190.82 17.5V8.572H192.98L193.16 9.706H193.232C193.616 9.346 194.036 9.034 194.492 8.77C194.96 8.494 195.494 8.356 196.094 8.356C197.066 8.356 197.768 8.68 198.2 9.328C198.644 9.964 198.866 10.84 198.866 11.956V17.5H196.22V12.298C196.22 11.65 196.13 11.206 195.95 10.966C195.782 10.726 195.506 10.606 195.122 10.606C194.786 10.606 194.498 10.684 194.258 10.84C194.018 10.984 193.754 11.194 193.466 11.47V17.5H190.82ZM203.749 17.716C203.161 17.716 202.555 17.602 201.931 17.374C201.319 17.146 200.785 16.846 200.329 16.474L201.517 14.818C201.925 15.118 202.315 15.352 202.687 15.52C203.071 15.676 203.449 15.754 203.821 15.754C204.217 15.754 204.505 15.688 204.685 15.556C204.865 15.412 204.955 15.226 204.955 14.998C204.955 14.794 204.865 14.626 204.685 14.494C204.517 14.362 204.295 14.242 204.019 14.134C203.743 14.014 203.449 13.894 203.137 13.774C202.777 13.63 202.417 13.45 202.057 13.234C201.709 13.018 201.415 12.742 201.175 12.406C200.935 12.058 200.815 11.638 200.815 11.146C200.815 10.318 201.127 9.646 201.751 9.13C202.387 8.614 203.215 8.356 204.235 8.356C204.919 8.356 205.519 8.476 206.035 8.716C206.563 8.944 207.013 9.202 207.385 9.49L206.197 11.074C205.885 10.834 205.573 10.648 205.261 10.516C204.949 10.384 204.637 10.318 204.325 10.318C203.641 10.318 203.299 10.552 203.299 11.02C203.299 11.308 203.467 11.53 203.803 11.686C204.151 11.83 204.553 11.986 205.009 12.154C205.393 12.286 205.765 12.46 206.125 12.676C206.497 12.88 206.803 13.156 207.043 13.504C207.295 13.84 207.421 14.284 207.421 14.836C207.421 15.64 207.109 16.324 206.485 16.888C205.861 17.44 204.949 17.716 203.749 17.716ZM209.102 17.5V4.882H211.748V7.978L211.622 9.58C211.958 9.28 212.348 9.004 212.792 8.752C213.248 8.488 213.776 8.356 214.376 8.356C215.348 8.356 216.05 8.68 216.482 9.328C216.926 9.964 217.148 10.84 217.148 11.956V17.5H214.502V12.298C214.502 11.65 214.412 11.206 214.232 10.966C214.064 10.726 213.788 10.606 213.404 10.606C213.068 10.606 212.78 10.684 212.54 10.84C212.3 10.984 212.036 11.194 211.748 11.47V17.5H209.102ZM219.385 17.5V8.572H222.031V17.5H219.385ZM220.699 7.258C220.255 7.258 219.895 7.132 219.619 6.88C219.343 6.628 219.205 6.292 219.205 5.872C219.205 5.452 219.343 5.116 219.619 4.864C219.895 4.612 220.255 4.486 220.699 4.486C221.143 4.486 221.503 4.612 221.779 4.864C222.055 5.116 222.193 5.452 222.193 5.872C222.193 6.292 222.055 6.628 221.779 6.88C221.503 7.132 221.143 7.258 220.699 7.258ZM224.359 20.812V8.572H226.519L226.699 9.454H226.771C227.119 9.142 227.509 8.884 227.941 8.68C228.385 8.464 228.841 8.356 229.309 8.356C230.389 8.356 231.241 8.77 231.865 9.598C232.489 10.414 232.801 11.512 232.801 12.892C232.801 13.912 232.621 14.782 232.261 15.502C231.901 16.222 231.433 16.774 230.857 17.158C230.293 17.53 229.687 17.716 229.039 17.716C228.655 17.716 228.283 17.638 227.923 17.482C227.563 17.314 227.227 17.08 226.915 16.78L227.005 18.202V20.812H224.359ZM228.427 15.556C228.883 15.556 229.273 15.346 229.597 14.926C229.921 14.506 230.083 13.84 230.083 12.928C230.083 11.32 229.567 10.516 228.535 10.516C228.019 10.516 227.509 10.786 227.005 11.326V14.98C227.245 15.196 227.485 15.346 227.725 15.43C227.965 15.514 228.199 15.556 228.427 15.556Z" fill="white"/>
</g>
</svg>
