<svg width="78" height="20" viewBox="0 0 78 20" fill="none" xmlns="http://www.w3.org/2000/svg">
<mask id="mask0_3_3195" style="mask-type:luminance" maskUnits="userSpaceOnUse" x="0" y="0" width="78" height="20">
<path d="M78 0H0V20H78V0Z" fill="white"/>
</mask>
<g mask="url(#mask0_3_3195)">
<path d="M1.44 16V5.504H2.768V14.864H7.36V16H1.44ZM9.09325 16V8.224H10.4053V16H9.09325ZM9.76525 6.624C9.50925 6.624 9.29592 6.54933 9.12525 6.4C8.96525 6.24 8.88525 6.02667 8.88525 5.76C8.88525 5.504 8.96525 5.296 9.12525 5.136C9.29592 4.976 9.50925 4.896 9.76525 4.896C10.0213 4.896 10.2293 4.976 10.3893 5.136C10.5599 5.296 10.6453 5.504 10.6453 5.76C10.6453 6.02667 10.5599 6.24 10.3893 6.4C10.2293 6.54933 10.0213 6.624 9.76525 6.624ZM14.7108 16L11.9108 8.224H13.2708L14.7428 12.64C14.8601 13.024 14.9774 13.408 15.0948 13.792C15.2228 14.176 15.3454 14.5547 15.4628 14.928H15.5268C15.6441 14.5547 15.7614 14.176 15.8788 13.792C16.0068 13.408 16.1241 13.024 16.2308 12.64L17.7028 8.224H18.9988L16.2468 16H14.7108ZM23.589 16.192C22.8957 16.192 22.2663 16.032 21.701 15.712C21.1357 15.3813 20.6877 14.912 20.357 14.304C20.0263 13.696 19.861 12.9707 19.861 12.128C19.861 11.2747 20.0263 10.544 20.357 9.936C20.6983 9.328 21.1357 8.85867 21.669 8.528C22.2023 8.19733 22.7623 8.032 23.349 8.032C24.341 8.032 25.1037 8.36267 25.637 9.024C26.181 9.68533 26.453 10.5707 26.453 11.68C26.453 11.8187 26.4477 11.9573 26.437 12.096C26.437 12.224 26.4263 12.336 26.405 12.432H21.157C21.2103 13.2533 21.4663 13.9093 21.925 14.4C22.3943 14.8907 23.0023 15.136 23.749 15.136C24.1223 15.136 24.4637 15.0827 24.773 14.976C25.093 14.8587 25.397 14.7093 25.685 14.528L26.149 15.392C25.8183 15.6053 25.4397 15.792 25.013 15.952C24.597 16.112 24.1223 16.192 23.589 16.192ZM21.141 11.488H25.301C25.301 10.6987 25.1303 10.1013 24.789 9.696C24.4583 9.28 23.989 9.072 23.381 9.072C22.837 9.072 22.3463 9.28533 21.909 9.712C21.4823 10.128 21.2263 10.72 21.141 11.488ZM34.7296 16.192C34.0363 16.192 33.407 16.032 32.8416 15.712C32.2763 15.3813 31.8283 14.912 31.4976 14.304C31.167 13.696 31.0016 12.9707 31.0016 12.128C31.0016 11.2747 31.167 10.544 31.4976 9.936C31.839 9.328 32.2763 8.85867 32.8096 8.528C33.343 8.19733 33.903 8.032 34.4896 8.032C35.4816 8.032 36.2443 8.36267 36.7776 9.024C37.3216 9.68533 37.5936 10.5707 37.5936 11.68C37.5936 11.8187 37.5883 11.9573 37.5776 12.096C37.5776 12.224 37.567 12.336 37.5456 12.432H32.2976C32.351 13.2533 32.607 13.9093 33.0656 14.4C33.535 14.8907 34.143 15.136 34.8896 15.136C35.263 15.136 35.6043 15.0827 35.9136 14.976C36.2336 14.8587 36.5376 14.7093 36.8256 14.528L37.2896 15.392C36.959 15.6053 36.5803 15.792 36.1536 15.952C35.7376 16.112 35.263 16.192 34.7296 16.192ZM32.2816 11.488H36.4416C36.4416 10.6987 36.271 10.1013 35.9296 9.696C35.599 9.28 35.1296 9.072 34.5216 9.072C33.9776 9.072 33.487 9.28533 33.0496 9.712C32.623 10.128 32.367 10.72 32.2816 11.488ZM41.2733 16L38.4733 8.224H39.8333L41.3053 12.64C41.4226 13.024 41.5399 13.408 41.6573 13.792C41.7853 14.176 41.9079 14.5547 42.0253 14.928H42.0893C42.2066 14.5547 42.3239 14.176 42.4413 13.792C42.5693 13.408 42.6866 13.024 42.7933 12.64L44.2653 8.224H45.5613L42.8093 16H41.2733ZM50.1515 16.192C49.4582 16.192 48.8288 16.032 48.2635 15.712C47.6982 15.3813 47.2502 14.912 46.9195 14.304C46.5888 13.696 46.4235 12.9707 46.4235 12.128C46.4235 11.2747 46.5888 10.544 46.9195 9.936C47.2608 9.328 47.6982 8.85867 48.2315 8.528C48.7648 8.19733 49.3248 8.032 49.9115 8.032C50.9035 8.032 51.6662 8.36267 52.1995 9.024C52.7435 9.68533 53.0155 10.5707 53.0155 11.68C53.0155 11.8187 53.0102 11.9573 52.9995 12.096C52.9995 12.224 52.9888 12.336 52.9675 12.432H47.7195C47.7728 13.2533 48.0288 13.9093 48.4875 14.4C48.9568 14.8907 49.5648 15.136 50.3115 15.136C50.6848 15.136 51.0262 15.0827 51.3355 14.976C51.6555 14.8587 51.9595 14.7093 52.2475 14.528L52.7115 15.392C52.3808 15.6053 52.0022 15.792 51.5755 15.952C51.1595 16.112 50.6848 16.192 50.1515 16.192ZM47.7035 11.488H51.8635C51.8635 10.6987 51.6928 10.1013 51.3515 9.696C51.0208 9.28 50.5515 9.072 49.9435 9.072C49.3995 9.072 48.9088 9.28533 48.4715 9.712C48.0448 10.128 47.7888 10.72 47.7035 11.488ZM54.937 16V8.224H56.025L56.137 9.344H56.185C56.5583 8.97067 56.953 8.66133 57.369 8.416C57.785 8.16 58.2597 8.032 58.793 8.032C59.6143 8.032 60.2117 8.29333 60.585 8.816C60.969 9.328 61.161 10.08 61.161 11.072V16H59.849V11.248C59.849 10.5227 59.7317 9.99467 59.497 9.664C59.2623 9.33333 58.889 9.168 58.377 9.168C57.9823 9.168 57.625 9.26933 57.305 9.472C56.9957 9.67467 56.6437 9.97333 56.249 10.368V16H54.937ZM66.135 16.192C65.303 16.192 64.7217 15.952 64.391 15.472C64.071 14.992 63.911 14.368 63.911 13.6V9.296H62.759V8.304L63.975 8.224L64.135 6.048H65.239V8.224H67.335V9.296H65.239V13.616C65.239 14.096 65.3243 14.4693 65.495 14.736C65.6763 14.992 65.991 15.12 66.439 15.12C66.5777 15.12 66.727 15.0987 66.887 15.056C67.047 15.0027 67.191 14.9547 67.319 14.912L67.575 15.904C67.3617 15.9787 67.127 16.0427 66.871 16.096C66.6257 16.16 66.3803 16.192 66.135 16.192Z" fill="white"/>
</g>
</svg>
