<svg width="141" height="30" viewBox="0 0 141 30" fill="none" xmlns="http://www.w3.org/2000/svg">
<mask id="mask0_3_2394" style="mask-type:luminance" maskUnits="userSpaceOnUse" x="0" y="0" width="141" height="30">
<path d="M141 0H0V30H141V0Z" fill="white"/>
</mask>
<g mask="url(#mask0_3_2394)">
<path d="M40.848 23.5V7.852H44.712L47.232 14.812C47.392 15.26 47.544 15.732 47.688 16.228C47.832 16.724 47.984 17.212 48.144 17.692H48.24C48.4 17.212 48.544 16.724 48.672 16.228C48.816 15.732 48.968 15.26 49.128 14.812L51.6 7.852H55.44V23.5H52.224V17.764C52.224 17.252 52.248 16.684 52.296 16.06C52.36 15.42 52.424 14.78 52.488 14.14C52.568 13.5 52.632 12.932 52.68 12.436H52.584L51.312 16.156L49.08 22.132H47.136L44.904 16.156L43.656 12.436H43.56C43.624 12.932 43.688 13.5 43.752 14.14C43.816 14.78 43.872 15.42 43.92 16.06C43.984 16.684 44.016 17.252 44.016 17.764V23.5H40.848ZM61.8413 23.788C60.7533 23.788 59.8893 23.444 59.2493 22.756C58.6093 22.052 58.2893 21.196 58.2893 20.188C58.2893 18.94 58.8173 17.964 59.8733 17.26C60.9293 16.556 62.6333 16.084 64.9853 15.844C64.9533 15.316 64.7933 14.9 64.5053 14.596C64.2333 14.276 63.7693 14.116 63.1133 14.116C62.6173 14.116 62.1133 14.212 61.6013 14.404C61.0893 14.596 60.5453 14.86 59.9693 15.196L58.6973 12.868C59.4493 12.404 60.2493 12.028 61.0973 11.74C61.9613 11.452 62.8573 11.308 63.7853 11.308C65.3053 11.308 66.4733 11.748 67.2893 12.628C68.1053 13.508 68.5133 14.86 68.5133 16.684V23.5H65.6333L65.3933 22.276H65.2973C64.8013 22.724 64.2653 23.092 63.6893 23.38C63.1293 23.652 62.5133 23.788 61.8413 23.788ZM63.0413 21.052C63.4413 21.052 63.7853 20.964 64.0733 20.788C64.3773 20.596 64.6813 20.348 64.9853 20.044V17.956C63.7373 18.116 62.8733 18.372 62.3933 18.724C61.9133 19.06 61.6733 19.46 61.6733 19.924C61.6733 20.308 61.7933 20.596 62.0333 20.788C62.2893 20.964 62.6253 21.052 63.0413 21.052ZM75.6596 23.788C74.1876 23.788 73.1316 23.364 72.4916 22.516C71.8676 21.668 71.5556 20.556 71.5556 19.18V14.356H69.9236V11.74L71.7476 11.596L72.1556 8.428H75.0836V11.596H77.9396V14.356H75.0836V19.132C75.0836 19.804 75.2196 20.292 75.4916 20.596C75.7796 20.884 76.1556 21.028 76.6196 21.028C76.8116 21.028 77.0036 21.004 77.1956 20.956C77.4036 20.908 77.5876 20.852 77.7476 20.788L78.2996 23.356C77.9956 23.452 77.6196 23.548 77.1716 23.644C76.7396 23.74 76.2356 23.788 75.6596 23.788ZM85.0253 23.788C83.9213 23.788 82.9213 23.548 82.0253 23.068C81.1453 22.572 80.4413 21.86 79.9133 20.932C79.4013 19.988 79.1453 18.86 79.1453 17.548C79.1453 16.22 79.4333 15.092 80.0093 14.164C80.5853 13.236 81.3453 12.532 82.2893 12.052C83.2333 11.556 84.2493 11.308 85.3372 11.308C86.0733 11.308 86.7213 11.428 87.2813 11.668C87.8573 11.908 88.3693 12.212 88.8173 12.58L87.1613 14.86C86.6013 14.396 86.0653 14.164 85.5533 14.164C84.7053 14.164 84.0253 14.468 83.5133 15.076C83.0173 15.684 82.7693 16.508 82.7693 17.548C82.7693 18.572 83.0173 19.396 83.5133 20.02C84.0253 20.628 84.6653 20.932 85.4333 20.932C85.8173 20.932 86.1933 20.852 86.5613 20.692C86.9293 20.516 87.2653 20.308 87.5693 20.068L88.9613 22.372C88.3693 22.884 87.7293 23.252 87.0413 23.476C86.3533 23.684 85.6813 23.788 85.0253 23.788ZM91.0444 23.5V6.676H94.5724V10.804L94.4044 12.94C94.8524 12.54 95.3724 12.172 95.9644 11.836C96.5724 11.484 97.2764 11.308 98.0764 11.308C99.3724 11.308 100.308 11.74 100.884 12.604C101.476 13.452 101.772 14.62 101.772 16.108V23.5H98.2444V16.564C98.2444 15.7 98.1244 15.108 97.8844 14.788C97.6604 14.468 97.2924 14.308 96.7804 14.308C96.3324 14.308 95.9484 14.412 95.6284 14.62C95.3084 14.812 94.9564 15.092 94.5724 15.46V23.5H91.0444Z" fill="white"/>
</g>
</svg>
