<svg width="117" height="44" viewBox="0 0 117 44" fill="none" xmlns="http://www.w3.org/2000/svg">
<mask id="mask0_36_523" style="mask-type:luminance" maskUnits="userSpaceOnUse" x="0" y="0" width="117" height="44">
<path d="M116.977 0.582092H0.652832V43.5672H116.977V0.582092Z" fill="white"/>
</mask>
<g mask="url(#mask0_36_523)">
<path d="M4.21683 16.4682C3.5935 16.4682 3.01783 16.3912 2.48983 16.2372C1.96917 16.0759 1.52183 15.8559 1.14783 15.5772L1.58783 14.4662C1.83717 14.6422 2.0975 14.7925 2.36883 14.9172C2.64017 15.0345 2.92983 15.1262 3.23783 15.1922C3.54583 15.2509 3.87217 15.2802 4.21683 15.2802C4.79617 15.2802 5.21417 15.1849 5.47083 14.9942C5.7275 14.8035 5.85583 14.5542 5.85583 14.2462C5.85583 13.9749 5.76783 13.7695 5.59183 13.6302C5.41583 13.4835 5.1005 13.3625 4.64583 13.2672L3.40283 13.0142C2.6915 12.8675 2.15983 12.6219 1.80783 12.2772C1.45583 11.9325 1.27983 11.4705 1.27983 10.8912C1.27983 10.4072 1.40817 9.98555 1.66483 9.62621C1.9215 9.26688 2.28083 8.98822 2.74283 8.79022C3.20483 8.59222 3.74383 8.49321 4.35983 8.49321C4.90983 8.49321 5.4195 8.57388 5.88883 8.73522C6.35817 8.88921 6.7505 9.11288 7.06583 9.40622L6.62583 10.4622C6.3105 10.1982 5.96583 10.0039 5.59183 9.87921C5.21783 9.74721 4.79983 9.68121 4.33783 9.68121C3.81717 9.68121 3.41017 9.78388 3.11683 9.98921C2.83083 10.1872 2.68783 10.4622 2.68783 10.8142C2.68783 11.0855 2.77583 11.3019 2.95183 11.4632C3.13517 11.6245 3.44317 11.7492 3.87583 11.8372L5.10783 12.0792C5.84117 12.2259 6.38383 12.4679 6.73583 12.8052C7.08783 13.1352 7.26383 13.5825 7.26383 14.1472C7.26383 14.6092 7.13917 15.0162 6.88983 15.3682C6.6405 15.7129 6.2885 15.9842 5.83383 16.1822C5.37917 16.3729 4.84017 16.4682 4.21683 16.4682ZM10.813 16.4682C10.153 16.4682 9.6543 16.2959 9.31696 15.9512C8.97963 15.6065 8.81096 15.0895 8.81096 14.4002V11.8372H7.74396V10.8032H8.81096V9.38422L10.186 9.03222V10.8032H11.671V11.8372H10.186V14.3122C10.186 14.6935 10.2593 14.9612 10.406 15.1152C10.5526 15.2692 10.7543 15.3462 11.011 15.3462C11.1503 15.3462 11.2676 15.3352 11.363 15.3132C11.4656 15.2912 11.5646 15.2619 11.66 15.2252V16.3142C11.5353 16.3655 11.396 16.4022 11.242 16.4242C11.0953 16.4535 10.9523 16.4682 10.813 16.4682ZM12.5939 16.3582V12.2222C12.5939 11.9875 12.5866 11.7492 12.5719 11.5072C12.5646 11.2652 12.5463 11.0305 12.5169 10.8032H13.8479L14.0019 12.3212H13.7819C13.8553 11.9545 13.9763 11.6502 14.1449 11.4082C14.3209 11.1662 14.5336 10.9865 14.7829 10.8692C15.0323 10.7519 15.3036 10.6932 15.5969 10.6932C15.7289 10.6932 15.8353 10.7005 15.9159 10.7152C15.9966 10.7225 16.0773 10.7409 16.1579 10.7702L16.1469 11.9802C16.0076 11.9215 15.8866 11.8849 15.7839 11.8702C15.6886 11.8555 15.5676 11.8482 15.4209 11.8482C15.1056 11.8482 14.8379 11.9142 14.6179 12.0462C14.4053 12.1782 14.2439 12.3615 14.1339 12.5962C14.0313 12.8309 13.9799 13.0985 13.9799 13.3992V16.3582H12.5939ZM19.0146 16.4682C18.5306 16.4682 18.1052 16.3545 17.7386 16.1272C17.3719 15.8925 17.0859 15.5589 16.8806 15.1262C16.6752 14.6935 16.5726 14.1765 16.5726 13.5752C16.5726 12.9739 16.6752 12.4605 16.8806 12.0352C17.0859 11.6025 17.3719 11.2725 17.7386 11.0452C18.1052 10.8105 18.5306 10.6932 19.0146 10.6932C19.4839 10.6932 19.8946 10.8105 20.2466 11.0452C20.6059 11.2725 20.8442 11.5805 20.9616 11.9692H20.8406L20.9616 10.8032H22.2816C22.2596 11.0305 22.2376 11.2615 22.2156 11.4962C22.2009 11.7309 22.1936 11.9619 22.1936 12.1892V16.3582H20.8296L20.8186 15.2142H20.9506C20.8332 15.5955 20.5949 15.8999 20.2356 16.1272C19.8762 16.3545 19.4692 16.4682 19.0146 16.4682ZM19.3996 15.4122C19.8322 15.4122 20.1806 15.2619 20.4446 14.9612C20.7086 14.6532 20.8406 14.1912 20.8406 13.5752C20.8406 12.9592 20.7086 12.5009 20.4446 12.2002C20.1806 11.8995 19.8322 11.7492 19.3996 11.7492C18.9669 11.7492 18.6186 11.8995 18.3546 12.2002C18.0906 12.5009 17.9586 12.9592 17.9586 13.5752C17.9586 14.1912 18.0869 14.6532 18.3436 14.9612C18.6076 15.2619 18.9596 15.4122 19.3996 15.4122ZM26.0669 16.4682C25.4069 16.4682 24.9082 16.2959 24.5709 15.9512C24.2335 15.6065 24.0649 15.0895 24.0649 14.4002V11.8372H22.9979V10.8032H24.0649V9.38422L25.4399 9.03222V10.8032H26.9249V11.8372H25.4399V14.3122C25.4399 14.6935 25.5132 14.9612 25.6599 15.1152C25.8065 15.2692 26.0082 15.3462 26.2649 15.3462C26.4042 15.3462 26.5215 15.3352 26.6169 15.3132C26.7195 15.2912 26.8185 15.2619 26.9139 15.2252V16.3142C26.7892 16.3655 26.6499 16.4022 26.4959 16.4242C26.3492 16.4535 26.2062 16.4682 26.0669 16.4682ZM30.4891 16.4682C29.5578 16.4682 28.8281 16.2115 28.3001 15.6982C27.7721 15.1849 27.5081 14.4809 27.5081 13.5862C27.5081 13.0069 27.6218 12.5009 27.8491 12.0682C28.0765 11.6355 28.3918 11.2982 28.7951 11.0562C29.2058 10.8142 29.6825 10.6932 30.2251 10.6932C30.7605 10.6932 31.2078 10.8069 31.5671 11.0342C31.9265 11.2615 32.1978 11.5805 32.3811 11.9912C32.5718 12.4019 32.6671 12.8822 32.6671 13.4322V13.7952H28.6191V13.0692H31.6881L31.5011 13.2232C31.5011 12.7099 31.3911 12.3175 31.1711 12.0462C30.9585 11.7749 30.6468 11.6392 30.2361 11.6392C29.7815 11.6392 29.4295 11.8005 29.1801 12.1232C28.9381 12.4459 28.8171 12.8969 28.8171 13.4762V13.6192C28.8171 14.2205 28.9638 14.6715 29.2571 14.9722C29.5578 15.2655 29.9795 15.4122 30.5221 15.4122C30.8375 15.4122 31.1308 15.3719 31.4021 15.2912C31.6808 15.2032 31.9448 15.0639 32.1941 14.8732L32.6011 15.7972C32.3371 16.0099 32.0218 16.1749 31.6551 16.2922C31.2885 16.4095 30.8998 16.4682 30.4891 16.4682ZM36.4055 18.8222C35.8922 18.8222 35.4265 18.7672 35.0085 18.6572C34.5978 18.5472 34.2312 18.3785 33.9085 18.1512L34.2055 17.1612C34.4182 17.3005 34.6382 17.4142 34.8655 17.5022C35.0928 17.5902 35.3275 17.6562 35.5695 17.7002C35.8115 17.7442 36.0572 17.7662 36.3065 17.7662C36.8198 17.7662 37.2012 17.6379 37.4505 17.3812C37.7072 17.1319 37.8355 16.7725 37.8355 16.3032V14.9722H37.9455C37.8282 15.3535 37.5898 15.6579 37.2305 15.8852C36.8785 16.1125 36.4715 16.2262 36.0095 16.2262C35.5108 16.2262 35.0745 16.1162 34.7005 15.8962C34.3338 15.6689 34.0478 15.3462 33.8425 14.9282C33.6372 14.5102 33.5345 14.0189 33.5345 13.4542C33.5345 12.8895 33.6372 12.4019 33.8425 11.9912C34.0478 11.5732 34.3338 11.2542 34.7005 11.0342C35.0745 10.8069 35.5108 10.6932 36.0095 10.6932C36.4788 10.6932 36.8858 10.8069 37.2305 11.0342C37.5825 11.2542 37.8172 11.5549 37.9345 11.9362L37.8355 11.8702L37.9455 10.8032H39.2765C39.2472 11.0305 39.2252 11.2615 39.2105 11.4962C39.1958 11.7309 39.1885 11.9619 39.1885 12.1892V16.1382C39.1885 17.0109 38.9502 17.6745 38.4735 18.1292C38.0042 18.5912 37.3148 18.8222 36.4055 18.8222ZM36.3835 15.1702C36.8235 15.1702 37.1718 15.0235 37.4285 14.7302C37.6925 14.4295 37.8245 14.0042 37.8245 13.4542C37.8245 12.9042 37.6925 12.4825 37.4285 12.1892C37.1718 11.8959 36.8235 11.7492 36.3835 11.7492C35.9362 11.7492 35.5805 11.8959 35.3165 12.1892C35.0525 12.4825 34.9205 12.9042 34.9205 13.4542C34.9205 14.0042 35.0525 14.4295 35.3165 14.7302C35.5805 15.0235 35.9362 15.1702 36.3835 15.1702ZM40.6743 16.3582V10.8032H42.0493V16.3582H40.6743ZM40.5973 9.75822V8.41621H42.1263V9.75822H40.5973ZM46.2264 16.4682C45.2951 16.4682 44.5654 16.2115 44.0374 15.6982C43.5094 15.1849 43.2454 14.4809 43.2454 13.5862C43.2454 13.0069 43.3591 12.5009 43.5864 12.0682C43.8138 11.6355 44.1291 11.2982 44.5324 11.0562C44.9431 10.8142 45.4198 10.6932 45.9624 10.6932C46.4978 10.6932 46.9451 10.8069 47.3044 11.0342C47.6638 11.2615 47.9351 11.5805 48.1184 11.9912C48.3091 12.4019 48.4044 12.8822 48.4044 13.4322V13.7952H44.3564V13.0692H47.4254L47.2384 13.2232C47.2384 12.7099 47.1284 12.3175 46.9084 12.0462C46.6958 11.7749 46.3841 11.6392 45.9734 11.6392C45.5188 11.6392 45.1668 11.8005 44.9174 12.1232C44.6754 12.4459 44.5544 12.8969 44.5544 13.4762V13.6192C44.5544 14.2205 44.7011 14.6715 44.9944 14.9722C45.2951 15.2655 45.7168 15.4122 46.2594 15.4122C46.5748 15.4122 46.8681 15.3719 47.1394 15.2912C47.4181 15.2032 47.6821 15.0639 47.9314 14.8732L48.3384 15.7972C48.0744 16.0099 47.7591 16.1749 47.3924 16.2922C47.0258 16.4095 46.6371 16.4682 46.2264 16.4682Z" fill="#979797"/>
</g>
</svg>
