<svg width="235" height="22" viewBox="0 0 235 22" fill="none" xmlns="http://www.w3.org/2000/svg">
<mask id="mask0_3_2480" style="mask-type:luminance" maskUnits="userSpaceOnUse" x="0" y="0" width="235" height="22">
<path d="M235 0H0V22H235V0Z" fill="white"/>
</mask>
<g mask="url(#mask0_3_2480)">
<path d="M6.282 17.716C5.298 17.716 4.392 17.488 3.564 17.032C2.736 16.576 2.07 15.904 1.566 15.016C1.074 14.116 0.828 13.012 0.828 11.704C0.828 10.408 1.08 9.304 1.584 8.392C2.1 7.468 2.778 6.766 3.618 6.286C4.47 5.794 5.388 5.548 6.372 5.548C7.128 5.548 7.806 5.704 8.406 6.016C9.006 6.316 9.504 6.67 9.9 7.078L8.496 8.77C8.196 8.494 7.878 8.272 7.542 8.104C7.218 7.924 6.846 7.834 6.426 7.834C5.898 7.834 5.412 7.984 4.968 8.284C4.536 8.584 4.188 9.016 3.924 9.58C3.672 10.144 3.546 10.822 3.546 11.614C3.546 12.814 3.804 13.75 4.32 14.422C4.836 15.094 5.526 15.43 6.39 15.43C6.87 15.43 7.296 15.322 7.668 15.106C8.052 14.89 8.388 14.632 8.676 14.332L10.08 15.988C9.096 17.14 7.83 17.716 6.282 17.716ZM15.4806 17.716C14.7246 17.716 14.0106 17.536 13.3386 17.176C12.6786 16.804 12.1446 16.27 11.7366 15.574C11.3286 14.866 11.1246 14.02 11.1246 13.036C11.1246 12.04 11.3286 11.194 11.7366 10.498C12.1446 9.802 12.6786 9.274 13.3386 8.914C14.0106 8.542 14.7246 8.356 15.4806 8.356C16.2366 8.356 16.9446 8.542 17.6046 8.914C18.2646 9.274 18.7986 9.802 19.2066 10.498C19.6146 11.194 19.8186 12.04 19.8186 13.036C19.8186 14.02 19.6146 14.866 19.2066 15.574C18.7986 16.27 18.2646 16.804 17.6046 17.176C16.9446 17.536 16.2366 17.716 15.4806 17.716ZM15.4806 15.574C16.0206 15.574 16.4286 15.346 16.7046 14.89C16.9806 14.422 17.1186 13.804 17.1186 13.036C17.1186 12.256 16.9806 11.638 16.7046 11.182C16.4286 10.726 16.0206 10.498 15.4806 10.498C14.9286 10.498 14.5146 10.726 14.2386 11.182C13.9746 11.638 13.8426 12.256 13.8426 13.036C13.8426 13.804 13.9746 14.422 14.2386 14.89C14.5146 15.346 14.9286 15.574 15.4806 15.574ZM24.3129 17.716C23.3409 17.716 22.6329 17.398 22.1889 16.762C21.7569 16.114 21.5409 15.232 21.5409 14.116V8.572H24.1869V13.774C24.1869 14.41 24.2769 14.854 24.4569 15.106C24.6369 15.346 24.9189 15.466 25.3029 15.466C25.6389 15.466 25.9209 15.388 26.1489 15.232C26.3769 15.076 26.6229 14.824 26.8869 14.476V8.572H29.5329V17.5H27.3729L27.1749 16.258H27.1209C26.7489 16.702 26.3409 17.056 25.8969 17.32C25.4529 17.584 24.9249 17.716 24.3129 17.716ZM31.8614 17.5V8.572H34.0214L34.2014 9.706H34.2734C34.6574 9.346 35.0774 9.034 35.5334 8.77C36.0014 8.494 36.5354 8.356 37.1354 8.356C38.1074 8.356 38.8094 8.68 39.2414 9.328C39.6854 9.964 39.9074 10.84 39.9074 11.956V17.5H37.2614V12.298C37.2614 11.65 37.1714 11.206 36.9914 10.966C36.8234 10.726 36.5474 10.606 36.1634 10.606C35.8274 10.606 35.5394 10.684 35.2994 10.84C35.0594 10.984 34.7954 11.194 34.5074 11.47V17.5H31.8614ZM45.6002 17.716C44.4962 17.716 43.7042 17.398 43.2242 16.762C42.7562 16.126 42.5222 15.292 42.5222 14.26V10.642H41.2982V8.68L42.6662 8.572L42.9722 6.196H45.1682V8.572H47.3102V10.642H45.1682V14.224C45.1682 14.728 45.2702 15.094 45.4742 15.322C45.6902 15.538 45.9722 15.646 46.3202 15.646C46.4642 15.646 46.6082 15.628 46.7522 15.592C46.9082 15.556 47.0462 15.514 47.1662 15.466L47.5802 17.392C47.3522 17.464 47.0702 17.536 46.7342 17.608C46.4102 17.68 46.0322 17.716 45.6002 17.716ZM52.7324 17.716C51.8804 17.716 51.1124 17.53 50.4284 17.158C49.7444 16.786 49.2044 16.252 48.8084 15.556C48.4124 14.86 48.2144 14.02 48.2144 13.036C48.2144 12.064 48.4124 11.23 48.8084 10.534C49.2164 9.838 49.7444 9.304 50.3924 8.932C51.0404 8.548 51.7184 8.356 52.4264 8.356C53.2784 8.356 53.9804 8.548 54.5324 8.932C55.0964 9.304 55.5164 9.814 55.7924 10.462C56.0804 11.098 56.2244 11.824 56.2244 12.64C56.2244 12.868 56.2124 13.096 56.1884 13.324C56.1644 13.54 56.1404 13.702 56.1164 13.81H50.7704C50.8904 14.458 51.1604 14.938 51.5804 15.25C52.0004 15.55 52.5044 15.7 53.0924 15.7C53.7284 15.7 54.3704 15.502 55.0184 15.106L55.9004 16.708C55.4444 17.02 54.9344 17.266 54.3704 17.446C53.8064 17.626 53.2604 17.716 52.7324 17.716ZM50.7524 12.064H53.9744C53.9744 11.572 53.8544 11.17 53.6144 10.858C53.3864 10.534 53.0084 10.372 52.4804 10.372C52.0724 10.372 51.7064 10.516 51.3824 10.804C51.0584 11.08 50.8484 11.5 50.7524 12.064ZM58.0528 17.5V8.572H60.2128L60.3928 10.138H60.4648C60.7888 9.538 61.1788 9.094 61.6348 8.806C62.0908 8.506 62.5468 8.356 63.0028 8.356C63.2548 8.356 63.4648 8.374 63.6328 8.41C63.8008 8.434 63.9448 8.476 64.0648 8.536L63.6328 10.822C63.4768 10.774 63.3208 10.738 63.1648 10.714C63.0208 10.69 62.8528 10.678 62.6608 10.678C62.3248 10.678 61.9708 10.804 61.5988 11.056C61.2388 11.296 60.9388 11.716 60.6988 12.316V17.5H58.0528ZM64.3189 13.882V12.01H68.7469V13.882H64.3189ZM74.0149 17.716C73.2469 17.716 72.4789 17.572 71.7109 17.284C70.9549 16.996 70.2769 16.576 69.6769 16.024L71.1889 14.206C71.6089 14.566 72.0769 14.86 72.5929 15.088C73.1089 15.316 73.6069 15.43 74.0869 15.43C74.6389 15.43 75.0469 15.328 75.3109 15.124C75.5869 14.92 75.7249 14.644 75.7249 14.296C75.7249 13.924 75.5689 13.654 75.2569 13.486C74.9569 13.306 74.5489 13.108 74.0329 12.892L72.5029 12.244C72.1069 12.076 71.7289 11.854 71.3689 11.578C71.0089 11.29 70.7149 10.936 70.4869 10.516C70.2589 10.096 70.1449 9.604 70.1449 9.04C70.1449 8.392 70.3189 7.804 70.6669 7.276C71.0269 6.748 71.5189 6.328 72.1429 6.016C72.7789 5.704 73.5049 5.548 74.3209 5.548C74.9929 5.548 75.6649 5.68 76.3369 5.944C77.0089 6.208 77.5969 6.592 78.1009 7.096L76.7509 8.77C76.3669 8.47 75.9829 8.242 75.5989 8.086C75.2149 7.918 74.7889 7.834 74.3209 7.834C73.8649 7.834 73.4989 7.93 73.2229 8.122C72.9589 8.302 72.8269 8.56 72.8269 8.896C72.8269 9.256 72.9949 9.526 73.3309 9.706C73.6789 9.886 74.1049 10.078 74.6089 10.282L76.1209 10.894C76.8289 11.182 77.3929 11.578 77.8129 12.082C78.2329 12.586 78.4429 13.252 78.4429 14.08C78.4429 14.728 78.2689 15.328 77.9209 15.88C77.5729 16.432 77.0689 16.876 76.4089 17.212C75.7489 17.548 74.9509 17.716 74.0149 17.716ZM83.1471 17.716C82.0431 17.716 81.2511 17.398 80.7711 16.762C80.3031 16.126 80.0691 15.292 80.0691 14.26V10.642H78.8451V8.68L80.2131 8.572L80.5191 6.196H82.7151V8.572H84.8571V10.642H82.7151V14.224C82.7151 14.728 82.8171 15.094 83.0211 15.322C83.2371 15.538 83.5191 15.646 83.8671 15.646C84.0111 15.646 84.1551 15.628 84.2991 15.592C84.4551 15.556 84.5931 15.514 84.7131 15.466L85.1271 17.392C84.8991 17.464 84.6171 17.536 84.2811 17.608C83.9571 17.68 83.5791 17.716 83.1471 17.716ZM86.5997 17.5V8.572H88.7597L88.9397 10.138H89.0117C89.3357 9.538 89.7257 9.094 90.1817 8.806C90.6377 8.506 91.0937 8.356 91.5497 8.356C91.8017 8.356 92.0117 8.374 92.1797 8.41C92.3477 8.434 92.4917 8.476 92.6117 8.536L92.1797 10.822C92.0237 10.774 91.8677 10.738 91.7117 10.714C91.5677 10.69 91.3997 10.678 91.2077 10.678C90.8717 10.678 90.5177 10.804 90.1457 11.056C89.7857 11.296 89.4857 11.716 89.2457 12.316V17.5H86.5997ZM93.7716 17.5V8.572H96.4176V17.5H93.7716ZM95.0856 7.258C94.6416 7.258 94.2816 7.132 94.0056 6.88C93.7296 6.628 93.5916 6.292 93.5916 5.872C93.5916 5.452 93.7296 5.116 94.0056 4.864C94.2816 4.612 94.6416 4.486 95.0856 4.486C95.5296 4.486 95.8896 4.612 96.1656 4.864C96.4416 5.116 96.5796 5.452 96.5796 5.872C96.5796 6.292 96.4416 6.628 96.1656 6.88C95.8896 7.132 95.5296 7.258 95.0856 7.258ZM98.7462 17.5V4.882H101.32V12.118H101.392L104.218 8.572H107.098L103.966 12.244L107.332 17.5H104.47L102.454 14.026L101.32 15.304V17.5H98.7462ZM112.094 17.716C111.242 17.716 110.474 17.53 109.79 17.158C109.106 16.786 108.566 16.252 108.17 15.556C107.774 14.86 107.576 14.02 107.576 13.036C107.576 12.064 107.774 11.23 108.17 10.534C108.578 9.838 109.106 9.304 109.754 8.932C110.402 8.548 111.08 8.356 111.788 8.356C112.64 8.356 113.342 8.548 113.894 8.932C114.458 9.304 114.878 9.814 115.154 10.462C115.442 11.098 115.586 11.824 115.586 12.64C115.586 12.868 115.574 13.096 115.55 13.324C115.526 13.54 115.502 13.702 115.478 13.81H110.132C110.252 14.458 110.522 14.938 110.942 15.25C111.362 15.55 111.866 15.7 112.454 15.7C113.09 15.7 113.732 15.502 114.38 15.106L115.262 16.708C114.806 17.02 114.296 17.266 113.732 17.446C113.168 17.626 112.622 17.716 112.094 17.716ZM110.114 12.064H113.336C113.336 11.572 113.216 11.17 112.976 10.858C112.748 10.534 112.37 10.372 111.842 10.372C111.434 10.372 111.068 10.516 110.744 10.804C110.42 11.08 110.21 11.5 110.114 12.064ZM118.944 11.884C118.488 11.884 118.104 11.728 117.792 11.416C117.492 11.092 117.342 10.696 117.342 10.228C117.342 9.748 117.492 9.352 117.792 9.04C118.104 8.716 118.488 8.554 118.944 8.554C119.4 8.554 119.778 8.716 120.078 9.04C120.39 9.352 120.546 9.748 120.546 10.228C120.546 10.696 120.39 11.092 120.078 11.416C119.778 11.728 119.4 11.884 118.944 11.884ZM118.944 17.716C118.488 17.716 118.104 17.56 117.792 17.248C117.492 16.924 117.342 16.528 117.342 16.06C117.342 15.58 117.492 15.184 117.792 14.872C118.104 14.548 118.488 14.386 118.944 14.386C119.4 14.386 119.778 14.548 120.078 14.872C120.39 15.184 120.546 15.58 120.546 16.06C120.546 16.528 120.39 16.924 120.078 17.248C119.778 17.56 119.4 17.716 118.944 17.716ZM131.814 17.716C130.746 17.716 129.774 17.488 128.898 17.032C128.034 16.576 127.344 15.904 126.828 15.016C126.324 14.116 126.072 13.012 126.072 11.704C126.072 10.408 126.33 9.304 126.846 8.392C127.374 7.468 128.07 6.766 128.934 6.286C129.798 5.794 130.752 5.548 131.796 5.548C132.648 5.548 133.38 5.704 133.992 6.016C134.604 6.328 135.102 6.682 135.486 7.078L134.1 8.77C133.8 8.506 133.482 8.284 133.146 8.104C132.81 7.924 132.39 7.834 131.886 7.834C130.974 7.834 130.23 8.17 129.654 8.842C129.078 9.514 128.79 10.438 128.79 11.614C128.79 12.814 129.066 13.75 129.618 14.422C130.17 15.094 130.992 15.43 132.084 15.43C132.324 15.43 132.558 15.4 132.786 15.34C133.014 15.28 133.2 15.19 133.344 15.07V13.054H131.4V10.894H135.684V16.294C135.276 16.69 134.73 17.026 134.046 17.302C133.374 17.578 132.63 17.716 131.814 17.716ZM140.323 17.716C139.411 17.716 138.775 17.446 138.415 16.906C138.067 16.354 137.893 15.628 137.893 14.728V4.882H140.539V14.836C140.539 15.112 140.587 15.304 140.683 15.412C140.791 15.52 140.899 15.574 141.007 15.574C141.067 15.574 141.115 15.574 141.151 15.574C141.199 15.562 141.259 15.55 141.331 15.538L141.655 17.5C141.511 17.56 141.325 17.608 141.097 17.644C140.881 17.692 140.623 17.716 140.323 17.716ZM146.877 17.716C146.121 17.716 145.407 17.536 144.735 17.176C144.075 16.804 143.541 16.27 143.133 15.574C142.725 14.866 142.521 14.02 142.521 13.036C142.521 12.04 142.725 11.194 143.133 10.498C143.541 9.802 144.075 9.274 144.735 8.914C145.407 8.542 146.121 8.356 146.877 8.356C147.633 8.356 148.341 8.542 149.001 8.914C149.661 9.274 150.195 9.802 150.603 10.498C151.011 11.194 151.215 12.04 151.215 13.036C151.215 14.02 151.011 14.866 150.603 15.574C150.195 16.27 149.661 16.804 149.001 17.176C148.341 17.536 147.633 17.716 146.877 17.716ZM146.877 15.574C147.417 15.574 147.825 15.346 148.101 14.89C148.377 14.422 148.515 13.804 148.515 13.036C148.515 12.256 148.377 11.638 148.101 11.182C147.825 10.726 147.417 10.498 146.877 10.498C146.325 10.498 145.911 10.726 145.635 11.182C145.371 11.638 145.239 12.256 145.239 13.036C145.239 13.804 145.371 14.422 145.635 14.89C145.911 15.346 146.325 15.574 146.877 15.574ZM157.707 17.716C157.311 17.716 156.909 17.62 156.501 17.428C156.105 17.224 155.733 16.93 155.385 16.546H155.313L155.097 17.5H153.027V4.882H155.673V7.978L155.601 9.346C155.949 9.034 156.327 8.794 156.735 8.626C157.143 8.446 157.551 8.356 157.959 8.356C158.679 8.356 159.303 8.542 159.831 8.914C160.359 9.286 160.761 9.814 161.037 10.498C161.325 11.17 161.469 11.962 161.469 12.874C161.469 13.894 161.289 14.77 160.929 15.502C160.569 16.222 160.101 16.774 159.525 17.158C158.961 17.53 158.355 17.716 157.707 17.716ZM157.095 15.556C157.551 15.556 157.941 15.346 158.265 14.926C158.589 14.506 158.751 13.84 158.751 12.928C158.751 11.32 158.235 10.516 157.203 10.516C156.675 10.516 156.165 10.786 155.673 11.326V14.98C155.913 15.196 156.153 15.346 156.393 15.43C156.633 15.514 156.867 15.556 157.095 15.556ZM165.402 17.716C164.586 17.716 163.938 17.458 163.458 16.942C162.978 16.414 162.738 15.772 162.738 15.016C162.738 14.08 163.134 13.348 163.926 12.82C164.718 12.292 165.996 11.938 167.76 11.758C167.736 11.362 167.616 11.05 167.4 10.822C167.196 10.582 166.848 10.462 166.356 10.462C165.984 10.462 165.606 10.534 165.222 10.678C164.838 10.822 164.43 11.02 163.998 11.272L163.044 9.526C163.608 9.178 164.208 8.896 164.844 8.68C165.492 8.464 166.164 8.356 166.86 8.356C168 8.356 168.876 8.686 169.488 9.346C170.1 10.006 170.406 11.02 170.406 12.388V17.5H168.246L168.066 16.582H167.994C167.622 16.918 167.22 17.194 166.788 17.41C166.368 17.614 165.906 17.716 165.402 17.716ZM166.302 15.664C166.602 15.664 166.86 15.598 167.076 15.466C167.304 15.322 167.532 15.136 167.76 14.908V13.342C166.824 13.462 166.176 13.654 165.816 13.918C165.456 14.17 165.276 14.47 165.276 14.818C165.276 15.106 165.366 15.322 165.546 15.466C165.738 15.598 165.99 15.664 166.302 15.664ZM175.075 17.716C174.163 17.716 173.527 17.446 173.167 16.906C172.819 16.354 172.645 15.628 172.645 14.728V4.882H175.291V14.836C175.291 15.112 175.339 15.304 175.435 15.412C175.543 15.52 175.651 15.574 175.759 15.574C175.819 15.574 175.867 15.574 175.903 15.574C175.951 15.562 176.011 15.55 176.083 15.538L176.407 17.5C176.263 17.56 176.077 17.608 175.849 17.644C175.633 17.692 175.375 17.716 175.075 17.716Z" fill="white"/>
</g>
</svg>
