<svg width="63" height="20" viewBox="0 0 63 20" fill="none" xmlns="http://www.w3.org/2000/svg">
<mask id="mask0_3_3238" style="mask-type:luminance" maskUnits="userSpaceOnUse" x="0" y="0" width="63" height="20">
<path d="M63 0H0V20H63V0Z" fill="white"/>
</mask>
<g mask="url(#mask0_3_3238)">
<path d="M1.44 16V5.504H4.432C5.22133 5.504 5.90933 5.6 6.496 5.792C7.08267 5.984 7.54133 6.30933 7.872 6.768C8.20267 7.216 8.368 7.824 8.368 8.592C8.368 9.69067 8.01067 10.5067 7.296 11.04C6.58133 11.5733 5.648 11.84 4.496 11.84H2.768V16H1.44ZM2.768 10.752H4.336C5.25333 10.752 5.93067 10.5813 6.368 10.24C6.816 9.888 7.04 9.33867 7.04 8.592C7.04 7.83467 6.80533 7.312 6.336 7.024C5.87733 6.72533 5.18933 6.576 4.272 6.576H2.768V10.752ZM11.7665 16.192C11.2758 16.192 10.9185 16.0427 10.6945 15.744C10.4812 15.4347 10.3745 14.9973 10.3745 14.432V4.608H11.6865V14.528C11.6865 14.7307 11.7238 14.88 11.7985 14.976C11.8732 15.0613 11.9585 15.104 12.0545 15.104C12.0972 15.104 12.1345 15.104 12.1665 15.104C12.2092 15.0933 12.2678 15.0827 12.3425 15.072L12.5185 16.064C12.4332 16.1067 12.3318 16.1387 12.2145 16.16C12.0972 16.1813 11.9478 16.192 11.7665 16.192ZM16.2446 16.192C15.594 16.192 15.05 16 14.6126 15.616C14.186 15.2213 13.9726 14.6773 13.9726 13.984C13.9726 13.1307 14.3513 12.48 15.1086 12.032C15.8766 11.5733 17.0873 11.2533 18.7406 11.072C18.7406 10.7413 18.6926 10.4267 18.5966 10.128C18.5113 9.82933 18.3513 9.58933 18.1166 9.408C17.8926 9.216 17.5673 9.12 17.1406 9.12C16.6926 9.12 16.2713 9.20533 15.8766 9.376C15.482 9.54667 15.13 9.73867 14.8206 9.952L14.3086 9.04C14.6713 8.80533 15.114 8.58133 15.6366 8.368C16.17 8.144 16.746 8.032 17.3646 8.032C18.314 8.032 19.002 8.32533 19.4286 8.912C19.8553 9.488 20.0686 10.2613 20.0686 11.232V16H18.9806L18.8686 15.072H18.8206C18.458 15.3707 18.058 15.632 17.6206 15.856C17.194 16.08 16.7353 16.192 16.2446 16.192ZM16.6286 15.136C17.002 15.136 17.354 15.0453 17.6846 14.864C18.0153 14.6827 18.3673 14.4267 18.7406 14.096V11.936C17.45 12.096 16.5433 12.336 16.0206 12.656C15.5086 12.976 15.2526 13.3867 15.2526 13.888C15.2526 14.3253 15.386 14.6453 15.6526 14.848C15.9193 15.04 16.2446 15.136 16.6286 15.136ZM22.6431 19.344C22.4725 19.344 22.3071 19.328 22.1471 19.296C21.9978 19.264 21.8591 19.2267 21.7311 19.184L21.9871 18.144C22.0725 18.1653 22.1685 18.1867 22.2751 18.208C22.3818 18.24 22.4831 18.256 22.5791 18.256C23.0165 18.256 23.3791 18.096 23.6671 17.776C23.9551 17.4667 24.1791 17.072 24.3391 16.592L24.5151 16.016L21.3951 8.224H22.7551L24.3391 12.528C24.4565 12.8587 24.5791 13.216 24.7071 13.6C24.8458 13.984 24.9738 14.3573 25.0911 14.72H25.1551C25.2725 14.368 25.3845 14 25.4911 13.616C25.5978 13.232 25.7045 12.8693 25.8111 12.528L27.2031 8.224H28.4831L25.5551 16.64C25.3738 17.152 25.1551 17.6107 24.8991 18.016C24.6538 18.4213 24.3445 18.7413 23.9711 18.976C23.6085 19.2213 23.1658 19.344 22.6431 19.344ZM33.0734 16.192C32.38 16.192 31.7507 16.032 31.1854 15.712C30.62 15.3813 30.172 14.912 29.8414 14.304C29.5107 13.696 29.3454 12.9707 29.3454 12.128C29.3454 11.2747 29.5107 10.544 29.8414 9.936C30.1827 9.328 30.62 8.85867 31.1534 8.528C31.6867 8.19733 32.2467 8.032 32.8334 8.032C33.8254 8.032 34.588 8.36267 35.1214 9.024C35.6654 9.68533 35.9374 10.5707 35.9374 11.68C35.9374 11.8187 35.932 11.9573 35.9214 12.096C35.9214 12.224 35.9107 12.336 35.8894 12.432H30.6414C30.6947 13.2533 30.9507 13.9093 31.4094 14.4C31.8787 14.8907 32.4867 15.136 33.2334 15.136C33.6067 15.136 33.948 15.0827 34.2574 14.976C34.5774 14.8587 34.8814 14.7093 35.1694 14.528L35.6334 15.392C35.3027 15.6053 34.924 15.792 34.4974 15.952C34.0814 16.112 33.6067 16.192 33.0734 16.192ZM30.6254 11.488H34.7854C34.7854 10.6987 34.6147 10.1013 34.2734 9.696C33.9427 9.28 33.4734 9.072 32.8654 9.072C32.3214 9.072 31.8307 9.28533 31.3934 9.712C30.9667 10.128 30.7107 10.72 30.6254 11.488ZM37.8589 16V8.224H38.9469L39.0589 9.632H39.1069C39.3735 9.14133 39.6989 8.752 40.0829 8.464C40.4669 8.176 40.8775 8.032 41.3149 8.032C41.6242 8.032 41.9015 8.08533 42.1469 8.192L41.8909 9.344C41.7629 9.30133 41.6455 9.26933 41.5389 9.248C41.4322 9.22667 41.2989 9.216 41.1389 9.216C40.8082 9.216 40.4615 9.34933 40.0989 9.616C39.7469 9.88267 39.4375 10.3467 39.1709 11.008V16H37.8589Z" fill="white"/>
</g>
</svg>
