<svg width="102" height="20" viewBox="0 0 102 20" fill="none" xmlns="http://www.w3.org/2000/svg">
<mask id="mask0_3_3219" style="mask-type:luminance" maskUnits="userSpaceOnUse" x="0" y="0" width="102" height="20">
<path d="M102 0H0V20H102V0Z" fill="white"/>
</mask>
<g mask="url(#mask0_3_3219)">
<path d="M1.44 16V5.504H3.04L5.056 11.104C5.184 11.4667 5.30667 11.8347 5.424 12.208C5.552 12.5707 5.68 12.9333 5.808 13.296H5.872C6 12.9333 6.11733 12.5707 6.224 12.208C6.34133 11.8347 6.464 11.4667 6.592 11.104L8.576 5.504H10.192V16H8.944V10.224C8.944 9.75467 8.96533 9.23733 9.008 8.672C9.05067 8.096 9.088 7.57867 9.12 7.12H9.056L8.224 9.504L6.24 14.944H5.36L3.376 9.504L2.544 7.12H2.48C2.512 7.57867 2.544 8.096 2.576 8.672C2.61867 9.23733 2.64 9.75467 2.64 10.224V16H1.44ZM14.729 16.192C14.0783 16.192 13.5343 16 13.097 15.616C12.6703 15.2213 12.457 14.6773 12.457 13.984C12.457 13.1307 12.8357 12.48 13.593 12.032C14.361 11.5733 15.5717 11.2533 17.225 11.072C17.225 10.7413 17.177 10.4267 17.081 10.128C16.9957 9.82933 16.8357 9.58933 16.601 9.408C16.377 9.216 16.0517 9.12 15.625 9.12C15.177 9.12 14.7557 9.20533 14.361 9.376C13.9663 9.54667 13.6143 9.73867 13.305 9.952L12.793 9.04C13.1557 8.80533 13.5983 8.58133 14.121 8.368C14.6543 8.144 15.2303 8.032 15.849 8.032C16.7983 8.032 17.4863 8.32533 17.913 8.912C18.3397 9.488 18.553 10.2613 18.553 11.232V16H17.465L17.353 15.072H17.305C16.9423 15.3707 16.5423 15.632 16.105 15.856C15.6783 16.08 15.2197 16.192 14.729 16.192ZM15.113 15.136C15.4863 15.136 15.8383 15.0453 16.169 14.864C16.4997 14.6827 16.8517 14.4267 17.225 14.096V11.936C15.9343 12.096 15.0277 12.336 14.505 12.656C13.993 12.976 13.737 13.3867 13.737 13.888C13.737 14.3253 13.8703 14.6453 14.137 14.848C14.4037 15.04 14.729 15.136 15.113 15.136ZM23.2288 16.192C22.3968 16.192 21.8154 15.952 21.4848 15.472C21.1648 14.992 21.0048 14.368 21.0048 13.6V9.296H19.8528V8.304L21.0688 8.224L21.2288 6.048H22.3328V8.224H24.4288V9.296H22.3328V13.616C22.3328 14.096 22.4181 14.4693 22.5888 14.736C22.7701 14.992 23.0848 15.12 23.5328 15.12C23.6714 15.12 23.8208 15.0987 23.9808 15.056C24.1408 15.0027 24.2848 14.9547 24.4128 14.912L24.6688 15.904C24.4554 15.9787 24.2208 16.0427 23.9648 16.096C23.7194 16.16 23.4741 16.192 23.2288 16.192ZM29.0403 16.192C28.3576 16.192 27.7389 16.032 27.1843 15.712C26.6296 15.392 26.1923 14.928 25.8723 14.32C25.5523 13.712 25.3923 12.9813 25.3923 12.128C25.3923 11.2533 25.5629 10.512 25.9043 9.904C26.2563 9.296 26.7149 8.832 27.2803 8.512C27.8563 8.192 28.4749 8.032 29.1363 8.032C29.6483 8.032 30.0856 8.12267 30.4483 8.304C30.8216 8.48533 31.1416 8.69867 31.4083 8.944L30.7363 9.808C30.5123 9.60533 30.2723 9.44 30.0163 9.312C29.7709 9.184 29.4936 9.12 29.1843 9.12C28.7149 9.12 28.2936 9.248 27.9203 9.504C27.5576 9.74933 27.2696 10.1013 27.0563 10.56C26.8536 11.008 26.7523 11.5307 26.7523 12.128C26.7523 13.0133 26.9709 13.7333 27.4083 14.288C27.8563 14.832 28.4376 15.104 29.1523 15.104C29.5149 15.104 29.8509 15.0293 30.1603 14.88C30.4696 14.72 30.7416 14.5333 30.9763 14.32L31.5523 15.2C31.2003 15.5093 30.8109 15.7547 30.3843 15.936C29.9576 16.1067 29.5096 16.192 29.0403 16.192ZM33.2651 16V4.608H34.5771V7.712L34.5291 9.312C34.9025 8.96 35.2918 8.66133 35.6971 8.416C36.1131 8.16 36.5878 8.032 37.1211 8.032C37.9425 8.032 38.5398 8.29333 38.9131 8.816C39.2971 9.328 39.4891 10.08 39.4891 11.072V16H38.1771V11.248C38.1771 10.5227 38.0598 9.99467 37.8251 9.664C37.5905 9.33333 37.2171 9.168 36.7051 9.168C36.3105 9.168 35.9531 9.26933 35.6331 9.472C35.3238 9.67467 34.9718 9.97333 34.5771 10.368V16H33.2651Z" fill="white"/>
</g>
</svg>
