<svg width="143" height="24" viewBox="0 0 143 24" fill="none" xmlns="http://www.w3.org/2000/svg">
<mask id="mask0_3_3296" style="mask-type:luminance" maskUnits="userSpaceOnUse" x="0" y="0" width="143" height="24">
<path d="M143 0H0V24H143V0Z" fill="white"/>
</mask>
<g mask="url(#mask0_3_3296)">
<path d="M1.386 18.5V6.764H4.032V16.268H8.676V18.5H1.386ZM14.2363 18.716C13.3843 18.716 12.6163 18.53 11.9323 18.158C11.2483 17.786 10.7083 17.252 10.3123 16.556C9.91631 15.86 9.71831 15.02 9.71831 14.036C9.71831 13.064 9.91631 12.23 10.3123 11.534C10.7203 10.838 11.2483 10.304 11.8963 9.932C12.5443 9.548 13.2223 9.356 13.9303 9.356C14.7823 9.356 15.4843 9.548 16.0363 9.932C16.6003 10.304 17.0203 10.814 17.2963 11.462C17.5843 12.098 17.7283 12.824 17.7283 13.64C17.7283 13.868 17.7163 14.096 17.6923 14.324C17.6683 14.54 17.6443 14.702 17.6203 14.81H12.2743C12.3943 15.458 12.6643 15.938 13.0843 16.25C13.5043 16.55 14.0083 16.7 14.5963 16.7C15.2323 16.7 15.8743 16.502 16.5223 16.106L17.4043 17.708C16.9483 18.02 16.4383 18.266 15.8743 18.446C15.3103 18.626 14.7643 18.716 14.2363 18.716ZM12.2563 13.064H15.4783C15.4783 12.572 15.3583 12.17 15.1183 11.858C14.8903 11.534 14.5123 11.372 13.9843 11.372C13.5763 11.372 13.2103 11.516 12.8863 11.804C12.5623 12.08 12.3523 12.5 12.2563 13.064ZM21.6134 18.716C20.7974 18.716 20.1494 18.458 19.6694 17.942C19.1894 17.414 18.9494 16.772 18.9494 16.016C18.9494 15.08 19.3454 14.348 20.1374 13.82C20.9294 13.292 22.2074 12.938 23.9714 12.758C23.9474 12.362 23.8274 12.05 23.6114 11.822C23.4074 11.582 23.0594 11.462 22.5674 11.462C22.1954 11.462 21.8174 11.534 21.4334 11.678C21.0494 11.822 20.6414 12.02 20.2094 12.272L19.2554 10.526C19.8194 10.178 20.4194 9.896 21.0554 9.68C21.7034 9.464 22.3754 9.356 23.0714 9.356C24.2114 9.356 25.0874 9.686 25.6994 10.346C26.3114 11.006 26.6174 12.02 26.6174 13.388V18.5H24.4574L24.2774 17.582H24.2054C23.8334 17.918 23.4314 18.194 22.9994 18.41C22.5794 18.614 22.1174 18.716 21.6134 18.716ZM22.5134 16.664C22.8134 16.664 23.0714 16.598 23.2874 16.466C23.5154 16.322 23.7434 16.136 23.9714 15.908V14.342C23.0354 14.462 22.3874 14.654 22.0274 14.918C21.6674 15.17 21.4874 15.47 21.4874 15.818C21.4874 16.106 21.5774 16.322 21.7574 16.466C21.9494 16.598 22.2014 16.664 22.5134 16.664ZM32.0415 22.298C31.3455 22.298 30.7155 22.22 30.1515 22.064C29.5875 21.908 29.1375 21.662 28.8015 21.326C28.4655 20.99 28.2975 20.558 28.2975 20.03C28.2975 19.31 28.7235 18.71 29.5755 18.23V18.158C29.3475 18.002 29.1495 17.804 28.9815 17.564C28.8255 17.324 28.7475 17.018 28.7475 16.646C28.7475 16.322 28.8435 16.01 29.0355 15.71C29.2275 15.41 29.4675 15.164 29.7555 14.972V14.9C29.4435 14.684 29.1615 14.372 28.9095 13.964C28.6695 13.556 28.5495 13.094 28.5495 12.578C28.5495 11.858 28.7235 11.264 29.0715 10.796C29.4195 10.316 29.8755 9.956 30.4395 9.716C31.0035 9.476 31.6035 9.356 32.2395 9.356C32.7675 9.356 33.2295 9.428 33.6255 9.572H36.8835V11.498H35.4615C35.5455 11.63 35.6115 11.798 35.6595 12.002C35.7195 12.206 35.7495 12.428 35.7495 12.668C35.7495 13.352 35.5935 13.916 35.2815 14.36C34.9695 14.804 34.5495 15.134 34.0215 15.35C33.4935 15.566 32.8995 15.674 32.2395 15.674C31.8915 15.674 31.5315 15.614 31.1595 15.494C30.9435 15.674 30.8355 15.896 30.8355 16.16C30.8355 16.388 30.9375 16.556 31.1415 16.664C31.3455 16.772 31.6935 16.826 32.1855 16.826H33.6255C34.7295 16.826 35.5695 17.006 36.1455 17.366C36.7335 17.714 37.0275 18.29 37.0275 19.094C37.0275 19.706 36.8235 20.252 36.4155 20.732C36.0075 21.224 35.4315 21.608 34.6875 21.884C33.9435 22.16 33.0615 22.298 32.0415 22.298ZM32.2395 14.072C32.5875 14.072 32.8755 13.946 33.1035 13.694C33.3435 13.442 33.4635 13.07 33.4635 12.578C33.4635 12.11 33.3435 11.756 33.1035 11.516C32.8755 11.264 32.5875 11.138 32.2395 11.138C31.8915 11.138 31.5975 11.258 31.3575 11.498C31.1295 11.738 31.0155 12.098 31.0155 12.578C31.0155 13.07 31.1295 13.442 31.3575 13.694C31.5975 13.946 31.8915 14.072 32.2395 14.072ZM32.4555 20.642C33.0555 20.642 33.5475 20.534 33.9315 20.318C34.3155 20.102 34.5075 19.844 34.5075 19.544C34.5075 19.268 34.3875 19.082 34.1475 18.986C33.9195 18.89 33.5835 18.842 33.1395 18.842H32.2215C31.9215 18.842 31.6695 18.83 31.4655 18.806C31.2735 18.794 31.1055 18.77 30.9615 18.734C30.6375 19.022 30.4755 19.316 30.4755 19.616C30.4755 19.952 30.6555 20.204 31.0155 20.372C31.3875 20.552 31.8675 20.642 32.4555 20.642ZM41.1528 18.716C40.1808 18.716 39.4728 18.398 39.0288 17.762C38.5968 17.114 38.3808 16.232 38.3808 15.116V9.572H41.0268V14.774C41.0268 15.41 41.1168 15.854 41.2968 16.106C41.4768 16.346 41.7588 16.466 42.1428 16.466C42.4788 16.466 42.7608 16.388 42.9888 16.232C43.2168 16.076 43.4628 15.824 43.7268 15.476V9.572H46.3728V18.5H44.2128L44.0148 17.258H43.9608C43.5888 17.702 43.1808 18.056 42.7368 18.32C42.2928 18.584 41.7648 18.716 41.1528 18.716ZM52.6973 18.716C51.8453 18.716 51.0773 18.53 50.3933 18.158C49.7093 17.786 49.1693 17.252 48.7733 16.556C48.3773 15.86 48.1793 15.02 48.1793 14.036C48.1793 13.064 48.3773 12.23 48.7733 11.534C49.1813 10.838 49.7093 10.304 50.3573 9.932C51.0053 9.548 51.6833 9.356 52.3913 9.356C53.2433 9.356 53.9453 9.548 54.4973 9.932C55.0613 10.304 55.4813 10.814 55.7573 11.462C56.0453 12.098 56.1893 12.824 56.1893 13.64C56.1893 13.868 56.1773 14.096 56.1533 14.324C56.1293 14.54 56.1053 14.702 56.0813 14.81H50.7353C50.8553 15.458 51.1253 15.938 51.5453 16.25C51.9653 16.55 52.4693 16.7 53.0573 16.7C53.6933 16.7 54.3353 16.502 54.9833 16.106L55.8653 17.708C55.4093 18.02 54.8993 18.266 54.3353 18.446C53.7713 18.626 53.2253 18.716 52.6973 18.716ZM50.7173 13.064H53.9393C53.9393 12.572 53.8193 12.17 53.5793 11.858C53.3513 11.534 52.9733 11.372 52.4453 11.372C52.0373 11.372 51.6713 11.516 51.3473 11.804C51.0233 12.08 50.8133 12.5 50.7173 13.064ZM65.4552 18.716C64.6992 18.716 63.9852 18.536 63.3132 18.176C62.6532 17.804 62.1192 17.27 61.7112 16.574C61.3032 15.866 61.0992 15.02 61.0992 14.036C61.0992 13.04 61.3032 12.194 61.7112 11.498C62.1192 10.802 62.6532 10.274 63.3132 9.914C63.9852 9.542 64.6992 9.356 65.4552 9.356C66.2112 9.356 66.9192 9.542 67.5792 9.914C68.2392 10.274 68.7732 10.802 69.1812 11.498C69.5892 12.194 69.7932 13.04 69.7932 14.036C69.7932 15.02 69.5892 15.866 69.1812 16.574C68.7732 17.27 68.2392 17.804 67.5792 18.176C66.9192 18.536 66.2112 18.716 65.4552 18.716ZM65.4552 16.574C65.9952 16.574 66.4032 16.346 66.6792 15.89C66.9552 15.422 67.0932 14.804 67.0932 14.036C67.0932 13.256 66.9552 12.638 66.6792 12.182C66.4032 11.726 65.9952 11.498 65.4552 11.498C64.9032 11.498 64.4892 11.726 64.2132 12.182C63.9492 12.638 63.8172 13.256 63.8172 14.036C63.8172 14.804 63.9492 15.422 64.2132 15.89C64.4892 16.346 64.9032 16.574 65.4552 16.574ZM71.9677 18.5V11.642H70.7797V9.68L71.9677 9.59V9.104C71.9677 8.468 72.0757 7.892 72.2917 7.376C72.5077 6.86 72.8557 6.446 73.3357 6.134C73.8157 5.822 74.4577 5.666 75.2617 5.666C75.6337 5.666 75.9757 5.702 76.2877 5.774C76.5997 5.846 76.8517 5.918 77.0437 5.99L76.5577 7.934C76.4017 7.874 76.2457 7.832 76.0897 7.808C75.9337 7.772 75.7837 7.754 75.6397 7.754C75.3157 7.754 75.0637 7.856 74.8837 8.06C74.7037 8.252 74.6137 8.576 74.6137 9.032V9.572H76.2157V11.642H74.6137V18.5H71.9677ZM81.4719 18.5V6.764H84.1179V16.268H88.7619V18.5H81.4719ZM94.3223 18.716C93.4703 18.716 92.7023 18.53 92.0183 18.158C91.3343 17.786 90.7943 17.252 90.3983 16.556C90.0023 15.86 89.8043 15.02 89.8043 14.036C89.8043 13.064 90.0023 12.23 90.3983 11.534C90.8063 10.838 91.3343 10.304 91.9823 9.932C92.6303 9.548 93.3083 9.356 94.0163 9.356C94.8683 9.356 95.5703 9.548 96.1223 9.932C96.6863 10.304 97.1063 10.814 97.3823 11.462C97.6703 12.098 97.8143 12.824 97.8143 13.64C97.8143 13.868 97.8023 14.096 97.7783 14.324C97.7543 14.54 97.7303 14.702 97.7063 14.81H92.3603C92.4803 15.458 92.7503 15.938 93.1703 16.25C93.5903 16.55 94.0943 16.7 94.6823 16.7C95.3183 16.7 95.9603 16.502 96.6083 16.106L97.4903 17.708C97.0343 18.02 96.5243 18.266 95.9603 18.446C95.3963 18.626 94.8503 18.716 94.3223 18.716ZM92.3423 13.064H95.5643C95.5643 12.572 95.4443 12.17 95.2043 11.858C94.9763 11.534 94.5983 11.372 94.0703 11.372C93.6623 11.372 93.2963 11.516 92.9723 11.804C92.6483 12.08 92.4383 12.5 92.3423 13.064ZM102.653 22.298C101.957 22.298 101.327 22.22 100.763 22.064C100.199 21.908 99.7489 21.662 99.4129 21.326C99.0769 20.99 98.9089 20.558 98.9089 20.03C98.9089 19.31 99.3349 18.71 100.187 18.23V18.158C99.9589 18.002 99.7609 17.804 99.5929 17.564C99.4369 17.324 99.3589 17.018 99.3589 16.646C99.3589 16.322 99.4549 16.01 99.6469 15.71C99.8389 15.41 100.079 15.164 100.367 14.972V14.9C100.055 14.684 99.7729 14.372 99.5209 13.964C99.2809 13.556 99.1609 13.094 99.1609 12.578C99.1609 11.858 99.3349 11.264 99.6829 10.796C100.031 10.316 100.487 9.956 101.051 9.716C101.615 9.476 102.215 9.356 102.851 9.356C103.379 9.356 103.841 9.428 104.237 9.572H107.495V11.498H106.073C106.157 11.63 106.223 11.798 106.271 12.002C106.331 12.206 106.361 12.428 106.361 12.668C106.361 13.352 106.205 13.916 105.893 14.36C105.581 14.804 105.161 15.134 104.633 15.35C104.105 15.566 103.511 15.674 102.851 15.674C102.503 15.674 102.143 15.614 101.771 15.494C101.555 15.674 101.447 15.896 101.447 16.16C101.447 16.388 101.549 16.556 101.753 16.664C101.957 16.772 102.305 16.826 102.797 16.826H104.237C105.341 16.826 106.181 17.006 106.757 17.366C107.345 17.714 107.639 18.29 107.639 19.094C107.639 19.706 107.435 20.252 107.027 20.732C106.619 21.224 106.043 21.608 105.299 21.884C104.555 22.16 103.673 22.298 102.653 22.298ZM102.851 14.072C103.199 14.072 103.487 13.946 103.715 13.694C103.955 13.442 104.075 13.07 104.075 12.578C104.075 12.11 103.955 11.756 103.715 11.516C103.487 11.264 103.199 11.138 102.851 11.138C102.503 11.138 102.209 11.258 101.969 11.498C101.741 11.738 101.627 12.098 101.627 12.578C101.627 13.07 101.741 13.442 101.969 13.694C102.209 13.946 102.503 14.072 102.851 14.072ZM103.067 20.642C103.667 20.642 104.159 20.534 104.543 20.318C104.927 20.102 105.119 19.844 105.119 19.544C105.119 19.268 104.999 19.082 104.759 18.986C104.531 18.89 104.195 18.842 103.751 18.842H102.833C102.533 18.842 102.281 18.83 102.077 18.806C101.885 18.794 101.717 18.77 101.573 18.734C101.249 19.022 101.087 19.316 101.087 19.616C101.087 19.952 101.267 20.204 101.627 20.372C101.999 20.552 102.479 20.642 103.067 20.642ZM112.762 18.716C111.91 18.716 111.142 18.53 110.458 18.158C109.774 17.786 109.234 17.252 108.838 16.556C108.442 15.86 108.244 15.02 108.244 14.036C108.244 13.064 108.442 12.23 108.838 11.534C109.246 10.838 109.774 10.304 110.422 9.932C111.07 9.548 111.748 9.356 112.456 9.356C113.308 9.356 114.01 9.548 114.562 9.932C115.126 10.304 115.546 10.814 115.822 11.462C116.11 12.098 116.254 12.824 116.254 13.64C116.254 13.868 116.242 14.096 116.218 14.324C116.194 14.54 116.17 14.702 116.146 14.81H110.8C110.92 15.458 111.19 15.938 111.61 16.25C112.03 16.55 112.534 16.7 113.122 16.7C113.758 16.7 114.4 16.502 115.048 16.106L115.93 17.708C115.474 18.02 114.964 18.266 114.4 18.446C113.836 18.626 113.29 18.716 112.762 18.716ZM110.782 13.064H114.004C114.004 12.572 113.884 12.17 113.644 11.858C113.416 11.534 113.038 11.372 112.51 11.372C112.102 11.372 111.736 11.516 111.412 11.804C111.088 12.08 110.878 12.5 110.782 13.064ZM118.082 18.5V9.572H120.242L120.422 10.706H120.494C120.878 10.346 121.298 10.034 121.754 9.77C122.222 9.494 122.756 9.356 123.356 9.356C124.328 9.356 125.03 9.68 125.462 10.328C125.906 10.964 126.128 11.84 126.128 12.956V18.5H123.482V13.298C123.482 12.65 123.392 12.206 123.212 11.966C123.044 11.726 122.768 11.606 122.384 11.606C122.048 11.606 121.76 11.684 121.52 11.84C121.28 11.984 121.016 12.194 120.728 12.47V18.5H118.082ZM131.569 18.716C130.465 18.716 129.577 18.302 128.905 17.474C128.245 16.634 127.915 15.488 127.915 14.036C127.915 13.064 128.089 12.23 128.437 11.534C128.797 10.826 129.259 10.286 129.823 9.914C130.399 9.542 130.999 9.356 131.623 9.356C132.115 9.356 132.529 9.44 132.865 9.608C133.201 9.776 133.519 10.004 133.819 10.292L133.711 8.924V5.882H136.357V18.5H134.197L134.017 17.618H133.945C133.633 17.93 133.267 18.194 132.847 18.41C132.427 18.614 132.001 18.716 131.569 18.716ZM132.253 16.556C132.541 16.556 132.799 16.496 133.027 16.376C133.267 16.256 133.495 16.046 133.711 15.746V12.092C133.483 11.876 133.237 11.726 132.973 11.642C132.721 11.558 132.475 11.516 132.235 11.516C131.815 11.516 131.443 11.72 131.119 12.128C130.795 12.524 130.633 13.148 130.633 14C130.633 14.876 130.771 15.524 131.047 15.944C131.335 16.352 131.737 16.556 132.253 16.556ZM141.329 18.716C140.741 18.716 140.135 18.602 139.511 18.374C138.899 18.146 138.365 17.846 137.909 17.474L139.097 15.818C139.505 16.118 139.895 16.352 140.267 16.52C140.651 16.676 141.029 16.754 141.401 16.754C141.797 16.754 142.085 16.688 142.265 16.556C142.445 16.412 142.535 16.226 142.535 15.998C142.535 15.794 142.445 15.626 142.265 15.494C142.097 15.362 141.875 15.242 141.599 15.134C141.323 15.014 141.029 14.894 140.717 14.774C140.357 14.63 139.997 14.45 139.637 14.234C139.289 14.018 138.995 13.742 138.755 13.406C138.515 13.058 138.395 12.638 138.395 12.146C138.395 11.318 138.707 10.646 139.331 10.13C139.967 9.614 140.795 9.356 141.815 9.356C142.499 9.356 143.099 9.476 143.615 9.716C144.143 9.944 144.593 10.202 144.965 10.49L143.777 12.074C143.465 11.834 143.153 11.648 142.841 11.516C142.529 11.384 142.217 11.318 141.905 11.318C141.221 11.318 140.879 11.552 140.879 12.02C140.879 12.308 141.047 12.53 141.383 12.686C141.731 12.83 142.133 12.986 142.589 13.154C142.973 13.286 143.345 13.46 143.705 13.676C144.077 13.88 144.383 14.156 144.623 14.504C144.875 14.84 145.001 15.284 145.001 15.836C145.001 16.64 144.689 17.324 144.065 17.888C143.441 18.44 142.529 18.716 141.329 18.716Z" fill="white"/>
</g>
</svg>
