<svg width="74" height="20" viewBox="0 0 74 20" fill="none" xmlns="http://www.w3.org/2000/svg">
<mask id="mask0_3_3225" style="mask-type:luminance" maskUnits="userSpaceOnUse" x="0" y="0" width="74" height="20">
<path d="M74 0H0V20H74V0Z" fill="white"/>
</mask>
<g mask="url(#mask0_3_3225)">
<path d="M4.352 16.192C3.616 16.192 2.93333 16.0533 2.304 15.776C1.67467 15.488 1.13067 15.1093 0.672 14.64L1.472 13.712C1.84533 14.1067 2.28267 14.4267 2.784 14.672C3.296 14.9067 3.824 15.024 4.368 15.024C5.06133 15.024 5.6 14.8693 5.984 14.56C6.368 14.24 6.56 13.824 6.56 13.312C6.56 12.9493 6.48 12.6613 6.32 12.448C6.17067 12.2347 5.96267 12.0533 5.696 11.904C5.44 11.7547 5.14667 11.6053 4.816 11.456L3.312 10.8C2.98133 10.6613 2.65067 10.48 2.32 10.256C2 10.032 1.728 9.744 1.504 9.392C1.29067 9.04 1.184 8.608 1.184 8.096C1.184 7.56267 1.32267 7.088 1.6 6.672C1.888 6.24533 2.28267 5.91467 2.784 5.68C3.28533 5.43467 3.85067 5.312 4.48 5.312C5.10933 5.312 5.69067 5.43467 6.224 5.68C6.75733 5.91467 7.21067 6.224 7.584 6.608L6.864 7.472C6.544 7.16267 6.18667 6.92267 5.792 6.752C5.408 6.57067 4.97067 6.48 4.48 6.48C3.89333 6.48 3.41867 6.61867 3.056 6.896C2.704 7.17333 2.528 7.54667 2.528 8.016C2.528 8.34667 2.61333 8.624 2.784 8.848C2.96533 9.06133 3.18933 9.23733 3.456 9.376C3.72267 9.51467 3.99467 9.64267 4.272 9.76L5.76 10.4C6.16533 10.5707 6.528 10.7787 6.848 11.024C7.17867 11.2587 7.44 11.552 7.632 11.904C7.824 12.2453 7.92 12.6773 7.92 13.2C7.92 13.7547 7.776 14.2613 7.488 14.72C7.2 15.168 6.78933 15.5253 6.256 15.792C5.72267 16.0587 5.088 16.192 4.352 16.192ZM11.9163 16.192C11.0843 16.192 10.5029 15.952 10.1723 15.472C9.85225 14.992 9.69225 14.368 9.69225 13.6V9.296H8.54025V8.304L9.75625 8.224L9.91625 6.048H11.0203V8.224H13.1163V9.296H11.0203V13.616C11.0203 14.096 11.1056 14.4693 11.2763 14.736C11.4576 14.992 11.7723 15.12 12.2203 15.12C12.3589 15.12 12.5083 15.0987 12.6683 15.056C12.8283 15.0027 12.9723 14.9547 13.1003 14.912L13.3563 15.904C13.1429 15.9787 12.9083 16.0427 12.6523 16.096C12.4069 16.16 12.1616 16.192 11.9163 16.192ZM14.8745 16V8.224H15.9625L16.0745 9.632H16.1225C16.3892 9.14133 16.7145 8.752 17.0985 8.464C17.4825 8.176 17.8932 8.032 18.3305 8.032C18.6398 8.032 18.9172 8.08533 19.1625 8.192L18.9065 9.344C18.7785 9.30133 18.6612 9.26933 18.5545 9.248C18.4478 9.22667 18.3145 9.216 18.1545 9.216C17.8238 9.216 17.4772 9.34933 17.1145 9.616C16.7625 9.88267 16.4532 10.3467 16.1865 11.008V16H14.8745ZM23.4171 16.192C22.7238 16.192 22.0945 16.032 21.5291 15.712C20.9638 15.3813 20.5158 14.912 20.1851 14.304C19.8545 13.696 19.6891 12.9707 19.6891 12.128C19.6891 11.2747 19.8545 10.544 20.1851 9.936C20.5265 9.328 20.9638 8.85867 21.4971 8.528C22.0305 8.19733 22.5905 8.032 23.1771 8.032C24.1691 8.032 24.9318 8.36267 25.4651 9.024C26.0091 9.68533 26.2811 10.5707 26.2811 11.68C26.2811 11.8187 26.2758 11.9573 26.2651 12.096C26.2651 12.224 26.2545 12.336 26.2331 12.432H20.9851C21.0385 13.2533 21.2945 13.9093 21.7531 14.4C22.2225 14.8907 22.8305 15.136 23.5771 15.136C23.9505 15.136 24.2918 15.0827 24.6011 14.976C24.9211 14.8587 25.2251 14.7093 25.5131 14.528L25.9771 15.392C25.6465 15.6053 25.2678 15.792 24.8411 15.952C24.4251 16.112 23.9505 16.192 23.4171 16.192ZM20.9691 11.488H25.1291C25.1291 10.6987 24.9585 10.1013 24.6171 9.696C24.2865 9.28 23.8171 9.072 23.2091 9.072C22.6651 9.072 22.1745 9.28533 21.7371 9.712C21.3105 10.128 21.0545 10.72 20.9691 11.488ZM29.7759 16.192C29.1252 16.192 28.5812 16 28.1439 15.616C27.7172 15.2213 27.5039 14.6773 27.5039 13.984C27.5039 13.1307 27.8825 12.48 28.6399 12.032C29.4079 11.5733 30.6185 11.2533 32.2719 11.072C32.2719 10.7413 32.2239 10.4267 32.1279 10.128C32.0425 9.82933 31.8825 9.58933 31.6479 9.408C31.4239 9.216 31.0985 9.12 30.6719 9.12C30.2239 9.12 29.8025 9.20533 29.4079 9.376C29.0132 9.54667 28.6612 9.73867 28.3519 9.952L27.8399 9.04C28.2025 8.80533 28.6452 8.58133 29.1679 8.368C29.7012 8.144 30.2772 8.032 30.8959 8.032C31.8452 8.032 32.5332 8.32533 32.9599 8.912C33.3865 9.488 33.5999 10.2613 33.5999 11.232V16H32.5119L32.3999 15.072H32.3519C31.9892 15.3707 31.5892 15.632 31.1519 15.856C30.7252 16.08 30.2665 16.192 29.7759 16.192ZM30.1599 15.136C30.5332 15.136 30.8852 15.0453 31.2159 14.864C31.5465 14.6827 31.8985 14.4267 32.2719 14.096V11.936C30.9812 12.096 30.0745 12.336 29.5519 12.656C29.0399 12.976 28.7839 13.3867 28.7839 13.888C28.7839 14.3253 28.9172 14.6453 29.1839 14.848C29.4505 15.04 29.7759 15.136 30.1599 15.136ZM36.0464 16V8.224H37.1344L37.2464 9.344H37.2944C37.6357 8.97067 38.009 8.66133 38.4144 8.416C38.8197 8.16 39.2517 8.032 39.7104 8.032C40.3077 8.032 40.7717 8.16533 41.1024 8.432C41.4437 8.688 41.6944 9.05067 41.8544 9.52C42.2597 9.08267 42.6704 8.72533 43.0864 8.448C43.5024 8.17067 43.945 8.032 44.4144 8.032C45.2144 8.032 45.8064 8.29333 46.1904 8.816C46.585 9.328 46.7824 10.08 46.7824 11.072V16H45.4704V11.248C45.4704 10.5227 45.353 9.99467 45.1184 9.664C44.8837 9.33333 44.521 9.168 44.0304 9.168C43.4544 9.168 42.8037 9.568 42.0784 10.368V16H40.7664V11.248C40.7664 10.5227 40.649 9.99467 40.4144 9.664C40.1797 9.33333 39.8117 9.168 39.3104 9.168C38.7344 9.168 38.0837 9.568 37.3584 10.368V16H36.0464Z" fill="white"/>
</g>
</svg>
