<svg width="235" height="22" viewBox="0 0 235 22" fill="none" xmlns="http://www.w3.org/2000/svg">
<mask id="mask0_3_2498" style="mask-type:luminance" maskUnits="userSpaceOnUse" x="0" y="0" width="235" height="22">
<path d="M235 0H0V22H235V0Z" fill="white"/>
</mask>
<g mask="url(#mask0_3_2498)">
<path d="M1.386 17.5V5.764H4.032V15.268H8.676V17.5H1.386ZM14.2363 17.716C13.3843 17.716 12.6163 17.53 11.9323 17.158C11.2483 16.786 10.7083 16.252 10.3123 15.556C9.91631 14.86 9.71831 14.02 9.71831 13.036C9.71831 12.064 9.91631 11.23 10.3123 10.534C10.7203 9.838 11.2483 9.304 11.8963 8.932C12.5443 8.548 13.2223 8.356 13.9303 8.356C14.7823 8.356 15.4843 8.548 16.0363 8.932C16.6003 9.304 17.0203 9.814 17.2963 10.462C17.5843 11.098 17.7283 11.824 17.7283 12.64C17.7283 12.868 17.7163 13.096 17.6923 13.324C17.6683 13.54 17.6443 13.702 17.6203 13.81H12.2743C12.3943 14.458 12.6643 14.938 13.0843 15.25C13.5043 15.55 14.0083 15.7 14.5963 15.7C15.2323 15.7 15.8743 15.502 16.5223 15.106L17.4043 16.708C16.9483 17.02 16.4383 17.266 15.8743 17.446C15.3103 17.626 14.7643 17.716 14.2363 17.716ZM12.2563 12.064H15.4783C15.4783 11.572 15.3583 11.17 15.1183 10.858C14.8903 10.534 14.5123 10.372 13.9843 10.372C13.5763 10.372 13.2103 10.516 12.8863 10.804C12.5623 11.08 12.3523 11.5 12.2563 12.064ZM21.6134 17.716C20.7974 17.716 20.1494 17.458 19.6694 16.942C19.1894 16.414 18.9494 15.772 18.9494 15.016C18.9494 14.08 19.3454 13.348 20.1374 12.82C20.9294 12.292 22.2074 11.938 23.9714 11.758C23.9474 11.362 23.8274 11.05 23.6114 10.822C23.4074 10.582 23.0594 10.462 22.5674 10.462C22.1954 10.462 21.8174 10.534 21.4334 10.678C21.0494 10.822 20.6414 11.02 20.2094 11.272L19.2554 9.526C19.8194 9.178 20.4194 8.896 21.0554 8.68C21.7034 8.464 22.3754 8.356 23.0714 8.356C24.2114 8.356 25.0874 8.686 25.6994 9.346C26.3114 10.006 26.6174 11.02 26.6174 12.388V17.5H24.4574L24.2774 16.582H24.2054C23.8334 16.918 23.4314 17.194 22.9994 17.41C22.5794 17.614 22.1174 17.716 21.6134 17.716ZM22.5134 15.664C22.8134 15.664 23.0714 15.598 23.2874 15.466C23.5154 15.322 23.7434 15.136 23.9714 14.908V13.342C23.0354 13.462 22.3874 13.654 22.0274 13.918C21.6674 14.17 21.4874 14.47 21.4874 14.818C21.4874 15.106 21.5774 15.322 21.7574 15.466C21.9494 15.598 22.2014 15.664 22.5134 15.664ZM32.0415 21.298C31.3455 21.298 30.7155 21.22 30.1515 21.064C29.5875 20.908 29.1375 20.662 28.8015 20.326C28.4655 19.99 28.2975 19.558 28.2975 19.03C28.2975 18.31 28.7235 17.71 29.5755 17.23V17.158C29.3475 17.002 29.1495 16.804 28.9815 16.564C28.8255 16.324 28.7475 16.018 28.7475 15.646C28.7475 15.322 28.8435 15.01 29.0355 14.71C29.2275 14.41 29.4675 14.164 29.7555 13.972V13.9C29.4435 13.684 29.1615 13.372 28.9095 12.964C28.6695 12.556 28.5495 12.094 28.5495 11.578C28.5495 10.858 28.7235 10.264 29.0715 9.796C29.4195 9.316 29.8755 8.956 30.4395 8.716C31.0035 8.476 31.6035 8.356 32.2395 8.356C32.7675 8.356 33.2295 8.428 33.6255 8.572H36.8835V10.498H35.4615C35.5455 10.63 35.6115 10.798 35.6595 11.002C35.7195 11.206 35.7495 11.428 35.7495 11.668C35.7495 12.352 35.5935 12.916 35.2815 13.36C34.9695 13.804 34.5495 14.134 34.0215 14.35C33.4935 14.566 32.8995 14.674 32.2395 14.674C31.8915 14.674 31.5315 14.614 31.1595 14.494C30.9435 14.674 30.8355 14.896 30.8355 15.16C30.8355 15.388 30.9375 15.556 31.1415 15.664C31.3455 15.772 31.6935 15.826 32.1855 15.826H33.6255C34.7295 15.826 35.5695 16.006 36.1455 16.366C36.7335 16.714 37.0275 17.29 37.0275 18.094C37.0275 18.706 36.8235 19.252 36.4155 19.732C36.0075 20.224 35.4315 20.608 34.6875 20.884C33.9435 21.16 33.0615 21.298 32.0415 21.298ZM32.2395 13.072C32.5875 13.072 32.8755 12.946 33.1035 12.694C33.3435 12.442 33.4635 12.07 33.4635 11.578C33.4635 11.11 33.3435 10.756 33.1035 10.516C32.8755 10.264 32.5875 10.138 32.2395 10.138C31.8915 10.138 31.5975 10.258 31.3575 10.498C31.1295 10.738 31.0155 11.098 31.0155 11.578C31.0155 12.07 31.1295 12.442 31.3575 12.694C31.5975 12.946 31.8915 13.072 32.2395 13.072ZM32.4555 19.642C33.0555 19.642 33.5475 19.534 33.9315 19.318C34.3155 19.102 34.5075 18.844 34.5075 18.544C34.5075 18.268 34.3875 18.082 34.1475 17.986C33.9195 17.89 33.5835 17.842 33.1395 17.842H32.2215C31.9215 17.842 31.6695 17.83 31.4655 17.806C31.2735 17.794 31.1055 17.77 30.9615 17.734C30.6375 18.022 30.4755 18.316 30.4755 18.616C30.4755 18.952 30.6555 19.204 31.0155 19.372C31.3875 19.552 31.8675 19.642 32.4555 19.642ZM41.1528 17.716C40.1808 17.716 39.4728 17.398 39.0288 16.762C38.5968 16.114 38.3808 15.232 38.3808 14.116V8.572H41.0268V13.774C41.0268 14.41 41.1168 14.854 41.2968 15.106C41.4768 15.346 41.7588 15.466 42.1428 15.466C42.4788 15.466 42.7608 15.388 42.9888 15.232C43.2168 15.076 43.4628 14.824 43.7268 14.476V8.572H46.3728V17.5H44.2128L44.0148 16.258H43.9608C43.5888 16.702 43.1808 17.056 42.7368 17.32C42.2928 17.584 41.7648 17.716 41.1528 17.716ZM52.6973 17.716C51.8453 17.716 51.0773 17.53 50.3933 17.158C49.7093 16.786 49.1693 16.252 48.7733 15.556C48.3773 14.86 48.1793 14.02 48.1793 13.036C48.1793 12.064 48.3773 11.23 48.7733 10.534C49.1813 9.838 49.7093 9.304 50.3573 8.932C51.0053 8.548 51.6833 8.356 52.3913 8.356C53.2433 8.356 53.9453 8.548 54.4973 8.932C55.0613 9.304 55.4813 9.814 55.7573 10.462C56.0453 11.098 56.1893 11.824 56.1893 12.64C56.1893 12.868 56.1773 13.096 56.1533 13.324C56.1293 13.54 56.1053 13.702 56.0813 13.81H50.7353C50.8553 14.458 51.1253 14.938 51.5453 15.25C51.9653 15.55 52.4693 15.7 53.0573 15.7C53.6933 15.7 54.3353 15.502 54.9833 15.106L55.8653 16.708C55.4093 17.02 54.8993 17.266 54.3353 17.446C53.7713 17.626 53.2253 17.716 52.6973 17.716ZM50.7173 12.064H53.9393C53.9393 11.572 53.8193 11.17 53.5793 10.858C53.3513 10.534 52.9733 10.372 52.4453 10.372C52.0373 10.372 51.6713 10.516 51.3473 10.804C51.0233 11.08 50.8133 11.5 50.7173 12.064ZM65.4552 17.716C64.6992 17.716 63.9852 17.536 63.3132 17.176C62.6532 16.804 62.1192 16.27 61.7112 15.574C61.3032 14.866 61.0992 14.02 61.0992 13.036C61.0992 12.04 61.3032 11.194 61.7112 10.498C62.1192 9.802 62.6532 9.274 63.3132 8.914C63.9852 8.542 64.6992 8.356 65.4552 8.356C66.2112 8.356 66.9192 8.542 67.5792 8.914C68.2392 9.274 68.7732 9.802 69.1812 10.498C69.5892 11.194 69.7932 12.04 69.7932 13.036C69.7932 14.02 69.5892 14.866 69.1812 15.574C68.7732 16.27 68.2392 16.804 67.5792 17.176C66.9192 17.536 66.2112 17.716 65.4552 17.716ZM65.4552 15.574C65.9952 15.574 66.4032 15.346 66.6792 14.89C66.9552 14.422 67.0932 13.804 67.0932 13.036C67.0932 12.256 66.9552 11.638 66.6792 11.182C66.4032 10.726 65.9952 10.498 65.4552 10.498C64.9032 10.498 64.4892 10.726 64.2132 11.182C63.9492 11.638 63.8172 12.256 63.8172 13.036C63.8172 13.804 63.9492 14.422 64.2132 14.89C64.4892 15.346 64.9032 15.574 65.4552 15.574ZM71.9677 17.5V10.642H70.7797V8.68L71.9677 8.59V8.104C71.9677 7.468 72.0757 6.892 72.2917 6.376C72.5077 5.86 72.8557 5.446 73.3357 5.134C73.8157 4.822 74.4577 4.666 75.2617 4.666C75.6337 4.666 75.9757 4.702 76.2877 4.774C76.5997 4.846 76.8517 4.918 77.0437 4.99L76.5577 6.934C76.4017 6.874 76.2457 6.832 76.0897 6.808C75.9337 6.772 75.7837 6.754 75.6397 6.754C75.3157 6.754 75.0637 6.856 74.8837 7.06C74.7037 7.252 74.6137 7.576 74.6137 8.032V8.572H76.2157V10.642H74.6137V17.5H71.9677ZM81.4719 17.5V5.764H84.1179V15.268H88.7619V17.5H81.4719ZM94.3223 17.716C93.4703 17.716 92.7023 17.53 92.0183 17.158C91.3343 16.786 90.7943 16.252 90.3983 15.556C90.0023 14.86 89.8043 14.02 89.8043 13.036C89.8043 12.064 90.0023 11.23 90.3983 10.534C90.8063 9.838 91.3343 9.304 91.9823 8.932C92.6303 8.548 93.3083 8.356 94.0163 8.356C94.8683 8.356 95.5703 8.548 96.1223 8.932C96.6863 9.304 97.1063 9.814 97.3823 10.462C97.6703 11.098 97.8143 11.824 97.8143 12.64C97.8143 12.868 97.8023 13.096 97.7783 13.324C97.7543 13.54 97.7303 13.702 97.7063 13.81H92.3603C92.4803 14.458 92.7503 14.938 93.1703 15.25C93.5903 15.55 94.0943 15.7 94.6823 15.7C95.3183 15.7 95.9603 15.502 96.6083 15.106L97.4903 16.708C97.0343 17.02 96.5243 17.266 95.9603 17.446C95.3963 17.626 94.8503 17.716 94.3223 17.716ZM92.3423 12.064H95.5643C95.5643 11.572 95.4443 11.17 95.2043 10.858C94.9763 10.534 94.5983 10.372 94.0703 10.372C93.6623 10.372 93.2963 10.516 92.9723 10.804C92.6483 11.08 92.4383 11.5 92.3423 12.064ZM102.653 21.298C101.957 21.298 101.327 21.22 100.763 21.064C100.199 20.908 99.7489 20.662 99.4129 20.326C99.0769 19.99 98.9089 19.558 98.9089 19.03C98.9089 18.31 99.3349 17.71 100.187 17.23V17.158C99.9589 17.002 99.7609 16.804 99.5929 16.564C99.4369 16.324 99.3589 16.018 99.3589 15.646C99.3589 15.322 99.4549 15.01 99.6469 14.71C99.8389 14.41 100.079 14.164 100.367 13.972V13.9C100.055 13.684 99.7729 13.372 99.5209 12.964C99.2809 12.556 99.1609 12.094 99.1609 11.578C99.1609 10.858 99.3349 10.264 99.6829 9.796C100.031 9.316 100.487 8.956 101.051 8.716C101.615 8.476 102.215 8.356 102.851 8.356C103.379 8.356 103.841 8.428 104.237 8.572H107.495V10.498H106.073C106.157 10.63 106.223 10.798 106.271 11.002C106.331 11.206 106.361 11.428 106.361 11.668C106.361 12.352 106.205 12.916 105.893 13.36C105.581 13.804 105.161 14.134 104.633 14.35C104.105 14.566 103.511 14.674 102.851 14.674C102.503 14.674 102.143 14.614 101.771 14.494C101.555 14.674 101.447 14.896 101.447 15.16C101.447 15.388 101.549 15.556 101.753 15.664C101.957 15.772 102.305 15.826 102.797 15.826H104.237C105.341 15.826 106.181 16.006 106.757 16.366C107.345 16.714 107.639 17.29 107.639 18.094C107.639 18.706 107.435 19.252 107.027 19.732C106.619 20.224 106.043 20.608 105.299 20.884C104.555 21.16 103.673 21.298 102.653 21.298ZM102.851 13.072C103.199 13.072 103.487 12.946 103.715 12.694C103.955 12.442 104.075 12.07 104.075 11.578C104.075 11.11 103.955 10.756 103.715 10.516C103.487 10.264 103.199 10.138 102.851 10.138C102.503 10.138 102.209 10.258 101.969 10.498C101.741 10.738 101.627 11.098 101.627 11.578C101.627 12.07 101.741 12.442 101.969 12.694C102.209 12.946 102.503 13.072 102.851 13.072ZM103.067 19.642C103.667 19.642 104.159 19.534 104.543 19.318C104.927 19.102 105.119 18.844 105.119 18.544C105.119 18.268 104.999 18.082 104.759 17.986C104.531 17.89 104.195 17.842 103.751 17.842H102.833C102.533 17.842 102.281 17.83 102.077 17.806C101.885 17.794 101.717 17.77 101.573 17.734C101.249 18.022 101.087 18.316 101.087 18.616C101.087 18.952 101.267 19.204 101.627 19.372C101.999 19.552 102.479 19.642 103.067 19.642ZM112.762 17.716C111.91 17.716 111.142 17.53 110.458 17.158C109.774 16.786 109.234 16.252 108.838 15.556C108.442 14.86 108.244 14.02 108.244 13.036C108.244 12.064 108.442 11.23 108.838 10.534C109.246 9.838 109.774 9.304 110.422 8.932C111.07 8.548 111.748 8.356 112.456 8.356C113.308 8.356 114.01 8.548 114.562 8.932C115.126 9.304 115.546 9.814 115.822 10.462C116.11 11.098 116.254 11.824 116.254 12.64C116.254 12.868 116.242 13.096 116.218 13.324C116.194 13.54 116.17 13.702 116.146 13.81H110.8C110.92 14.458 111.19 14.938 111.61 15.25C112.03 15.55 112.534 15.7 113.122 15.7C113.758 15.7 114.4 15.502 115.048 15.106L115.93 16.708C115.474 17.02 114.964 17.266 114.4 17.446C113.836 17.626 113.29 17.716 112.762 17.716ZM110.782 12.064H114.004C114.004 11.572 113.884 11.17 113.644 10.858C113.416 10.534 113.038 10.372 112.51 10.372C112.102 10.372 111.736 10.516 111.412 10.804C111.088 11.08 110.878 11.5 110.782 12.064ZM118.082 17.5V8.572H120.242L120.422 9.706H120.494C120.878 9.346 121.298 9.034 121.754 8.77C122.222 8.494 122.756 8.356 123.356 8.356C124.328 8.356 125.03 8.68 125.462 9.328C125.906 9.964 126.128 10.84 126.128 11.956V17.5H123.482V12.298C123.482 11.65 123.392 11.206 123.212 10.966C123.044 10.726 122.768 10.606 122.384 10.606C122.048 10.606 121.76 10.684 121.52 10.84C121.28 10.984 121.016 11.194 120.728 11.47V17.5H118.082ZM131.569 17.716C130.465 17.716 129.577 17.302 128.905 16.474C128.245 15.634 127.915 14.488 127.915 13.036C127.915 12.064 128.089 11.23 128.437 10.534C128.797 9.826 129.259 9.286 129.823 8.914C130.399 8.542 130.999 8.356 131.623 8.356C132.115 8.356 132.529 8.44 132.865 8.608C133.201 8.776 133.519 9.004 133.819 9.292L133.711 7.924V4.882H136.357V17.5H134.197L134.017 16.618H133.945C133.633 16.93 133.267 17.194 132.847 17.41C132.427 17.614 132.001 17.716 131.569 17.716ZM132.253 15.556C132.541 15.556 132.799 15.496 133.027 15.376C133.267 15.256 133.495 15.046 133.711 14.746V11.092C133.483 10.876 133.237 10.726 132.973 10.642C132.721 10.558 132.475 10.516 132.235 10.516C131.815 10.516 131.443 10.72 131.119 11.128C130.795 11.524 130.633 12.148 130.633 13C130.633 13.876 130.771 14.524 131.047 14.944C131.335 15.352 131.737 15.556 132.253 15.556ZM141.329 17.716C140.741 17.716 140.135 17.602 139.511 17.374C138.899 17.146 138.365 16.846 137.909 16.474L139.097 14.818C139.505 15.118 139.895 15.352 140.267 15.52C140.651 15.676 141.029 15.754 141.401 15.754C141.797 15.754 142.085 15.688 142.265 15.556C142.445 15.412 142.535 15.226 142.535 14.998C142.535 14.794 142.445 14.626 142.265 14.494C142.097 14.362 141.875 14.242 141.599 14.134C141.323 14.014 141.029 13.894 140.717 13.774C140.357 13.63 139.997 13.45 139.637 13.234C139.289 13.018 138.995 12.742 138.755 12.406C138.515 12.058 138.395 11.638 138.395 11.146C138.395 10.318 138.707 9.646 139.331 9.13C139.967 8.614 140.795 8.356 141.815 8.356C142.499 8.356 143.099 8.476 143.615 8.716C144.143 8.944 144.593 9.202 144.965 9.49L143.777 11.074C143.465 10.834 143.153 10.648 142.841 10.516C142.529 10.384 142.217 10.318 141.905 10.318C141.221 10.318 140.879 10.552 140.879 11.02C140.879 11.308 141.047 11.53 141.383 11.686C141.731 11.83 142.133 11.986 142.589 12.154C142.973 12.286 143.345 12.46 143.705 12.676C144.077 12.88 144.383 13.156 144.623 13.504C144.875 13.84 145.001 14.284 145.001 14.836C145.001 15.64 144.689 16.324 144.065 16.888C143.441 17.44 142.529 17.716 141.329 17.716Z" fill="white"/>
</g>
</svg>
