<svg width="72" height="20" viewBox="0 0 72 20" fill="none" xmlns="http://www.w3.org/2000/svg">
<mask id="mask0_3_3201" style="mask-type:luminance" maskUnits="userSpaceOnUse" x="0" y="0" width="72" height="20">
<path d="M72 0H0V20H72V0Z" fill="white"/>
</mask>
<g mask="url(#mask0_3_3201)">
<path d="M1.44 16V5.504H2.768V14.864H7.36V16H1.44ZM12.0578 16.192C11.3644 16.192 10.7351 16.032 10.1698 15.712C9.60442 15.3813 9.15642 14.912 8.82575 14.304C8.49508 13.696 8.32975 12.9707 8.32975 12.128C8.32975 11.2747 8.49508 10.544 8.82575 9.936C9.16708 9.328 9.60442 8.85867 10.1378 8.528C10.6711 8.19733 11.2311 8.032 11.8177 8.032C12.8098 8.032 13.5724 8.36267 14.1058 9.024C14.6498 9.68533 14.9218 10.5707 14.9218 11.68C14.9218 11.8187 14.9164 11.9573 14.9058 12.096C14.9058 12.224 14.8951 12.336 14.8738 12.432H9.62575C9.67908 13.2533 9.93508 13.9093 10.3938 14.4C10.8631 14.8907 11.4711 15.136 12.2178 15.136C12.5911 15.136 12.9324 15.0827 13.2418 14.976C13.5618 14.8587 13.8658 14.7093 14.1538 14.528L14.6178 15.392C14.2871 15.6053 13.9084 15.792 13.4818 15.952C13.0658 16.112 12.5911 16.192 12.0578 16.192ZM9.60975 11.488H13.7698C13.7698 10.6987 13.5991 10.1013 13.2578 9.696C12.9271 9.28 12.4578 9.072 11.8498 9.072C11.3058 9.072 10.8151 9.28533 10.3778 9.712C9.95108 10.128 9.69508 10.72 9.60975 11.488ZM18.4165 16.192C17.7658 16.192 17.2218 16 16.7845 15.616C16.3578 15.2213 16.1445 14.6773 16.1445 13.984C16.1445 13.1307 16.5232 12.48 17.2805 12.032C18.0485 11.5733 19.2592 11.2533 20.9125 11.072C20.9125 10.7413 20.8645 10.4267 20.7685 10.128C20.6832 9.82933 20.5232 9.58933 20.2885 9.408C20.0645 9.216 19.7392 9.12 19.3125 9.12C18.8645 9.12 18.4432 9.20533 18.0485 9.376C17.6538 9.54667 17.3018 9.73867 16.9925 9.952L16.4805 9.04C16.8432 8.80533 17.2858 8.58133 17.8085 8.368C18.3418 8.144 18.9178 8.032 19.5365 8.032C20.4858 8.032 21.1738 8.32533 21.6005 8.912C22.0272 9.488 22.2405 10.2613 22.2405 11.232V16H21.1525L21.0405 15.072H20.9925C20.6298 15.3707 20.2298 15.632 19.7925 15.856C19.3658 16.08 18.9072 16.192 18.4165 16.192ZM18.8005 15.136C19.1738 15.136 19.5258 15.0453 19.8565 14.864C20.1872 14.6827 20.5392 14.4267 20.9125 14.096V11.936C19.6218 12.096 18.7152 12.336 18.1925 12.656C17.6805 12.976 17.4245 13.3867 17.4245 13.888C17.4245 14.3253 17.5578 14.6453 17.8245 14.848C18.0912 15.04 18.4165 15.136 18.8005 15.136ZM27.343 16.192C26.3723 16.192 25.5937 15.84 25.007 15.136C24.4203 14.4213 24.127 13.4187 24.127 12.128C24.127 11.2853 24.2817 10.56 24.591 9.952C24.911 9.33333 25.327 8.85867 25.839 8.528C26.3617 8.19733 26.9163 8.032 27.503 8.032C27.951 8.032 28.3403 8.112 28.671 8.272C29.0017 8.432 29.3377 8.65067 29.679 8.928L29.615 7.6V4.608H30.943V16H29.855L29.743 15.088H29.695C29.3963 15.3867 29.0443 15.648 28.639 15.872C28.2337 16.0853 27.8017 16.192 27.343 16.192ZM27.631 15.088C28.3137 15.088 28.975 14.7307 29.615 14.016V9.952C29.2843 9.65333 28.9643 9.44533 28.655 9.328C28.3563 9.2 28.047 9.136 27.727 9.136C27.311 9.136 26.9323 9.264 26.591 9.52C26.2603 9.76533 25.9937 10.112 25.791 10.56C25.5883 10.9973 25.487 11.5147 25.487 12.112C25.487 13.04 25.6737 13.7707 26.047 14.304C26.4203 14.8267 26.9483 15.088 27.631 15.088ZM36.714 16.192C36.0207 16.192 35.3913 16.032 34.826 15.712C34.2607 15.3813 33.8127 14.912 33.482 14.304C33.1513 13.696 32.986 12.9707 32.986 12.128C32.986 11.2747 33.1513 10.544 33.482 9.936C33.8233 9.328 34.2607 8.85867 34.794 8.528C35.3273 8.19733 35.8873 8.032 36.474 8.032C37.466 8.032 38.2287 8.36267 38.762 9.024C39.306 9.68533 39.578 10.5707 39.578 11.68C39.578 11.8187 39.5727 11.9573 39.562 12.096C39.562 12.224 39.5513 12.336 39.53 12.432H34.282C34.3353 13.2533 34.5913 13.9093 35.05 14.4C35.5193 14.8907 36.1273 15.136 36.874 15.136C37.2473 15.136 37.5887 15.0827 37.898 14.976C38.218 14.8587 38.522 14.7093 38.81 14.528L39.274 15.392C38.9433 15.6053 38.5647 15.792 38.138 15.952C37.722 16.112 37.2473 16.192 36.714 16.192ZM34.266 11.488H38.426C38.426 10.6987 38.2553 10.1013 37.914 9.696C37.5833 9.28 37.114 9.072 36.506 9.072C35.962 9.072 35.4713 9.28533 35.034 9.712C34.6073 10.128 34.3513 10.72 34.266 11.488ZM41.4995 16V8.224H42.5875L42.6995 9.632H42.7475C43.0142 9.14133 43.3395 8.752 43.7235 8.464C44.1075 8.176 44.5182 8.032 44.9555 8.032C45.2648 8.032 45.5422 8.08533 45.7875 8.192L45.5315 9.344C45.4035 9.30133 45.2862 9.26933 45.1795 9.248C45.0728 9.22667 44.9395 9.216 44.7795 9.216C44.4488 9.216 44.1022 9.34933 43.7395 9.616C43.3875 9.88267 43.0782 10.3467 42.8115 11.008V16H41.4995ZM50.4864 16.192C50.1237 16.192 49.745 16.1067 49.3504 15.936C48.9664 15.7547 48.6037 15.5093 48.2624 15.2H48.2144L48.1024 16H47.0464V4.608H48.3584V7.712L48.3264 9.12C48.6784 8.81067 49.0624 8.55467 49.4784 8.352C49.905 8.13867 50.3317 8.032 50.7584 8.032C51.7717 8.032 52.5397 8.38933 53.0624 9.104C53.585 9.81867 53.8464 10.7787 53.8464 11.984C53.8464 12.8693 53.6864 13.6267 53.3664 14.256C53.057 14.8853 52.6464 15.3653 52.1344 15.696C51.633 16.0267 51.0837 16.192 50.4864 16.192ZM50.2624 15.088C50.9024 15.088 51.4304 14.816 51.8464 14.272C52.273 13.7173 52.4864 12.96 52.4864 12C52.4864 11.1467 52.3264 10.4587 52.0064 9.936C51.697 9.40267 51.1744 9.136 50.4384 9.136C50.1077 9.136 49.7717 9.22667 49.4304 9.408C49.089 9.58933 48.7317 9.85067 48.3584 10.192V14.272C48.6997 14.5707 49.0357 14.784 49.3664 14.912C49.7077 15.0293 50.0064 15.088 50.2624 15.088ZM58.9141 16.192C58.2848 16.192 57.6928 16.032 57.1381 15.712C56.5941 15.392 56.1515 14.928 55.8101 14.32C55.4795 13.712 55.3141 12.9813 55.3141 12.128C55.3141 11.2533 55.4795 10.512 55.8101 9.904C56.1515 9.296 56.5941 8.832 57.1381 8.512C57.6928 8.192 58.2848 8.032 58.9141 8.032C59.5541 8.032 60.1461 8.192 60.6901 8.512C61.2341 8.832 61.6715 9.296 62.0021 9.904C62.3435 10.512 62.5141 11.2533 62.5141 12.128C62.5141 12.9813 62.3435 13.712 62.0021 14.32C61.6715 14.928 61.2341 15.392 60.6901 15.712C60.1461 16.032 59.5541 16.192 58.9141 16.192ZM58.9141 15.104C59.5861 15.104 60.1248 14.832 60.5301 14.288C60.9461 13.7333 61.1541 13.0133 61.1541 12.128C61.1541 11.232 60.9461 10.5067 60.5301 9.952C60.1248 9.39733 59.5861 9.12 58.9141 9.12C58.2528 9.12 57.7141 9.39733 57.2981 9.952C56.8821 10.5067 56.6741 11.232 56.6741 12.128C56.6741 13.0133 56.8821 13.7333 57.2981 14.288C57.7141 14.832 58.2528 15.104 58.9141 15.104ZM66.1353 16.192C65.4846 16.192 64.9406 16 64.5033 15.616C64.0766 15.2213 63.8633 14.6773 63.8633 13.984C63.8633 13.1307 64.2419 12.48 64.9993 12.032C65.7673 11.5733 66.9779 11.2533 68.6313 11.072C68.6313 10.7413 68.5833 10.4267 68.4873 10.128C68.4019 9.82933 68.2419 9.58933 68.0073 9.408C67.7833 9.216 67.4579 9.12 67.0312 9.12C66.5833 9.12 66.1619 9.20533 65.7673 9.376C65.3726 9.54667 65.0206 9.73867 64.7113 9.952L64.1993 9.04C64.5619 8.80533 65.0046 8.58133 65.5273 8.368C66.0606 8.144 66.6366 8.032 67.2552 8.032C68.2046 8.032 68.8926 8.32533 69.3193 8.912C69.7459 9.488 69.9593 10.2613 69.9593 11.232V16H68.8713L68.7593 15.072H68.7113C68.3486 15.3707 67.9486 15.632 67.5113 15.856C67.0846 16.08 66.6259 16.192 66.1353 16.192ZM66.5193 15.136C66.8926 15.136 67.2446 15.0453 67.5753 14.864C67.9059 14.6827 68.2579 14.4267 68.6313 14.096V11.936C67.3406 12.096 66.4339 12.336 65.9113 12.656C65.3993 12.976 65.1432 13.3867 65.1432 13.888C65.1432 14.3253 65.2766 14.6453 65.5433 14.848C65.8099 15.04 66.1353 15.136 66.5193 15.136Z" fill="white"/>
</g>
</svg>
