<svg width="128" height="25" viewBox="0 0 128 25" fill="none" xmlns="http://www.w3.org/2000/svg">
<mask id="mask0_36_1820" style="mask-type:luminance" maskUnits="userSpaceOnUse" x="0" y="0" width="128" height="25">
<path d="M127.962 0.875H0.760742V24.5778H127.962V0.875Z" fill="white"/>
</mask>
<g mask="url(#mask0_36_1820)">
<path d="M7.74474 6.275C8.89674 6.275 9.75474 6.545 10.3187 7.085C10.8827 7.625 11.1647 8.423 11.1647 9.479C11.1647 10.043 11.0267 10.541 10.7507 10.973C10.4747 11.393 10.0667 11.723 9.52674 11.963C8.98674 12.191 8.32074 12.305 7.52874 12.305L7.60074 11.495C7.97274 11.495 8.39874 11.549 8.87874 11.657C9.35874 11.753 9.82074 11.933 10.2647 12.197C10.7207 12.449 11.0927 12.809 11.3807 13.277C11.6807 13.733 11.8307 14.321 11.8307 15.041C11.8307 15.833 11.6987 16.481 11.4347 16.985C11.1827 17.489 10.8467 17.879 10.4267 18.155C10.0067 18.431 9.55674 18.623 9.07674 18.731C8.59674 18.827 8.13474 18.875 7.69074 18.875H3.20874C2.89674 18.875 2.63274 18.773 2.41674 18.569C2.21274 18.353 2.11074 18.089 2.11074 17.777V7.373C2.11074 7.061 2.21274 6.803 2.41674 6.599C2.63274 6.383 2.89674 6.275 3.20874 6.275H7.74474ZM7.42074 8.399H4.21674L4.45074 8.111V11.369L4.23474 11.207H7.47474C7.82274 11.207 8.13474 11.093 8.41074 10.865C8.68674 10.637 8.82474 10.307 8.82474 9.875C8.82474 9.359 8.69274 8.987 8.42874 8.759C8.17674 8.519 7.84074 8.399 7.42074 8.399ZM7.56474 13.331H4.28874L4.45074 13.187V16.985L4.27074 16.805H7.69074C8.24274 16.805 8.68074 16.661 9.00474 16.373C9.32874 16.073 9.49074 15.629 9.49074 15.041C9.49074 14.501 9.38274 14.111 9.16674 13.871C8.95074 13.631 8.69274 13.481 8.39274 13.421C8.09274 13.361 7.81674 13.331 7.56474 13.331ZM15.2017 18.875C14.8657 18.875 14.5657 18.773 14.3017 18.569C14.0377 18.353 13.9057 18.089 13.9057 17.777V7.373C13.9057 7.061 14.0077 6.803 14.2117 6.599C14.4277 6.383 14.6917 6.275 15.0037 6.275H20.1877C20.8117 6.275 21.3937 6.443 21.9337 6.779C22.4857 7.103 22.9297 7.559 23.2657 8.147C23.6017 8.723 23.7697 9.389 23.7697 10.145C23.7697 10.601 23.6737 11.045 23.4817 11.477C23.3017 11.909 23.0497 12.299 22.7257 12.647C22.4137 12.995 22.0597 13.265 21.6637 13.457L21.6817 13.043C22.0177 13.223 22.2937 13.439 22.5097 13.691C22.7377 13.931 22.9117 14.195 23.0317 14.483C23.1637 14.759 23.2417 15.059 23.2657 15.383C23.3137 15.683 23.3437 15.947 23.3557 16.175C23.3797 16.403 23.4157 16.595 23.4637 16.751C23.5237 16.907 23.6317 17.027 23.7877 17.111C24.0517 17.267 24.2137 17.495 24.2737 17.795C24.3457 18.083 24.2797 18.341 24.0757 18.569C23.9437 18.725 23.7757 18.827 23.5717 18.875C23.3677 18.911 23.1637 18.911 22.9597 18.875C22.7557 18.827 22.5877 18.767 22.4557 18.695C22.2517 18.575 22.0477 18.401 21.8437 18.173C21.6397 17.933 21.4717 17.615 21.3397 17.219C21.2197 16.823 21.1597 16.313 21.1597 15.689C21.1597 15.485 21.1237 15.299 21.0517 15.131C20.9797 14.951 20.8777 14.801 20.7457 14.681C20.6137 14.549 20.4457 14.453 20.2417 14.393C20.0377 14.321 19.7977 14.285 19.5217 14.285H15.8857L16.1557 13.871V17.777C16.1557 18.089 16.0717 18.353 15.9037 18.569C15.7357 18.773 15.5017 18.875 15.2017 18.875ZM15.9037 12.431H20.0977C20.3137 12.431 20.5237 12.335 20.7277 12.143C20.9317 11.939 21.0997 11.669 21.2317 11.333C21.3637 10.985 21.4297 10.607 21.4297 10.199C21.4297 9.671 21.2857 9.233 20.9977 8.885C20.7217 8.525 20.4217 8.345 20.0977 8.345H15.9397L16.1557 7.769V12.863L15.9037 12.431ZM37.6793 12.575C37.6793 13.475 37.5293 14.315 37.2293 15.095C36.9293 15.875 36.5033 16.565 35.9513 17.165C35.4113 17.753 34.7633 18.215 34.0073 18.551C33.2633 18.887 32.4473 19.055 31.5593 19.055C30.6713 19.055 29.8553 18.887 29.1113 18.551C28.3673 18.215 27.7193 17.753 27.1673 17.165C26.6273 16.565 26.2073 15.875 25.9073 15.095C25.6073 14.315 25.4573 13.475 25.4573 12.575C25.4573 11.675 25.6073 10.835 25.9073 10.055C26.2073 9.275 26.6273 8.591 27.1673 8.003C27.7193 7.403 28.3673 6.935 29.1113 6.599C29.8553 6.263 30.6713 6.095 31.5593 6.095C32.4473 6.095 33.2633 6.263 34.0073 6.599C34.7633 6.935 35.4113 7.403 35.9513 8.003C36.5033 8.591 36.9293 9.275 37.2293 10.055C37.5293 10.835 37.6793 11.675 37.6793 12.575ZM35.3393 12.575C35.3393 11.771 35.1773 11.045 34.8533 10.397C34.5293 9.737 34.0853 9.215 33.5213 8.831C32.9573 8.447 32.3033 8.255 31.5593 8.255C30.8153 8.255 30.1613 8.447 29.5973 8.831C29.0333 9.215 28.5893 9.731 28.2653 10.379C27.9533 11.027 27.7973 11.759 27.7973 12.575C27.7973 13.379 27.9533 14.111 28.2653 14.771C28.5893 15.419 29.0333 15.935 29.5973 16.319C30.1613 16.703 30.8153 16.895 31.5593 16.895C32.3033 16.895 32.9573 16.703 33.5213 16.319C34.0853 15.935 34.5293 15.419 34.8533 14.771C35.1773 14.111 35.3393 13.379 35.3393 12.575ZM53.8236 6.221C54.0996 6.221 54.3636 6.329 54.6156 6.545C54.8676 6.749 54.9936 7.031 54.9936 7.391C54.9936 7.499 54.9756 7.619 54.9396 7.751L51.3936 18.191C51.3216 18.407 51.1896 18.575 50.9976 18.695C50.8176 18.803 50.6256 18.863 50.4216 18.875C50.2176 18.875 50.0136 18.815 49.8096 18.695C49.6176 18.575 49.4676 18.401 49.3596 18.173L46.6956 12.125L46.8576 12.233L44.2296 18.173C44.1216 18.401 43.9656 18.575 43.7616 18.695C43.5696 18.815 43.3716 18.875 43.1676 18.875C42.9756 18.863 42.7836 18.803 42.5916 18.695C42.3996 18.575 42.2676 18.407 42.1956 18.191L38.6496 7.751C38.6136 7.619 38.5956 7.499 38.5956 7.391C38.5956 7.031 38.7216 6.749 38.9736 6.545C39.2376 6.329 39.5076 6.221 39.7836 6.221C40.0116 6.221 40.2216 6.281 40.4136 6.401C40.6176 6.521 40.7556 6.695 40.8276 6.923L43.6896 15.599L43.2936 15.581L45.8496 9.443C45.9456 9.227 46.0836 9.059 46.2636 8.939C46.4436 8.807 46.6476 8.747 46.8756 8.759C47.1036 8.747 47.3076 8.807 47.4876 8.939C47.6676 9.059 47.7996 9.227 47.8836 9.443L50.2236 15.311L49.9356 15.491L52.7616 6.923C52.8336 6.695 52.9716 6.521 53.1756 6.401C53.3796 6.281 53.5956 6.221 53.8236 6.221ZM60.5123 19.055C59.6723 19.055 58.9163 18.953 58.2443 18.749C57.5723 18.533 56.9303 18.161 56.3183 17.633C56.1623 17.501 56.0423 17.351 55.9583 17.183C55.8743 17.015 55.8323 16.847 55.8323 16.679C55.8323 16.403 55.9283 16.163 56.1203 15.959C56.3243 15.743 56.5763 15.635 56.8763 15.635C57.1043 15.635 57.3083 15.707 57.4883 15.851C57.9443 16.223 58.3943 16.505 58.8383 16.697C59.2943 16.889 59.8523 16.985 60.5123 16.985C60.9563 16.985 61.3643 16.919 61.7363 16.787C62.1083 16.643 62.4083 16.457 62.6363 16.229C62.8643 15.989 62.9783 15.719 62.9783 15.419C62.9783 15.059 62.8703 14.753 62.6543 14.501C62.4383 14.249 62.1083 14.039 61.6643 13.871C61.2203 13.691 60.6563 13.553 59.9723 13.457C59.3243 13.361 58.7543 13.217 58.2623 13.025C57.7703 12.821 57.3563 12.569 57.0203 12.269C56.6963 11.957 56.4503 11.597 56.2823 11.189C56.1143 10.769 56.0303 10.301 56.0303 9.785C56.0303 9.005 56.2283 8.339 56.6243 7.787C57.0323 7.235 57.5783 6.815 58.2623 6.527C58.9463 6.239 59.7023 6.095 60.5303 6.095C61.3103 6.095 62.0303 6.215 62.6903 6.455C63.3623 6.683 63.9083 6.977 64.3283 7.337C64.6763 7.613 64.8503 7.931 64.8503 8.291C64.8503 8.555 64.7483 8.795 64.5443 9.011C64.3403 9.227 64.1003 9.335 63.8243 9.335C63.6443 9.335 63.4823 9.281 63.3383 9.173C63.1463 9.005 62.8883 8.849 62.5643 8.705C62.2403 8.549 61.8983 8.423 61.5383 8.327C61.1783 8.219 60.8423 8.165 60.5303 8.165C60.0143 8.165 59.5763 8.231 59.2163 8.363C58.8683 8.495 58.6043 8.675 58.4243 8.903C58.2443 9.131 58.1543 9.395 58.1543 9.695C58.1543 10.055 58.2563 10.355 58.4603 10.595C58.6763 10.823 58.9823 11.009 59.3783 11.153C59.7743 11.285 60.2483 11.405 60.8003 11.513C61.5203 11.645 62.1503 11.801 62.6903 11.981C63.2423 12.161 63.6983 12.395 64.0583 12.683C64.4183 12.959 64.6883 13.313 64.8683 13.745C65.0483 14.165 65.1383 14.681 65.1383 15.293C65.1383 16.073 64.9223 16.745 64.4903 17.309C64.0583 17.873 63.4883 18.305 62.7803 18.605C62.0843 18.905 61.3283 19.055 60.5123 19.055ZM68.3005 6.275H74.3305C74.6425 6.275 74.9005 6.377 75.1045 6.581C75.3205 6.773 75.4285 7.025 75.4285 7.337C75.4285 7.637 75.3205 7.883 75.1045 8.075C74.9005 8.255 74.6425 8.345 74.3305 8.345H69.2905L69.4525 8.039V11.549L69.3085 11.405H73.5205C73.8325 11.405 74.0905 11.507 74.2945 11.711C74.5105 11.903 74.6185 12.155 74.6185 12.467C74.6185 12.767 74.5105 13.013 74.2945 13.205C74.0905 13.385 73.8325 13.475 73.5205 13.475H69.3625L69.4525 13.331V16.967L69.3085 16.805H74.3305C74.6425 16.805 74.9005 16.913 75.1045 17.129C75.3205 17.333 75.4285 17.573 75.4285 17.849C75.4285 18.149 75.3205 18.395 75.1045 18.587C74.9005 18.779 74.6425 18.875 74.3305 18.875H68.3005C67.9885 18.875 67.7245 18.773 67.5085 18.569C67.3045 18.353 67.2025 18.089 67.2025 17.777V7.373C67.2025 7.061 67.3045 6.803 67.5085 6.599C67.7245 6.383 67.9885 6.275 68.3005 6.275ZM7.74474 29.275C8.89674 29.275 9.75474 29.545 10.3187 30.085C10.8827 30.625 11.1647 31.423 11.1647 32.479C11.1647 33.043 11.0267 33.541 10.7507 33.973C10.4747 34.393 10.0667 34.723 9.52674 34.963C8.98674 35.191 8.32074 35.305 7.52874 35.305L7.60074 34.495C7.97274 34.495 8.39874 34.549 8.87874 34.657C9.35874 34.753 9.82074 34.933 10.2647 35.197C10.7207 35.449 11.0927 35.809 11.3807 36.277C11.6807 36.733 11.8307 37.321 11.8307 38.041C11.8307 38.833 11.6987 39.481 11.4347 39.985C11.1827 40.489 10.8467 40.879 10.4267 41.155C10.0067 41.431 9.55674 41.623 9.07674 41.731C8.59674 41.827 8.13474 41.875 7.69074 41.875H3.20874C2.89674 41.875 2.63274 41.773 2.41674 41.569C2.21274 41.353 2.11074 41.089 2.11074 40.777V30.373C2.11074 30.061 2.21274 29.803 2.41674 29.599C2.63274 29.383 2.89674 29.275 3.20874 29.275H7.74474ZM7.42074 31.399H4.21674L4.45074 31.111V34.369L4.23474 34.207H7.47474C7.82274 34.207 8.13474 34.093 8.41074 33.865C8.68674 33.637 8.82474 33.307 8.82474 32.875C8.82474 32.359 8.69274 31.987 8.42874 31.759C8.17674 31.519 7.84074 31.399 7.42074 31.399ZM7.56474 36.331H4.28874L4.45074 36.187V39.985L4.27074 39.805H7.69074C8.24274 39.805 8.68074 39.661 9.00474 39.373C9.32874 39.073 9.49074 38.629 9.49074 38.041C9.49074 37.501 9.38274 37.111 9.16674 36.871C8.95074 36.631 8.69274 36.481 8.39274 36.421C8.09274 36.361 7.81674 36.331 7.56474 36.331ZM15.0037 29.275H21.0337C21.3457 29.275 21.6037 29.377 21.8077 29.581C22.0237 29.773 22.1317 30.025 22.1317 30.337C22.1317 30.637 22.0237 30.883 21.8077 31.075C21.6037 31.255 21.3457 31.345 21.0337 31.345H15.9937L16.1557 31.039V34.549L16.0117 34.405H20.2237C20.5357 34.405 20.7937 34.507 20.9977 34.711C21.2137 34.903 21.3217 35.155 21.3217 35.467C21.3217 35.767 21.2137 36.013 20.9977 36.205C20.7937 36.385 20.5357 36.475 20.2237 36.475H16.0657L16.1557 36.331V39.967L16.0117 39.805H21.0337C21.3457 39.805 21.6037 39.913 21.8077 40.129C22.0237 40.333 22.1317 40.573 22.1317 40.849C22.1317 41.149 22.0237 41.395 21.8077 41.587C21.6037 41.779 21.3457 41.875 21.0337 41.875H15.0037C14.6917 41.875 14.4277 41.773 14.2117 41.569C14.0077 41.353 13.9057 41.089 13.9057 40.777V30.373C13.9057 30.061 14.0077 29.803 14.2117 29.599C14.4277 29.383 14.6917 29.275 15.0037 29.275ZM28.4724 41.875C28.1364 41.875 27.8604 41.773 27.6444 41.569C27.4284 41.353 27.3204 41.089 27.3204 40.777V30.337H29.6604V40.777C29.6604 41.089 29.5464 41.353 29.3184 41.569C29.1024 41.773 28.8204 41.875 28.4724 41.875ZM24.4944 31.345C24.1824 31.345 23.9184 31.249 23.7024 31.057C23.4984 30.865 23.3964 30.613 23.3964 30.301C23.3964 29.989 23.4984 29.743 23.7024 29.563C23.9184 29.371 24.1824 29.275 24.4944 29.275H32.4864C32.7984 29.275 33.0564 29.371 33.2604 29.563C33.4764 29.755 33.5844 30.007 33.5844 30.319C33.5844 30.631 33.4764 30.883 33.2604 31.075C33.0564 31.255 32.7984 31.345 32.4864 31.345H24.4944ZM39.524 42.055C38.684 42.055 37.928 41.953 37.256 41.749C36.584 41.533 35.942 41.161 35.33 40.633C35.174 40.501 35.054 40.351 34.97 40.183C34.886 40.015 34.844 39.847 34.844 39.679C34.844 39.403 34.94 39.163 35.132 38.959C35.336 38.743 35.588 38.635 35.888 38.635C36.116 38.635 36.32 38.707 36.5 38.851C36.956 39.223 37.406 39.505 37.85 39.697C38.306 39.889 38.864 39.985 39.524 39.985C39.968 39.985 40.376 39.919 40.748 39.787C41.12 39.643 41.42 39.457 41.648 39.229C41.876 38.989 41.99 38.719 41.99 38.419C41.99 38.059 41.882 37.753 41.666 37.501C41.45 37.249 41.12 37.039 40.676 36.871C40.232 36.691 39.668 36.553 38.984 36.457C38.336 36.361 37.766 36.217 37.274 36.025C36.782 35.821 36.368 35.569 36.032 35.269C35.708 34.957 35.462 34.597 35.294 34.189C35.126 33.769 35.042 33.301 35.042 32.785C35.042 32.005 35.24 31.339 35.636 30.787C36.044 30.235 36.59 29.815 37.274 29.527C37.958 29.239 38.714 29.095 39.542 29.095C40.322 29.095 41.042 29.215 41.702 29.455C42.374 29.683 42.92 29.977 43.34 30.337C43.688 30.613 43.862 30.931 43.862 31.291C43.862 31.555 43.76 31.795 43.556 32.011C43.352 32.227 43.112 32.335 42.836 32.335C42.656 32.335 42.494 32.281 42.35 32.173C42.158 32.005 41.9 31.849 41.576 31.705C41.252 31.549 40.91 31.423 40.55 31.327C40.19 31.219 39.854 31.165 39.542 31.165C39.026 31.165 38.588 31.231 38.228 31.363C37.88 31.495 37.616 31.675 37.436 31.903C37.256 32.131 37.166 32.395 37.166 32.695C37.166 33.055 37.268 33.355 37.472 33.595C37.688 33.823 37.994 34.009 38.39 34.153C38.786 34.285 39.26 34.405 39.812 34.513C40.532 34.645 41.162 34.801 41.702 34.981C42.254 35.161 42.71 35.395 43.07 35.683C43.43 35.959 43.7 36.313 43.88 36.745C44.06 37.165 44.15 37.681 44.15 38.293C44.15 39.073 43.934 39.745 43.502 40.309C43.07 40.873 42.5 41.305 41.792 41.605C41.096 41.905 40.34 42.055 39.524 42.055Z" fill="#40484D"/>
</g>
</svg>
