<svg width="50" height="23" viewBox="0 0 50 23" fill="none" xmlns="http://www.w3.org/2000/svg">
<mask id="mask0_36_616" style="mask-type:luminance" maskUnits="userSpaceOnUse" x="0" y="0" width="50" height="23">
<path d="M49.1384 0.701477H0.853027V22.194H49.1384V0.701477Z" fill="white"/>
</mask>
<g mask="url(#mask0_36_616)">
<path d="M1.96303 10.7015V9.63148H3.58303V4.73148H4.20303L2.12303 5.97148V4.75148L3.95303 3.65148H4.87303V9.63148H6.39303V10.7015H1.96303ZM7.38912 10.7015V9.31148H8.78912V10.7015H7.38912ZM12.3296 10.8015C11.5029 10.8015 10.8663 10.4881 10.4196 9.86148C9.97292 9.22814 9.74959 8.32814 9.74959 7.16148C9.74959 5.98148 9.97292 5.08481 10.4196 4.47148C10.8663 3.85814 11.5029 3.55148 12.3296 3.55148C13.1629 3.55148 13.7996 3.85814 14.2396 4.47148C14.6863 5.08481 14.9096 5.97814 14.9096 7.15148C14.9096 8.32481 14.6863 9.22814 14.2396 9.86148C13.7996 10.4881 13.1629 10.8015 12.3296 10.8015ZM12.3296 9.74148C12.7829 9.74148 13.1196 9.53481 13.3396 9.12148C13.5596 8.70148 13.6696 8.04481 13.6696 7.15148C13.6696 6.25814 13.5596 5.61148 13.3396 5.21148C13.1196 4.80481 12.7829 4.60148 12.3296 4.60148C11.8829 4.60148 11.5463 4.80481 11.3196 5.21148C11.0996 5.61148 10.9896 6.25814 10.9896 7.15148C10.9896 8.04481 11.0996 8.70148 11.3196 9.12148C11.5463 9.53481 11.8829 9.74148 12.3296 9.74148ZM18.2157 10.8015C17.729 10.8015 17.2624 10.7315 16.8157 10.5915C16.369 10.4448 16.0024 10.2448 15.7157 9.99148L16.1357 9.02148C16.449 9.26148 16.7724 9.43814 17.1057 9.55148C17.4457 9.66481 17.8024 9.72148 18.1757 9.72148C18.629 9.72148 18.9724 9.63148 19.2057 9.45148C19.439 9.27148 19.5557 9.00814 19.5557 8.66148C19.5557 8.32814 19.439 8.07814 19.2057 7.91148C18.979 7.73814 18.6457 7.65148 18.2057 7.65148H17.0657V6.62148H18.0957C18.4757 6.62148 18.779 6.52814 19.0057 6.34148C19.2324 6.15481 19.3457 5.89814 19.3457 5.57148C19.3457 5.26481 19.239 5.03148 19.0257 4.87148C18.819 4.71148 18.519 4.63148 18.1257 4.63148C17.419 4.63148 16.7957 4.87148 16.2557 5.35148L15.8357 4.39148C16.1224 4.12481 16.4757 3.91814 16.8957 3.77148C17.3224 3.62481 17.769 3.55148 18.2357 3.55148C18.969 3.55148 19.5424 3.71814 19.9557 4.05148C20.3757 4.37814 20.5857 4.83481 20.5857 5.42148C20.5857 5.84148 20.4657 6.20481 20.2257 6.51148C19.9924 6.81148 19.669 7.01148 19.2557 7.11148V6.99148C19.7424 7.07148 20.119 7.27148 20.3857 7.59148C20.659 7.90481 20.7957 8.29814 20.7957 8.77148C20.7957 9.39814 20.5657 9.89481 20.1057 10.2615C19.6457 10.6215 19.0157 10.8015 18.2157 10.8015Z" fill="white"/>
</g>
</svg>
