<svg width="588" height="80" viewBox="0 0 588 80" fill="none" xmlns="http://www.w3.org/2000/svg">
<mask id="mask0_3_2406" style="mask-type:luminance" maskUnits="userSpaceOnUse" x="0" y="0" width="588" height="80">
<path d="M588 0H0V80H588V0Z" fill="white"/>
</mask>
<g mask="url(#mask0_3_2406)">
<path d="M26.496 74.152C22.4 74.152 18.304 73.384 14.208 71.848C10.176 70.312 6.56 68.072 3.36 65.128L11.424 55.432C13.664 57.352 16.16 58.92 18.912 60.136C21.664 61.352 24.32 61.96 26.88 61.96C29.824 61.96 32 61.416 33.408 60.328C34.88 59.24 35.616 57.768 35.616 55.912C35.616 53.928 34.784 52.488 33.12 51.592C31.52 50.632 29.344 49.576 26.592 48.424L18.432 44.968C16.32 44.072 14.304 42.888 12.384 41.416C10.464 39.88 8.896 37.992 7.68 35.752C6.464 33.512 5.856 30.888 5.856 27.88C5.856 24.424 6.784 21.288 8.64 18.472C10.56 15.656 13.184 13.416 16.512 11.752C19.904 10.088 23.776 9.256 28.128 9.256C31.712 9.256 35.296 9.96 38.88 11.368C42.464 12.776 45.6 14.824 48.288 17.512L41.088 26.44C39.04 24.84 36.992 23.624 34.944 22.792C32.896 21.896 30.624 21.448 28.128 21.448C25.696 21.448 23.744 21.96 22.272 22.984C20.864 23.944 20.16 25.32 20.16 27.112C20.16 29.032 21.056 30.472 22.848 31.432C24.704 32.392 26.976 33.416 29.664 34.504L37.728 37.768C41.504 39.304 44.512 41.416 46.752 44.104C48.992 46.792 50.112 50.344 50.112 54.76C50.112 58.216 49.184 61.416 47.328 64.36C45.472 67.304 42.784 69.672 39.264 71.464C35.744 73.256 31.488 74.152 26.496 74.152ZM80.8958 74.152C76.3518 74.152 72.2558 73.16 68.6078 71.176C64.9598 69.192 62.0798 66.344 59.9678 62.632C57.8558 58.92 56.7998 54.44 56.7998 49.192C56.7998 44.008 57.8558 39.56 59.9678 35.848C62.1438 32.136 64.9598 29.288 68.4158 27.304C71.8718 25.256 75.4878 24.232 79.2638 24.232C83.8078 24.232 87.5518 25.256 90.4958 27.304C93.5038 29.288 95.7438 32.008 97.2158 35.464C98.7518 38.856 99.5198 42.728 99.5198 47.08C99.5198 48.296 99.4558 49.512 99.3278 50.728C99.1998 51.88 99.0718 52.744 98.9438 53.32H70.4318C71.0718 56.776 72.5118 59.336 74.7518 61C76.9918 62.6 79.6798 63.4 82.8158 63.4C86.2078 63.4 89.6318 62.344 93.0878 60.232L97.7918 68.776C95.3598 70.44 92.6398 71.752 89.6318 72.712C86.6238 73.672 83.7118 74.152 80.8958 74.152ZM70.3358 44.008H87.5198C87.5198 41.384 86.8798 39.24 85.5998 37.576C84.3838 35.848 82.3678 34.984 79.5518 34.984C77.3758 34.984 75.4238 35.752 73.6958 37.288C71.9678 38.76 70.8478 41 70.3358 44.008ZM120.24 74.152C115.888 74.152 112.432 72.776 109.872 70.024C107.312 67.208 106.032 63.784 106.032 59.752C106.032 54.76 108.144 50.856 112.368 48.04C116.592 45.224 123.408 43.336 132.816 42.376C132.688 40.264 132.048 38.6 130.896 37.384C129.808 36.104 127.952 35.464 125.328 35.464C123.344 35.464 121.328 35.848 119.28 36.616C117.232 37.384 115.056 38.44 112.752 39.784L107.664 30.472C110.672 28.616 113.872 27.112 117.264 25.96C120.72 24.808 124.304 24.232 128.016 24.232C134.096 24.232 138.768 25.992 142.032 29.512C145.296 33.032 146.928 38.44 146.928 45.736V73H135.408L134.448 68.104H134.064C132.08 69.896 129.936 71.368 127.632 72.52C125.392 73.608 122.928 74.152 120.24 74.152ZM125.04 63.208C126.64 63.208 128.016 62.856 129.168 62.152C130.384 61.384 131.6 60.392 132.816 59.176V50.824C127.824 51.464 124.368 52.488 122.448 53.896C120.528 55.24 119.568 56.84 119.568 58.696C119.568 60.232 120.048 61.384 121.008 62.152C122.032 62.856 123.376 63.208 125.04 63.208ZM158.865 73V25.384H170.385L171.345 33.736H171.729C173.457 30.536 175.537 28.168 177.969 26.632C180.401 25.032 182.833 24.232 185.265 24.232C186.609 24.232 187.729 24.328 188.625 24.52C189.521 24.648 190.289 24.872 190.929 25.192L188.625 37.384C187.793 37.128 186.961 36.936 186.129 36.808C185.361 36.68 184.465 36.616 183.441 36.616C181.649 36.616 179.761 37.288 177.777 38.632C175.857 39.912 174.257 42.152 172.977 45.352V73H158.865ZM216.914 74.152C212.498 74.152 208.498 73.192 204.914 71.272C201.394 69.288 198.578 66.44 196.466 62.728C194.418 58.952 193.394 54.44 193.394 49.192C193.394 43.88 194.546 39.368 196.85 35.656C199.154 31.944 202.194 29.128 205.97 27.208C209.746 25.224 213.81 24.232 218.161 24.232C221.106 24.232 223.698 24.712 225.938 25.672C228.242 26.632 230.29 27.848 232.082 29.32L225.458 38.44C223.218 36.584 221.074 35.656 219.026 35.656C215.634 35.656 212.914 36.872 210.866 39.304C208.882 41.736 207.89 45.032 207.89 49.192C207.89 53.288 208.882 56.584 210.866 59.08C212.914 61.512 215.474 62.728 218.546 62.728C220.082 62.728 221.586 62.408 223.058 61.768C224.53 61.064 225.874 60.232 227.09 59.272L232.658 68.488C230.29 70.536 227.73 72.008 224.978 72.904C222.226 73.736 219.538 74.152 216.914 74.152ZM240.99 73V5.704H255.102V22.216L254.43 30.76C256.222 29.16 258.302 27.688 260.67 26.344C263.102 24.936 265.918 24.232 269.118 24.232C274.302 24.232 278.046 25.96 280.35 29.416C282.718 32.808 283.902 37.48 283.902 43.432V73H269.79V45.256C269.79 41.8 269.31 39.432 268.35 38.152C267.454 36.872 265.982 36.232 263.934 36.232C262.142 36.232 260.606 36.648 259.326 37.48C258.046 38.248 256.638 39.368 255.102 40.84V73H240.99ZM317.453 73V36.424H311.117V25.96L317.453 25.48V22.888C317.453 19.496 318.029 16.424 319.181 13.672C320.333 10.92 322.189 8.712 324.749 7.048C327.309 5.384 330.733 4.55199 335.021 4.55199C337.005 4.55199 338.829 4.744 340.493 5.128C342.157 5.512 343.501 5.896 344.525 6.27999L341.933 16.648C341.101 16.328 340.269 16.104 339.437 15.976C338.605 15.784 337.805 15.688 337.036 15.688C335.309 15.688 333.965 16.232 333.005 17.32C332.045 18.344 331.565 20.072 331.565 22.504V25.384H340.109V36.424H331.565V73H317.453ZM367.282 74.152C363.25 74.152 359.442 73.192 355.858 71.272C352.338 69.288 349.49 66.44 347.314 62.728C345.138 58.952 344.05 54.44 344.05 49.192C344.05 43.88 345.138 39.368 347.314 35.656C349.49 31.944 352.338 29.128 355.858 27.208C359.442 25.224 363.25 24.232 367.282 24.232C371.314 24.232 375.09 25.224 378.61 27.208C382.13 29.128 384.978 31.944 387.154 35.656C389.33 39.368 390.418 43.88 390.418 49.192C390.418 54.44 389.33 58.952 387.154 62.728C384.978 66.44 382.13 69.288 378.61 71.272C375.09 73.192 371.314 74.152 367.282 74.152ZM367.282 62.728C370.162 62.728 372.338 61.512 373.81 59.08C375.282 56.584 376.018 53.288 376.018 49.192C376.018 45.032 375.282 41.736 373.81 39.304C372.338 36.872 370.162 35.656 367.282 35.656C364.338 35.656 362.13 36.872 360.658 39.304C359.25 41.736 358.546 45.032 358.546 49.192C358.546 53.288 359.25 56.584 360.658 59.08C362.13 61.512 364.338 62.728 367.282 62.728ZM400.084 73V25.384H411.604L412.564 33.736H412.948C414.676 30.536 416.756 28.168 419.188 26.632C421.62 25.032 424.052 24.232 426.484 24.232C427.828 24.232 428.948 24.328 429.844 24.52C430.74 24.648 431.508 24.872 432.148 25.192L429.844 37.384C429.012 37.128 428.18 36.936 427.348 36.808C426.58 36.68 425.684 36.616 424.66 36.616C422.868 36.616 420.98 37.288 418.996 38.632C417.076 39.912 415.476 42.152 414.196 45.352V73H400.084Z" fill="white"/>
</g>
</svg>
