<svg width="144" height="62" viewBox="0 0 144 62" fill="none" xmlns="http://www.w3.org/2000/svg">
<g filter="url(#filter0_d_36_882)">
<path d="M137.5 0.5H6.5C3.18629 0.5 0.5 3.18629 0.5 6.5V55.5C0.5 58.8137 3.18629 61.5 6.5 61.5H137.5C140.814 61.5 143.5 58.8137 143.5 55.5V6.5C143.5 3.18629 140.814 0.5 137.5 0.5Z" fill="#202312"/>
<path d="M137.5 0.5H6.5C3.18629 0.5 0.5 3.18629 0.5 6.5V55.5C0.5 58.8137 3.18629 61.5 6.5 61.5H137.5C140.814 61.5 143.5 58.8137 143.5 55.5V6.5C143.5 3.18629 140.814 0.5 137.5 0.5Z" stroke="#91909F"/>
</g>
<defs>
<filter id="filter0_d_36_882" x="0" y="0" width="144" height="62" filterUnits="userSpaceOnUse" color-interpolation-filters="sRGB">
<feFlood flood-opacity="0" result="BackgroundImageFix"/>
<feColorMatrix in="SourceAlpha" type="matrix" values="0 0 0 0 0 0 0 0 0 0 0 0 0 0 0 0 0 0 127 0" result="hardAlpha"/>
<feOffset/>
<feComposite in2="hardAlpha" operator="out"/>
<feColorMatrix type="matrix" values="0 0 0 0 0 0 0 0 0 0 0 0 0 0 0 0 0 0 0.08 0"/>
<feBlend mode="normal" in2="BackgroundImageFix" result="effect1_dropShadow_36_882"/>
<feBlend mode="normal" in="SourceGraphic" in2="effect1_dropShadow_36_882" result="shape"/>
</filter>
</defs>
</svg>
